
<svg version="1.1" id="Layer_1" xmlns="http://www.w3.org/2000/svg" xmlns:xlink="http://www.w3.org/1999/xlink" x="0px" y="0px"
	 viewBox="0 0 64 64" style="enable-background:new 0 0 64 64;" xml:space="preserve">
    <path d="M13 4.055c-1.652 0-3 1.347-3 3V8.09C7.168 8.57 5 11.03 5 14c0 2.969 2.168 5.43 5 5.91v.797c-.742.098-1.48.246-2.203.453a10.948 10.948 0 00-5.57 3.707A10.203 10.203 0 000 31.215V40.5a3.504 3.504 0 004.875 3.219l-.73 16.097a3.958 3.958 0 001.105 2.95A3.962 3.962 0 008.148 64 4 4 0 0012 61.074 4.003 4.003 0 0015.86 64a3.966 3.966 0 002.894-1.234 3.989 3.989 0 001.105-2.95l-.625-13.757H61c1.652 0 3-1.348 3-3v-2a3.001 3.001 0 00-2-2.829V7.055c0-1.653-1.348-3-3-3zm0 2h46c.55 0 1 .449 1 1v31.004H30a1 1 0 100 2h31a1 1 0 011 1v2c0 .55-.45 1-1 1H19.14L19 40.977v-9.473l.906.613A10.99 10.99 0 0026.06 34h4.289c1.5 0 2.902-.883 3.425-2.285.383-1.024.247-1.969-.148-2.762l10.05-9.219a1 1 0 10-1.35-1.472l-10.067 9.226A3.492 3.492 0 0030.5 27h-2.98a3.993 3.993 0 01-2.348-.762l-3.184-2.304a17.825 17.825 0 00-5.562-2.711l-.219-.063A15.405 15.405 0 0012 20.574v-.664A6 6 0 0017 14c0-.762-.145-1.488-.406-2.156a.984.984 0 00.406-.785V9.055a1 1 0 10-2 0v.484a5.974 5.974 0 00-3-1.45V7.056c0-.551.45-1 1-1zm8 2a1 1 0 00-1 1v2.004a1 1 0 102 0V9.055a1 1 0 00-1-1zm5 0a1 1 0 00-1 1v2.004a1 1 0 102 0V9.055a1 1 0 00-1-1zm5 0a1 1 0 00-1 1v2.004a1 1 0 102 0V9.055a1 1 0 00-1-1zm5 0a1 1 0 00-1 1v2.004a1 1 0 102 0V9.055a1 1 0 00-1-1zm5 0a1 1 0 00-1 1v2.004a1 1 0 102 0V9.055a1 1 0 00-1-1zm5 0a1 1 0 00-1 1v2.004a1 1 0 102 0V9.055a1 1 0 00-1-1zm5 0a1 1 0 00-1 1v2.004a1 1 0 102 0V9.055a1 1 0 00-1-1zm5 0a1 1 0 00-1 1v2.004a1 1 0 102 0V9.055a1 1 0 00-1-1zM11 9.707A4.298 4.298 0 0115.293 14 4.298 4.298 0 0111 18.293 4.298 4.298 0 016.707 14 4.298 4.298 0 0111 9.707zm1 12.867c1.23 0 2.46.168 3.656.512l.406.113a14.764 14.764 0 014.594 2.238L24 27.86A6.027 6.027 0 0027.52 29h2.98c.035 0 .066.008.098.012l-.274.254A1 1 0 0031 31a.98.98 0 00.676-.266l.32-.289c0 .02.004.035.004.055a1.5 1.5 0 01-1.5 1.5h-4.438a8.986 8.986 0 01-5.035-1.54l-2.465-1.663a1 1 0 00-1.562.828v11.422l.86 18.86a1.996 1.996 0 01-.551 1.472 1.994 1.994 0 01-1.625.613c-1.02-.082-1.782-.98-1.832-1.996L13 42.95A1.003 1.003 0 0012 42c-.531 0-.973.418-1 .95l-.848 17.019c-.054 1.015-.8 1.926-1.816 2.02a1.983 1.983 0 01-1.64-.606 1.984 1.984 0 01-.555-1.473L7 41V29.668a1 1 0 10-2 0V40.5a1.5 1.5 0 01-3 0v-9.031c0-1.973.613-3.922 1.863-5.446a8.932 8.932 0 014.48-2.937A13.222 13.222 0 0112 22.574zM22 38.06a1 1 0 100 2h4a1 1 0 100-2z"/>    

</svg>