<?xml version="1.0" encoding="UTF-8"?>
<svg xmlns="http://www.w3.org/2000/svg" width="512" height="512" viewBox="0 0 512 512"><g><path d="M104,64H93.13a32,32,0,1,0-42.26,0H40A32.03,32.03,0,0,0,8,96v52a20.02,20.02,0,0,0,20,20h4v68a20.02,20.02,0,0,0,20,20H92a20.02,20.02,0,0,0,20-20V168h4a20.02,20.02,0,0,0,20-20V96A32.03,32.03,0,0,0,104,64ZM72,24A16,16,0,1,1,56,40,16.021,16.021,0,0,1,72,24Zm48,124a4,4,0,0,1-4,4h-4V120a8,8,0,0,0-16,0V236a4,4,0,0,1-4,4H80V176a8,8,0,0,0-16,0v64H52a4,4,0,0,1-4-4V120a8,8,0,0,0-16,0v32H28a4,4,0,0,1-4-4V96A16.021,16.021,0,0,1,40,80h64a16.021,16.021,0,0,1,16,16Z"/><path d="M184,312H173.13a32,32,0,1,0-42.26,0H120a32.036,32.036,0,0,0-32,32v52a20.02,20.02,0,0,0,20,20h4v68a20.02,20.02,0,0,0,20,20h40a20.02,20.02,0,0,0,20-20V416h4a20.02,20.02,0,0,0,20-20V344A32.036,32.036,0,0,0,184,312Zm-32-40a16,16,0,1,1-16,16A16.021,16.021,0,0,1,152,272Zm48,124a4,4,0,0,1-4,4h-4V368a8,8,0,0,0-16,0V484a4,4,0,0,1-4,4H160V424a8,8,0,0,0-16,0v64H132a4,4,0,0,1-4-4V368a8,8,0,0,0-16,0v32h-4a4,4,0,0,1-4-4V344a16.021,16.021,0,0,1,16-16h64a16.021,16.021,0,0,1,16,16Z"/><path d="M392,312H381.13a32,32,0,1,0-42.26,0H328a32.036,32.036,0,0,0-32,32v52a20.02,20.02,0,0,0,20,20h4v68a20.02,20.02,0,0,0,20,20h40a20.02,20.02,0,0,0,20-20V416h4a20.02,20.02,0,0,0,20-20V344A32.036,32.036,0,0,0,392,312Zm-32-40a16,16,0,1,1-16,16A16.021,16.021,0,0,1,360,272Zm48,124a4,4,0,0,1-4,4h-4V368a8,8,0,0,0-16,0V484a4,4,0,0,1-4,4H368V424a8,8,0,0,0-16,0v64H340a4,4,0,0,1-4-4V368a8,8,0,0,0-16,0v32h-4a4,4,0,0,1-4-4V344a16.021,16.021,0,0,1,16-16h64a16.021,16.021,0,0,1,16,16Z"/><path d="M288,64H277.13a32,32,0,1,0-42.26,0H224a32.03,32.03,0,0,0-32,32v52a20.02,20.02,0,0,0,20,20h4v68a20.02,20.02,0,0,0,20,20h40a20.02,20.02,0,0,0,20-20V168h4a20.02,20.02,0,0,0,20-20V96A32.03,32.03,0,0,0,288,64ZM256,24a16,16,0,1,1-16,16A16.021,16.021,0,0,1,256,24Zm48,124a4,4,0,0,1-4,4h-4V120a8,8,0,0,0-16,0V236a4,4,0,0,1-4,4H264V176a8,8,0,0,0-16,0v64H236a4,4,0,0,1-4-4V120a8,8,0,0,0-16,0v32h-4a4,4,0,0,1-4-4V96a16.021,16.021,0,0,1,16-16h64a16.021,16.021,0,0,1,16,16Z"/><path d="M472,64H461.13a32,32,0,1,0-42.26,0H408a32.03,32.03,0,0,0-32,32v52a20.02,20.02,0,0,0,20,20h4v68a20.02,20.02,0,0,0,20,20h40a20.02,20.02,0,0,0,20-20V168h4a20.02,20.02,0,0,0,20-20V96A32.03,32.03,0,0,0,472,64ZM440,24a16,16,0,1,1-16,16A16.021,16.021,0,0,1,440,24Zm48,124a4,4,0,0,1-4,4h-4V120a8,8,0,0,0-16,0V236a4,4,0,0,1-4,4H448V176a8,8,0,0,0-16,0v64H420a4,4,0,0,1-4-4V120a8,8,0,0,0-16,0v32h-4a4,4,0,0,1-4-4V96a16.021,16.021,0,0,1,16-16h64a16.021,16.021,0,0,1,16,16Z"/></g></svg>
