
<svg version="1.1" id="Layer_1" xmlns="http://www.w3.org/2000/svg" xmlns:xlink="http://www.w3.org/1999/xlink" x="0px" y="0px"
	 viewBox="0 0 64 64" style="enable-background:new 0 0 64 64;" xml:space="preserve">
    <path d="M18 4c-3.3 0-6 2.7-6 6s2.7 6 6 6 6-2.7 6-6-2.7-6-6-6zm30 0c-3.3 0-6 2.7-6 6s2.7 6 6 6 6-2.7 6-6-2.7-6-6-6zM18 5.8c2.3 0 4.2 1.9 4.2 4.2s-1.9 4.2-4.2 4.2-4.2-1.9-4.2-4.2 1.9-4.2 4.2-4.2zm30 0c2.3 0 4.2 1.9 4.2 4.2s-1.9 4.2-4.2 4.2-4.2-1.9-4.2-4.2 1.9-4.2 4.2-4.2zM28 8c-.6 0-1 .4-1 1v2c0 .6.4 1 1 1s1-.4 1-1V9c0-.6-.4-1-1-1zm5 0c-.6 0-1 .4-1 1v2c0 .6.4 1 1 1s1-.4 1-1V9c0-.6-.4-1-1-1zm5 0c-.6 0-1 .4-1 1v2c0 .6.4 1 1 1s1-.4 1-1V9c0-.6-.4-1-1-1zm10.1 8.4c-4.9 0-9.4 3.2-11.1 7.9l-.3.7c-.3.8-.8 1.5-1.6 2l-1.6 1.1-2.9-1.4c-.7-.3-1.2-.9-1.6-1.5l-1.6-2.6c-2.7-4.5-7.9-7-13-5.9-.3.1-.6.1-.9.2l-.4.1c-2.4.7-4.5 2.2-5.9 4.2l-1.8 2.5c-.9 1.3-1.2 3-.7 4.5l1.7 5c.5 1.6 2 2.7 3.6 2.7v.9l-1.9 19c-.1 1.1.3 2.1 1.1 2.9.8.9 1.8 1.3 2.9 1.3 1.8 0 3.4-1.2 3.9-2.9.5 1.7 2 2.9 3.9 2.9 1.1 0 2.1-.4 2.9-1.2.8-.8 1.2-1.8 1.1-2.9L24 37v-6c1.2 1.3 2.8 2.4 4.5 2.9l2.9 1c.6.2 1.3.2 1.9.1 1 .4 2.1.4 3.1-.2l1.9-1.1c1-.6 1.9-1.3 2.7-2.1V37l-.8 18.7c0 1 .2 1.9.8 2.7.8 1 1.9 1.6 3.2 1.6 1.8 0 3.4-1.2 3.9-2.9.5 1.7 2 2.9 3.9 2.9 1.3 0 2.4-.6 3.2-1.6.6-.8.8-1.7.8-2.7l-.7-16c.6.2 1.2.3 1.9.2 1.7-.3 2.9-1.8 2.9-3.6v-8.8c0-2.4-.7-4.8-2.3-6.7-1.4-1.8-3.3-3-5.5-3.6l-1.1-.3c-.3-.1-.6-.2-.9-.2-.8-.2-1.5-.3-2.2-.3zm-.1 2c.6 0 1.2.1 1.7.2.3.1.5.1.8.2l1.1.3c1.8.5 3.4 1.6 4.6 3 1.2 1.5 1.8 3.4 1.8 5.4v9c0 .8-.7 1.5-1.5 1.5s-1.5-.7-1.5-1.5V25.7c0-.6-.4-1-1-1s-1 .4-1 1v10.9l.9 19.3c0 .6-.2 1.1-.6 1.5-.4.4-1 .7-1.6.6-1-.1-1.8-1-1.8-2L49 39c0-.5-.5-.9-1-.9s-1 .4-1 .9l-.8 17c-.1 1-.8 1.9-1.8 2-.6.1-1.2-.2-1.6-.6-.4-.4-.6-.9-.6-1.5L43 37V25.6c0-.6-.4-1-1-1s-1 .4-1 1v2.5c-.1.1-.1.1-.1.2-.9 1.4-1.9 2.7-3.4 3.6l-1.8 1c.2-.4.3-.9.3-1.3 0-.8-.3-1.5-.7-2.1l1-.7c1.1-.7 1.9-1.8 2.4-3l.3-.8c1.3-3.9 5-6.6 9-6.6zm-31.5.1c3.7-.1 7.2 1.9 9.2 5.2l1.6 2.6c.6 1 1.4 1.8 2.5 2.2l3.4 1.7c.5.2.8.8.8 1.3s-.2.9-.6 1.2c-.4.3-.9.4-1.4.3l-2.9-1c-1.7-.6-3.1-1.6-4.2-3l-3.1-4c-.3-.4-1-.5-1.4-.2-.4.3-.5 1-.2 1.4l1.8 2.3V37l-.1 18.9c0 .6-.2 1.1-.6 1.5-.4.4-.9.6-1.5.6-1.1 0-1.9-.8-2-1.8L18 39c0-.5-.4-1-.9-1s-1 .4-1.1.9l-1.9 17.2c-.1 1.1-.9 1.9-2 1.9-.6 0-1.1-.2-1.4-.6-.4-.4-.6-.9-.6-1.4L12 37V25.7c0-.6-.4-1-1-1s-1 .4-1 1V34c-.8-.1-1.5-.6-1.7-1.3l-1.7-5c-.3-.9-.2-1.9.4-2.7l1.8-2.5c1.2-1.7 2.9-2.9 4.9-3.4l.4-.1c.3-.1.6-.2.9-.2.4-.2.9-.3 1.5-.3z"/>
</svg>