
<svg version="1.1" id="Layer_1" xmlns="http://www.w3.org/2000/svg" xmlns:xlink="http://www.w3.org/1999/xlink" x="0px" y="0px"
	 viewBox="0 0 64 64" style="enable-background:new 0 0 64 64;" xml:space="preserve">
     <path d="M13 4c-1.652 0-3 1.348-3 3v45H6c-1.102 0-2 .898-2 2v2c0 2.207 1.793 4 4 4h48c2.207 0 4-1.793 4-4V7c0-1.652-1.348-3-3-3zm0 2h44c.55 0 1 .45 1 1v49c0 1.102-.898 2-2 2-1.102 0-2-.898-2-2v-2c0-1.102-.898-2-2-2H12V7c0-.55.45-1 1-1zm7 9a1.999 1.999 0 100 4 1.999 1.999 0 100-4zm6 1c-.55 0-1 .45-1 1s.45 1 1 1h12c.55 0 1-.45 1-1s-.45-1-1-1zm16 0c-.55 0-1 .45-1 1s.45 1 1 1h4c.55 0 1-.45 1-1s-.45-1-1-1zm-16 4c-.55 0-1 .45-1 1s.45 1 1 1h17c.55 0 1-.45 1-1s-.45-1-1-1zm-6 5a1.999 1.999 0 100 4 1.999 1.999 0 100-4zm6 1c-.55 0-1 .45-1 1s.45 1 1 1h24c.55 0 1-.45 1-1s-.45-1-1-1zm0 4c-.55 0-1 .45-1 1s.45 1 1 1h20c.55 0 1-.45 1-1s-.45-1-1-1zm-6 5a1.999 1.999 0 100 4 1.999 1.999 0 100-4zm6 1c-.55 0-1 .45-1 1s.45 1 1 1h8c.55 0 1-.45 1-1s-.45-1-1-1zm12 0c-.55 0-1 .45-1 1s.45 1 1 1h9c.55 0 1-.45 1-1s-.45-1-1-1zM15 46c-.55 0-1 .45-1 1v2c0 .55.45 1 1 1s1-.45 1-1v-2c0-.55-.45-1-1-1zm5 0c-.55 0-1 .45-1 1v2c0 .55.45 1 1 1s1-.45 1-1v-2c0-.55-.45-1-1-1zm5 0c-.55 0-1 .45-1 1v2c0 .55.45 1 1 1s1-.45 1-1v-2c0-.55-.45-1-1-1zm5 0c-.55 0-1 .45-1 1v2c0 .55.45 1 1 1s1-.45 1-1v-2c0-.55-.45-1-1-1zm5 0c-.55 0-1 .45-1 1v2c0 .55.45 1 1 1s1-.45 1-1v-2c0-.55-.45-1-1-1zm5 0c-.55 0-1 .45-1 1v2c0 .55.45 1 1 1s1-.45 1-1v-2c0-.55-.45-1-1-1zm5 0c-.55 0-1 .45-1 1v2c0 .55.45 1 1 1s1-.45 1-1v-2c0-.55-.45-1-1-1zm5 0c-.55 0-1 .45-1 1v2c0 .55.45 1 1 1s1-.45 1-1v-2c0-.55-.45-1-1-1zm5 0c-.55 0-1 .45-1 1v2c0 .55.45 1 1 1s1-.45 1-1v-2c0-.55-.45-1-1-1zM6 54h46v2c0 .73.21 1.41.559 2H8c-1.102 0-2-.898-2-2z"/>
</svg>