<svg id="Capa_1" enable-background="new 0 0 512 512" height="512" viewBox="0 0 512 512" width="512" xmlns="http://www.w3.org/2000/svg"><g><path d="m492.105 438.336-31.586-10.806c3.825-6.561 6.029-14.178 6.029-22.305l-.004-60.829c0-19.252-15.663-34.914-34.914-34.914h-25.133c-19.251 0-34.914 15.662-34.914 34.914l.002 60.829c0 8.127 2.203 15.744 6.027 22.305l-31.59 10.805c-3.109 1.061-5.961 2.612-8.494 4.578-2.537-1.966-5.388-3.517-8.49-4.576l-31.586-10.806c3.825-6.561 6.029-14.178 6.029-22.305l-.001-60.829c0-19.252-15.663-34.914-34.914-34.914h-25.133c-19.251 0-34.914 15.662-34.914 34.914l-.001 60.829c0 8.127 2.203 15.744 6.029 22.305l-31.582 10.805c-3.128 1.068-5.976 2.639-8.49 4.587-2.54-1.971-5.395-3.525-8.502-4.586l-31.585-10.806c3.825-6.561 6.027-14.178 6.027-22.305v-60.826c0-17.36-12.949-32.225-30.121-34.577-4.097-.559-7.884 2.308-8.445 6.411-.561 4.102 2.309 7.883 6.411 8.445 9.783 1.34 17.161 9.818 17.161 19.721v17.453h-11.596c-1.692 0-3.263-.908-4.1-2.367l-7.117-12.425c-1.179-2.058-3.262-3.437-5.618-3.718-2.347-.277-4.703.569-6.334 2.293l-10.982 11.612c-2.762 2.927-6.658 4.605-10.69 4.605h-8.537v-17.453c0-9.911 7.379-18.388 17.165-19.72 4.103-.558 6.976-4.337 6.417-8.44-.558-4.103-4.343-6.97-8.44-6.417-17.181 2.338-30.137 17.204-30.137 34.578v60.826c0 8.127 2.203 15.744 6.029 22.305l-31.582 10.805c-11.902 4.062-19.899 15.249-19.899 27.834v37.755c0 4.14 3.356 7.497 7.497 7.497h395.226c4.141 0 7.497-3.357 7.497-7.497s-3.356-7.497-7.497-7.497h-53.79v-30.258c0-3.934-.79-7.771-2.29-11.35 1.256-.988 41.481-15.041 41.481-15.041 16.558 13.393 45.386 13.337 61.879 0l37.251 12.744c5.832 1.992 9.75 7.477 9.75 13.648v30.258h-61.604c-4.141 0-7.497 3.357-7.497 7.497s3.356 7.497 7.497 7.497h69.103c4.141 0 7.497-3.357 7.497-7.497v-37.755c0-12.586-7.997-23.773-19.895-27.836zm-431.659-61.491h8.537c8.142 0 16.013-3.393 21.59-9.303l4.04-4.272 2.103 3.671c3.505 6.109 10.061 9.904 17.109 9.904h11.596v28.379c0 39.172-64.975 39.169-64.975 0zm102.62 89.326v30.258h-148.072v-30.258c0-6.171 3.918-11.655 9.754-13.648l37.247-12.743c16.558 13.391 45.386 13.34 61.879.001 0 0 40.213 14.051 41.473 15.039-1.474 3.523-2.281 7.365-2.281 11.351zm60.448-121.776c0-10.984 8.936-19.92 19.92-19.92h25.133c10.984 0 19.92 8.936 19.92 19.92v17.457h-11.601c-1.687 0-3.255-.909-4.094-2.372l-7.123-12.425c-2.544-4.436-8.567-5.003-11.953-1.42l-10.969 11.607c-2.768 2.93-6.667 4.61-10.698 4.61h-8.534v-17.457zm-.001 32.451h8.535c10.238 0 19.515-5.692 25.633-13.577 3.538 7.254 10.703 13.577 19.205 13.577h11.602v28.379c0 39.17-64.975 39.17-64.975 0zm-45.452 89.325c0-6.167 3.915-11.654 9.754-13.648l37.247-12.743c16.559 13.391 45.382 13.339 61.876 0l37.252 12.744c6.184 2.483 9.434 7.032 9.749 13.647v30.258h-155.878zm208.516-121.776c0-10.984 8.936-19.92 19.92-19.92h25.133c10.984 0 19.92 8.936 19.92 19.92v17.457h-11.601c-1.687 0-3.255-.909-4.094-2.372l-7.123-12.425c-2.544-4.435-8.568-5.003-11.953-1.42l-10.967 11.606c-2.769 2.93-6.669 4.611-10.7 4.611h-8.534v-17.457zm64.977 60.829c0 39.169-64.975 39.172-64.975 0v-28.379h8.532c10.238 0 19.516-5.692 25.633-13.577 3.538 7.254 10.703 13.577 19.205 13.577h11.605z"/><path d="m92.936 294.246c4.141 0 7.497-3.357 7.497-7.497v-23.264h148.069v23.554c0 4.14 3.356 7.497 7.497 7.497s7.497-3.357 7.497-7.497v-23.554h148.069v23.554c0 4.14 3.356 7.497 7.497 7.497s7.497-3.357 7.497-7.497v-31.051c0-4.14-3.356-7.497-7.497-7.497h-155.565v-16.199h34.097c4.141 0 7.497-3.357 7.497-7.497s-3.356-7.497-7.497-7.497h-133.138v-36.276c0-7.663 4.866-14.473 12.113-16.947l43.796-14.985c18.93 15.723 52.413 15.661 71.27 0l43.782 14.98c7.151 2.545 11.798 9.305 12.128 16.952v36.276h-17.274c-4.141 0-7.497 3.357-7.497 7.497s3.356 7.497 7.497 7.497h24.771c4.141 0 7.497-3.357 7.497-7.497v-43.773c0-13.23-9.766-26.833-22.251-31.133l-38.012-13.006c4.794-7.702 7.573-16.783 7.573-26.503l-.002-70.522c0-21.659-17.621-39.28-39.28-39.28h-29.135c-21.659 0-39.28 17.621-39.28 39.28l-.002 70.522c0 9.721 2.779 18.801 7.573 26.504l-38.004 13.003c-13.314 4.545-22.259 17.058-22.259 31.135v43.773c0 4.14 3.356 7.497 7.497 7.497h91.544v16.199h-155.565c-4.141 0-7.497 3.357-7.497 7.497v30.761c0 4.14 3.357 7.497 7.497 7.497zm124.211-254.389c0-13.391 10.894-24.286 24.285-24.286h29.135c13.391 0 24.285 10.895 24.285 24.286v21.43h-14.642c-2.382 0-4.597-1.283-5.781-3.349l-8.259-14.404c-2.544-4.436-8.567-5.003-11.953-1.42l-12.716 13.455c-3.434 3.634-8.271 5.718-13.27 5.718h-11.086v-21.43zm-.002 36.424h11.087c12.029 0 22.93-7.185 29.951-16.533 3.738 8.929 11.758 16.533 22.028 16.533h14.644v34.098c0 46.962-77.71 46.962-77.71 0z"/></g></svg>