<svg width="900" height="500" xmlns="http://www.w3.org/2000/svg" enable-background="new 0 0 1920 350">
 <clipPath id="a">
  <path id="svg_1" d="m1142.1,89.7l-0.2,-22.3l21.5,-12.3l0,22.4l-21.3,12.2z"/>
 </clipPath>

 <clipPath id="b">
  <path id="svg_2" d="m1094.6,93.5l-0.2,-22.3l21.4,-12.3l0,22.3l-21.2,12.3z"/>
 </clipPath>
 <clipPath id="c">
  <circle id="svg_3" r="146.5" cy="95.7" cx="1773.5"/>
 </clipPath>
 <g>
  <title>Layer 1</title>
  <g id="svg_4" opacity="0.49" fill="none" stroke="#fff" stroke-width="2" stroke-linecap="round" stroke-linejoin="round" stroke-miterlimit="10">
   <circle id="svg_5" r="4.1" cy="139.1" cx="30"/>
   <path id="svg_6" d="m309.2,416.1c0,2.3 -1.8,4.1 -4.1,4.1s-4.1,-1.8 -4.1,-4.1s1.8,-4.1 4.1,-4.1c2.2,0.1 4.1,1.9 4.1,4.1z"/>
   <path id="svg_7" d="m181.6,214.6c0,2.3 -1.8,4.1 -4.1,4.1s-4.1,-1.8 -4.1,-4.1s1.8,-4.1 4.1,-4.1s4.1,1.8 4.1,4.1z"/>
   <path id="svg_8" d="m-105.2,347.5c0,2.3 -1.8,4.1 -4.1,4.1s-4.1,-1.8 -4.1,-4.1s1.8,-4.1 4.1,-4.1s4.1,1.8 4.1,4.1z"/>
   <path id="svg_9" d="m-63.9,227.9c0,2.3 -1.8,4.1 -4.1,4.1s-4.1,-1.8 -4.1,-4.1s1.8,-4.1 4.1,-4.1c2.3,0.1 4.1,1.9 4.1,4.1z"/>
   <path id="svg_10" d="m257.7,174l0,7.2"/>
   <path id="svg_11" d="m261.3,177.6l-7.1,0"/>
   <path id="svg_12" d="m557.8,412.6l0,7.1"/>
   <path id="svg_13" d="m561.3,416.1l-7.1,0"/>
   <path id="svg_14" d="m54.5,348l0,7.1"/>
   <path id="svg_15" d="m58.1,351.5l-7.2,0"/>
   <path id="svg_16" d="m419.1,497.9l0,7.1"/>
   <path id="svg_17" d="m422.7,501.4l-7.1,0"/>
   <path id="svg_18" d="m397.6,497.9l0,7.1"/>
   <path id="svg_19" d="m401.1,501.4l-7.1,0"/>
   <path id="svg_20" d="m376,497.9l0,7.1"/>
   <path id="svg_21" d="m379.6,501.4l-7.2,0"/>
   <path id="svg_22" d="m-63.9,178.9l0,7.1"/>
   <path id="svg_23" d="m-60.3,182.4l-7.2,0"/>
   <path id="svg_24" d="m-85.4,178.9l0,7.1"/>
   <path id="svg_25" d="m-81.9,182.4l-7.1,0"/>
   <path id="svg_26" d="m-107,178.9l0,7.1"/>
   <path id="svg_27" d="m-103.4,182.4l-7.2,0"/>
   <path id="svg_28" d="m139.3,327.4l5.5,-9.7l-11.1,0l5.6,9.7z"/>
   <path id="svg_29" d="m404.7,181.2l-5.6,9.6l11.1,0l-5.5,-9.6z"/>
   <path id="svg_30" d="m130.7,472.9c2.4,-2.4 6.7,1.8 9.1,-0.6s-1.8,-6.7 0.6,-9.1s6.7,1.8 9.1,-0.6s-1.8,-6.7 0.6,-9.1s6.7,1.8 9.1,-0.6s-1.8,-6.7 0.6,-9.1s6.7,1.8 9.1,-0.6"/>
   <path id="svg_31" d="m341.4,453.2c2.4,-2.4 6.7,1.8 9.1,-0.6s-1.8,-6.7 0.6,-9.1s6.7,1.8 9.1,-0.6s-1.8,-6.7 0.6,-9.1s6.7,1.8 9.1,-0.6s-1.8,-6.7 0.6,-9.1s6.7,1.8 9.1,-0.6"/>
   <path id="svg_32" d="m353.4,178.7c2.4,-2.4 6.7,1.8 9.1,-0.6s-1.8,-6.7 0.6,-9.1s6.7,1.8 9.1,-0.6s-1.8,-6.7 0.6,-9.1s6.7,1.8 9.1,-0.6s-1.8,-6.7 0.6,-9.1s6.7,1.8 9.1,-0.6"/>
  </g>
  <path id="svg_33" fill="#fed22c" d="m577.1,282.4s-51.3,15.4 -48.3,48.9l278.5,163.7l143.5,0l-373.7,-212.6z"/>
  <path id="svg_34" fill="#ffe9e3" d="m549.4,356.6s76,-43 84,-46.6c7.9,-3.7 16.6,-4 19.6,1.2c0,0 7.2,-5.2 15.1,-1.2s8.7,8.7 8.7,8.7s7,-2.5 11.7,2.7c4.8,5.2 4.5,13 4.5,13s11.5,3 9,19.5l-6.3,-3.6s-60.7,39.1 -70,44.4s-17.5,6.3 -20.2,3.7l-6.6,3.6c0.4,0.1 -56.2,-9.8 -49.5,-45.4z"/>
  <path id="svg_35" fill="#ffa784" d="m638.4,319.7c2.2,-1.9 4.5,-3.4 7,-4.8c2.4,-1.3 4.9,-2.7 7.6,-3.6c-2.1,1.9 -4.5,3.4 -7,4.8c-2.3,1.4 -4.9,2.7 -7.6,3.6z"/>
  <path id="svg_36" fill="#ffa784" d="m654.3,329.9c3.4,-2.5 7,-4.8 10.8,-6.7c1.9,-0.9 3.7,-1.9 5.8,-2.7c1.9,-0.7 4,-1.5 6.1,-1.8c-1.9,0.9 -3.7,1.8 -5.7,2.8l-5.5,2.8c-3.8,2 -7.6,4 -11.5,5.6z"/>
  <path id="svg_37" fill="#ffa784" d="m669.3,342.4c1.6,-1.5 3.3,-2.8 5.2,-4c1.8,-1.2 3.7,-2.2 5.8,-3s4.2,-1.5 6.4,-1.6c2.2,-0.3 4.5,0 6.4,0.7c-2.1,-0.3 -4.3,-0.1 -6.3,0.3c-2.1,0.4 -4,1 -6,1.9c-1.9,0.7 -3.9,1.6 -5.8,2.7c-1.9,0.9 -3.9,1.9 -5.7,3z"/>
  <path id="svg_38" fill="#e62a7d" d="m303.7,494.9l245.7,-138.2s42,10.5 50.1,46.6l-153.2,91.6l-142.6,0z"/>
  <path id="svg_39" opacity="0.68" fill="#06967e" d="m130.1,146.4l373.9,220.6s-61.3,18.6 -50.8,55.5l-460,-290.3l136.9,14.2z"/>
  <path id="svg_40" fill="#ffd0c0" d="m510,453.9l-58.2,-32.4s-14.2,-26.5 3.7,-41.5c18,-15 48.6,-13 48.6,-13s70.5,41.7 75.7,45.4s4.9,8.4 4.2,17.2c-0.7,8.7 -6.7,17.2 -16.9,10.5c0,0 -1,12.7 -2.2,16.9s-7.9,11.4 -16.5,4.9c0,0 1.5,12.1 -7.9,12c-9.4,-0.3 -11.5,-7.9 -11.5,-7.9s-3.1,7.2 -12.3,4.2c-9.6,-3.1 -6.7,-16.3 -6.7,-16.3z"/>
  <path id="svg_41" fill="#ea8865" d="m508.6,431c3.7,1.3 7.3,2.8 10.9,4.5c1.8,0.7 3.6,1.8 5.2,2.7c0.9,0.4 1.6,1 2.5,1.6c0.4,0.3 0.9,0.6 1.2,0.9c0.1,0.1 0.4,0.3 0.6,0.6s0.4,0.4 0.4,0.7c0.9,2.1 0.9,4 1,6.1c0,1.9 0,4 -0.3,6c-0.4,3.9 -1,7.8 -1.8,11.7c0.1,-1.9 0.3,-3.9 0.4,-5.8s0.3,-3.9 0.3,-5.8s0.1,-3.9 0,-5.8s-0.1,-3.9 -0.9,-5.5c-0.1,-0.1 -0.1,-0.3 -0.3,-0.4c-0.1,-0.1 -0.3,-0.3 -0.4,-0.4c-0.3,-0.3 -0.7,-0.6 -1,-0.9c-0.7,-0.6 -1.6,-1 -2.4,-1.5c-1.6,-1 -3.4,-1.9 -5.1,-2.8c-3.2,-2.2 -6.7,-4 -10.3,-5.9z"/>
  <path id="svg_42" fill="#ea8865" d="m530.2,422.4c4,1.3 7.8,3 11.5,4.9c1.8,1 3.6,2.1 5.2,3.6c0.4,0.4 0.9,0.7 1.2,1.2s0.7,0.9 0.9,1.5c0.6,1 0.6,2.2 0.7,3.3c0.3,4.2 0.1,8.4 -0.1,12.6s-0.7,8.4 -1.5,12.4l0.4,-12.6c0,-4.2 0.1,-8.4 -0.1,-12.4c-0.1,-1 -0.1,-2.1 -0.6,-2.8c-0.3,-0.7 -1,-1.5 -1.8,-2.2c-1.5,-1.3 -3.1,-2.5 -4.9,-3.6s-3.6,-2.1 -5.4,-3c-1.7,-1.1 -3.7,-2 -5.5,-2.9z"/>
  <path id="svg_43" fill="#ea8865" d="m544.5,410.3c3.6,0.9 7.2,2.2 10.6,3.7c1.8,0.7 3.4,1.6 5.1,2.5c1.6,0.9 3.1,2.1 4.6,3.4c0.7,0.6 1.3,1.5 1.8,2.4c0.4,0.9 0.7,1.8 1,2.7c0.4,1.9 0.6,3.7 0.6,5.7c0,3.7 -0.4,7.5 -1.3,11.1c0.1,-1.8 0.3,-3.7 0.3,-5.5s0,-3.7 0,-5.5c-0.1,-1.8 -0.3,-3.6 -0.7,-5.4s-1.2,-3.3 -2.4,-4.5s-2.7,-2.4 -4.3,-3.3c-1.5,-1 -3.1,-1.8 -4.8,-2.7c-1.6,-0.9 -3.3,-1.6 -4.9,-2.4c-2.2,-0.7 -3.8,-1.5 -5.6,-2.2z"/>
  <path id="svg_44" fill="#79a7f7" d="m988.8,35.5l-122,0l-453.9,257.3s41.8,8.2 54.7,44.1l521.2,-297.9l0,-3.5z"/>
  <path id="svg_45" fill="#ffa784" d="m351.1,363.8s-5.2,4.9 -11.2,1.8c-6,-3.3 -5.2,-8.2 -5.5,-15.7c-0.1,-7.5 -0.9,-10.5 5.7,-15c6.7,-4.5 73.8,-42.6 73.8,-42.6s24,-2.4 39.9,9s13.9,35.7 13.9,35.7s-2.4,1.5 -2.2,4.8c0.3,3.3 -3.3,7.2 -10.9,11.2s-46.6,23.7 -46.3,25.6s-0.4,11.5 -1.5,13.5c-1.9,3.4 -13.9,8.2 -18.1,-1.8c0,0 0,8.7 -11.4,8.2s-7.9,-12.4 -7.9,-12.4s-13.9,7 -16.2,-3.7c-2.7,-10.9 -2.1,-18.6 -2.1,-18.6z"/>
  <path id="svg_46" fill="#c45f3f" d="m372.9,334.6c-2.8,1.8 -5.8,3.6 -8.8,5.4s-6,3.4 -8.8,5.2c-3.1,1.3 -3.6,4.9 -3.9,8.4c-0.1,1.6 -0.1,3.4 -0.1,5.1l-0.1,5.1c-0.4,-3.4 -0.7,-6.9 -0.7,-10.3c0,-1.8 0.1,-3.4 0.6,-5.2c0.3,-0.9 0.7,-1.8 1.3,-2.5s1.5,-1.2 2.2,-1.6c3,-1.8 6,-3.4 9.1,-4.9c2.9,-1.9 6.1,-3.4 9.2,-4.7z"/>
  <path id="svg_47" fill="#c45f3f" d="m368.9,386c-0.4,-3.9 -0.6,-7.8 -0.7,-11.7s-0.1,-7.8 -0.1,-11.7c0,-0.4 0,-1 0.1,-1.5c0.1,-0.6 0.1,-1 0.4,-1.5c0.4,-1 0.9,-1.9 1.6,-2.7c1.3,-1.6 2.8,-2.8 4.5,-3.9c1.6,-1 3.4,-2.1 5.1,-2.8c1.8,-0.7 3.6,-1.5 5.4,-2.2c-3.4,1.8 -6.9,3.6 -10,6c-1.5,1.2 -3,2.4 -4.2,3.9c-0.6,0.7 -1,1.5 -1.3,2.2c-0.1,0.4 -0.3,0.7 -0.3,1.2s-0.1,0.9 -0.1,1.3c-0.1,3.9 -0.1,7.8 -0.3,11.7c0.2,3.9 0.2,7.8 -0.1,11.7z"/>
  <path id="svg_48" fill="#c45f3f" d="m388.4,390.2c-0.4,-3.9 -0.7,-7.8 -0.9,-11.8c-0.1,-1.9 -0.1,-3.9 -0.1,-6c0,-1 0.1,-1.9 0.1,-3c0.1,-0.6 0.1,-0.9 0.3,-1.6c0.3,-0.6 0.6,-1 0.9,-1.3c1.3,-1.6 3,-2.7 4.6,-3.9c1.6,-1 3.3,-2.1 5.1,-3c3.4,-1.8 7,-3.6 10.8,-4.9c-1.6,1 -3.4,1.9 -5.1,2.8c-1.6,0.9 -3.4,1.9 -5.1,3c-1.6,1 -3.3,2.1 -4.9,3.1c-1.5,1 -3.1,2.2 -4.3,3.7c-0.3,0.3 -0.6,0.7 -0.7,1s-0.1,0.9 -0.3,1.2c-0.1,0.9 -0.1,1.9 -0.3,2.8c-0.1,1.9 -0.1,3.9 -0.1,5.8l0,12.1z"/>
  <path id="svg_49" opacity="0.3" fill="#60bfff" d="m549.4,249.1c17.5,10 37,16.9 49.9,9c12.9,-8.1 -0.4,-22.5 -11.5,-29.1c-8.7,-5.2 -25.3,-13.6 -39.3,-12.7l-16.9,9.6c-3,8.1 7.9,17.5 17.8,23.2z"/>
  <path id="svg_50" fill="#c45f3f" d="m577.1,282.4s-76.9,-43.3 -85.9,-47.8s-15.9,-1.2 -18.4,3.4c0,0 -4.3,-3.7 -8.7,-3.7c-4.6,0.1 -14.7,3.7 -15.9,10.6c0,0 -9.3,-1 -14.8,6c-5.7,7 -2.5,12.9 -2.5,12.9s-12.1,3.9 -7.3,23.8l9.7,-5.4s64.8,36.6 71.5,39.9s10.9,3 13.5,1.2l10.5,7.6c-2.9,-33 48.3,-48.5 48.3,-48.5z"/>
  <path id="svg_51" fill="#752c1b" d="m448.2,244.9c1.8,0.1 3.6,0.7 5.4,1.3s3.4,1.5 4.9,2.2c3.1,1.8 6.3,3.9 8.8,6.4c-1.6,-0.7 -3.3,-1.6 -4.8,-2.5c-1.6,-0.9 -3.1,-1.8 -4.8,-2.5c-1.6,-0.9 -3.1,-1.6 -4.8,-2.5c-1.4,-0.7 -2.9,-1.6 -4.7,-2.4z"/>
  <path id="svg_52" fill="#752c1b" d="m472.8,238c2.5,0.9 4.8,2.1 7,3.4c2.1,1.3 4.3,3 6,4.9c-2.4,-1.2 -4.6,-2.4 -6.7,-3.7c-2.3,-1.4 -4.4,-2.8 -6.3,-4.6z"/>
  <path id="svg_53" fill="#752c1b" d="m431,263.8c1.5,-1.6 3.6,-3 6,-3.4c1.2,-0.3 2.4,-0.3 3.6,-0.1c1.2,0.1 2.4,0.6 3.4,1c4.3,1.8 8.2,4 11.8,6.9c-2.1,-0.9 -4.2,-1.9 -6.1,-2.8c-2.1,-0.9 -4,-1.9 -6.1,-2.7c-1,-0.4 -2.1,-0.9 -3.1,-1c-1,-0.3 -2.1,-0.1 -3.1,-0.1c-2.5,0.1 -4.6,1 -6.4,2.2z"/>
  <path id="svg_54" fill="#752c1b" d="m428.7,280.3c1.2,0 2.2,0.3 3.3,0.7s1.9,1 2.7,2.1c-1.2,0 -2.2,-0.3 -3.3,-0.7c-1,-0.6 -1.9,-1.2 -2.7,-2.1z"/>
  <path id="svg_55" opacity="0.3" fill="#c45f3f" d="m507.9,260.5c7.6,-2.2 14.7,-1.2 15.7,2.4s-4.2,8.4 -11.8,10.6s-14.7,1.2 -15.7,-2.4c-1.3,-3.5 4.1,-8.3 11.8,-10.6z"/>
  <path id="svg_56" fill="#ffd0c0" d="m527.8,196.4s-1,-2.4 -0.4,-2.7c0.6,-0.4 1.6,1.5 1.6,1.5s2.2,-3.3 3.7,-2.1s0.7,3.1 -2.2,5.4c0,0 -4,7.6 -5.1,9.3c-1,1.6 -2.5,2.4 -3.7,1.5l0,-3.7c0.1,-0.4 2.2,-1.7 6.1,-9.2z"/>
  <path id="svg_57" fill="#e62a7d" d="m520.6,209.6l1,-4.8s-7.6,-9.1 -8.1,-9.4c-0.4,-0.1 -2.1,4.2 -1.2,6.3c0.8,2.2 8.3,7.9 8.3,7.9z"/>
  <path id="svg_58" fill="#bd1159" d="m521.7,204c-0.6,-0.1 -1.3,2.8 -1.5,3.9c-0.1,1 -0.1,2.5 0.9,2.5s0.6,-2.5 0.9,-3.3c0.1,-0.8 0.6,-2.6 -0.3,-3.1z"/>
  <path id="svg_59" fill="#e62a7d" d="m506.7,272.2c-2.4,-1.2 -5.4,-3.3 -5.4,-3.3l0,2.4l-1,0s0,-3.3 0,-4.8c0,-1.2 3,-1 4.9,0.6c4.5,3.6 3.1,6 1.5,5.1z"/>
  <path id="svg_60" fill="#ffd0c0" d="m501,267.3l0,-5.3l3.9,0l-0.3,4.9s3.1,2.8 2.7,3.3c-0.3,0.5 -6.3,-2.9 -6.3,-2.9z"/>
  <path id="svg_61" fill="#233560" d="m499.8,227.2l0.7,35.8s3.4,0.4 5.4,-1l2.4,-33.6l-8.5,-1.2z"/>
  <path id="svg_62" fill="#e62a7d" d="m517.8,265.9c-2.8,-1.5 -5.4,-3.3 -5.4,-3.3l0,2.4l-1,0s0,-3.6 0,-4.8s3,-1 4.9,0.4c3.1,2.6 4.3,6.8 1.5,5.3z"/>
  <path id="svg_63" fill="#ffd0c0" d="m511.9,261l0,-5.2l3.9,0l-0.3,4.9s3.1,2.8 2.7,3.3c-0.3,0.4 -6.3,-3 -6.3,-3z"/>
  <path id="svg_64" fill="#233560" d="m509.7,226l1.8,30.7s3.4,0.4 5.4,-1l1,-31.2l-8.2,1.5z"/>
  <path id="svg_65" fill="#e62a7d" d="m498.9,228s5.1,4.5 11.5,2.4c0,0 3.4,0.6 6,-1.9s1.5,-9.9 -2.5,-15.3c0,0 1,-9 1.5,-11.2s-0.7,-8.8 -7.5,-8.5c-6.9,0.4 -9.3,3 -9.4,4.9s3.4,15 3.4,15s-2.9,3.5 -3,14.6z"/>
  <path id="svg_66" fill="#bd1159" d="m509.2,199.2l0.3,7.9c0.1,2.5 0,5.2 0.7,7.8c0.4,2.7 0.4,5.2 0.4,7.9s-0.3,5.2 -0.7,7.8c0.1,-2.7 0.3,-5.2 0.1,-7.8c0,-2.5 -0.1,-5.2 -0.6,-7.8c0,-0.3 -0.1,-0.6 -0.1,-0.9c-0.1,-0.3 -0.1,-0.7 -0.1,-1c-0.1,-0.6 -0.1,-1.3 -0.1,-1.9c0,-1.3 -0.1,-2.7 -0.1,-3.9c-0.1,-2.8 -0.1,-5.4 0.2,-8.1z"/>
  <path id="svg_67" fill="#fed22c" d="m508.9,218.6c3.6,-0.1 5.7,-1.5 6.7,-2.7c-0.4,-0.9 -1,-1.8 -1.6,-2.7l0,-0.2c-1.8,0.6 -7.2,1.9 -12,-1l-0.3,0.4c0.1,0.6 0.3,0.9 0.3,0.9s-0.4,0.6 -1,1.9c1,1.3 3.6,3.5 7.9,3.4z"/>
  <path id="svg_68" fill="#fff4dc" d="m510.3,214.5c-1.5,0.4 -2.8,3.4 0.4,2.8c3.5,-0.5 1.7,-3.4 -0.4,-2.8z"/>
  <path id="svg_69" fill="#76391d" d="m506.8,178.7s-2.8,-2.4 -5.4,-1c-2.5,1.2 -2.5,3.3 -2.7,6.1s0.1,5.7 -1,5.4c0,0 1.5,5.2 9.1,4.3s8.7,-3.3 8.7,-3.3s-2.4,-0.3 -1.8,-2.4s1,-3.9 -0.1,-6.6c-1.2,-2.7 -4.8,-7.5 -6.8,-2.5z"/>
  <path id="svg_70" fill="#ffd0c0" d="m504.4,190.1s-2.2,-0.3 -2.8,-1.3c-0.9,-1.5 0.7,-1.9 1.5,-1.5c0,0 -0.6,-3.9 3.3,-5.1s4.9,0.9 5.4,3c0.3,2.1 0.6,6.4 -2.4,6.9c-3,0.4 -3.8,-1 -5,-2z"/>
  <path id="svg_71" fill="#ffd0c0" d="m504.4,190.1s0.1,3.6 0.4,4.2s4.3,4.9 4.3,4.9s-0.1,-4.8 0,-5.4s-0.6,-3 -0.6,-3l-4.1,-0.7z"/>
  <path id="svg_72" fill="#76391d" d="m500.5,187.5s5.1,0.9 8.2,-4.8c0,0 2.5,1.9 3.9,1.6c1.2,-0.3 -2.5,-4.6 -5.7,-3.6c-3.4,1.1 -6.4,6.8 -6.4,6.8z"/>
  <path id="svg_73" fill="#fff" d="m509.4,189c-0.7,0 -1.6,-0.9 -2.1,0c-0.4,0.9 0.7,1.8 2.1,1.6c1.3,-0.1 2.1,-1.6 0,-1.6z"/>
  <path id="svg_74" fill="#bd1159" d="m509.2,199.2s-1.9,3.6 -1.9,3.3c-0.1,-0.3 -4.8,-5.2 -5.1,-7.3c-0.3,-2.2 2.4,-3.6 2.4,-3.6l4.6,7.6z"/>
  <path id="svg_75" fill="#bd1159" d="m511.9,202.5l-2.8,-3.3l-0.3,-7.2s2.2,0.4 2.5,2.2c0.6,1.9 0.6,8.3 0.6,8.3z"/>
  <path id="svg_76" fill="#e62a7d" d="m499.8,212.3l3,-3.9s-1.8,-13 -2.7,-12.6c-1.2,0.4 -4.5,1.5 -4.5,5.8c0,2.3 4.2,10.7 4.2,10.7z"/>
  <path id="svg_77" fill="#ffd0c0" d="m511.9,203.4s0,-2.5 0.7,-2.7c0.7,0 0.7,1.9 0.7,1.9s3.4,-1.9 4.3,-0.3s-0.6,3.1 -4.3,3.9c0,0 -6.9,5.1 -8.5,6.1s-3.3,1 -4,-0.3l1.6,-3.3c0.4,0.1 2.9,-0.2 9.5,-5.3z"/>
  <path id="svg_78" fill="#bd1159" d="m503.1,207.8c-0.4,-0.4 -2.4,1.9 -3,2.8s-1.2,2.2 -0.3,2.7c0.9,0.4 1.6,-1.9 2.2,-2.7c0.6,-0.6 1.8,-2.1 1.1,-2.8z"/>
  <path id="svg_79" fill="#997def" d="m571.3,178.1s9.6,-8.2 12.4,-9c2.8,-0.7 4.8,3 1.5,5.5s-12.7,9.9 -15,9.9c-2.2,0.2 1.1,-6.4 1.1,-6.4z"/>
  <path id="svg_80" fill="#c45f3f" d="m568.4,184.5s-3.7,-0.7 -3,-4.2c0.7,-3.6 3.9,-10.2 3,-11.1s-3.6,-1.8 -3.1,-3c0.4,-1 2.1,-2.4 3.3,-2.1s3.6,2.5 3.6,2.5s1.2,-1.9 2.1,-1.5s0,2.2 -0.6,2.8s-1.5,1.9 -2.2,4.9c-0.6,2.8 -1.2,5.8 -1.2,5.8l-1.9,5.9z"/>
  <path id="svg_81" fill="#7a50e2" d="m568.6,185.1c-1.3,-0.1 -0.7,-1.5 0,-3.3c0.7,-1.6 2.1,-4.3 2.5,-4.3s0.3,2.4 0.3,4c0,1.7 0.5,4.1 -2.8,3.6z"/>
  <path id="svg_82" fill="#997def" d="m581,198.5s-0.1,-21 0,-23.7s0.3,-4.6 2.8,-5.8c2.4,-1.2 7.6,-1.3 11.4,0.9s3.4,3.3 3.9,9s0,27.4 0,27.4s-11.2,0 -18.1,-7.8z"/>
  <path id="svg_83" stroke-width="0.2327" stroke-miterlimit="10" stroke="#6a33d3" fill="none" d="m588.5,173l0,30.9"/>
  <path id="svg_84" fill="#7a50e2" d="m588.1,167.6l0.4,5.4l-2.7,0.1l0.4,-4.9c0.1,0 1,-1.1 1.9,-0.6z"/>
  <path id="svg_85" fill="#7a50e2" d="m595,169.8l-4.9,4.3l-1.6,-1l3.6,-5.5c0,-0.2 1.7,-0.2 2.9,2.2z"/>
  <path id="svg_86" fill="#c45f3f" d="m592.6,162.5s-0.1,6.1 0,6.7s-4,3.6 -4,3.6l-0.7,-7.8l4.7,-2.5z"/>
  <path id="svg_87" fill="#c45f3f" d="m587.6,166.8c-2.5,0.1 -4.5,-1 -4.8,-5.7c-0.3,-4.6 0.9,-8.5 4.8,-7.8s4.2,2.7 4.3,6.3c0.4,3.8 0.1,7.1 -4.3,7.2z"/>
  <path id="svg_88" fill="#512514" d="m594.7,154.2c-0.3,-3.3 -5.1,-2.2 -5.1,-2.2s0.1,-0.9 0,-1.8s-3,-1.2 -5.5,0.4c-3.9,2.5 -1.5,9.6 -1.5,9.6c0.3,9 3.9,7.5 6.6,7.3c2.7,-0.3 3,-3.9 3,-3.9s1.8,0.7 2.5,0.4c0.9,-0.3 0.3,-6.6 0,-9.8zm-8.1,10.5c-2.1,0.3 -1.8,-1.2 -0.6,-1.6c3.7,-1.2 2.7,1.3 0.6,1.6zm2.5,-3.6c-1.5,0.1 -1.8,-0.1 -2.5,0.3c-2.1,0.9 -3.4,0.9 -3.3,-1c0.1,-2.1 0.1,-4.5 2.2,-4.8c1.9,-0.3 4.6,0 4.8,1.6c0.2,1.4 0.3,3.8 -1.2,3.9z"/>
  <path id="svg_89" fill="#c45f3f" d="m592.9,160.4c0.7,0.1 1,1.5 0.7,2.5s-1.5,1.8 -2.1,0.6s-0.1,-3.4 1.4,-3.1z"/>
  <path id="svg_90" fill="#ffe9b3" d="m544.9,237.9l-1.8,-1.4l0,-24.8l1.8,0l0,26.2z"/>
  <path id="svg_91" fill="#fed22c" d="m544.9,237.9l1.7,-1.4l0,-24.8l-1.7,0l0,26.2z"/>
  <path id="svg_92" fill="#ffe9b3" d="m579.2,258.7l-1.6,-1.2l0,-33.7l1.6,0l0,34.9z"/>
  <path id="svg_93" fill="#fed22c" d="m579.2,258.7l1.8,-1.2l0,-33.7l-1.8,0l0,34.9z"/>
  <path id="svg_94" fill="#ffe9b3" d="m598.3,250l-1.7,-1.3l0,-33.7l1.7,0l0,35z"/>
  <path id="svg_95" fill="#fed22c" d="m598.3,250l1.6,-1.3l0,-33.7l-1.6,0l0,35z"/>
  <path id="svg_96" fill="#fed22c" d="m557.6,224.8c-12.3,-4.9 -26.8,-15 -14.4,-25s35.5,-2.5 46.3,2.1s24.6,15.7 14.1,24.6c-10.4,8.8 -28.9,5.1 -46,-1.7z"/>
  <path id="svg_97" fill="#ffe9b3" d="m557.6,222.6c-12.3,-4.9 -26.8,-15 -14.4,-25s35.5,-2.5 46.3,2.1s24.6,15.7 14.1,24.6c-10.4,8.8 -28.9,5.2 -46,-1.7z"/>
  <path id="svg_98" fill="#def5ff" d="m562,210.9l13.3,-8.2l12.3,6.3l-12.9,8.7l-12.7,-6.8z"/>
  <path id="svg_99" fill="#fff" d="m562,209.9l13.3,-8.3l12.3,6.3l-12.9,8.7l-12.7,-6.7z"/>
  <path id="svg_100" fill="#c45f3f" d="m587.5,189.8l-8.2,11.8s-4.5,0.4 -4.3,1.2s3,0.3 3,0.3s-1.9,3.6 -0.6,5.1s3.3,-0.3 4.6,-4.2c0,0 11.4,-13 11.4,-15c0.1,-2.8 -2.9,-3.1 -5.9,0.8z"/>
  <path id="svg_101" fill="#997def" d="m587.3,190.1s3.7,-6 5.4,-10.2c1.5,-4.2 1.6,-7.5 2.7,-8.4c1.2,-0.9 4.9,0.1 3.7,6.6c-1.2,6.3 -6.7,13.6 -6.7,13.6l-5.1,-1.6z"/>
  <path id="svg_102" fill="#6a33d3" d="m599.2,178.1c-0.4,2.5 -1.3,4.9 -2.5,7.2s-2.5,4.5 -4,6.6l0,0.1l-0.1,0l-5.1,-1.6l-0.1,0l0.1,-0.1c1,-1.6 1.9,-3.3 3,-4.9c0.9,-1.6 1.8,-3.4 2.5,-5.2c-1.3,3.6 -3.3,7 -5.2,10.3l-0.1,-0.1l5.1,1.6l-0.1,0c1.5,-2.1 2.8,-4.2 4.2,-6.4c0.8,-2.7 1.8,-5 2.3,-7.5z"/>
  <path id="svg_103" fill="#7a50e2" d="m586.6,189.8c0,-0.6 2.7,-0.4 4.6,-0.1c1.8,0.4 3.1,0.6 1.9,1.9c-1,1.5 -2.2,0.7 -3.6,0c-1.3,-0.8 -2.9,-1.1 -2.9,-1.8z"/>
  <path id="svg_104" fill="#03f4d1" d="m544.9,164.1l0,3.9l4.3,-1.9l0,-3.9l-4.3,1.9z"/>
  <path id="svg_105" fill="#e62a7d" d="m534.1,170.6l6.2,-3l0,5.7l-6.2,3.1l0,-5.8z"/>
  <path id="svg_106" fill="#6a33d3" d="m539.4,177.9l0,7.7l10.9,-5.6l0,-7.2l-10.9,5.1z"/>
  <path id="svg_107" fill="#ffa92e" d="m529.8,184.5l4.9,-2.5l0,4.6l-4.9,2.4l0,-4.5z"/>
  <path id="svg_108" fill="#a6dfff" d="m540.1,190.7l14.8,-7.5l4.5,11.2l-14.5,8.6l-4.8,-12.3z"/>
  <path id="svg_109" fill="#233560" d="m541.6,191.1l12.4,-6.3l3.8,9.5l-12.1,7l-4.1,-10.2z"/>
  <path id="svg_110" fill="#60bfff" d="m544.9,203l10.2,5.8l14.4,-8.7l-10.1,-5.7l-14.5,8.6z"/>
  <path id="svg_111" fill="#3d99df" d="m555.5,207l11.3,-6.7l-7.7,-4.2l-11.2,6.6l7.6,4.3z"/>
  <path id="svg_112" fill="#3d99df" d="m544.9,203l0,0.6l10.3,6l-0.1,-0.8l-10.2,-5.8z"/>
  <path id="svg_113" fill="#3d99df" d="m569.5,200.1l-14.4,8.7l0.1,0.8l14.3,-8.9l0,-0.6z"/>
  <path id="svg_114" fill="#3d99df" d="m544.9,203l-0.4,0.3l-5.1,-12.8l0.7,0.2l4.8,12.3z"/>
  <path id="svg_115" fill="#3d99df" d="m554.9,183.2l-14.8,7.5l-0.7,-0.2l14.8,-7.3l0.7,0z"/>
  <ellipse id="svg_116" transform="matrix(0.9583 -0.2858 0.2858 0.9583 -2.7594 337.885)" ry="7.5" rx="14.4" opacity="0.4" fill="#ffa784" cy="107.00617" cx="409.46557"/>
  <ellipse id="svg_117" transform="matrix(0.9583 -0.2858 0.2858 0.9583 -4.6664 326.453)" ry="6.7" rx="14.4" opacity="0.4" fill="#ffa784" cy="107.80617" cx="369.36557"/>
  <path id="svg_118" fill="#76391d" d="m381.9,318.8s-0.1,2.7 -0.1,2.8s3.9,2.1 4.9,2.5s3.6,-0.7 3.1,-1.5c-0.4,-0.7 -3,-3.6 -3.4,-4.6s-4.5,0.8 -4.5,0.8z"/>
  <path id="svg_119" fill="#76391d" d="m372.3,325l0,2.4s4,2.2 5.1,2.7s3.7,-0.9 3.3,-1.6s-3.1,-3.9 -3.6,-4.9c-0.4,-1.2 -4.8,1.4 -4.8,1.4z"/>
  <path id="svg_120" fill="#1f84c1" d="m372.3,325s2.5,1.2 4.8,-1.5l3.3,-32.2l1,-0.6l0.4,28.5s2.5,0.6 4.6,-0.6c0,0 2.2,-23.5 1.8,-35.8l-16,3.3c0.1,-0.1 -0.3,32.7 0.1,38.9z"/>
  <path id="svg_121" fill="#ffa784" d="m387.3,263.8s5.4,14.4 5.8,15.9s-4.3,3 -4.8,0.6c-0.4,-2.4 -4.8,-14.7 -4.8,-14.7l3.8,-1.8z"/>
  <path id="svg_122" fill="#e62a7d" d="m380.6,254.8c1.6,-0.3 5.8,2.8 7.8,10c0,0 -2.5,1.6 -5.1,1.2l-2.7,-11.2z"/>
  <path id="svg_123" fill="#e62a7d" d="m374.1,254.4c-2.4,0.3 -6.3,2.5 -7.2,3.4c-1.8,1.8 3.3,17.8 3.9,22.3s-0.3,5.5 3.7,6.3c4,0.9 13.8,0 13.8,-3.9s-2.2,-16.6 -3.3,-22c-1.4,-6.4 -5.5,-6.7 -10.9,-6.1z"/>
  <path id="svg_124" fill="#3d99df" d="m381.5,282l9,-5.1l-1.1,7.8l-7.9,-2.7z"/>
  <path id="svg_125" fill="#a6dfff" d="m389,274.5l10.9,-6.3l0,9.7l-10.5,6.8l-0.4,-10.2z"/>
  <path id="svg_126" fill="#ffa784" d="m396,276.9c-1.6,0.7 -1.6,1.5 -1.5,3c0,1.5 -0.6,2.7 0.7,2.4s2.7,-1.6 2.5,-3c0.1,-1.4 0.6,-3.3 -1.7,-2.4z"/>
  <path id="svg_127" fill="#ffa784" d="m370.7,276.9l5.7,-10.2s-0.1,-3.9 0.6,-3.9c0.7,-0.1 1.5,2.8 1.5,2.8s4.9,-1.5 5.4,0.9c0.4,2.4 -0.1,3.3 -4.8,3.3c0,0 -4.8,10.9 -7.6,11.8c-2.8,1 -6.3,-0.4 -5.7,-10.8l3.9,0.6l1,5.5z"/>
  <path id="svg_128" fill="#e62a7d" d="m365.5,270.6c0.3,0.3 2.1,1 4.8,0.7c0,0 1,-10.6 -0.3,-12.4s-3.7,-1.6 -4.5,1.3c-0.6,2.7 0,10.4 0,10.4z"/>
  <path id="svg_129" fill="#ffa784" d="m372.3,249.4s-2.7,0.7 -2.5,-1.6c0.1,-2.5 2.7,-0.7 2.7,-0.7s-0.3,-4.6 0.3,-4.9c0.7,-0.3 5.4,-0.1 6.3,1.9c0.9,2.1 1.8,7.8 1,8.5c-0.9,0.7 -2.7,1 -3.9,0.3l0.1,1.5s3.4,2.7 1.5,3.6s-4.9,-0.9 -5.8,-2.8l0.3,-5.8z"/>
  <path id="svg_130" fill="#ea8865" d="m372.5,247s-0.1,-2.8 0,-4.2c-1.2,-0.3 -3.6,-1 -4.2,-2.1c0,0 0.4,3.6 1.6,6.3c0.6,-1.3 2.6,0 2.6,0z"/>
  <path id="svg_131" fill="#512514" d="m375.2,237.7s1.9,-0.4 2.4,-2.1c0,0 -3.1,0.4 -5.7,1c-2.5,0.6 -6.1,3.3 -2.2,5.8s12.7,3.6 13.2,-0.6c0,0 -2.8,-0.1 -4.2,-1.3c0,0 3.3,0.3 4.8,-1.3c0.1,0 -2.9,-2.2 -8.3,-1.5z"/>
  <path id="svg_132" fill="none" stroke="#233560" stroke-width="0.2458" stroke-linecap="round" stroke-linejoin="round" stroke-miterlimit="10" d="m377.9,247.5c0,0.6 -0.6,1.2 -1.3,1.2s-1.3,-0.4 -1.3,-1.2c0,-0.6 0.6,-1.2 1.3,-1.2c0.5,0 1.3,0.6 1.3,1.2z"/>
  <path id="svg_133" fill="none" stroke="#233560" stroke-width="0.2458" stroke-linecap="round" stroke-linejoin="round" stroke-miterlimit="10" d="m381.5,247.2c0,0.6 -0.6,1.2 -1.3,1.2s-1.3,-0.4 -1.3,-1.2c0,-0.6 0.6,-1.2 1.3,-1.2c0.7,0.1 1.3,0.6 1.3,1.2z"/>
  <path id="svg_134" fill="none" stroke="#233560" stroke-width="0.2458" stroke-linecap="round" stroke-linejoin="round" stroke-miterlimit="10" d="m372.3,246.9l2.7,0.6"/>
  <path id="svg_135" fill="none" stroke="#233560" stroke-width="0.2458" stroke-linecap="round" stroke-linejoin="round" stroke-miterlimit="10" d="m377.9,247.5l0.7,0"/>
  <path id="svg_136" fill="#fff" d="m378.2,251.8c-1.6,0 -2.5,-1 -1.8,-1.8c0.7,-0.6 1.9,0.7 2.7,0.7c0.7,-0.1 0.7,1.1 -0.9,1.1z"/>
  <path id="svg_137" fill="#233560" d="m425,321.5s-0.4,4.8 0.3,6s2.8,-1.2 3,-6c0,0 0.6,0.3 0.9,0.7l0.4,-0.7s-0.9,-2.8 -2.1,-3.7c-1.3,-0.9 -2.5,3.7 -2.5,3.7z"/>
  <path id="svg_138" fill="#ffd0c0" d="m418.8,286.2s0,11.5 1.2,18.9c1.2,7.3 4.9,13.6 4.9,14.7c0,1.2 -0.1,4.6 0.6,4.5c0.7,-0.3 2.1,-4.8 1.9,-5.5c-0.1,-0.7 -2.7,-14.4 -2.2,-20.4c0.4,-5.8 0.7,-9.9 0.7,-12.4c0.3,-2.7 -6.3,-4.8 -7.1,0.2z"/>
  <path id="svg_139" fill="#506dad" d="m425.3,298.3c0.4,-5.8 0.7,-9.9 0.7,-12.4s-6.6,-4.6 -7.2,0.3c0,0 0,11.5 1.2,18.9c1.2,6.7 4.3,12.6 4.8,14.4c0.7,-0.4 1.8,-1 2.4,-1.9c-0.4,-4 -2.2,-14.3 -1.9,-19.3z"/>
  <path id="svg_140" fill="#233560" d="m409.7,324.2c1.2,0.6 7.5,-3.3 7.5,-3.3l0,2.4l1,-0.6s0.9,-4.2 -0.1,-5.1s-2.7,-0.1 -4.8,1.3c-2.1,1.6 -4.7,4.7 -3.6,5.3z"/>
  <path id="svg_141" fill="#ffd0c0" d="m417.5,319c-0.1,1.6 -5.8,3.7 -6.3,3.3c-0.4,-0.4 2.7,-3.3 2.7,-3.3s-2.5,-26.7 -2.2,-32.1s6.7,-2.7 6.3,1.9c-0.5,4.6 -0.4,29.1 -0.5,30.2z"/>
  <path id="svg_142" fill="#506dad" d="m412.1,285.1c-0.1,0.3 -0.1,0.6 -0.3,0.9c0,0.3 -0.1,0.6 -0.1,0.9c-0.3,4.5 1.5,23.5 2.1,30c0.9,0 2.1,-0.1 3.9,-1c0,-7 0,-23.4 0.3,-27c0.4,-4.1 -4.4,-6.6 -5.9,-3.8z"/>
  <path id="svg_143" fill="#ffa92e" d="m414.6,246s-4.5,-5.4 -3,-7.6c1.6,-2.1 5.7,-5.4 7.9,-3.9c0,0 3.9,-1.6 7.2,1.6c3.3,3.3 1,23.4 1,23.4l-13.7,0l0.6,-13.5z"/>
  <path id="svg_144" fill="#def5ff" d="m428.4,286.5s-5.1,4.5 -11.5,2.4c0,0 -5.1,0.4 -7.9,-1.9c-1,-0.9 0.3,-9.9 4.3,-15.3c0,0 -1,-9 -1.5,-11.2c-0.4,-2.2 0.7,-8.8 7.5,-8.5c6.9,0.4 9.3,3 9.4,4.9s-3.4,15 -3.4,15s3.1,3.5 3.1,14.6z"/>
  <path id="svg_145" fill="#a6dfff" d="m418.2,257.5c-0.3,5.2 -0.6,10.3 -0.7,15.6c-0.1,2.5 -0.1,5.2 -0.3,7.8l-0.3,7.8c-0.3,-5.2 -0.3,-10.5 -0.1,-15.6c0.1,-2.5 0.3,-5.2 0.4,-7.8c0.3,-2.5 0.6,-5.1 1,-7.8z"/>
  <path id="svg_146" fill="#ffd0c0" d="m423,248.4s-0.1,3.6 -0.4,4.2s-4.3,4.9 -4.3,4.9s0.1,-4.8 0,-5.4s0.6,-3 0.6,-3l4.1,-0.7z"/>
  <path id="svg_147" fill="#a6dfff" d="m418.2,257.5s1.9,3.6 1.9,3.3c0.1,-0.3 4.8,-5.2 5.1,-7.3c0.3,-2.2 -2.4,-3.6 -2.4,-3.6l-4.6,7.6z"/>
  <path id="svg_148" fill="#a6dfff" d="m415.4,260.8l2.8,-3.3l0.3,-7.2s-2.2,0.4 -2.5,2.2c-0.5,1.9 -0.6,8.3 -0.6,8.3z"/>
  <path id="svg_149" fill="#ffd0c0" d="m423,248.4s2.2,-0.3 2.8,-1.3c0.9,-1.5 -0.7,-1.9 -1.5,-1.5c0,0 0.6,-3.9 -3.3,-5.1c-3.9,-1.3 -4.9,0.9 -5.4,3c-0.3,2.1 -0.6,6.4 2.4,6.9c2.9,0.4 3.7,-1 5,-2z"/>
  <path id="svg_150" fill="#ffa92e" d="m426.9,245.8s-5.1,0.9 -8.2,-4.8c0,0 -2.5,1.9 -3.9,1.6c-1.2,-0.3 2.5,-4.6 5.7,-3.6c3.3,1.1 6.4,6.8 6.4,6.8z"/>
  <path id="svg_151" fill="#fff" d="m417.9,247.3c0.7,0 1.6,-0.9 2.1,0s-0.7,1.8 -2.1,1.6c-1.2,0.1 -2.1,-1.6 0,-1.6z"/>
  <path id="svg_152" fill="#ffd0c0" d="m399.6,254.7s1,-2.4 0.4,-2.7c-0.6,-0.4 -1.6,1.5 -1.6,1.5s-2.2,-3.3 -3.7,-2.1s-0.7,3.1 2.2,5.4c0,0 4,7.6 5.1,9.3s2.5,2.4 3.7,1.5l0,-3.7c-0.1,-0.2 -2.3,-1.7 -6.1,-9.2z"/>
  <path id="svg_153" fill="#def5ff" d="m406.8,267.9l-1,-4.8s7.6,-9.1 8.1,-9.4c0.4,-0.1 2.1,4.2 1.2,6.3c-0.9,2.2 -8.3,7.9 -8.3,7.9z"/>
  <path id="svg_154" fill="#a6dfff" d="m405.8,262.5c0.6,-0.1 1.3,2.8 1.5,3.9c0.1,1 0.1,2.5 -0.9,2.5s-0.6,-2.5 -0.9,-3.3c-0.2,-1 -0.8,-2.8 0.3,-3.1z"/>
  <path id="svg_155" fill="#def5ff" d="m434.9,268.2l-4.8,-0.7s-5.5,-6.6 -4.8,-11.7c0.6,-3.9 2.8,-1.5 5.2,1.9c1.4,1.8 4.4,10.5 4.4,10.5z"/>
  <path id="svg_156" fill="#ffd0c0" d="m431,267.9s-6.4,8.5 -7,9.9c-0.6,1.3 -0.9,5.8 0.9,5.2s1.2,-4.2 1.2,-4.2s8.7,-9 8.8,-10.2c0.1,-0.9 -3.9,-0.7 -3.9,-0.7z"/>
  <path id="svg_157" fill="#a6dfff" d="m429.3,267.1c0,-0.6 3.1,-0.1 4.2,0c1,0.1 2.4,0.7 2.1,1.8c-0.4,0.9 -2.5,-0.3 -3.4,-0.4c-0.9,0 -2.9,-0.3 -2.9,-1.4z"/>
  <g id="svg_158" enable-background="new" clip-path="url(#a)">
   <g id="svg_159" fill="#00ab8e">
    <path id="svg_160" d="m414.5,224.5l-1.8,1l0,1.6l1,-2.2l0.8,-0.4zm9.9,-22.1l0.3,0.3c0,-0.2 -0.2,-0.2 -0.3,-0.3m-1.4,0.1l-15.1,8.8c-1,0.6 -1.8,2.1 -1.8,3.1l0,9.3c0,0.6 0.1,0.9 0.4,1.2l-0.1,-0.1l1.9,-0.4l0,-7.6c0,-1.2 0.9,-2.5 1.8,-3.1l12.6,-7.3l-0.6,0.1l2.1,-4c-0.1,-0.3 -0.6,-0.3 -1.2,0"/>
    <path id="svg_161" d="m406.4,225l2.2,1.9c-0.1,-0.1 -0.3,-0.6 -0.3,-0.9l0,-1.6l-1.9,0.6z"/>
    <path id="svg_162" d="m424.4,202.4l-2.1,4l0.6,-0.1l2.7,-1.5c0.6,-0.3 1,-0.3 1.3,-0.1l-2.1,-1.9l-0.4,-0.4z"/>
    <path id="svg_163" d="m414.9,224.4l-0.4,0.1l-0.8,0.5l-1,2.2l2.4,2.3l-0.2,-5.1z"/>
   </g>
   <path id="svg_164" fill="#02e1c1" d="m417,218.1l3.1,-6.6c0.1,-0.3 0.3,-0.4 0.4,-0.4s0.1,-0.1 0.3,0l0.3,0c0.1,0.1 0.3,0.4 0,0.7l-3.6,7.5c-0.1,0.1 -0.3,0.3 -0.4,0.4l-0.1,0l-0.1,0l-2.4,-0.4c-0.3,0 -0.3,-0.3 -0.1,-0.7l0.1,-0.4c0.1,-0.1 0.3,-0.4 0.4,-0.4s0.1,0 0.3,0l1.8,0.3zm8.4,-13.3l-2.7,1.5l-12.6,7.3c-1,0.6 -1.8,2.1 -1.8,3.1l0,7.6l0,1.7c0,0.4 0.1,0.7 0.3,0.9l0.3,0.3c0.3,0.1 0.7,0.1 1.3,-0.1l2.4,-1.3l1.8,-1l0.4,-0.3l0.1,5.1l5.5,-8.4l4.8,-2.8c1,-0.6 1.8,-2.1 1.8,-3.1l0,-9.3c0,-0.6 -0.1,-0.9 -0.4,-1.2c-0.1,-0.5 -0.6,-0.5 -1.2,0"/>
   <path id="svg_165" fill="#fff" d="m420.6,211.1c-0.1,0.1 -0.3,0.3 -0.4,0.4l-3.1,6.6l-1.8,-0.3s-0.1,0 -0.3,0c-0.1,0.1 -0.3,0.3 -0.4,0.4l-0.1,0.4c-0.1,0.4 -0.1,0.7 0.1,0.7l2.4,0.4l0.1,0l0.1,0c0.1,-0.1 0.3,-0.3 0.4,-0.4l3.6,-7.5c0.1,-0.3 0.1,-0.7 0,-0.7l-0.3,0c-0.1,-0.2 -0.3,0 -0.3,0"/>
  </g>
  <g id="svg_166" enable-background="new" clip-path="url(#b)">
   <g id="svg_167" fill="#5513bc">
    <path id="svg_168" d="m366.9,228.4l-1.8,1l0,1.6l1,-2.2l0.8,-0.4zm9.9,-22.3l0.3,0.3c0,-0.1 -0.1,-0.1 -0.3,-0.3m-1.3,0.2l-15.3,8.8c-1,0.6 -1.8,2.1 -1.8,3.1l0,9.3c0,0.4 0.1,0.9 0.4,1l1.9,-0.4l0,-7.6c0,-1.2 0.9,-2.5 1.8,-3.1l12.6,-7.3l-0.6,0.1l2.1,-4c-0.1,-0.2 -0.5,-0.2 -1.1,0.1"/>
    <path id="svg_169" d="m358.9,228.7l2.2,1.9c-0.1,-0.1 -0.3,-0.6 -0.3,-0.9l0,-1.6l-1.9,0.6z"/>
    <path id="svg_170" d="m376.8,206.1l-2.1,4l0.6,-0.1l2.7,-1.5c0.6,-0.3 1,-0.3 1.3,-0.1l-2.1,-1.9l-0.4,-0.4z"/>
    <path id="svg_171" d="m367.4,228.1l-0.5,0.3l-0.7,0.5l-1,2.2l2.3,2.1l-0.1,-5.1z"/>
   </g>
   <path id="svg_172" fill="#6a33d3" d="m370.4,224.4c-2.1,1.2 -3.9,0.3 -3.9,-2.2c0,-2.4 1.8,-5.4 3.9,-6.7c2.1,-1.2 3.9,-0.3 3.9,2.2c-0.2,2.5 -1.8,5.5 -3.9,6.7m7.5,-15.9l-2.7,1.5l-12.6,7.3c-1,0.6 -1.8,2.1 -1.8,3.1l0,7.6l0,1.6c0,0.4 0.1,0.7 0.3,0.9c0.1,0.1 0.1,0.1 0.3,0.3c0.3,0.1 0.7,0.1 1.3,-0.1l2.4,-1.3l1.8,-1l0.4,-0.3l0.1,5.1l5.5,-8.4l4.8,-2.8c1,-0.6 1.8,-2.1 1.8,-3.1l0,-9.3c0,-0.6 -0.1,-0.9 -0.4,-1.2c-0.2,-0.3 -0.6,-0.2 -1.2,0.1"/>
   <path id="svg_173" fill="#fed22c" d="m370.5,221.3c0.6,-0.3 1,-0.9 1.5,-1.5l0.1,-0.1l0.1,0l0,0.3c-0.4,0.7 -1,1.5 -1.8,1.8c-0.6,0.3 -1.2,0.4 -1.8,0.3c0,0 -0.1,-0.1 0,-0.3l0.1,-0.1l0.1,0c0.5,0 1.1,-0.1 1.7,-0.4m-2.2,-0.9c-0.1,-0.3 0.1,-0.7 0.4,-0.9c0.3,-0.1 0.4,0 0.4,0.3l-0.1,0.1c-0.1,0 -0.3,0 -0.4,0.1c-0.2,0.2 -0.2,0.2 -0.3,0.4m3.6,-2.1c-0.1,-0.3 0.1,-0.7 0.4,-0.9c0.3,-0.1 0.4,0 0.4,0.3l-0.1,0.1c-0.1,0 -0.3,0 -0.4,0.1c0,0.1 -0.2,0.2 -0.3,0.4m-1.7,-2.9c-2.1,1.2 -3.9,4.2 -3.9,6.7c0,2.4 1.8,3.4 3.9,2.2s3.9,-4.2 3.9,-6.7c0,-2.3 -1.6,-3.4 -3.9,-2.2"/>
   <path id="svg_174" fill="#233560" d="m368.7,219.5c-0.3,0.1 -0.4,0.6 -0.4,0.9l0.1,0c0.1,-0.1 0.3,-0.3 0.4,-0.4s0.3,-0.1 0.4,-0.1l0.1,-0.1c-0.1,-0.3 -0.4,-0.5 -0.6,-0.3"/>
   <path id="svg_175" fill="#233560" d="m372.3,217.4c-0.3,0.1 -0.4,0.6 -0.4,0.9l0.1,0c0.1,-0.1 0.3,-0.3 0.4,-0.4s0.3,-0.1 0.4,-0.1l0.1,-0.1c-0.1,-0.3 -0.3,-0.5 -0.6,-0.3"/>
   <path id="svg_176" fill="#233560" d="m372.2,219.6c-0.2,0 -0.2,0 0,0c-0.6,0.7 -1,1.3 -1.6,1.6s-1,0.4 -1.5,0.1l-0.1,0l-0.1,0.1l0,0.3c0.4,0.1 1,0.1 1.8,-0.3c0.6,-0.3 1.3,-1 1.8,-1.8c-0.2,0.2 -0.2,0 -0.3,0z"/>
  </g>
  <path id="svg_177" opacity="0.5" fill="#e62a7d" d="m359.5,471.9c9,-2.7 17.2,-1.5 18.4,2.8s-4.9,9.7 -13.9,12.4s-17.2,1.5 -18.4,-2.8c-1.4,-4 4.9,-9.7 13.9,-12.4z"/>
  <ellipse id="svg_178" transform="matrix(0.4839 -0.8751 0.8751 0.4839 353.228 1197.18)" ry="33.6" rx="10.3" opacity="0.5" fill="#e62a7d" cy="-274.83149" cx="708.54041"/>
  <path id="svg_179" fill="#506dad" d="m430.8,433.8l10.2,-6.3l2.4,1.4l-10.5,6.4l-2.1,-1.5z"/>
  <path id="svg_180" fill="#506dad" d="m430.8,433.8l0,2.6l2,1.3l0,-2.4l-2,-1.5z"/>
  <path id="svg_181" fill="#506dad" d="m466.8,456.2l10.3,-6.3l2.4,1.3l-10.6,6.3l-2.1,-1.3z"/>
  <path id="svg_182" fill="#506dad" d="m466.8,456.2l0,2.5l2.1,1.4l0,-2.6l-2.1,-1.3z"/>
  <path id="svg_183" fill="#2c4482" d="m479.5,451.2l-10.6,6.3l0,2.6l10.6,-6.6l0,-2.3z"/>
  <path id="svg_184" fill="#2c4482" d="m440.1,430.2l-3,1.7l0,-14.1l3,-1.7l0,14.1z"/>
  <path id="svg_185" fill="#506dad" d="m435.6,431.1l1.5,0.8l0,-14.1l-1.5,-0.9l0,14.2z"/>
  <path id="svg_186" fill="#2c4482" d="m443.4,428.9l-10.6,6.4l0,2.4l10.6,-6.6l0,-2.2z"/>
  <path id="svg_187" fill="#506dad" d="m471.7,453.3l1.5,0.9l0,-73.9l-1.5,-0.9l0,73.9z"/>
  <path id="svg_188" fill="#2c4482" d="m476.2,452.6l-3,1.6l0,-73.9l3,-1.6l0,73.9z"/>
  <path id="svg_189" fill="#8fc1ff" d="m424.2,413.9l11.4,-67.9l45.3,24.7l-13.5,66l-43.2,-22.8z"/>
  <path id="svg_190" fill="#fff" d="m428.3,410.7l9.7,-58.4l37,20.8l-11.5,56.8l-35.2,-19.2z"/>
  <g id="svg_191" fill="#dcebfc">
   <path id="svg_192" d="m447.5,363.5l-7.8,-4.8l-0.2,0.9l7.8,4.8l0.2,-0.9z"/>
   <path id="svg_193" d="m471,377.9l-7.8,-4.8l-0.2,1.1l7.8,4.8l0.2,-1.1z"/>
   <path id="svg_194" d="m450,365l-2.1,-1.2l0,0.9l2,1.2l0.1,-0.9z"/>
   <path id="svg_195" d="m454.4,367.7l-3.9,-2.4l-0.2,0.9l3.9,2.4l0.2,-0.9z"/>
   <path id="svg_196" d="m462.6,372.8l-7.8,-4.8l-0.1,0.9l7.7,4.8l0.2,-0.9z"/>
   <path id="svg_197" d="m442.2,362.3l-2.8,-1.6l-0.2,0.9l2.9,1.6l0.1,-0.9z"/>
   <path id="svg_198" d="m460.6,373.7l-7.7,-4.8l-0.2,0.9l7.8,4.8l0.1,-0.9z"/>
   <path id="svg_199" d="m469,378.8l-7.8,-4.8l-0.1,0.9l7.8,4.8l0.1,-0.9z"/>
   <path id="svg_200" d="m443.6,363.2l-0.9,-0.6l-0.2,0.9l0.9,0.6l0.2,-0.9z"/>
   <path id="svg_201" d="m447.9,365.9l-3.9,-2.4l-0.1,0.9l3.9,2.4l0.1,-0.9z"/>
   <path id="svg_202" d="m452.3,368.6l-3.9,-2.4l-0.2,0.9l3.9,2.4l0.2,-0.9z"/>
   <path id="svg_203" d="m447,367.1l-7.8,-4.8l-0.1,0.9l7.8,4.8l0.1,-0.9z"/>
   <path id="svg_204" d="m449.4,368.6l-1.9,-1.2l-0.2,0.9l2,1.4l0.1,-1.1z"/>
   <path id="svg_205" d="m453.8,371.3l-3.9,-2.4l-0.2,1.1l3.9,2.4l0.2,-1.1z"/>
   <path id="svg_206" d="m440.3,365.2l-1.4,-0.9l-0.1,0.9l1.3,0.9l0.2,-0.9z"/>
   <path id="svg_207" d="m459.1,376.7l-7.7,-4.8l-0.2,1.1l7.8,4.8l0.1,-1.1z"/>
   <path id="svg_208" d="m468,382.3l-8.4,-5.3l-0.2,1.1l8.4,5.1l0.2,-0.9z"/>
   <path id="svg_209" d="m441.9,366.2l-1.2,-0.7l-0.1,0.9l1.2,0.7l0.1,-0.9z"/>
   <path id="svg_210" d="m446.4,368.9l-3.9,-2.4l-0.1,0.9l3.9,2.4l0.1,-0.9z"/>
   <path id="svg_211" d="m450.8,371.6l-3.9,-2.4l-0.2,0.9l3.9,2.4l0.2,-0.9z"/>
   <path id="svg_212" d="m446.3,371.2l-7.8,-4.8l-0.2,1l7.8,4.8l0.2,-1z"/>
   <path id="svg_213" d="m463.9,382.1l-7.7,-4.8l-0.2,0.9l7.8,4.8l0.1,-0.9z"/>
   <path id="svg_214" d="m448.8,372.8l-1.9,-1.3l-0.2,1l2,1.2l0.1,-0.9z"/>
   <path id="svg_215" d="m453.2,375.5l-3.9,-2.4l-0.2,0.9l3.9,2.4l0.2,-0.9z"/>
   <path id="svg_216" d="m455.7,377l-2.1,-1.2l-0.1,0.9l2.1,1.2l0.1,-0.9z"/>
   <path id="svg_217" d="m441,370.1l-2.8,-1.8l-0.2,1.1l2.9,1.6l0.1,-0.9z"/>
   <path id="svg_218" d="m454.8,378.7l-1.9,-1.4l-0.2,1.1l2,1.2l0.1,-0.9z"/>
   <path id="svg_219" d="m463.2,383.8l-7.8,-4.8l-0.1,0.9l7.7,4.8l0.2,-0.9z"/>
   <path id="svg_220" d="m443.4,371.6l-1.9,-1.2l-0.2,0.9l2,1.2l0.1,-0.9z"/>
   <path id="svg_221" d="m447.9,374.3l-3.9,-2.4l-0.1,0.9l3.9,2.4l0.1,-0.9z"/>
   <path id="svg_222" d="m452.3,377l-3.9,-2.4l-0.2,0.9l3.9,2.4l0.2,-0.9z"/>
   <path id="svg_223" d="m443.9,373.7l-5.9,-3.6l-0.1,0.9l5.8,3.6l0.2,-0.9z"/>
   <path id="svg_224" d="m446.3,375.2l-2,-1.2l-0.1,0.9l1.9,1.2l0.2,-0.9z"/>
   <path id="svg_225" d="m450.8,377.9l-4.1,-2.4l-0.1,0.9l4,2.4l0.2,-0.9z"/>
   <path id="svg_226" d="m439.2,373l-1.5,-0.9l-0.1,0.9l1.5,0.9l0.1,-0.9z"/>
   <path id="svg_227" d="m450.9,380.2l-1.9,-1.2l-0.2,0.9l2,1.3l0.1,-1z"/>
   <path id="svg_228" d="m455.4,383l-3.9,-2.5l-0.1,1l3.9,2.4l0.1,-0.9z"/>
   <path id="svg_229" d="m441.6,374.5l-1.8,-1.2l-0.1,0.9l1.8,1.2l0.1,-0.9z"/>
   <path id="svg_230" d="m446,377.2l-3.9,-2.4l-0.2,0.9l3.9,2.4l0.2,-0.9z"/>
   <path id="svg_231" d="m448.4,378.7l-2,-1.2l-0.1,0.9l2.1,1.2l0,-0.9z"/>
   <path id="svg_232" d="m445.1,379l-7.8,-4.8l-0.2,0.9l7.8,4.8l0.2,-0.9z"/>
   <path id="svg_233" d="m462.7,389.9l-7.7,-4.8l-0.2,0.9l7.8,4.8l0.1,-0.9z"/>
   <path id="svg_234" d="m447.6,380.5l-1.9,-1.2l-0.2,0.9l2,1.2l0.1,-0.9z"/>
   <path id="svg_235" d="m452,383.2l-3.9,-2.4l-0.2,0.9l3.9,2.5l0.2,-1z"/>
   <path id="svg_236" d="m454.5,384.7l-2.1,-1.2l0,1l2,1.2l0.1,-1z"/>
   <path id="svg_237" d="m440.1,378.1l-3.1,-2l-0.2,0.9l3.2,2l0.1,-0.9z"/>
   <path id="svg_238" d="m456,387.8l-2.1,-1.3l-0.1,1l2.1,1.2l0.1,-0.9z"/>
   <path id="svg_239" d="m464.2,392.9l-7.7,-4.8l-0.2,0.9l7.8,4.8l0.1,-0.9z"/>
   <path id="svg_240" d="m444.6,380.8l-3.9,-2.4l-0.1,0.9l3.9,2.4l0.1,-0.9z"/>
   <path id="svg_241" d="m449,383.5l-3.9,-2.4l-0.2,0.9l3.9,2.4l0.2,-0.9z"/>
   <path id="svg_242" d="m453.5,386.2l-4.1,-2.4l-0.1,0.9l4,2.4l0.2,-0.9z"/>
   <path id="svg_243" d="m440.7,380.2l-3.9,-2.4l-0.1,1l3.9,2.4l0.1,-1z"/>
   <path id="svg_244" d="m450.2,386l-3.9,-2.4l-0.2,0.9l3.9,2.4l0.2,-0.9z"/>
   <path id="svg_245" d="m443.1,381.7l-1.9,-1.2l-0.2,1l2,1.2l0.1,-1z"/>
   <path id="svg_246" d="m445.7,383.3l-2,-1.3l-0.1,1l1.9,1.2l0.2,-0.9z"/>
   <path id="svg_247" d="m455.6,389.3l-5,-3l-0.1,0.9l4.9,3.2l0.2,-1.1z"/>
   <path id="svg_248" d="m444.3,384.5l-7.8,-4.8l-0.1,0.9l7.8,4.8l0.1,-0.9z"/>
   <path id="svg_249" d="m458.1,393.1l-1.9,-1.2l-0.2,0.9l1.9,1.2l0.2,-0.9z"/>
   <path id="svg_250" d="m462.6,395.8l-4.1,-2.4l-0.1,0.9l4,2.5l0.2,-1z"/>
   <path id="svg_251" d="m448.7,387.2l-3.9,-2.4l-0.2,0.9l3.9,2.4l0.2,-0.9z"/>
   <path id="svg_252" d="m453,389.9l-3.9,-2.4l-0.1,0.9l3.9,2.6l0.1,-1.1z"/>
   <path id="svg_253" d="m455.6,391.4l-2,-1.2l-0.1,1.1l1.9,1.2l0.2,-1.1z"/>
   <path id="svg_254" d="m443.9,386.6l-7.8,-4.8l-0.2,0.9l7.8,4.8l0.2,-0.9z"/>
   <path id="svg_255" d="m461.5,397.6l-7.6,-4.8l-0.1,0.9l7.6,4.8l0.1,-0.9z"/>
   <path id="svg_256" d="m446.4,388.1l-1.9,-1.2l-0.2,0.9l2,1.4l0.1,-1.1z"/>
   <path id="svg_257" d="m450.8,390.8l-3.9,-2.4l-0.2,1.1l3.9,2.4l0.2,-1.1z"/>
   <path id="svg_258" d="m453.3,392.5l-1.9,-1.4l-0.2,1.1l2,1.2l0.1,-0.9z"/>
   <path id="svg_259" d="m440.4,386.6l-4.6,-2.8l-0.2,0.9l4.7,2.8l0.1,-0.9z"/>
   <path id="svg_260" d="m454.2,395l-2.1,-1.2l0,0.9l2,1.4l0.1,-1.1z"/>
   <path id="svg_261" d="m462.4,400.3l-7.7,-4.8l-0.2,0.9l7.8,4.8l0.1,-0.9z"/>
   <path id="svg_262" d="m442.8,388.1l-1.9,-1.2l-0.2,0.9l2,1.2l0.1,-0.9z"/>
   <path id="svg_263" d="m447.2,390.8l-3.9,-2.4l-0.2,0.9l3.9,2.4l0.2,-0.9z"/>
   <path id="svg_264" d="m451.7,393.5l-3.9,-2.4l-0.2,0.9l3.9,2.4l0.2,-0.9z"/>
   <path id="svg_265" d="m439.5,388l-3.9,-2.6l-0.1,1.1l3.9,2.4l0.1,-0.9z"/>
   <path id="svg_266" d="m452.9,396.1l-2.1,-1.2l-0.2,0.9l2.1,1.2l0.2,-0.9z"/>
   <path id="svg_267" d="m445.8,391.9l-5.8,-3.6l-0.2,0.9l5.9,3.6l0.1,-0.9z"/>
   <path id="svg_268" d="m450.3,394.6l-4,-2.4l-0.2,0.9l4.1,2.4l0.1,-0.9z"/>
   <path id="svg_269" d="m463.9,403l-10.6,-6.6l-0.1,0.9l10.7,6.7l0,-1z"/>
   <path id="svg_270" d="m438.5,389.3l-3.2,-1.9l-0.1,1l3.1,2l0.2,-1.1z"/>
   <path id="svg_271" d="m448.1,395.3l-2.1,-1.3l-0.2,1l2.1,1.2l0.2,-0.9z"/>
   <path id="svg_272" d="m452.4,398l-3.9,-2.4l-0.1,0.9l3.9,2.4l0.1,-0.9z"/>
   <path id="svg_273" d="m440,390.2l-1.1,-0.6l-0.1,0.9l1,0.8l0.2,-1.1z"/>
   <path id="svg_274" d="m443.6,392.5l-3.2,-2l-0.1,1.1l3.1,1.9l0.2,-1z"/>
   <path id="svg_275" d="m445.5,393.7l-1.5,-0.9l-0.1,1l1.5,0.8l0.1,-0.9z"/>
  </g>
  <path id="svg_276" fill="#2c4482" d="m467.4,436.7l4.3,-0.9l13.5,-65.8l-4.3,0.7l-13.5,66z"/>
  <path id="svg_277" fill="#506dad" d="m435.6,346l45.3,24.7l4.3,-0.7l-43.9,-24l-5.7,0z"/>
  <path id="svg_278" fill="#8fc1ff" d="m450.8,403.3l-11.1,-7.2l0,0.1l11.1,7.1zm1.9,1.3l-1.5,-0.9l0,0.1l1.5,0.8z"/>
  <path id="svg_279" fill="#8fc1ff" d="m450.5,404.2l-10.8,-7l0,0.1l10.8,6.9zm2.5,1.6l-2.4,-1.6l-0.1,0.1l2.5,1.6l0,-0.1z"/>
  <path id="svg_280" fill="#8fc1ff" d="m449.9,404.9l-10.3,-6.7l0,0.1l10.3,6.6zm3,1.9l-3,-1.9l-0.1,0.1l3.1,1.8z"/>
  <path id="svg_281" fill="#8fc1ff" d="m449.3,405.6l-9.9,-6.4l0,0.1l9.9,6.3zm3.6,2.3l-3.4,-2.2l-0.1,0.1l3.4,2.2l0.1,-0.1z"/>
  <path id="svg_282" fill="#8fc1ff" d="m446.4,404.7l-7,-4.6l0,0.1l7,4.5zm6.3,4.2l-3.7,-2.4l-0.1,0l-0.1,-0.1l-2.1,-1.3l-0.1,0l6.3,4l-0.2,-0.2z"/>
  <path id="svg_283" fill="#8fc1ff" d="m446,405.6l-6.7,-4.3l0,0.1l6.7,4.2zm6.6,4.4l-6.6,-4.2l0,0.1l6.6,4.3l0,-0.2z"/>
  <path id="svg_284" fill="#8fc1ff" d="m445.5,406.4l-6.4,-4.2l0,0.1l6.4,4.1zm7.1,4.6l-6.9,-4.5l0,0.1l6.9,4.5l0,-0.1z"/>
  <path id="svg_285" fill="#8fc1ff" d="m443.3,406.1l-4.2,-2.7l0,0.1l4.2,2.6zm1.8,1.2l-1.3,-0.9l0,0.1l1.3,0.8zm7.3,4.8l-7.2,-4.6l0,0.1l7.2,4.5z"/>
  <path id="svg_286" fill="#8fc1ff" d="m442.8,406.8l-3.9,-2.5l0,0.1l3.9,2.4zm9.5,6.2l-9.3,-6l-0.1,0.1l9.4,6.1l0,-0.2z"/>
  <path id="svg_287" fill="#8fc1ff" d="m440.6,406.5l-1.6,-1l0,0.1l1.6,0.9zm11.7,7.5l-11.5,-7.5l-0.1,0.1l11.5,7.5l0.1,-0.1z"/>
  <path id="svg_288" fill="#8fc1ff" d="m440,407.3l-1.2,-0.7l0,0.1l1.2,0.6zm12.1,7.8l-12,-7.8l-0.1,0.1l12.1,7.8l0,-0.1z"/>
  <path id="svg_289" fill="#8fc1ff" d="m439.4,408l-0.7,-0.4l0,0.1l0.7,0.3zm12.6,8.1l-12.4,-8.1l-0.1,0.1l12.5,8z"/>
  <path id="svg_290" fill="#8fc1ff" d="m438.8,408.6l-0.3,-0.1l0,0.1l0.3,0zm13.2,8.6l-12.9,-8.4l-0.1,0.1l13,8.3z"/>
  <path id="svg_291" fill="#8fc1ff" d="m451.8,418.2l-13.5,-8.7l0,0.2l13.5,8.7l0,-0.2z"/>
  <path id="svg_292" fill="#fed22c" d="m440.6,406.4l-0.1,0.1l-0.4,0.6l-0.1,0.1l-0.4,0.6l-0.1,0.1l-0.4,0.6l-0.1,0.1l-0.3,0.4l-0.3,0.3l0,0.1l0.1,0l0.1,-0.1l0.4,-0.6l0.1,-0.1l0.4,-0.6l0.1,-0.1l0.4,-0.6l0.1,-0.1l0.4,-0.6l0,-0.2l0.1,0c0,0.1 0,0.1 0,0m1.6,0.7l-1.2,-0.7l0,0.1l1.2,0.7c0,0.1 0,0.1 0,-0.1zm1.1,-0.6l-0.4,0.4l-0.1,0.1l-0.1,0.1s0,0.1 0.1,0.1l0.3,-0.3l0.1,-0.1l0.3,-0.4c-0.2,0.1 -0.2,0.1 -0.2,0.1m0.4,0s0,0.2 0,0l0.9,1l0,-0.1l-0.9,-0.9zm2.7,-1.6l-0.4,0.7l0,0.1l-0.3,0.7l0,0.1l-0.4,0.7l0,0.1l-0.1,0.1s0,0.1 0.1,0.1l0.1,-0.3l0,-0.1l0.4,-0.7l0,-0.1l0.3,-0.7l0,-0.1l0.3,-0.6zm2.3,1l-1.8,-1.2l0,0.1l1.9,1.2c-0.1,0.1 -0.1,0.1 -0.1,-0.1zm2.1,-2.2l-0.4,0.4l-0.1,0.1l-0.4,0.6l-0.1,0.1l-0.4,0.6l-0.1,0.1l-0.1,0.3s0,0.1 0.1,0.1l0.3,-0.3l0.1,-0.1l0.4,-0.6l0.1,-0.1l0.4,-0.6l0.1,-0.1l0.3,-0.4c-0.1,0.1 -0.1,-0.1 -0.2,-0.1m1.9,0.9l-1.5,-0.9l0,0.1l1.5,0.8c0,0.1 0,0.1 0,0z"/>
  <path id="svg_293" fill="#ffa92e" d="m440.9,405.9c-0.1,-0.1 -0.3,0 -0.3,0.1s0,0.1 0,0.3c0,0 0,0.1 0.1,0.1c0.1,0.1 0.3,0 0.3,-0.1s0,0 0,-0.1c0,0 -0.1,-0.1 -0.1,-0.3"/>
  <path id="svg_294" fill="#ffa92e" d="m442.5,407.1c-0.1,0 -0.1,0 -0.3,0.1l0,0.1l0,0.1s0.1,0.3 0.1,0.4c0.1,0.1 0.3,0 0.3,-0.1c0,0 0,-0.1 0,-0.3c0.1,-0.1 0.1,-0.1 -0.1,-0.3z"/>
  <path id="svg_295" fill="#ffa92e" d="m443.6,406.1c-0.1,0 -0.1,0 -0.3,0l0,0.1s0,0.1 0,0.3c0,0 0,0.1 0.1,0.1c0,0 0,0 0.1,0.1l0.3,0s0,0 0,-0.1l0,-0.1c-0.1,-0.3 -0.2,-0.4 -0.2,-0.4"/>
  <path id="svg_296" fill="#ffa92e" d="m444.8,407.6c-0.1,0 -0.1,0 0,0c-0.1,0 -0.1,0 -0.1,0.1c0,0.1 0.1,0.4 0.1,0.4c0.1,0.1 0.3,0 0.3,-0.1s0,-0.1 0,-0.3c-0.2,0 -0.2,-0.1 -0.3,-0.1c0.1,0 0.1,0 0,0"/>
  <path id="svg_297" fill="#ffa92e" d="m446.6,404.3c-0.1,-0.1 -0.3,0 -0.3,0.1s0,0.1 0,0.3s0,0.1 0.1,0.1l0.1,0s0,0 0,-0.1c0.4,-0.1 0.2,-0.2 0.1,-0.4"/>
  <path id="svg_298" fill="#ffa92e" d="m449,405.8c-0.1,-0.1 -0.3,0 -0.3,0.1l0,0.1l0,0.1l0.1,0.1l0.1,0l0.1,-0.1c0,-0.1 0,-0.1 0,-0.3c0.1,0.1 0,0.1 0,0c0,0.1 0,0.1 0,0"/>
  <path id="svg_299" fill="#ffa92e" d="m451.1,403.3c-0.1,0 -0.1,0 -0.3,0l0,0.1l0,0.3s0,0.1 0.1,0.1l0.1,0c0.1,0.1 0.3,0 0.3,-0.1s0,0 0,-0.1c0,0 0,0 0,-0.1c-0.1,-0.1 -0.1,-0.2 -0.2,-0.2"/>
  <path id="svg_300" fill="#ffa92e" d="m453,404.5c-0.1,0 -0.1,0 -0.3,0l0,0.1s0.1,0.3 0.1,0.4c0.1,0.1 0.3,0 0.3,-0.1c0.1,-0.2 0.1,-0.3 -0.1,-0.4"/>
  <path id="svg_301" fill="#506dad" d="m439.7,395l-0.2,0.2l-1.5,15.4l0.2,0.3l13.5,8.8l0.1,-0.1l-0.1,-0.3l-13.4,-8.7l0,-0.9l0,-0.2l0,0.2l-0.1,0l0,-0.2l0.3,-0.3l0,-0.6l0,-0.1l0.1,-0.9l0,-0.2l0,-0.9l0.2,-0.1l0,-0.9l0,-0.2l0.1,-0.8l0,-0.2l0.2,-0.7l0,-0.2l0,-0.9l0,-0.1l0.1,-0.9l0,-0.2l0.2,-0.9l0,-0.1l0,-0.9l0,-0.2l0.1,-0.9l0,-0.1l0.2,-0.9l0,-0.2l0,-0.9l0,-0.1l0.1,-0.8l-0.1,-0.3z"/>
  <path id="svg_302" fill="#2c4482" d="m416.1,386.8s3.6,9.7 8.1,13.8c1,0.9 -0.3,5.7 -1.2,5.7c-4.6,0.3 -10.2,-10.3 -10.5,-12.7c-0.3,-2.5 2.3,-8 3.6,-6.8z"/>
  <path id="svg_303" fill="#ffd0c0" d="m425.4,399.5s11.1,-6.1 13.9,-7.5c2.8,-1.5 7.8,-0.6 8.4,0.4s-3.3,4.6 -4.8,3.9s-2.2,-0.7 -2.2,-0.7s-13.5,10.9 -16.3,9.6s1,-5.7 1,-5.7z"/>
  <path id="svg_304" fill="#6a33d3" d="m436.5,399.5l1.4,0l20.3,-17.7l-21.7,17.7z"/>
  <path id="svg_305" fill="#ffd0c0" d="m443.4,393.5c-1.6,1.2 -1.2,4 0.7,4c1.8,0 4.6,-3 3.6,-4.8c-0.8,-1.6 -2.9,-0.1 -4.3,0.8z"/>
  <path id="svg_306" fill="#def5ff" d="m425.1,399.2c-0.4,0 -0.7,0.1 -1,0.4c-1,1.5 -4.2,5.8 -3.7,6.1c0.6,0.3 4.8,1.8 5.1,0.1c0.1,-1.2 0.6,-3.9 0.7,-5.4c0.1,-0.6 -0.3,-1.2 -0.9,-1.2l-0.2,0z"/>
  <ellipse id="svg_307" transform="matrix(0.9583 -0.2858 0.2858 0.9583 -41.3729 341.5)" ry="6.7" rx="14.4" opacity="0.5" fill="#e62a7d" cy="241.10617" cx="402.56557"/>
  <path id="svg_308" fill="#2c4482" d="m406.1,459.5l0,1.9l-1,0s-1,-4.3 -0.6,-4.8c0.4,-0.4 3.4,-1.2 5.5,0.4c1.9,1.6 4.8,4.6 3.4,4.9c-1.3,0.4 -2.4,0.7 -7.3,-2.4z"/>
  <path id="svg_309" fill="#ffd0c0" d="m403.7,431.9s1.2,24.6 1.2,25.3s5.1,3.1 5.7,2.7s-1.8,-3 -1.8,-3l1.2,-24.9l-6.3,0l0,-0.1z"/>
  <path id="svg_310" fill="#2c4482" d="m414.9,455.7l0,1.9l-0.9,0s-1,-4.3 -0.6,-4.8c0.4,-0.4 3.4,-1.2 5.5,0.4c1.9,1.6 4.8,4.6 3.4,4.9c-1.4,0.6 -2.4,0.8 -7.4,-2.4z"/>
  <path id="svg_311" fill="#ffd0c0" d="m412.7,428.3s1.2,24.6 1.2,25.3s5.1,3.1 5.7,2.7s-1.8,-3 -1.8,-3l1.2,-24.9l-6.3,0l0,-0.1z"/>
  <path id="svg_312" fill="#506dad" d="m402.6,433.4s8.8,5.8 18.1,-2.8c0,0 0.4,-16.9 -0.3,-20.2c-0.7,-3.1 -5.5,-5.2 -8.7,-3.4c-3.1,1.8 -8.1,5.4 -8.5,8.4c-0.4,2.7 -0.6,18 -0.6,18z"/>
  <path id="svg_313" fill="#2c4482" d="m415.1,407.1s-4.6,9.1 -11.8,8.1c0,0 -0.4,-5.8 3.7,-9.3c0,0 -4.8,-11.1 -5.8,-13.5c-1,-2.5 2.7,-5.2 4.3,-6.4c1.8,-1.2 9.6,-2.1 11.2,0c1.5,2.1 4.8,7 4.3,8.4c-0.3,1.3 -2.4,2.2 -2.4,2.2s0,6.4 0.3,7.3c0.3,0.7 1.8,4.5 1.6,7.6c0.3,0.1 -4.2,-1.2 -5.4,-4.4z"/>
  <path id="svg_314" fill="#233560" d="m416.7,386c1.3,1.6 2.5,3.4 3.6,5.4c0.3,0.4 0.4,1 0.7,1.5c0.1,0.4 0.4,1 0.3,1.8c-0.4,1.2 -1.5,1.8 -2.4,2.4l0.1,-0.3l0,3.7c0,1.2 0,2.5 0.3,3.6c0.7,2.4 1.5,4.9 1.2,7.5c0,-2.5 -0.9,-4.9 -1.8,-7.2c-0.3,-0.7 -0.1,-1.3 -0.3,-1.9l-0.1,-1.9c0,-1.2 -0.1,-2.5 -0.1,-3.7l0,-0.1l0.1,-0.1c0.9,-0.4 1.8,-1 2.1,-1.9c0.1,-0.3 0,-0.9 -0.1,-1.3s-0.4,-1 -0.6,-1.5c-0.6,-2.4 -1.8,-4.2 -3,-6z"/>
  <path id="svg_315" fill="#182642" d="m406.8,399.2c1,0.1 1.9,0.3 2.8,0.3l1.3,0s0.9,-0.1 1.5,-0.3c-0.3,0.4 -0.7,0.7 -1.3,0.9c-0.4,0.1 -1,0.1 -1.5,0.1c-1,-0.1 -2,-0.4 -2.8,-1z"/>
  <path id="svg_316" fill="#182642" d="m415.1,392.9c0.4,2.4 0.4,4.8 0.4,7.2s-0.1,4.8 -0.4,7.2c-0.1,-1.2 -0.1,-2.4 -0.1,-3.6l0,-3.6c-0.1,-2.5 -0.1,-4.8 0.1,-7.2z"/>
  <path id="svg_317" fill="#2c4482" d="m393.8,400s2.1,3 3.9,4c0,0 5.5,-8.7 7.3,-11.4s0,-6.6 -3.3,-3c-3.6,3.8 -7.9,10.4 -7.9,10.4z"/>
  <path id="svg_318" fill="#ffd0c0" d="m380.3,394.1s-6.7,2.2 -6.3,4.2c0.6,1.9 5.2,1.8 7.9,-0.3c0,0 9,11.7 13.6,8.7l-3,-5.1s-5.1,-3.3 -8.1,-6.7c-3.1,-3.4 -4.8,-5.4 -5.2,-4.5s1.1,3.7 1.1,3.7z"/>
  <path id="svg_319" fill="#def5ff" d="m392.9,400.4c-0.3,0.3 -0.3,0.7 -0.3,1c0.6,1.8 2.2,6.7 2.8,6.6c0.6,-0.3 4.3,-2.8 3.1,-4c-0.9,-0.9 -2.8,-2.7 -3.9,-3.7c-0.5,-0.5 -1.3,-0.3 -1.7,0.1z"/>
  <path id="svg_320" fill="#def5ff" d="m415.1,392.9s-3.4,-2.4 -6.1,-3.6c-2.5,-1.2 -6,-2.2 -3.7,-3.9s4.6,-1 4.6,-1s4.7,4.9 5.2,8.5z"/>
  <path id="svg_321" fill="#def5ff" d="m411,384.2s2.8,-0.9 4.3,0s3,1.9 2.2,3.6c-0.7,1.5 -2.2,4 -2.5,5.1l-4,-8.7z"/>
  <path id="svg_322" fill="#bd1159" d="m403.4,373.1s-0.7,4.5 -1,7.6s2.4,4 6.6,1.5c0,0 6.4,1.5 12.3,-2.8c0.1,-0.1 -12.8,-10.6 -17.9,-6.3z"/>
  <path id="svg_323" fill="#ffd0c0" d="m410.7,380.8s2.2,-0.3 2.8,-1.3c0.9,-1.5 -0.7,-1.9 -1.5,-1.5c0,0 0.3,-5.1 -3.6,-6.4s-4.6,2.1 -4.9,4.3c-0.3,2.1 -0.6,6.4 2.4,6.9c2.9,0.4 3.6,-1.1 4.8,-2z"/>
  <path id="svg_324" fill="#bd1159" d="m407.7,372.2s-3.9,2.8 -6,0.9c-2.2,-1.8 0,-3.6 2.4,-4.6c2.2,-1 7.5,-3.1 11.1,-0.7s2.4,9.6 6.3,11.7c-0.1,-0.2 -10.8,2.5 -13.8,-7.3z"/>
  <path id="svg_325" fill="#fff" d="m405.8,379.7c0.7,0 1.6,-0.9 2.1,0c0.4,0.9 -0.7,1.8 -2.1,1.6c-1.4,0.1 -2.1,-1.6 0,-1.6z"/>
  <path id="svg_326" fill="#ffd0c0" d="m407.4,382.7s-0.3,3.4 0,3.7s6.3,2.5 7.2,4.5c0,0 -0.6,-5.1 -1.9,-6.6l-0.4,-4.9l-4.9,3.3z"/>
  <path id="svg_327" fill="#ffd0c0" d="m348.1,410.6s-0.1,8.8 -0.4,11.2s1.6,4.8 5.1,2.8l0,-13.3l-4.7,-0.7z"/>
  <path id="svg_328" fill="#ffa92e" d="m347.6,411.6s2.1,3.6 4.6,2.1s1.6,-13 1.6,-13s-5.7,0.5 -6.2,10.9z"/>
  <path id="svg_329" fill="#ffd0c0" d="m366.4,406.7s1.2,-3 2.1,-3.7s1,1.8 1,1.8s3,-0.9 3.9,0.6s-4.3,5.2 -4.3,5.2l-2.7,-3.9z"/>
  <path id="svg_330" fill="#512514" d="m353,474.3s0,4.6 0.3,5.1c0.3,0.4 3.3,-0.3 5.2,-1.3s6.1,-3.9 3.6,-4s-5.4,-0.6 -5.4,-0.6l-3.7,0.8z"/>
  <path id="svg_331" fill="#512514" d="m362.6,478.2s0.3,4 0.3,5.1s1.5,1.3 4.2,0s7.3,-4.8 4.8,-5.1s-5.5,-0.7 -5.5,-0.7l-3.8,0.7z"/>
  <path id="svg_332" fill="#2c4482" d="m351.4,432.6s0.7,41.4 1.2,42.6c0.4,1.2 4.3,0.9 5.8,-1l-1,-33.3s1.9,0 3.1,0.1c0,0 1.8,36.9 1.9,38.1c0.1,1 4.3,1.5 5.8,-1.2l-0.7,-43c0.2,-0.2 -11.5,-4.4 -16.1,-2.3z"/>
  <path id="svg_333" fill="#02e1c1" d="m374,411.2l0,5.2s0.7,2.2 3.1,2.2s3.1,-0.4 3.1,-1.8s0,-3.4 0,-4.3s-1.3,-1.8 -3.1,-2.2c-1.8,-0.3 -3.1,0.1 -3.1,0.9z"/>
  <path id="svg_334" fill="#76391d" d="m376.4,412.8c-1.2,-0.3 -2.2,-1.2 -1.5,-1.8c0.7,-0.7 4.5,0.4 4.5,1.3s-1.4,1 -3,0.5z"/>
  <path id="svg_335" fill="#ffd0c0" d="m357.1,401s1.2,-5.7 1.2,-7s0.6,-6.3 3.9,-7.3s6.6,-0.3 6.6,3.4s1.5,8.2 0.3,8.5c-1,0.3 -3.9,-0.3 -3.9,-0.3l-0.7,5.7l-7.4,-3z"/>
  <path id="svg_336" fill="#76391d" d="m365.2,396.1s-3.3,0.9 -3.1,-1.8c0.1,-2.5 2.7,-2.1 2.7,-2.1s0.4,-4.5 3.9,-3c0,0 6.7,-3.4 4.3,-4s-6.4,-0.9 -6.4,-0.9s5.5,-2.1 2.4,-2.4s-5.1,1.2 -8.7,0.9s-6.1,1.8 -5.8,5.4s0.9,7.2 0,7.9c-1,0.7 -2.5,2.1 -0.6,2.1c1.9,0.1 3.3,-0.6 3.3,-0.6s0,0.6 -1.2,0.9c-1.3,0.4 1.1,3.4 9.2,-2.4z"/>
  <path id="svg_337" fill="#ffa92e" d="m351.1,431.9s3.9,9.7 16.6,3.3c0,0 0.1,-23.7 0,-26.7s-0.1,-3.9 -4,-6.3s-7,-2.8 -9.7,-1.8s-3.6,4.6 -3.3,11.7c0.2,7.3 0.4,19.8 0.4,19.8z"/>
  <path id="svg_338" fill="#c67b17" d="m350.6,408.2c0.7,3.9 0.9,7.9 1,11.8c0,3.9 0,7.9 -0.4,11.8c-0.7,-3.9 -0.9,-7.9 -1,-11.8c-0.2,-3.9 -0.2,-7.8 0.4,-11.8z"/>
  <path id="svg_339" fill="#ffd0c0" d="m367.8,417s5.5,10.5 6.3,11.8s5.1,-2.8 7,-5.1c1.8,-2.4 3.9,-5.4 2.1,-8.5s-4.8,-1.5 -3.7,0.7s0.6,3.1 -0.3,4c-0.9,1 -3,3 -3,3l-4.5,-8.5l-3.9,2.6z"/>
  <path id="svg_340" fill="#ffa92e" d="m365.8,405.5c-1.5,0.6 -2.8,4.8 2.1,12.6c0,0 2.7,-0.1 4.8,-3.4c-0.1,-0.1 -3.8,-10.5 -6.9,-9.2z"/>
  <path id="svg_341" opacity="0.8" fill="#ffe9e3" d="m630.7,331.7c9,2.7 15.1,8.2 13.9,12.4s-9.6,5.4 -18.4,2.7c-9,-2.7 -15.1,-8.2 -13.9,-12.4c1.1,-4.2 9.4,-5.4 18.4,-2.7z"/>
  <path id="svg_342" fill="#fff" d="m616.1,288.3s3,1 5.2,1c0,0 2.4,-12 0.6,-12.9s-3.3,0.3 -4.3,4.6c-1.2,4.3 -1.5,7.3 -1.5,7.3z"/>
  <path id="svg_343" fill="#c45f3f" d="m607.6,286.2s-1.3,-2.7 -3.3,-0.9c-1.9,1.8 -0.9,5.4 1,5.1c0,0 9.4,4.3 13.2,4.6c3.7,0.3 2.7,-3.3 2.1,-5.2l-4.5,-1.2c0,0.1 -1.6,1.5 -8.5,-2.4z"/>
  <path id="svg_344" fill="#a0432a" d="m607.7,288.7c-0.3,0.1 -0.7,0.1 -1.2,0.1c-0.1,0 -0.4,0 -0.6,-0.1c-0.3,-0.1 -0.3,-0.6 -0.3,-0.7c0,-0.4 0.4,-0.9 0.9,-1c0.4,-0.1 0.7,-0.1 1.2,-0.1l-0.3,0.1c0,0.1 0,-0.1 0,-0.3s-0.1,-0.3 -0.1,-0.4l-0.4,-0.9c0.3,0.1 0.4,0.4 0.7,0.7c0.1,0.1 0.1,0.3 0.3,0.4c0,0.1 0.1,0.3 0.1,0.7l0,0.1l-0.1,0c-0.3,0 -0.7,0.1 -1,0.1c-0.3,0.1 -0.4,0.1 -0.4,0.6l0,0.3s0.1,0.1 0.3,0.1c0.2,0.2 0.5,0.2 0.9,0.3z"/>
  <path id="svg_345" fill="#def5ff" d="m616.1,289.5l4.2,0.9c0.6,0.1 1,-0.1 1.2,-0.7c0.1,-0.6 -0.1,-1.2 -0.7,-1.3l-4,-1.3c-0.6,-0.1 -1.2,0.1 -1.3,0.7l-0.1,0.4c-0.2,0.5 0.1,1.1 0.7,1.3z"/>
  <path id="svg_346" fill="#233560" d="m616.1,339.1c-1.3,-0.1 0.1,-3.3 3.7,-7.6l3.9,-0.4s0.6,3.7 -0.1,4.3s-1.2,-1.2 -1.2,-1.2s-4.3,5.2 -6.3,4.9z"/>
  <path id="svg_347" fill="#c45f3f" d="m621.2,318.7s-1,12.1 -1.2,12.7c-0.3,0.6 -3,4.3 -1.3,4s5.2,-3.3 5.2,-3.3l1.5,-12.4l-4.2,-1z"/>
  <path id="svg_348" fill="#233560" d="m642,345.1c1.3,-0.1 -0.1,-3.3 -3.7,-7.6l-3.9,-0.4s-0.6,3.7 0.1,4.3s1.2,-1.2 1.2,-1.2s4.4,5 6.3,4.9z"/>
  <path id="svg_349" fill="#c45f3f" d="m637.3,317.2s0.7,19.6 1,20.2s3,4.3 1.3,4s-5.2,-3.3 -5.2,-3.3l-1.3,-19.8l4.2,-1.1z"/>
  <path id="svg_350" fill="#506dad" d="m620.6,318.7c0,0.4 9.6,6.4 18.4,0c0,0 -0.3,-15.3 -1.8,-19.3s-2.7,-5.4 -2.7,-5.4l-11.8,2.8c-0.1,0 -2.8,7.4 -2.1,21.9z"/>
  <path id="svg_351" fill="#fff" d="m622.6,296.8s6.9,0.6 11.8,-2.8c0,0 0.3,-13.2 0,-15s-5.2,-3.3 -8.7,-3.4c-3.4,-0.1 -5.2,1.5 -5.8,3.4c-0.4,2.1 -1.6,7.5 -0.6,9.3c1,1.6 3.3,5.7 3.4,6.6c0.3,0.9 -0.1,1.9 -0.1,1.9z"/>
  <path id="svg_352" fill="#a6dfff" d="m625.7,275.7c-1,0 -2.2,0.1 -3.1,0.6c-0.9,0.4 -1.8,1.2 -2.1,2.1c-0.6,1.9 -0.9,4.2 -1.2,6.3c-0.1,1 -0.1,2.1 0.1,3.1c0.4,0.9 1,1.8 1.6,2.8c0.4,0.9 1,1.9 1.5,3c0.1,0.4 0.4,1 0.4,1.6s-0.1,1 -0.3,1.6c0.1,-0.6 0.1,-1 0.1,-1.6c0,-0.4 -0.3,-1 -0.6,-1.5c-0.4,-0.9 -1,-1.9 -1.6,-2.8l-0.9,-1.3c-0.3,-0.4 -0.6,-0.9 -0.9,-1.5c-0.4,-1.2 -0.3,-2.2 -0.3,-3.4c0.1,-1 0.3,-2.2 0.4,-3.3l0.3,-1.6c0.1,-0.4 0.3,-1 0.4,-1.6c0.4,-1 1.5,-1.8 2.5,-2.2c1.5,-0.5 2.7,-0.5 3.7,-0.3z"/>
  <path id="svg_353" fill="#def5ff" d="m626.8,284.4l-4,-3.9l3.1,-4.9s3.7,0.7 3.9,1.8c0,1 -3,7 -3,7z"/>
  <path id="svg_354" fill="#def5ff" d="m619.1,283.9l3.6,-3.3l0,-4.9c-0.1,0 -6,0.4 -3.6,8.2z"/>
  <path id="svg_355" fill="#a6dfff" d="m622.6,280.6c-0.1,1.5 -0.3,2.8 -0.4,4.3c0,0.7 -0.1,1.5 -0.1,2.1l0,1s0.1,0.6 0.3,0.9c0.6,1.2 1.6,2.2 2.4,3.6c0.7,1.2 1.2,2.8 0.9,4.2c0,-1.5 -0.6,-2.8 -1.5,-3.9c-0.7,-1.2 -1.8,-2.2 -2.5,-3.6c-0.1,-0.3 -0.3,-0.7 -0.3,-1.2s0,-0.7 0,-1.2c0,-0.7 0.1,-1.5 0.3,-2.2c0.1,-1.3 0.6,-2.6 0.9,-4z"/>
  <path id="svg_356" fill="#2c4482" d="m635.2,295s-4.2,4.3 -13,3.4c0,0 -1.6,-2.1 0.7,-3.6c0,0 2.4,2.5 11.7,-1.5c-0.2,0.1 0.4,0.1 0.6,1.7z"/>
  <path id="svg_357" fill="#c45f3f" d="m622.6,280.6s3.1,-1.5 3.1,-3.1c0,-1.8 0,-4.2 0,-4.2l-4.3,0.4s-0.2,4.5 1.2,6.9z"/>
  <path id="svg_358" fill="#38170d" d="m618.8,263.8s-1.3,-1.6 -4,0s-0.9,9.3 3.4,7.5l0.6,-7.5z"/>
  <path id="svg_359" fill="#512514" d="m622,273.7c-0.1,-0.3 -4.2,0.1 -5.4,-3.6s0,-9.7 7.3,-9.1c0,0 2.1,-2.2 4.8,-0.6c2.5,1.6 1,7.9 1,7.9l-7.7,5.4z"/>
  <path id="svg_360" fill="#c45f3f" d="m620.5,270.4c-1.3,1 0.1,5.4 3,4.2c0,0 2.4,1.3 5.1,0.7s2.5,-2.4 2.2,-4.9s-1,-5.5 -5.4,-5.7c0,0 0.4,4.5 -2.5,5.8c0,0.2 -1.4,-1 -2.4,-0.1z"/>
  <path id="svg_361" fill="#fff" d="m618.8,278.5l0,-4.8s10.8,-0.3 13.3,1c2.5,1.5 2.4,4.6 2.1,5.8c-0.3,1 -5.2,-0.9 -7.6,-1.3s-7.8,-0.7 -7.8,-0.7z"/>
  <path id="svg_362" fill="#a6dfff" d="m631,280.5l-3,-0.7c-0.4,-0.1 -1,-0.3 -1.5,-0.3c-0.4,-0.1 -1,-0.1 -1.5,-0.1c-2.1,-0.1 -4,-0.3 -6.1,-0.4l-0.3,0l0,-0.3c0,-1.6 0,-3.1 0,-4.8l0,-0.3l0.3,0c2.2,0 4.5,0 6.7,0.1c1.2,0.1 2.2,0.1 3.3,0.3s2.2,0.4 3.3,0.9c-1,-0.4 -2.1,-0.6 -3.3,-0.6c-1,-0.1 -2.2,-0.1 -3.3,-0.1c-2.2,0 -4.5,0 -6.7,0l0.3,-0.3l0,4.8l-0.3,-0.3c2.1,0.1 4,0.3 6.1,0.6c0.4,0.1 1,0.1 1.5,0.3c0.4,0.1 1,0.3 1.5,0.4l3,0.8z"/>
  <path id="svg_363" fill="#c45f3f" d="m617.5,274.2s-10.5,-0.3 -13.5,-0.3s-6.3,1.3 -7.9,2.7c-1.6,1.3 -0.9,2.8 2.7,2.7s4.6,-1.2 4.6,-1.2l13.9,-0.1l0,-3.7l0.2,-0.1z"/>
  <path id="svg_364" fill="#def5ff" d="m616.7,274.3l0.4,4.3c0,0.6 0.4,0.9 1,0.9c0.6,0 1,-0.4 1,-1l0,-4.2c0,-0.6 -0.4,-1 -1,-1l-0.4,0c-0.5,-0.2 -1,0.4 -1,1z"/>
  <ellipse id="svg_365" transform="matrix(0.3679 -0.9299 0.9299 0.3679 685.413 1517.32)" ry="59.4" rx="26.7" opacity="0.5" fill="#fed22c" cy="-376.52025" cx="1053.11622"/>
  <path id="svg_366" fill="#38170d" d="m684.9,388s4.9,4 4.8,4.8s-1.5,2.4 -3.4,2.1c-2.1,-0.3 -4.9,-2.5 -4.9,-3.4c0,-0.7 0.1,-2.7 0.1,-2.7l3.4,-0.8z"/>
  <path id="svg_367" fill="#38170d" d="m695.1,382.4s4.9,4 4.8,4.8c-0.1,0.7 -1.5,2.4 -3.4,2.1c-2.1,-0.3 -4.9,-2.5 -4.9,-3.4c0,-0.7 0.1,-2.7 0.1,-2.7l3.4,-0.8z"/>
  <path id="svg_368" fill="#233560" d="m682.5,350.9s-0.1,27.4 -2.1,38.7c0,0 3.1,0.6 5.8,-0.9c0,0 4,-17.5 4.3,-32.8c0,0 1,0 1.6,-0.3c0,0 -0.4,21.7 -1.6,28.8c0,0 3.7,-0.3 5.1,-1.9c0,0 3.3,-18.1 3.6,-31.5c0.3,-0.1 -11,-3.7 -16.7,-0.1z"/>
  <path id="svg_369" fill="#2c4482" d="m693.2,319.3s3.7,-0.3 6.3,6.4c2.5,6.7 4.2,17.5 4.2,17.5l-6.1,1.8l-4.4,-25.7z"/>
  <path id="svg_370" fill="#2c4482" d="m682.1,350.8s9.3,3.4 17.4,0.1c0,0 -1.3,-19.3 -1.6,-23.2s-3,-8.1 -4.6,-8.4c-1.5,-0.3 -4.8,-0.3 -6.9,0.1s-6,0.9 -5.8,3.9c0.1,3.2 2.2,19.1 1.5,27.5z"/>
  <path id="svg_371" fill="#233560" d="m682.1,350.8c2.8,0.9 5.8,1.3 8.7,1.3c1.5,0 3,-0.1 4.3,-0.3c1.5,-0.1 2.8,-0.6 4.2,-1.2l-0.1,0.3c-0.3,-3.9 -0.4,-7.8 -0.7,-11.5c-0.1,-3.9 -0.4,-7.8 -0.4,-11.7c0.4,3.9 0.7,7.8 1,11.5c0.3,3.9 0.6,7.8 0.9,11.5l0,0.3l-0.1,0.1c-1.3,0.4 -2.8,0.9 -4.3,1.2c-1.5,0.1 -3,0.3 -4.5,0.1c-3.3,0 -6.3,-0.6 -9,-1.6z"/>
  <path id="svg_372" fill="#233560" d="m689.7,323.6c0.7,2.2 1.2,4.6 1.5,7s0.4,4.8 0.6,7.2c0.1,2.4 0.1,4.8 0.1,7.2l-0.1,3.6c-0.1,1.2 -0.1,2.4 -0.3,3.6c0,-4.8 0,-9.6 -0.3,-14.4c-0.1,-2.4 -0.3,-4.8 -0.4,-7.2c-0.3,-2.2 -0.6,-4.6 -1.1,-7z"/>
  <path id="svg_373" fill="#60bfff" d="m693.5,345.7l9,-5l-1.1,7.7l-7.9,-2.7z"/>
  <path id="svg_374" fill="#a6dfff" d="m701.1,338.2l10.8,-6.3l0,9.9l-10.5,6.6l-0.3,-10.2z"/>
  <path id="svg_375" fill="#ffa784" d="m708,340.7c-1.6,0.7 -1.6,1.5 -1.5,3c0,1.5 -0.6,2.7 0.7,2.4s2.7,-1.6 2.5,-3c0.1,-1.5 0.6,-3.4 -1.7,-2.4z"/>
  <path id="svg_376" fill="#fff" d="m689.7,323.6l-1.2,3.4s-4.6,-4.9 -4.8,-6.7c-0.3,-1.8 1.3,-2.5 2.2,-2.4c1.1,0.2 3.8,5.7 3.8,5.7z"/>
  <path id="svg_377" fill="#fff" d="m692,325.7l-2.2,-2.1s-1.9,-5.2 -1.2,-5.8c0.9,-0.6 1.9,0.1 2.8,1.6s0.6,6.3 0.6,6.3z"/>
  <path id="svg_378" fill="#ffa784" d="m689.7,323.6s-4.8,-4.2 -4.6,-4.8c0.1,-0.6 0,-4.3 0,-4.3s0.4,-7.5 1.5,-8.1s7.6,-1 7.6,1.8c0,3 0.3,8.8 -0.6,9.1s-3.4,0.1 -4.2,-0.3l0.4,2.1c0.1,0.3 0.4,3.3 -0.1,4.5z"/>
  <path id="svg_379" fill="#512514" d="m685.8,312s1.3,-2.4 1.5,-4.2c0,0 7.3,3.3 10.2,-2.8c0,0 -1.8,0.3 -3.3,-1c-1.3,-1.2 -7.3,-5.1 -10.2,-0.3c0,0 -1.9,-0.1 -2.1,2.2c-0.1,2.4 -0.1,6 1,7.2l2.9,-1.1z"/>
  <path id="svg_380" fill="#fff" d="m690.5,315.8c-1.9,-0.4 -1.8,-1.9 -1,-2.7c0.7,-0.7 1.5,1 2.5,1.3c1,0.2 1,1.9 -1.5,1.4z"/>
  <path id="svg_381" fill="#ffa784" d="m685.1,314.5s-2.5,-1 -2.1,-2.8s1.8,-1.5 2.7,-0.1c0.7,1.1 -0.6,2.9 -0.6,2.9z"/>
  <path id="svg_382" fill="#2c4482" d="m682.5,321.1c-1,-0.7 -3.9,1.5 -5.5,15.7c-0.3,2.4 -1.3,3.3 -1.9,2.2c-1.2,-1.8 -2.4,-5.8 -2.4,-5.8s-2.8,2.2 -3.4,4.2c0,0 3.3,6.6 5.2,8.7c2.1,2.2 5.7,0 6.6,-2.5c3.4,-8.1 2.5,-21.8 1.4,-22.5z"/>
  <path id="svg_383" fill="#233560" d="m677,336.8c-0.1,0.9 -0.1,1.8 -0.7,2.4c-0.1,0.1 -0.3,0.3 -0.6,0.3s-0.4,-0.1 -0.6,-0.4c-0.3,-0.3 -0.4,-0.7 -0.6,-1.2c-0.7,-1.5 -1.3,-3.1 -1.9,-4.8l0.4,0.1c-0.7,0.6 -1.3,1.2 -1.9,1.9s-1,1.3 -1.3,2.2l0,-0.1c1.2,2.4 2.5,4.6 3.9,6.9c0.7,1 1.5,2.2 2.7,2.5s2.4,-0.3 3.3,-1.2c1,-0.9 1.5,-1.9 1.9,-3.3c0.4,-1.2 0.7,-2.5 1,-3.7c0.4,-2.5 0.9,-5.2 1,-7.9c0,2.7 -0.1,5.4 -0.6,7.9c-0.3,1.3 -0.4,2.5 -0.9,3.9c-0.1,0.6 -0.4,1.3 -0.7,1.9s-0.7,1.2 -1.3,1.6c-1,0.9 -2.4,1.6 -3.9,1.3c-0.7,-0.1 -1.3,-0.6 -1.8,-1c-0.4,-0.4 -0.9,-1 -1.2,-1.6c-1.5,-2.2 -2.7,-4.6 -3.9,-7l0,-0.1l0,-0.1c0.3,-0.9 0.9,-1.8 1.5,-2.4c0.6,-0.7 1.3,-1.3 2.1,-1.9l0.3,-0.3l0.1,0.3c0.4,1.6 1,3.3 1.6,4.8c0.1,0.4 0.3,0.7 0.6,1.2c0.1,0.1 0.3,0.3 0.4,0.3s0.3,-0.1 0.4,-0.1c0.4,-0.6 0.5,-1.5 0.7,-2.4z"/>
  <path id="svg_384" fill="#ffa784" d="m668.7,329.5c0,0.1 -5.5,-1.2 -5.8,1.5s3.3,3.3 4.8,2.8l1.5,3l2.8,-4.2l-1.5,-2.8s-0.3,-3.1 -1,-2.8c-0.6,0.4 -0.2,1.4 -0.8,2.5z"/>
  <path id="svg_385" fill="#fff" d="m672.5,332.5s-4.3,4.3 -3.9,5.1s0.9,2.2 1.5,1.5s3.7,-4.6 3.4,-5.2c-0.1,-0.5 -0.4,-2 -1,-1.4z"/>
  <path id="svg_386" fill="#dd9385" d="m705.9,361.1l21.2,-11.1l35.3,20.3l-22.5,12.1l-34,-21.3z"/>
  <path id="svg_387" fill="#c67967" d="m705.9,361.1l0,3.9l32.2,21.5l0,25.3l1.8,1.5l0,-30.9l-34,-21.3z"/>
  <path id="svg_388" fill="#aa5f48" d="m739.9,413.3l0,-30.9l22.5,-12.1l0,31.2l-3.1,2.2l0,-27.1l-16.8,9.9l0,25.3l-2.6,1.5z"/>
  <path id="svg_389" fill="#c67967" d="m757.2,402.7l2.1,1l0,-27.1l-2.1,1.3l0,24.8z"/>
  <path id="svg_390" fill="#233560" d="m750.7,368.2l1.2,-1.4l0,-17.5l-1.2,0.6l0,18.3z"/>
  <path id="svg_391" fill="#506dad" d="m718.5,365.6l7.8,-5.2l16.2,9.9l-8.7,6l-15.3,-10.7z"/>
  <path id="svg_392" fill="#233560" d="m742.5,372.7l0,-2.4l-8.7,6l8.7,-3.6z"/>
  <path id="svg_393" fill="#506dad" d="m735.7,365.8c-2.8,-1.8 -2.8,-3.1 -1.8,-3.9c1,-0.7 2.8,-0.3 4.9,0.9s4.6,4 3.6,4.8c-1.3,0.6 -4.1,-0.2 -6.7,-1.8z"/>
  <path id="svg_394" fill="#2c4482" d="m736.8,359.8l0,3.1c0,0.9 2.4,2.8 2.4,0.9s0,-3.7 0,-3.7l-2.4,-0.3z"/>
  <path id="svg_395" fill="#506dad" d="m727.5,355.1l0,-19l23.2,13.8l0,18.3l-23.2,-13.1z"/>
  <path id="svg_396" fill="#380d8c" d="m729,354.2l0,-15.6l20.2,12.2l0,15l-20.2,-11.6z"/>
  <path id="svg_397" fill="#2c4482" d="m727.5,336.1l23.2,13.8l1.2,-0.6l-22.2,-13.5l-2.2,0.3z"/>
  <path id="svg_398" fill="#e62a7d" d="m732.7,319.3l0,4.8l6.3,3.6l0,-5l-6.3,-3.4z"/>
  <path id="svg_399" fill="#5513bc" d="m728.5,313l0,2.5l4.2,2.6l0,-3l-4.2,-2.1z"/>
  <path id="svg_400" fill="#fed22c" d="m724.5,329.3l0,-7.9l10.3,6l0,8.1l-10.3,-6.2z"/>
  <path id="svg_401" fill="#03f4d1" d="m737.1,330.5l0,4.4l5.7,3.4l0,-4.8l-5.7,-3z"/>
  <path id="svg_402" fill="#60bfff" d="m741.7,325.4l0,4.2l5.7,3.6l0,-4.9l-5.7,-2.9z"/>
  <path id="svg_403" fill="#512514" d="m716.4,400.7s-0.7,1.9 0.4,2.5c1.2,0.6 4,-0.3 6.1,-1.5s2.7,-2.1 0.4,-2.1c-2.2,0 -3.9,0 -3.9,0l-3,1.1z"/>
  <path id="svg_404" fill="#506dad" d="m721.1,381.5l0.1,18.6s-1.5,2.1 -4.8,1.3l0.4,-13.5l-2.5,-2.2l6.8,-4.2z"/>
  <path id="svg_405" fill="#512514" d="m722.3,403.7s-0.7,1.9 0.4,2.5c1.2,0.6 4,-0.3 6.1,-1.5s2.7,-2.1 0.4,-2.1s-3.9,0 -3.9,0l-3,1.1z"/>
  <path id="svg_406" fill="#2c4482" d="m727.2,384.2l-0.1,18.9s-1.5,2.1 -4.8,1.3l0.4,-13.5l-2.5,-2.2l7,-4.5z"/>
  <path id="svg_407" fill="#126d9b" d="m701.9,403.4c0,1 -0.9,1.9 -1.9,1.9s-1.9,-0.9 -1.9,-1.9s0.9,-1.9 1.9,-1.9s1.9,0.9 1.9,1.9z"/>
  <path id="svg_408" fill="#126d9b" d="m702.8,411.8c0,1 -0.9,1.9 -1.9,1.9s-1.9,-0.9 -1.9,-1.9s0.9,-1.9 1.9,-1.9s1.9,0.7 1.9,1.9z"/>
  <path id="svg_409" fill="#126d9b" d="m717,411.8c0,1 -0.9,1.9 -1.9,1.9s-1.9,-0.9 -1.9,-1.9s0.9,-1.9 1.9,-1.9s1.9,0.7 1.9,1.9z"/>
  <path id="svg_410" fill="#126d9b" d="m718.2,403.7c0,1 -0.9,1.9 -1.9,1.9s-1.9,-0.9 -1.9,-1.9s0.9,-1.9 1.9,-1.9c1,-0.2 1.9,0.7 1.9,1.9z"/>
  <path id="svg_411" fill="#a6dfff" d="m705.9,396.8l0,8.7s1.2,2.1 2.2,2.2c0.9,0.1 2.1,-0.7 2.1,-2.4c0,-1.6 0,-7.8 0,-7.8l-4.3,-0.7z"/>
  <path id="svg_412" fill="#a6dfff" d="m706.5,404.7s-6.3,3.7 -7,4.3c-0.7,0.7 1,3.3 3.4,1.9c2.4,-1.3 5.1,-3.9 5.1,-3.9l-1.5,-2.3z"/>
  <path id="svg_413" fill="#a6dfff" d="m707.1,403.7s-4.2,-3.3 -5.8,-3.3s-3.1,1.8 -1.5,2.5s6.3,3.4 6.3,3.4l1,-2.6z"/>
  <path id="svg_414" fill="#a6dfff" d="m708.6,403.4s4.3,-2.4 5.7,-2.8c1.3,-0.3 4.6,0.4 1.8,2.2s-7,3.9 -7,3.9l-0.5,-3.3z"/>
  <path id="svg_415" fill="#a6dfff" d="m708.6,407.7s4.6,3.3 6.6,3.3c1.9,0 3.1,-1.3 1.3,-2.5c-1.8,-1 -5.8,-3.1 -5.8,-3.1l-2.1,2.3z"/>
  <path id="svg_416" fill="#def5ff" d="m710.7,399.7c-2.1,0.1 -11.5,-4.8 -13.6,-5.8s-0.9,-5.8 -0.9,-5.8l26.4,2.5s0.1,2.4 0,3.3c0,0.8 -7.4,5.5 -11.9,5.8z"/>
  <path id="svg_417" fill="#3d99df" d="m696.3,388c1.5,-1.2 9.1,-4.5 10.6,-4.9c1.3,-0.4 11.4,3.9 14.1,5.7s1.9,1.9 -0.7,3.3s-6.7,4.9 -10.6,3.4c-3.9,-1.7 -14.9,-6.5 -13.4,-7.5z"/>
  <path id="svg_418" fill="#506dad" d="m710.3,384.2s7.8,-4.8 8.8,-4.8s2.2,0.3 1.9,3.4l-8.8,4.9l-1.9,-3.5z"/>
  <path id="svg_419" fill="#ffa784" d="m721.8,370.3s1.8,-1.3 3,-1.3s2.5,0.6 2.5,0s-1.6,-0.7 -1.8,-1.2c-0.1,-0.4 1.6,-0.7 2.5,-0.6c0.9,0 1.2,-1 -1,-1.9c-2.4,-0.9 -7,1.8 -7,1.8l1.8,3.2z"/>
  <path id="svg_420" fill="#ffa784" d="m709.2,358.4l0,-5.1l4.7,2.3l0,3.3l-4.7,-0.5z"/>
  <path id="svg_421" fill="#ffa784" d="m709.7,350.8s0.1,1.5 1.2,3.6c0,0 2.2,3.6 5.4,2.7c3.1,-0.9 3.3,-2.5 2.5,-5.5c-0.7,-3 -1.5,-6.7 -3.6,-6.7s-6.1,1.1 -5.5,5.9z"/>
  <path id="svg_422" fill="#233560" d="m709.7,350.8s1.9,-1.5 1.9,-4.2c0,0 3.4,0.9 6.7,-0.7c0,0 -0.6,-0.9 -1.3,-1c0,0 2.2,0 3.9,-0.6c0,0 -2.1,-1.5 -5.1,-1c0,0 3,-1.8 3.4,-4.5c0,0 -4.2,3 -6,3s-6.1,-0.9 -7.2,0.6c0,0 -1.5,0.4 -1,4.8c0.4,4.3 2.8,7.3 2.8,7.3l0.9,-0.4l1,-3.3z"/>
  <path id="svg_423" fill="#ffa784" d="m710.9,354.2s-1.5,0.6 -2.5,-1.3c-1.2,-1.9 -0.1,-3.4 1.3,-2.2c1.5,1.1 1.2,3.5 1.2,3.5z"/>
  <path id="svg_424" fill="#fff" d="m716,352.7c-1,-0.4 -2.4,-0.1 -2.1,1c0.3,1.2 1.9,1.9 3.3,1.3c1.5,-0.6 1.3,-2.4 0.6,-2.2c-0.6,0.2 -1.1,0.2 -1.8,-0.1z"/>
  <path id="svg_425" fill="#ffe9b3" d="m701.6,383.5c0,1.2 3.1,4.5 9.1,4.5s7.6,-2.1 7.8,-3.4c0.1,-1.3 0,-13.8 0,-16.8c0,-3.1 -0.6,-6.4 -2.7,-8.7c-2.1,-2.2 -6.6,-3.7 -9.3,-1.5c-3.4,2.7 -5.1,8.4 -5.1,15.7c0,7.2 0.2,9 0.2,10.2z"/>
  <path id="svg_426" fill="#ffe9b3" d="m713,366.2c2.5,4.3 8.4,13.5 9.7,13.2c1.2,-0.3 4.3,-2.5 4.3,-2.5s-0.6,-3.1 -1.5,-3.7l-0.9,0.1s-5.2,-8.4 -7,-11.4c-1.8,-2.9 -7.2,0 -4.6,4.3z"/>
  <path id="svg_427" fill="#ffdd7a" d="m717,372.7c1.3,1.8 2.7,3.7 4.3,5.5c0.4,0.4 0.9,0.9 1.2,1c0,0 0.1,0 0.3,-0.1c0.1,0 0.3,-0.1 0.4,-0.1c0.3,-0.1 0.4,-0.3 0.7,-0.4c1,-0.6 1.9,-1.2 2.8,-1.9l-0.1,0.3c-0.1,-0.6 -0.3,-1.3 -0.4,-1.9c-0.1,-0.3 -0.1,-0.6 -0.3,-0.9c-0.1,-0.3 -0.3,-0.6 -0.4,-0.6l0.3,0l-0.9,0.1l-0.3,0l-0.1,-0.1c-1.2,-1.9 -2.4,-3.7 -3.4,-5.7c-1.2,-1.9 -2.2,-3.9 -3.3,-5.8c1.2,1.8 2.5,3.7 3.7,5.5s2.4,3.7 3.6,5.5l-0.3,-0.1l0.9,-0.1l0.1,0l0.1,0c0.4,0.3 0.6,0.6 0.7,0.9s0.3,0.6 0.4,1c0.1,0.6 0.3,1.3 0.4,1.9l0,0.1l-0.1,0.1c-0.9,0.7 -1.9,1.3 -3,1.9c-0.3,0.1 -0.4,0.3 -0.7,0.4c-0.1,0 -0.3,0.1 -0.4,0.1s-0.3,0.1 -0.6,0.1c-0.7,-0.3 -1,-0.7 -1.5,-1.2c-1.7,-1.5 -2.9,-3.6 -4.1,-5.5z"/>
  <path id="svg_428" fill="#2c4482" d="m701.9,384.2s-0.6,4.6 2.5,6.6c3.1,1.9 9,1.8 13.5,-0.4s8.7,-4.8 9.1,-5.7c0.4,-1 0,-3.1 -2.2,-3.4s-8.2,4 -9.4,4.5c-1.2,0.4 -13.5,-1.6 -13.5,-1.6z"/>
  <path id="svg_429" fill="#ffa784" d="m725.6,373.1s3.7,-1.3 4.5,-2.2c0.7,-0.9 1.2,-2.4 1.6,-1.9c0.4,0.3 -0.4,1.6 -0.1,2.1c0.3,0.4 1.6,-0.9 2.1,-1.6c0.6,-0.7 1.6,-0.3 0.9,2.1s-7.5,5.1 -7.5,5.1l-1.5,-3.6z"/>
  <path id="svg_430" fill="#ffdd7a" d="m724.8,372.5l2.3,5.1l1.1,-0.6l-1.6,-5.7l-1.8,1.2z"/>
  <path id="svg_431" fill="#60bfff" d="m697.7,365c-1,-0.4 -4.3,1.5 -4.2,2.8l14.8,19.6s3.7,-1.5 4.2,-2.2c0.6,-0.7 1.2,-9 0,-11.2c-1.2,-2.1 -10.6,-7 -14.8,-9z"/>
  <path id="svg_432" fill="#def5ff" d="m693.5,367.9c0,1.3 0.6,10.6 0.9,12s11.5,6.9 13,7.5s1.8,-1.8 1.6,-5.5c-0.1,-3.6 1.2,-6 -2.5,-8.2s-13,-7.2 -13,-5.8z"/>
  <path id="svg_433" fill="#a6dfff" d="m700.7,398.6c-1.2,-0.6 -1.2,-2.4 -1.3,-5.7s-0.4,-16.2 -0.4,-17.7s3,-0.9 3.1,1.2s0.4,18.6 0.4,20.2c0.1,1.6 -1.1,2.5 -1.8,2z"/>
  <path id="svg_434" fill="#ffd0c0" d="m760.2,343.7l-0.3,-3.6s-3.1,1.3 -3.1,0.3c0.1,-1 0.3,-9.4 1,-10.2c0.7,-0.7 6,-1.6 6.7,2.4s0.3,9.3 0.3,9.3l-4.6,1.8z"/>
  <path id="svg_435" fill="#fff" d="m757.8,337.3c-0.3,0.1 -0.6,0.3 -0.9,0.3c0,0.6 0,1.2 -0.1,1.6c2.2,-0.6 1.7,-2.4 1,-1.9z"/>
  <path id="svg_436" fill="#233560" d="m753,413.3c-3.3,-1.6 -3.9,-2.2 -2.8,-2.8c1,-0.6 5.1,-1.2 5.1,-1.2s3.9,0.6 3.9,1.9s0.7,3.7 -1,3.6c-1.9,-0.5 -3.3,-0.6 -5.2,-1.5z"/>
  <path id="svg_437" fill="#233560" d="m765.7,405.2s-4.5,-0.3 -4.3,0.4c0.3,0.7 2.8,3 4.9,3.9c2.2,0.9 3.3,0.9 3.4,0s0,-3.1 0,-3.1l-4,-1.2z"/>
  <path id="svg_438" fill="#1f84c1" d="m753.7,409.5s2.7,2.7 5.5,1.6l0.9,-30.7s2.2,-0.1 4,-1.3c0,0 0.6,22.5 0.9,26.7c0,0 2.2,1.9 4.8,1.3c0,0 -1.3,-14.4 -1,-20.8s0.6,-14.8 0.6,-14.8l-14.7,3.4c0.1,-0.1 -1.3,26.3 -1,34.6z"/>
  <path id="svg_439" fill="#e62a7d" d="m754.8,374.8s9.6,3.7 14.8,-3c0,0 2.5,-18.3 3.1,-22.5c0.4,-4.2 -2.2,-8.1 -6.3,-8.4c-3.9,-0.3 -9.3,3.6 -10.2,7c-0.7,3.5 -1.7,18.5 -1.4,26.9z"/>
  <path id="svg_440" fill="#6a33d3" d="m761.4,338.6s1.3,-1 0.6,-2.8s-2.1,-1 -2.4,0.1l-0.3,-4.2s-1.8,2.7 -2.7,2.5c-0.9,-0.1 0,-1.9 0,-1.9s-2.5,0.3 -0.6,-1.3c0,0 -3.4,0 -0.9,-1.6c2.5,-1.5 3.7,-1.5 3.7,-1.5s-0.9,-1.6 0.3,-1.9s3.1,1.2 3.1,1.2s7.2,-1.2 4.8,0.7c0,0 5.4,1.3 2.2,2.4c0,0 5.5,3 0.9,3.3c0,0 0.9,4.8 -1.2,2.5c0,0 0.9,5.7 -0.9,3c0,0 0,3.9 -1.6,1.3c0,0 -0.4,3.7 -1.6,1.2c0,0 -2.5,1.2 -1.6,-1.9c0.1,0.1 -3.3,1.3 -1.8,-1.1z"/>
  <path id="svg_441" fill="#ffd0c0" d="m740.7,352.6s0,-3.4 -0.7,-3.3c-0.7,0.3 -0.7,2.1 -0.7,2.1s-1.9,-0.3 -2.4,0.7c-0.3,1 0.1,3.6 1.3,3.3c0,0 7.5,8.2 9.3,9.3c1.8,1 3.3,-2.1 3.3,-2.1l-2.7,-3.9s-1.5,0.3 -4.2,-2.5c-2.9,-2.9 -3.2,-3.6 -3.2,-3.6z"/>
  <path id="svg_442" fill="#e62a7d" d="m747.9,358.7s0,4 1.3,6.3c0,0 7.9,-6.9 10,-9.7s1.3,-7.8 0,-9s-1.8,-1 -5.2,3.6c-3.3,4.8 -6.1,8.8 -6.1,8.8z"/>
  <path id="svg_443" fill="#bd1159" d="m754,350c-1.9,3 -3.9,6 -5.8,9l0,-0.1c0,2.1 0.3,4.3 1.3,6.1l-0.4,-0.1c1.8,-1.5 3.4,-3.1 5.2,-4.6c1.6,-1.6 3.4,-3.1 4.9,-4.9c-0.6,1 -1.5,1.8 -2.2,2.7s-1.6,1.6 -2.4,2.5c-1.6,1.6 -3.4,3.1 -5.1,4.8l-0.3,0.3l-0.1,-0.3c-0.6,-1 -0.9,-2.1 -1,-3.1s-0.3,-2.2 -0.3,-3.3l0,-0.1c1.9,-3.2 4.1,-6.2 6.2,-8.9z"/>
  <path id="svg_444" fill="#ff65a7" d="m748.5,358l-1.6,0.4s-0.3,5.1 0.7,7.8c0,0 2.1,0.4 2.5,-2.2l-1.6,-6z"/>
  <g id="svg_445" clip-path="url(#c)" opacity="0.43" fill="none" stroke="#fff" stroke-width="2" stroke-miterlimit="10">
   <path id="svg_446" d="m1013.7,3.2l-470.9,470.9"/>
   <path id="svg_447" d="m1021.7,3.2l-470.9,470.9"/>
   <path id="svg_448" d="m1029.7,3.2l-470.9,470.9"/>
   <path id="svg_449" d="m1037.7,3.2l-470.9,470.9"/>
   <path id="svg_450" d="m1045.7,3.2l-470.9,470.9"/>
   <path id="svg_451" d="m1053.7,3.2l-470.9,470.9"/>
   <path id="svg_452" d="m1061.7,3.2l-470.9,470.9"/>
   <path id="svg_453" d="m1069.7,3.2l-470.9,470.9"/>
   <path id="svg_454" d="m1077.7,3.2l-470.9,470.9"/>
   <path id="svg_455" d="m1085.7,3.2l-470.9,470.9"/>
   <path id="svg_456" d="m1093.7,3.2l-470.9,470.9"/>
   <path id="svg_457" d="m1101.7,3.2l-470.9,470.9"/>
   <path id="svg_458" d="m1109.7,3.2l-470.9,470.9"/>
   <path id="svg_459" d="m1117.7,3.2l-470.9,470.9"/>
   <path id="svg_460" d="m1125.7,3.2l-470.9,470.9"/>
   <path id="svg_461" d="m1133.7,3.2l-470.9,470.9"/>
   <path id="svg_462" d="m1141.7,3.2l-470.9,470.9"/>
   <path id="svg_463" d="m1149.7,3.2l-470.9,470.9"/>
   <path id="svg_464" d="m1157.7,3.2l-470.9,470.9"/>
   <path id="svg_465" d="m1165.7,3.2l-470.9,470.9"/>
   <path id="svg_466" d="m1173.7,3.2l-470.9,470.9"/>
   <path id="svg_467" d="m1181.7,3.2l-470.9,470.9"/>
   <path id="svg_468" d="m1189.7,3.2l-470.9,470.9"/>
   <path id="svg_469" d="m1197.7,3.2l-470.9,470.9"/>
   <path id="svg_470" d="m1205.7,3.2l-470.9,470.9"/>
   <path id="svg_471" d="m1213.7,3.2l-470.9,470.9"/>
   <path id="svg_472" d="m1221.7,3.2l-470.9,470.9"/>
   <path id="svg_473" d="m1229.7,3.2l-470.9,470.9"/>
   <path id="svg_474" d="m1237.7,3.2l-470.9,470.9"/>
   <path id="svg_475" d="m1245.7,3.2l-470.9,470.9"/>
   <path id="svg_476" d="m1253.7,3.2l-470.9,470.9"/>
   <path id="svg_477" d="m1261.7,3.2l-470.9,470.9"/>
   <path id="svg_478" d="m1269.7,3.2l-470.9,470.9"/>
   <path id="svg_479" d="m1277.7,3.2l-470.9,470.9"/>
   <path id="svg_480" d="m1285.7,3.2l-470.9,470.9"/>
   <path id="svg_481" d="m1293.7,3.2l-470.9,470.9"/>
   <path id="svg_482" d="m1301.7,3.2l-470.9,470.9"/>
   <path id="svg_483" d="m1309.7,3.2l-470.9,470.9"/>
   <path id="svg_484" d="m1317.7,3.2l-470.9,470.9"/>
   <path id="svg_485" d="m1325.7,3.2l-470.9,470.9"/>
   <path id="svg_486" d="m1333.7,3.2l-470.9,470.9"/>
   <path id="svg_487" d="m1341.7,3.2l-470.9,470.9"/>
   <path id="svg_488" d="m1349.7,3.2l-470.9,470.9"/>
   <path id="svg_489" d="m1357.7,3.2l-470.9,470.9"/>
   <path id="svg_490" d="m1365.7,3.2l-470.9,470.9"/>
   <path id="svg_491" d="m1373.7,3.2l-470.9,470.9"/>
   <path id="svg_492" d="m1381.7,3.2l-470.9,470.9"/>
   <path id="svg_493" d="m1389.7,3.2l-470.9,470.9"/>
   <path id="svg_494" d="m1397.7,3.2l-470.9,470.9"/>
   <path id="svg_495" d="m1405.7,3.2l-471,470.9"/>
   <path id="svg_496" d="m1413.7,3.2l-471,470.9"/>
   <path id="svg_497" d="m1421.7,3.2l-471,470.9"/>
   <path id="svg_498" d="m1429.7,3.2l-471,470.9"/>
   <path id="svg_499" d="m1437.7,3.2l-471,470.9"/>
   <path id="svg_500" d="m1445.7,3.2l-471,470.9"/>
   <path id="svg_501" d="m1453.7,3.2l-471,470.9"/>
   <path id="svg_502" d="m1461.7,3.2l-471,470.9"/>
   <path id="svg_503" d="m1469.7,3.2l-471,470.9"/>
   <path id="svg_504" d="m1477.7,3.2l-471,470.9"/>
   <path id="svg_505" d="m1485.7,3.2l-471,470.9"/>
   <path id="svg_506" d="m1493.7,3.2l-471,470.9"/>
   <path id="svg_507" d="m1501.7,3.2l-471,470.9"/>
   <path id="svg_508" d="m1509.7,3.2l-471,470.9"/>
  </g>
  <g id="svg_509" stroke-linejoin="round" stroke-linecap="round" stroke="#fff" opacity="0.89" fill="none">
   <ellipse id="svg_510" stroke-width="0.8127" stroke-dasharray="0 4.3408" ry="120.9" rx="120.9" cy="373.6" cx="-331.2"/>
   <ellipse id="svg_511" transform="matrix(0.7071 -0.7071 0.7071 0.7071 -180.483 311.497)" stroke-width="0.9011" stroke-dasharray="0 4.2576" ry="115.2" rx="115.2" cy="-62.68905" cx="-150.48905"/>
   <ellipse id="svg_512" stroke-width="0.9894" stroke-dasharray="0 4.1948" ry="109.5" rx="109.5" cy="373.6" cx="-331.2"/>
   <ellipse id="svg_513" transform="matrix(0.7071 -0.7071 0.7071 0.7071 -180.483 311.497)" stroke-width="1.0778" stroke-dasharray="0 4.1013" ry="103.8" rx="103.8" cy="-62.68905" cx="-150.48905"/>
   <ellipse id="svg_514" stroke-width="1.1662" stroke-dasharray="0 4.0279" ry="98.1" rx="98.1" cy="373.6" cx="-331.2"/>
   <ellipse id="svg_515" stroke-width="1.2546" stroke-dasharray="0 3.9755" ry="92.4" rx="92.4" cy="373.6" cx="-331.2"/>
   <ellipse id="svg_516" transform="matrix(0.7071 -0.7071 0.7071 0.7071 -180.483 311.497)" stroke-width="1.343" stroke-dasharray="0 3.8899" ry="86.7" rx="86.7" cy="-62.68905" cx="-150.48905"/>
   <ellipse id="svg_517" stroke-width="1.4314" stroke-dasharray="0 3.8251" ry="81" rx="81" cy="373.6" cx="-331.2"/>
   <ellipse id="svg_518" transform="matrix(0.7071 -0.7071 0.7071 0.7071 -180.483 311.497)" stroke-width="1.5197" stroke-dasharray="0 3.7532" ry="75.3" rx="75.3" cy="-62.68905" cx="-150.48905"/>
   <ellipse id="svg_519" stroke-width="1.6081" stroke-dasharray="0 3.6727" ry="69.6" rx="69.6" cy="373.6" cx="-331.2"/>
   <ellipse id="svg_520" stroke-width="1.6965" stroke-dasharray="0 3.614" ry="63.9" rx="63.9" cy="373.6" cx="-331.2"/>
   <ellipse id="svg_521" stroke-width="1.7849" stroke-dasharray="0 3.5123" ry="58.1" rx="58.1" cy="373.6" cx="-331.2"/>
   <ellipse id="svg_522" stroke-width="1.8733" stroke-dasharray="0 3.4677" ry="52.4" rx="52.4" cy="373.6" cx="-331.2"/>
   <ellipse id="svg_523" stroke-width="1.9617" stroke-dasharray="0 3.3747" ry="46.7" rx="46.7" cy="373.6" cx="-331.2"/>
   <circle id="svg_524" stroke-width="2.05" stroke-dasharray="0 3.3047" r="41" cy="373.6" cx="-331.2"/>
   <ellipse id="svg_525" stroke-width="2.1383" stroke-miterlimit="3.9999" stroke-dasharray="0 3.2164" ry="35.3" rx="35.3" cy="373.6" cx="-331.2"/>
   <circle id="svg_526" stroke-width="2.2268" stroke-dasharray="0 3.1543" r="29.6" cy="373.6" cx="-331.2"/>
   <ellipse id="svg_527" stroke-width="2.3153" stroke-miterlimit="4.0002" stroke-dasharray="0 3.0669" ry="23.9" rx="23.9" cy="373.6" cx="-331.2"/>
  </g>
  <g id="svg_528" stroke="#fff" opacity="0.4" fill="none">
   <g id="svg_529" stroke-miterlimit="9.9999">
    <ellipse id="svg_530" stroke-width="0.5" ry="141" rx="141" cy="-45.8" cx="-232.3"/>
    <ellipse id="svg_531" transform="matrix(0.7071 -0.7071 0.7071 0.7071 195.736 370.987)" stroke-width="0.6562" ry="133.9" rx="133.9" cy="-597.39876" cx="-7.96989"/>
    <ellipse id="svg_532" transform="matrix(0.7071 -0.7071 0.7071 0.7071 195.736 370.987)" stroke-width="0.8125" ry="126.8" rx="126.8" cy="-597.39876" cx="-7.96989"/>
    <ellipse id="svg_533" transform="matrix(0.7071 -0.7071 0.7071 0.7071 195.736 370.987)" stroke-width="0.9688" ry="119.7" rx="119.7" cy="-597.39876" cx="-7.96989"/>
    <ellipse id="svg_534" transform="matrix(0.7071 -0.7071 0.7071 0.7071 195.736 370.987)" stroke-width="1.125" ry="112.6" rx="112.6" cy="-597.39876" cx="-7.96989"/>
    <ellipse id="svg_535" stroke-width="1.2812" ry="105.5" rx="105.5" cy="-45.8" cx="-232.3"/>
    <ellipse id="svg_536" transform="matrix(0.7071 -0.7071 0.7071 0.7071 195.736 370.987)" stroke-width="1.4375" ry="98.3" rx="98.3" cy="-597.39876" cx="-7.96989"/>
    <ellipse id="svg_537" transform="matrix(0.7071 -0.7071 0.7071 0.7071 195.736 370.987)" stroke-width="1.5938" ry="91.2" rx="91.2" cy="-597.39876" cx="-7.96989"/>
    <ellipse id="svg_538" transform="matrix(0.7071 -0.7071 0.7071 0.7071 195.736 370.987)" stroke-width="1.75" ry="84.1" rx="84.1" cy="-597.39876" cx="-7.96989"/>
    <ellipse id="svg_539" stroke-width="1.9062" ry="77" rx="77" cy="-45.8" cx="-232.3"/>
    <ellipse id="svg_540" transform="matrix(0.7071 -0.7071 0.7071 0.7071 195.736 370.987)" stroke-width="2.0625" ry="69.9" rx="69.9" cy="-597.39876" cx="-7.96989"/>
   </g>
   <ellipse id="svg_541" stroke-width="2.2188" stroke-miterlimit="10.0001" ry="62.8" rx="62.8" cy="-45.8" cx="-232.3"/>
   <ellipse id="svg_542" stroke-width="2.375" stroke-miterlimit="9.9999" ry="55.7" rx="55.7" cy="-45.8" cx="-232.3"/>
   <ellipse id="svg_543" transform="matrix(0.7071 -0.7071 0.7071 0.7071 195.736 370.975)" stroke-width="2.5313" stroke-miterlimit="10.0003" ry="48.6" rx="48.6" cy="-597.39876" cx="-7.96989"/>
   <ellipse id="svg_544" stroke-width="2.6874" stroke-miterlimit="9.9997" ry="41.5" rx="41.5" cy="-45.8" cx="-232.3"/>
   <ellipse id="svg_545" transform="matrix(0.311 -0.9504 0.9504 0.311 424.245 483.636)" stroke-width="2.8439" stroke-miterlimit="10.0004" ry="34.4" rx="34.4" cy="-788.67007" cx="298.98538"/>
   <ellipse id="svg_546" transform="matrix(0.0793571 -0.9968 0.9968 0.0793571 552.977 497.26)" stroke-width="2.9999" stroke-miterlimit="9.9995" ry="27.3" rx="27.3" cy="-825.88509" cx="478.96999"/>
  </g>
  <g id="svg_547" opacity="0.7" fill="#fff">
   <path id="svg_548" d="m145.1,189.8l12.3,-10.5l6.4,3.9l-19,13.9l-6.4,10.6l-6,-3.6l6.4,-10.6l3.3,-23.4l6.4,3.9l-3.4,15.8z"/>
   <path id="svg_549" d="m180.8,193.4l5.9,3.5l-17.6,29.3l-5.9,-3.5l11.6,-19.4l-20.3,14.2l-5.9,-3.6l17.6,-29.3l5.9,3.6l-11.6,19.4l20.3,-14.2zm7.3,-6.1c-1.1,1.8 -2.6,2.8 -4.5,3.2c-1.9,0.3 -4,-0.1 -6,-1.4c-2.1,-1.3 -3.5,-2.8 -4.1,-4.7s-0.4,-3.7 0.7,-5.5l4.2,2.5c-0.5,0.8 -0.6,1.6 -0.4,2.4s0.8,1.4 1.7,1.9s1.7,0.7 2.5,0.5s1.4,-0.7 1.9,-1.5l4,2.6z"/>
   <path id="svg_550" d="m211.9,212.1l-17.6,29.3l-5.9,-3.6l14.6,-24.4l-5.4,-3.3l-6.6,10.2c-2.2,3.3 -4.2,5.8 -6,7.4s-3.6,2.6 -5.3,2.8s-3.6,-0.2 -5.6,-1.4l-1.4,-0.9l2.9,-4.9l0.7,0.3c1.3,0.6 2.7,0.3 4.1,-0.8s3.3,-3.5 5.7,-7.2l8.8,-13.9l17,10.4z"/>
   <path id="svg_551" d="m219.5,256.4l6.3,-10.5l-3.1,-1.9l-10.6,7.9l-6.4,-3.8l12.8,-9.5c-1.4,-3.1 -1.1,-6.4 0.9,-9.7c1.7,-2.9 3.9,-4.6 6.5,-5.2s5.3,0 8.3,1.8l8.8,5.3l-17.6,29.2l-5.9,-3.6zm5.6,-23.5c-1,1.6 -1.4,3 -1.3,4c0.1,1.1 0.8,2 2,2.7l2.7,1.6l5.5,-9.2l-2.9,-1.8c-2.1,-1.2 -4.2,-0.3 -6,2.7z"/>
   <path id="svg_552" d="m230.1,262.8l17.6,-29.3l9,5.4c3.1,1.8 5,3.9 5.7,6.2c0.8,2.3 0.4,4.8 -1.2,7.4c-0.9,1.5 -2,2.6 -3.3,3.2s-2.7,0.9 -4.1,0.7c1.1,1.2 1.6,2.5 1.7,4.1s-0.5,3.2 -1.5,4.8c-1.7,2.8 -3.8,4.5 -6.2,5s-5.1,-0.1 -8.1,-1.9l-9.6,-5.6zm13.5,-9.2l-4.7,7.8l3.8,2.3c1.1,0.6 2.1,0.8 3,0.5s1.8,-1.1 2.5,-2.3c1.6,-2.6 1.4,-4.5 -0.4,-5.8l-4.2,-2.5zm2.6,-4.3l3.1,1.8c2.3,1.4 4.2,0.9 5.6,-1.5c0.8,-1.3 1.1,-2.4 0.9,-3.3s-0.9,-1.7 -2.1,-2.4l-3.1,-1.9l-4.4,7.3z"/>
   <path id="svg_553" d="m272.2,297.9l-5.4,-3.3l4.3,-7.2l-13.8,-8.3l-4.3,7.2l-5.6,-3.4l6.9,-12.3l1.9,1.2c1.3,-0.3 2.8,-1.1 4.3,-2.6s3.3,-3.5 5.2,-6.3l9,-13.1l16.8,10.1l-14.6,24.4l3,1.8l-7.7,11.8zm-9.6,-22.2l8.5,5.1l11.7,-19.4l-5.3,-3.2l-5.3,7.8c-3.3,4.5 -6.5,7.8 -9.6,9.7z"/>
   <path id="svg_554" d="m298,295.4l-8.1,-4.8l-5.2,5l-6.2,-3.8l26.7,-23.8l5.4,3.2l-8.4,34.8l-6.3,-3.8l2.1,-6.8zm-3.8,-9l5.5,3.3l3.5,-12.1l-9,8.8z"/>
   <path id="svg_555" d="m343.4,291.1l-17.6,29.3l-5.9,-3.6l14.6,-24.3l-5.4,-3.3l-6.6,10.1c-2.2,3.3 -4.2,5.8 -6,7.4s-3.6,2.6 -5.3,2.8s-3.6,-0.2 -5.6,-1.4l-1.4,-0.9l2.9,-4.9l0.7,0.4c1.3,0.6 2.7,0.3 4.1,-0.8s3.3,-3.5 5.7,-7.2l8.8,-13.9l17,10.3z"/>
  </g>
 </g>
</svg>