<?xml version="1.0" encoding="utf-8"?>
<!-- Generator: Adobe Illustrator 24.0.0, SVG Export Plug-In . SVG Version: 6.00 Build 0)  -->
<svg version="1.1" id="Layer_1" xmlns="http://www.w3.org/2000/svg" xmlns:xlink="http://www.w3.org/1999/xlink" x="0px" y="0px"
	 viewBox="0 0 1920 350" style="enable-background:new 0 0 1920 350;" xml:space="preserve">
<style type="text/css">
	
</style>
<g id="Layer_2_1_">
	<rect y="0" class="st0" width="1920" height="350"/>
</g>
<g id="Layer_1_2_">
	<g id="Layer_4" class="st1">
		
			<rect x="1592.5" y="20.1" transform="matrix(0.7071 -0.7071 0.7071 0.7071 402.9518 1250.8607)" class="st2" width="237.8" height="237.8"/>
	</g>
	<g id="Layer_3" class="st3">
		
			<linearGradient id="SVGID_1_" gradientUnits="userSpaceOnUse" x1="1977.4059" y1="207.3393" x2="1977.4059" y2="421.7655" gradientTransform="matrix(0.7071 0.7071 1.0176 -1.0176 -156.8872 -1012.8102)">
			<stop  offset="0" style="stop-color:#FFFFFF"/>
			<stop  offset="1" style="stop-color:#000000;stop-opacity:0"/>
		</linearGradient>
		<path class="st4" d="M1452.3,174.4L1452.3,174.4c-15.4-15.4-15.4-40.3,0-55.6l162.6-162.6c15.4-15.4,40.3-15.4,55.6,0l0,0
			c15.4,15.4,15.4,40.3,0,55.6L1508,174.4C1492.6,189.6,1467.7,189.6,1452.3,174.4z"/>
		
			<linearGradient id="SVGID_2_" gradientUnits="userSpaceOnUse" x1="1879.7181" y1="-174.1628" x2="1879.7181" y2="-32.4674" gradientTransform="matrix(0.7071 0.7071 0.7071 -0.7071 243.4019 -1413.0991)">
			<stop  offset="0" style="stop-color:#FFFFFF"/>
			<stop  offset="1" style="stop-color:#000000;stop-opacity:0"/>
		</linearGradient>
		<path class="st5" d="M1449.4,39.2L1449.4,39.2c-7.3-7.3-7.3-19.1,0-26.4l73.6-73.6c7.3-7.3,19.1-7.3,26.4,0l0,0
			c7.3,7.3,7.3,19.1,0,26.4l-73.6,73.6C1468.5,46.5,1456.7,46.5,1449.4,39.2z"/>
		
			<linearGradient id="SVGID_3_" gradientUnits="userSpaceOnUse" x1="2060.5291" y1="-185.5473" x2="2060.5291" y2="-43.9832" gradientTransform="matrix(0.7071 0.7071 0.7071 -0.7071 243.4019 -1413.0991)">
			<stop  offset="0" style="stop-color:#FFFFFF"/>
			<stop  offset="1" style="stop-color:#000000;stop-opacity:0"/>
		</linearGradient>
		<path class="st6" d="M1569.3,175.2L1569.3,175.2c-7.3-7.3-7.3-19.1,0-26.4l73.6-73.8c7.3-7.3,19.1-7.3,26.4,0l0,0
			c7.3,7.3,7.3,19.1,0,26.4l-73.6,73.6C1588.5,182.5,1576.6,182.5,1569.3,175.2z"/>
	</g>
	<g class="st7">
		<line class="st8" x1="1689.1" y1="356" x2="1575" y2="470"/>
		<line class="st8" x1="1680" y1="346.9" x2="1565.9" y2="460.9"/>
		<line class="st8" x1="1670.9" y1="337.8" x2="1556.8" y2="451.6"/>
		<line class="st8" x1="1661.8" y1="328.7" x2="1547.7" y2="442.5"/>
		<line class="st8" x1="1652.7" y1="319.4" x2="1538.6" y2="433.4"/>
		<line class="st8" x1="1643.6" y1="310.3" x2="1529.5" y2="424.3"/>
		<line class="st8" x1="1634.5" y1="301.2" x2="1520.4" y2="415.2"/>
		<line class="st8" x1="1625.2" y1="292.1" x2="1511.3" y2="406.1"/>
		<line class="st8" x1="1616.1" y1="283" x2="1502.2" y2="397"/>
		<line class="st8" x1="1607" y1="273.9" x2="1492.9" y2="387.9"/>
		<line class="st8" x1="1597.9" y1="264.8" x2="1483.8" y2="378.8"/>
		<line class="st8" x1="1588.8" y1="255.7" x2="1474.7" y2="369.7"/>
		<line class="st8" x1="1579.7" y1="246.6" x2="1465.6" y2="360.6"/>
		<line class="st8" x1="1570.6" y1="237.5" x2="1456.5" y2="351.5"/>
		<line class="st8" x1="1561.5" y1="228.4" x2="1447.4" y2="342.2"/>
	</g>
	<g>
		
			<linearGradient id="SVGID_4_" gradientUnits="userSpaceOnUse" x1="-129.2301" y1="-935.098" x2="-129.2301" y2="-1296.7139" gradientTransform="matrix(-0.4778 -0.4778 0.7154 -0.7154 1160.7979 -464.7402)">
			<stop  offset="0" style="stop-color:#FFFFFF"/>
			<stop  offset="1" style="stop-color:#000000;stop-opacity:0"/>
		</linearGradient>
		<path class="st9" d="M553.6,266L553.6,266c17.5,17.5,17.5,45.9,0,63.4L358.3,524.7c-17.5,17.5-45.9,17.5-63.4,0l0,0
			c-17.5-17.5-17.5-45.9,0-63.4L490.1,266C507.6,248.5,536.1,248.5,553.6,266z"/>
		
			<linearGradient id="SVGID_5_" gradientUnits="userSpaceOnUse" x1="-40.1604" y1="-614.0938" x2="-40.1604" y2="-879.5222" gradientTransform="matrix(-0.7071 -0.7071 1.0176 -1.0176 1354.7043 -405.0993)">
			<stop  offset="0" style="stop-color:#FFFFFF"/>
			<stop  offset="1" style="stop-color:#000000;stop-opacity:0"/>
		</linearGradient>
		<path class="st10" d="M758.2,248.2L758.2,248.2c19.1,19.1,19.1,49.9,0,69L557.1,518.3c-19.1,19.1-49.9,19.1-69,0l0,0
			c-19.1-19.1-19.1-49.9,0-69L689.4,248C708.3,229.1,739.1,229.1,758.2,248.2z"/>
		
			<linearGradient id="SVGID_6_" gradientUnits="userSpaceOnUse" x1="-128.7616" y1="-887.1712" x2="-128.7616" y2="-1062.5354" gradientTransform="matrix(-0.7071 -0.7071 0.7071 -0.7071 1287.2714 -337.6661)">
			<stop  offset="0" style="stop-color:#FFFFFF"/>
			<stop  offset="1" style="stop-color:#000000;stop-opacity:0"/>
		</linearGradient>
		<path class="st11" d="M750.9,380.6L750.9,380.6c9.1,9.1,9.1,23.7,0,32.8l-91.1,91.3c-9.1,9.1-23.7,9.1-32.8,0l0,0
			c-9.1-9.1-9.1-23.7,0-32.8l91.3-91.3C727.2,371.6,741.8,371.6,750.9,380.6z"/>
		
			<linearGradient id="SVGID_7_" gradientUnits="userSpaceOnUse" x1="691.116" y1="1780.8838" x2="589.8295" y2="1882.1704" gradientTransform="matrix(1 0 0 1 0 -1464)">
			<stop  offset="0" style="stop-color:#FFFFFF"/>
			<stop  offset="1" style="stop-color:#000000;stop-opacity:0"/>
		</linearGradient>
		<path class="st12" d="M676.2,331.8L676.2,331.8c12.1,12.1,12.1,31.8,0,43.9L494.9,557c-12.1,12.1-31.8,12.1-43.9,0l0,0
			c-12.1-12.1-12.1-31.8,0-43.9l181.2-181.2C644.4,319.6,664.1,319.6,676.2,331.8z"/>
	</g>
	<g class="st13">
		<path class="st14" d="M194.8-45.9c0,2.3-1.8,4.1-4.1,4.1s-4.1-1.8-4.1-4.1s1.8-4.1,4.1-4.1S194.8-48.2,194.8-45.9z"/>
		<circle class="st14" cx="225.6" cy="-45.9" r="4.1"/>
		<circle class="st14" cx="260.2" cy="-45.9" r="4.1"/>
		<path class="st14" d="M298.8-45.9c0,2.3-1.8,4.1-4.1,4.1s-4.1-1.8-4.1-4.1s1.8-4.1,4.1-4.1S298.8-48.2,298.8-45.9z"/>
		<circle class="st14" cx="329.6" cy="-45.9" r="4.1"/>
		<circle class="st14" cx="364.2" cy="-45.9" r="4.1"/>
		<circle class="st14" cx="398.9" cy="-45.9" r="4.1"/>
		<circle class="st14" cx="433.6" cy="-45.9" r="4.1"/>
		<path class="st14" d="M194.8-11.3c0,2.3-1.8,4.1-4.1,4.1s-4.1-1.8-4.1-4.1s1.8-4.1,4.1-4.1C193-15.3,194.8-13.5,194.8-11.3z"/>
		<circle class="st14" cx="225.6" cy="-11.3" r="4.1"/>
		<circle class="st14" cx="260.2" cy="-11.3" r="4.1"/>
		<path class="st14" d="M298.8-11.3c0,2.3-1.8,4.1-4.1,4.1s-4.1-1.8-4.1-4.1s1.8-4.1,4.1-4.1C297-15.3,298.8-13.5,298.8-11.3z"/>
		<circle class="st14" cx="329.6" cy="-11.3" r="4.1"/>
		<circle class="st14" cx="364.2" cy="-11.3" r="4.1"/>
		<circle class="st14" cx="398.9" cy="-11.3" r="4.1"/>
		<circle class="st14" cx="433.6" cy="-11.3" r="4.1"/>
		<path class="st14" d="M194.8,23.4c0,2.3-1.8,4.1-4.1,4.1s-4.1-1.8-4.1-4.1s1.8-4.1,4.1-4.1S194.8,21.1,194.8,23.4z"/>
		<circle class="st14" cx="225.6" cy="23.4" r="4.1"/>
		<circle class="st14" cx="260.2" cy="23.4" r="4.1"/>
		<path class="st14" d="M298.8,23.4c0,2.3-1.8,4.1-4.1,4.1s-4.1-1.8-4.1-4.1s1.8-4.1,4.1-4.1S298.8,21.1,298.8,23.4z"/>
		<circle class="st14" cx="329.6" cy="23.4" r="4.1"/>
		<circle class="st14" cx="364.2" cy="23.4" r="4.1"/>
		<circle class="st14" cx="398.9" cy="23.4" r="4.1"/>
		<circle class="st14" cx="433.6" cy="23.4" r="4.1"/>
		<path class="st14" d="M194.8,58.1c0,2.3-1.8,4.1-4.1,4.1s-4.1-1.8-4.1-4.1s1.8-4.1,4.1-4.1S194.8,55.8,194.8,58.1z"/>
		<circle class="st14" cx="225.6" cy="58.1" r="4.1"/>
		<circle class="st14" cx="260.2" cy="58.1" r="4.1"/>
		<path class="st14" d="M298.8,58.1c0,2.3-1.8,4.1-4.1,4.1s-4.1-1.8-4.1-4.1s1.8-4.1,4.1-4.1S298.8,55.8,298.8,58.1z"/>
		<circle class="st14" cx="329.6" cy="58.1" r="4.1"/>
		<circle class="st14" cx="364.2" cy="58.1" r="4.1"/>
		<circle class="st14" cx="398.9" cy="58.1" r="4.1"/>
		<circle class="st14" cx="433.6" cy="58.1" r="4.1"/>
		<path class="st14" d="M194.8,92.7c0,2.3-1.8,4.1-4.1,4.1s-4.1-1.8-4.1-4.1c0-2.3,1.8-4.1,4.1-4.1S194.8,90.5,194.8,92.7z"/>
		<circle class="st14" cx="225.6" cy="92.7" r="4.1"/>
		<circle class="st14" cx="260.2" cy="92.7" r="4.1"/>
		<path class="st14" d="M298.8,92.7c0,2.3-1.8,4.1-4.1,4.1s-4.1-1.8-4.1-4.1c0-2.3,1.8-4.1,4.1-4.1S298.8,90.5,298.8,92.7z"/>
		<circle class="st14" cx="329.6" cy="92.7" r="4.1"/>
		<circle class="st14" cx="364.2" cy="92.7" r="4.1"/>
		<circle class="st14" cx="398.9" cy="92.7" r="4.1"/>
		<circle class="st14" cx="433.6" cy="92.7" r="4.1"/>
		<path class="st14" d="M194.8,127.4c0,2.3-1.8,4.1-4.1,4.1s-4.1-1.8-4.1-4.1c0-2.3,1.8-4.1,4.1-4.1S194.8,125.1,194.8,127.4z"/>
		<circle class="st14" cx="225.6" cy="127.4" r="4.1"/>
		<circle class="st14" cx="260.2" cy="127.4" r="4.1"/>
		<path class="st14" d="M298.8,127.4c0,2.3-1.8,4.1-4.1,4.1s-4.1-1.8-4.1-4.1c0-2.3,1.8-4.1,4.1-4.1S298.8,125.1,298.8,127.4z"/>
		<circle class="st14" cx="329.6" cy="127.4" r="4.1"/>
		<circle class="st14" cx="364.2" cy="127.4" r="4.1"/>
		<circle class="st14" cx="398.9" cy="127.4" r="4.1"/>
		<circle class="st14" cx="433.6" cy="127.4" r="4.1"/>
	</g>
</g>
<g>
	<g>
		<g>
			
				<ellipse transform="matrix(0.7071 -0.7071 0.7071 0.7071 240.3371 961.5807)" class="st15" cx="1280.9" cy="190.7" rx="155.4" ry="155.4"/>
			<path class="st16" d="M1241.1,92.2c0,6.1-5,11.1-11.1,11.1s-11.1-5-11.1-11.1s5-11.1,11.1-11.1
				C1236.2,81.2,1241.1,86.1,1241.1,92.2z"/>
			<g>
				<g>
					<circle class="st14" cx="1283.9" cy="91.9" r="5.8"/>
					<path class="st14" d="M1306.7,85.2c0,6.2-5,11.2-11.2,11.2s-11.2-5-11.2-11.2s5-11.2,11.2-11.2S1306.7,79,1306.7,85.2z"/>
					<path class="st14" d="M1294.6,95.9c0,3-2.4,5.4-5.4,5.4s-5.4-2.4-5.4-5.4s2.4-5.4,5.4-5.4C1292.2,90.6,1294.6,93,1294.6,95.9z"
						/>
					<circle class="st14" cx="1307.1" cy="92.3" r="11.2"/>
					<circle class="st14" cx="1317.8" cy="93.2" r="6.3"/>
					<path class="st14" d="M1304,95c0,4.7-3.8,8.5-8.5,8.5s-8.5-3.8-8.5-8.5s3.8-8.5,8.5-8.5S1304,90.3,1304,95z"/>
				</g>
				<g>
					<path class="st14" d="M1200.9,126.7c0,1.3-1,2.3-2.3,2.3s-2.3-1-2.3-2.3s1-2.3,2.3-2.3C1199.8,124.4,1200.9,125.4,1200.9,126.7
						z"/>
					<path class="st14" d="M1207.6,124c0,2.5-2,4.4-4.4,4.4c-2.5,0-4.4-2-4.4-4.4c0-2.5,2-4.4,4.4-4.4
						C1205.6,119.6,1207.6,121.5,1207.6,124z"/>
					<path class="st14" d="M1202.8,128.3c0,1.2-1,2.1-2.1,2.1c-1.2,0-2.1-1-2.1-2.1c0-1.2,1-2.1,2.1-2.1
						C1201.9,126.1,1202.8,127.1,1202.8,128.3z"/>
					<path class="st14" d="M1212.3,126.9c0,2.5-2,4.4-4.4,4.4c-2.5,0-4.4-2-4.4-4.4c0-2.5,2-4.4,4.4-4.4
						C1210.3,122.4,1212.3,124.4,1212.3,126.9z"/>
					<path class="st14" d="M1214.6,127.2c0,1.4-1.1,2.5-2.5,2.5s-2.5-1.1-2.5-2.5c0-1.4,1.1-2.5,2.5-2.5S1214.6,125.8,1214.6,127.2z
						"/>
					<path class="st14" d="M1206.6,127.9c0,1.9-1.5,3.4-3.4,3.4s-3.4-1.5-3.4-3.4s1.5-3.4,3.4-3.4S1206.6,126.1,1206.6,127.9z"/>
				</g>
				<g>
					<path class="st14" d="M1386.5,115.7c0,2.6,2.1,4.7,4.7,4.7s4.7-2.1,4.7-4.7s-2.1-4.7-4.7-4.7S1386.5,113.1,1386.5,115.7z"/>
					<path class="st14" d="M1372.8,110.3c0,5,4,9,9,9s9-4,9-9s-4-9-9-9C1376.9,101.3,1372.8,105.3,1372.8,110.3z"/>
					<path class="st14" d="M1382.6,118.9c0,2.4,1.9,4.3,4.3,4.3s4.3-1.9,4.3-4.3s-1.9-4.3-4.3-4.3S1382.6,116.5,1382.6,118.9z"/>
					<path class="st14" d="M1363.5,116c0,5,4,9,9,9s9-4,9-9s-4-9-9-9S1363.5,111.1,1363.5,116z"/>
					<path class="st14" d="M1358.8,116.8c0,2.8,2.3,5,5,5s5-2.3,5-5c0-2.8-2.3-5-5-5S1358.8,114,1358.8,116.8z"/>
					<path class="st14" d="M1375,118.2c0,3.8,3.1,6.8,6.8,6.8c3.8,0,6.8-3.1,6.8-6.8s-3.1-6.8-6.8-6.8
						C1378.1,111.4,1375,114.4,1375,118.2z"/>
				</g>
			</g>
		</g>
		<g>
			<g class="st17">
				<polygon class="st18" points="1387.9,305.7 1419.5,305.7 1419.5,173.1 1387.9,158.9 				"/>
				<rect x="1363" y="224.4" class="st18" width="31.2" height="81.3"/>
				<rect x="1333.7" y="184.2" class="st18" width="29.4" height="121.5"/>
				<rect x="1342.3" y="151.6" class="st18" width="12.1" height="121.5"/>
				<rect x="1347.2" y="109.7" class="st18" width="2.3" height="121.5"/>
				<rect x="1321.5" y="217.2" class="st18" width="15.4" height="88.5"/>
				<rect x="1307.9" y="203.6" class="st18" width="17.2" height="102.1"/>
				<polygon class="st18" points="1275.4,305.7 1310.6,305.7 1310.6,132.4 1275.4,151.2 				"/>
				<rect x="1241.1" y="187.4" class="st18" width="37.5" height="118.3"/>
				<rect x="1227.5" y="238.9" class="st18" width="17.2" height="66.8"/>
				<rect x="1208.6" y="205" class="st18" width="21.7" height="100.7"/>
				<polygon class="st18" points="1162.9,305.7 1209,305.7 1209,188.3 1186,173.5 1162.9,188.3 				"/>
				<rect x="1119.6" y="223" class="st18" width="47.9" height="82.7"/>
				<rect x="1093.4" y="168.8" class="st18" width="30.7" height="136.9"/>
				<rect x="1070.8" y="210.9" class="st18" width="25.7" height="94.9"/>
				<rect x="1414.3" y="212.5" class="st18" width="40.9" height="93.2"/>
				<rect x="1452.1" y="225.5" class="st18" width="30" height="80.2"/>
			</g>
			<g class="st19">
				
					<linearGradient id="SVGID_8_" gradientUnits="userSpaceOnUse" x1="1133.5" y1="93.5" x2="1165.1" y2="93.5" gradientTransform="matrix(1 0 0 -1 0 350)">
					<stop  offset="0" style="stop-color:#A3CCE3"/>
					<stop  offset="1" style="stop-color:#A3CCE3"/>
				</linearGradient>
				<polygon class="st20" points="1165.1,311.9 1133.5,311.9 1133.5,215.3 1165.1,201.1 				"/>
				
					<linearGradient id="SVGID_9_" gradientUnits="userSpaceOnUse" x1="1158.7673" y1="60.75" x2="1189.9338" y2="60.75" gradientTransform="matrix(1 0 0 -1 0 350)">
					<stop  offset="0" style="stop-color:#A3CCE3"/>
					<stop  offset="1" style="stop-color:#A3CCE3"/>
				</linearGradient>
				<polygon class="st21" points="1158.8,311.9 1189.9,311.9 1189.9,266.6 1158.8,266.6 				"/>
				
					<linearGradient id="SVGID_10_" gradientUnits="userSpaceOnUse" x1="1189.9338" y1="80.85" x2="1219.2935" y2="80.85" gradientTransform="matrix(1 0 0 -1 0 350)">
					<stop  offset="0" style="stop-color:#A3CCE3"/>
					<stop  offset="1" style="stop-color:#A3CCE3"/>
				</linearGradient>
				<polygon class="st22" points="1219.3,311.9 1189.9,311.9 1189.9,226.4 1219.3,226.4 				"/>
				
					<linearGradient id="SVGID_11_" gradientUnits="userSpaceOnUse" x1="1198.5673" y1="108.6" x2="1210.6672" y2="108.6" gradientTransform="matrix(1 0 0 -1 0 350)">
					<stop  offset="0" style="stop-color:#A3CCE3"/>
					<stop  offset="1" style="stop-color:#A3CCE3"/>
				</linearGradient>
				<polygon class="st23" points="1210.7,289 1198.6,289 1198.6,193.8 1210.7,193.8 				"/>
				
					<linearGradient id="SVGID_12_" gradientUnits="userSpaceOnUse" x1="1203.4504" y1="137.25" x2="1205.7767" y2="137.25" gradientTransform="matrix(1 0 0 -1 0 350)">
					<stop  offset="0" style="stop-color:#A3CCE3"/>
					<stop  offset="1" style="stop-color:#A3CCE3"/>
				</linearGradient>
				<polygon class="st24" points="1205.8,273.5 1203.5,273.5 1203.5,152 1205.8,152 				"/>
				
					<linearGradient id="SVGID_13_" gradientUnits="userSpaceOnUse" x1="1216.1317" y1="64.35" x2="1231.4891" y2="64.35" gradientTransform="matrix(1 0 0 -1 0 350)">
					<stop  offset="0" style="stop-color:#A3CCE3"/>
					<stop  offset="1" style="stop-color:#A3CCE3"/>
				</linearGradient>
				<polygon class="st25" points="1231.5,311.9 1216.1,311.9 1216.1,259.4 1231.5,259.4 				"/>
				
					<linearGradient id="SVGID_14_" gradientUnits="userSpaceOnUse" x1="1227.8755" y1="71.1" x2="1245.0396" y2="71.1" gradientTransform="matrix(1 0 0 -1 0 350)">
					<stop  offset="0" style="stop-color:#A3CCE3"/>
					<stop  offset="1" style="stop-color:#A3CCE3"/>
				</linearGradient>
				<polygon class="st26" points="1245,311.9 1227.9,311.9 1227.9,245.9 1245,245.9 				"/>
				
					<linearGradient id="SVGID_15_" gradientUnits="userSpaceOnUse" x1="1242.3" y1="106.7" x2="1277.5319" y2="106.7" gradientTransform="matrix(1 0 0 -1 0 350)">
					<stop  offset="0" style="stop-color:#A3CCE3"/>
					<stop  offset="1" style="stop-color:#A3CCE3"/>
				</linearGradient>
				<polygon class="st27" points="1277.6,311.9 1242.3,311.9 1242.3,174.7 1277.6,193.5 				"/>
				
					<linearGradient id="SVGID_16_" gradientUnits="userSpaceOnUse" x1="1274.4" y1="79.25" x2="1311.9" y2="79.25" gradientTransform="matrix(1 0 0 -1 0 350)">
					<stop  offset="0" style="stop-color:#A3CCE3"/>
					<stop  offset="1" style="stop-color:#A3CCE3"/>
				</linearGradient>
				<polygon class="st28" points="1311.9,311.9 1274.4,311.9 1274.4,229.6 1311.9,229.6 				"/>
				
					<linearGradient id="SVGID_17_" gradientUnits="userSpaceOnUse" x1="1308.2759" y1="53.5" x2="1325.4401" y2="53.5" gradientTransform="matrix(1 0 0 -1 0 350)">
					<stop  offset="0" style="stop-color:#A3CCE3"/>
					<stop  offset="1" style="stop-color:#A3CCE3"/>
				</linearGradient>
				<polygon class="st29" points="1325.4,311.9 1308.3,311.9 1308.3,281.1 1325.4,281.1 				"/>
				
					<linearGradient id="SVGID_18_" gradientUnits="userSpaceOnUse" x1="1322.73" y1="70.45" x2="1344.4301" y2="70.45" gradientTransform="matrix(1 0 0 -1 0 350)">
					<stop  offset="0" style="stop-color:#A3CCE3"/>
					<stop  offset="1" style="stop-color:#A3CCE3"/>
				</linearGradient>
				<polygon class="st30" points="1344.4,311.9 1322.7,311.9 1322.7,247.2 1344.4,247.2 				"/>
				
					<linearGradient id="SVGID_19_" gradientUnits="userSpaceOnUse" x1="1344" y1="86.15" x2="1390.072" y2="86.15" gradientTransform="matrix(1 0 0 -1 0 350)">
					<stop  offset="0" style="stop-color:#A3CCE3"/>
					<stop  offset="1" style="stop-color:#A3CCE3"/>
				</linearGradient>
				<polygon class="st31" points="1390,311.9 1344,311.9 1344,230.5 1367,215.8 1390,230.5 				"/>
				
					<linearGradient id="SVGID_20_" gradientUnits="userSpaceOnUse" x1="1385.5" y1="61.4" x2="1433.4" y2="61.4" gradientTransform="matrix(1 0 0 -1 0 350)">
					<stop  offset="0" style="stop-color:#A3CCE3"/>
					<stop  offset="1" style="stop-color:#A3CCE3"/>
				</linearGradient>
				<polygon class="st32" points="1433.4,311.9 1385.5,311.9 1385.5,265.3 1433.4,265.3 				"/>
				
					<linearGradient id="SVGID_21_" gradientUnits="userSpaceOnUse" x1="1428.9" y1="88.5" x2="1459.6" y2="88.5" gradientTransform="matrix(1 0 0 -1 0 350)">
					<stop  offset="0" style="stop-color:#A3CCE3"/>
					<stop  offset="1" style="stop-color:#A3CCE3"/>
				</linearGradient>
				<polygon class="st33" points="1459.6,311.9 1428.9,311.9 1428.9,211.1 1459.6,211.1 				"/>
				
					<linearGradient id="SVGID_22_" gradientUnits="userSpaceOnUse" x1="1456.4296" y1="67.5" x2="1482.1757" y2="67.5" gradientTransform="matrix(1 0 0 -1 0 350)">
					<stop  offset="0" style="stop-color:#A3CCE3"/>
					<stop  offset="1" style="stop-color:#A3CCE3"/>
				</linearGradient>
				<polygon class="st34" points="1482.2,311.9 1456.4,311.9 1456.4,253.1 1482.2,253.1 				"/>
				
					<linearGradient id="SVGID_23_" gradientUnits="userSpaceOnUse" x1="1097.7" y1="66.65" x2="1138.6" y2="66.65" gradientTransform="matrix(1 0 0 -1 0 350)">
					<stop  offset="0" style="stop-color:#A3CCE3"/>
					<stop  offset="1" style="stop-color:#A3CCE3"/>
				</linearGradient>
				<polygon class="st35" points="1097.7,311.9 1138.6,311.9 1138.6,254.8 1097.7,254.8 				"/>
				
					<linearGradient id="SVGID_24_" gradientUnits="userSpaceOnUse" x1="1070.8" y1="60.2" x2="1100.839" y2="60.2" gradientTransform="matrix(1 0 0 -1 0 350)">
					<stop  offset="0" style="stop-color:#A3CCE3"/>
					<stop  offset="1" style="stop-color:#A3CCE3"/>
				</linearGradient>
				<polygon class="st36" points="1070.8,311.9 1100.8,311.9 1100.8,267.7 1070.8,267.7 				"/>
				<rect x="1249.6" y="197.1" class="st37" width="5.1" height="13.8"/>
				<rect x="1262.5" y="197.1" class="st37" width="5.1" height="13.8"/>
				<rect x="1249.6" y="223.4" class="st37" width="5.1" height="13.8"/>
				<rect x="1262.5" y="223.4" class="st37" width="5.1" height="13.8"/>
				<rect x="1249.6" y="249.7" class="st37" width="5.1" height="13.8"/>
				<rect x="1262.5" y="249.7" class="st37" width="5.1" height="13.8"/>
				<rect x="1249.6" y="276" class="st37" width="5.1" height="13.8"/>
				<rect x="1262.5" y="276" class="st37" width="5.1" height="13.8"/>
				<rect x="1284" y="239.6" class="st37" width="5.1" height="13.8"/>
				<rect x="1296.9" y="239.6" class="st37" width="5.1" height="13.8"/>
				<rect x="1284" y="265.9" class="st37" width="5.1" height="13.8"/>
				<rect x="1296.9" y="265.9" class="st37" width="5.1" height="13.8"/>
				<rect x="1327.9" y="252.7" class="st37" width="5.1" height="13.8"/>
				<rect x="1340.7" y="252.7" class="st37" width="5.1" height="13.8"/>
				<rect x="1327.9" y="279" class="st37" width="5.1" height="13.8"/>
				<rect x="1340.7" y="279" class="st37" width="5.1" height="13.8"/>
				<rect x="1359.9" y="237.7" class="st37" width="5.1" height="13.8"/>
				<rect x="1372.7" y="237.7" class="st37" width="5.1" height="13.8"/>
				<rect x="1359.9" y="263.9" class="st37" width="5.1" height="13.8"/>
				<rect x="1372.7" y="263.9" class="st37" width="5.1" height="13.8"/>
				<rect x="1436.6" y="221.1" class="st37" width="5.1" height="13.8"/>
				<rect x="1449.4" y="221.1" class="st37" width="5.1" height="13.8"/>
				<rect x="1436.6" y="247.3" class="st37" width="5.1" height="13.8"/>
				<rect x="1449.4" y="247.3" class="st37" width="5.1" height="13.8"/>
				<rect x="1196.7" y="232.5" class="st37" width="5.1" height="13.8"/>
				<rect x="1209.5" y="232.5" class="st37" width="5.1" height="13.8"/>
				<rect x="1196.7" y="258.8" class="st37" width="5.1" height="13.8"/>
				<rect x="1209.5" y="258.8" class="st37" width="5.1" height="13.8"/>
				<rect x="1140.9" y="220.7" class="st37" width="5.1" height="13.8"/>
				<rect x="1153.8" y="220.7" class="st37" width="5.1" height="13.8"/>
				<rect x="1140.9" y="246.9" class="st37" width="5.1" height="13.8"/>
				<rect x="1153.8" y="246.9" class="st37" width="5.1" height="13.8"/>
			</g>
			<g class="st38">
				<path class="st18" d="M1167.4,144.5h-71c-4.3,0-7.8-3.5-7.8-7.8l0,0c0-4.3,3.5-7.8,7.8-7.8h71c4.3,0,7.8,3.5,7.8,7.8l0,0
					C1175.2,141,1171.7,144.5,1167.4,144.5z"/>
				<path class="st18" d="M1159.9,126h-41c-3.9,0-7-3.1-7-7v-1.6c0-3.9,3.1-7,7-7h41c3.9,0,7,3.1,7,7v1.6
					C1166.9,122.9,1163.8,126,1159.9,126z"/>
			</g>
			<g class="st39">
				<path class="st18" d="M1444.1,86.6h-71c-4.3,0-7.8-3.5-7.8-7.8l0,0c0-4.3,3.5-7.8,7.8-7.8h71c4.3,0,7.8,3.5,7.8,7.8l0,0
					C1452,83.1,1448.5,86.6,1444.1,86.6z"/>
				<path class="st18" d="M1394.8,69.2h-39.4c-4.3,0-7.8-3.5-7.8-7.8l0,0c0-4.3,3.5-7.8,7.8-7.8h39.4c4.3,0,7.8,3.5,7.8,7.8l0,0
					C1402.6,65.7,1399.2,69.2,1394.8,69.2z"/>
			</g>
		</g>
	</g>
	<g>
		<path class="st40" d="M1376.7,328.6h-31.1c-1.9,0-3.4,1.5-3.4,3.4s1.5,3.4,3.4,3.4h31.1c1.9,0,3.4-1.5,3.4-3.4
			S1378.6,328.6,1376.7,328.6z"/>
		<path class="st40" d="M1336.5,328.6h-5.3c-1.9,0-3.4,1.5-3.4,3.4s1.5,3.4,3.4,3.4h5.3c1.9,0,3.4-1.5,3.4-3.4
			S1338.4,328.6,1336.5,328.6z"/>
		<g>
			
				<linearGradient id="SVGID_25_" gradientUnits="userSpaceOnUse" x1="1266.9346" y1="26.4781" x2="1292.4905" y2="-43.0575" gradientTransform="matrix(1 0 0 -1 0 350)">
				<stop  offset="0" style="stop-color:#A1D9F7"/>
				<stop  offset="1" style="stop-color:#D2ECFC"/>
			</linearGradient>
			<path class="st41" d="M1470,331.5h-406c-4.3,0-7.8-3.5-7.8-7.8l0,0c0-4.3,3.5-7.8,7.8-7.8h406c4.3,0,7.8,3.5,7.8,7.8l0,0
				C1477.8,328,1474.4,331.5,1470,331.5z"/>
			
				<linearGradient id="SVGID_26_" gradientUnits="userSpaceOnUse" x1="1298.8293" y1="38.2002" x2="1324.3851" y2="-31.3354" gradientTransform="matrix(1 0 0 -1 0 350)">
				<stop  offset="0" style="stop-color:#A1D9F7"/>
				<stop  offset="1" style="stop-color:#D2ECFC"/>
			</linearGradient>
			<path class="st42" d="M1510.7,343.6h-406.1c-4.3,0-7.8-3.5-7.8-7.8l0,0c0-4.3,3.5-7.8,7.8-7.8h406.1c4.3,0,7.8,3.5,7.8,7.8l0,0
				C1518.5,340.1,1515,343.6,1510.7,343.6z"/>
			<path class="st43" d="M1470,315.9h-406c-3.9,0-7.2,2.9-7.7,6.7h421.5C1477.2,318.8,1474,315.9,1470,315.9z"/>
		</g>
		<g class="st19">
			<path class="st44" d="M1147.1,341.2H1116c-1.9,0-3.4,1.5-3.4,3.4s1.5,3.4,3.4,3.4h31.1c1.9,0,3.4-1.5,3.4-3.4
				C1150.5,342.8,1149,341.2,1147.1,341.2z"/>
			<path class="st44" d="M1165.3,335.8h-20.8c-1.9,0-3.4,1.5-3.4,3.4s1.5,3.4,3.4,3.4h20.8c1.9,0,3.4-1.5,3.4-3.4
				C1168.7,337.3,1167.2,335.8,1165.3,335.8z"/>
			<path class="st44" d="M1226.9,344.1h-31.1c-1.9,0-3.4,1.5-3.4,3.4s1.5,3.4,3.4,3.4h31.1c1.9,0,3.4-1.5,3.4-3.4
				C1230.4,345.6,1228.8,344.1,1226.9,344.1z"/>
			<path class="st44" d="M1324.2,355.5h-25.3c-1.9,0-3.4,1.5-3.4,3.4s1.5,3.4,3.4,3.4h25.3c1.9,0,3.4-1.5,3.4-3.4
				S1326.1,355.5,1324.2,355.5z"/>
			<path class="st44" d="M1305.6,350h-31.1c-1.9,0-3.4,1.5-3.4,3.4s1.5,3.4,3.4,3.4h31.1c1.9,0,3.4-1.5,3.4-3.4
				S1307.5,350,1305.6,350z"/>
			<path class="st44" d="M1246.8,344.1h-10.4c-1.9,0-3.4,1.5-3.4,3.4s1.5,3.4,3.4,3.4h10.4c1.9,0,3.4-1.5,3.4-3.4
				C1250.3,345.6,1248.7,344.1,1246.8,344.1z"/>
			<path class="st44" d="M1352,334.2h31.1c1.9,0,3.4,1.5,3.4,3.4s-1.5,3.4-3.4,3.4H1352c-1.9,0-3.4-1.5-3.4-3.4
				C1348.5,335.7,1350.1,334.2,1352,334.2z"/>
			<path class="st44" d="M1332,334.2h10.4c1.9,0,3.4,1.5,3.4,3.4s-1.5,3.4-3.4,3.4H1332c-1.9,0-3.4-1.5-3.4-3.4
				S1330.2,334.2,1332,334.2z"/>
			<path class="st44" d="M1213.3,329.7h10.4c1.9,0,3.4,1.5,3.4,3.4s-1.5,3.4-3.4,3.4h-10.4c-1.9,0-3.4-1.5-3.4-3.4
				S1211.4,329.7,1213.3,329.7z"/>
		</g>
	</g>
</g>
<g>
	<g>
		<g>
			<rect x="1400.8" y="93.3" class="st45" width="43" height="209.1"/>
			<rect x="1410.5" y="93.3" class="st46" width="43" height="209.1"/>
			<g>
				<rect x="1410.5" y="93.2" class="st45" width="43" height="12.1"/>
				<rect x="1410.5" y="119.5" class="st45" width="43" height="12.1"/>
				<rect x="1410.5" y="145.7" class="st45" width="43" height="12.1"/>
				<rect x="1410.5" y="171.9" class="st45" width="43" height="12.1"/>
				<rect x="1410.5" y="198.1" class="st45" width="43" height="12.1"/>
				<rect x="1410.5" y="224.3" class="st45" width="43" height="12.1"/>
				<rect x="1410.5" y="250.5" class="st45" width="43" height="12.1"/>
				<rect x="1410.5" y="276.7" class="st47" width="43" height="12.1"/>
			</g>
		</g>
		<g>
			<rect x="1469.6" y="122.9" class="st48" width="43" height="179.5"/>
			<rect x="1479.2" y="122.9" class="st46" width="43" height="179.5"/>
			<g>
				<rect x="1479.2" y="122.8" class="st45" width="43" height="10.4"/>
				<rect x="1479.2" y="145.3" class="st45" width="43" height="10.4"/>
				<rect x="1479.2" y="167.8" class="st45" width="43" height="10.4"/>
				<rect x="1479.2" y="190.3" class="st45" width="43" height="10.4"/>
				<rect x="1479.2" y="212.8" class="st45" width="43" height="10.4"/>
				<rect x="1479.2" y="235.3" class="st45" width="43" height="10.4"/>
				<rect x="1479.2" y="257.8" class="st45" width="43" height="10.4"/>
				<rect x="1479.2" y="280.3" class="st48" width="43" height="10.4"/>
			</g>
		</g>
		<rect x="1377.5" y="296" class="st49" width="18" height="26.3"/>
		<polygon class="st50" points="1130.6,191.1 1130.6,175 1135.5,175 1135.5,147.3 1161.9,147.3 1161.9,175 1186.6,175 1186.6,129.9 
			1213.8,129.9 1213.8,159.2 1220,159.2 1220,124.3 1247.3,124.3 1247.3,189.7 1281.7,189.7 1281.7,227.9 1294.6,227.9 
			1294.6,237.5 1324.2,237.5 1324.2,221 1341.1,221 1341.1,176 1362.1,176 1362.1,259 1383.1,259 1383.1,331.3 1362.1,331.3 
			1344.1,331.3 1341.1,331.3 1324.2,331.3 1314.6,331.3 1299.2,331.3 1294.6,331.3 1281.7,331.3 1269.6,331.3 1247.3,331.3 
			1240.4,331.3 1226.8,331.3 1220,331.3 1213.8,331.3 1199.6,331.3 1189.9,331.3 1186.6,331.3 1161.9,331.3 1136,331.3 
			1135.5,331.3 1130.6,331.3 1109.6,331.3 1109.6,191.1 		"/>
		<g class="st51">
			<rect x="1340.9" y="176.4" class="st0" width="21.1" height="10.4"/>
			<rect x="1340.9" y="191.8" class="st0" width="21.1" height="10.4"/>
			<rect x="1340.9" y="207.3" class="st0" width="21.1" height="10.4"/>
			<rect x="1340.9" y="223.5" class="st0" width="21.1" height="10.4"/>
			<rect x="1340.9" y="239.2" class="st0" width="21.1" height="10.4"/>
			<rect x="1340.9" y="254.9" class="st0" width="21.1" height="10.4"/>
			<rect x="1340.9" y="271.3" class="st0" width="21.1" height="10.4"/>
		</g>
		<rect x="1333.4" y="176.4" class="st45" width="7.8" height="45.4"/>
		<rect x="1308.5" y="221.8" class="st45" width="15.7" height="16.7"/>
		<rect x="1181.2" y="130" class="st47" width="5.4" height="45.4"/>
		<rect x="1216.7" y="124.3" class="st47" width="3.3" height="35.2"/>
		<g class="st52">
			<rect x="1220" y="128.7" class="st53" width="27.2" height="6.7"/>
			<rect x="1220" y="141.4" class="st53" width="27.2" height="6.7"/>
			<rect x="1220" y="152.7" class="st53" width="27.2" height="6.7"/>
			<rect x="1186.6" y="152.7" class="st53" width="27.2" height="6.7"/>
			<rect x="1186.6" y="141.4" class="st53" width="27.2" height="6.7"/>
			<rect x="1186.6" y="130" class="st53" width="27.2" height="6.7"/>
			<rect x="1186.6" y="163.7" class="st53" width="60.7" height="6.7"/>
			<rect x="1186.6" y="174.8" class="st53" width="60.7" height="6.7"/>
			<rect x="1186.6" y="185.5" class="st53" width="60.7" height="4.3"/>
			<rect x="1271.5" y="196.9" class="st53" width="4.6" height="6.5"/>
			<rect x="1262.8" y="196.9" class="st53" width="4.6" height="6.5"/>
			<rect x="1254.4" y="196.9" class="st53" width="4.6" height="6.5"/>
			<rect x="1246.4" y="196.9" class="st53" width="4.6" height="6.5"/>
			<rect x="1238.2" y="196.9" class="st53" width="4.6" height="6.5"/>
			<rect x="1230" y="196.9" class="st53" width="4.6" height="6.5"/>
			<rect x="1221.4" y="196.9" class="st53" width="4.6" height="6.5"/>
			<rect x="1212.9" y="196.9" class="st53" width="4.6" height="6.5"/>
			<rect x="1204.9" y="196.9" class="st53" width="4.6" height="6.5"/>
			<rect x="1196.8" y="196.9" class="st53" width="4.6" height="6.5"/>
			<rect x="1188.3" y="196.9" class="st53" width="4.6" height="6.5"/>
			<rect x="1179.6" y="196.9" class="st53" width="4.6" height="6.5"/>
			<rect x="1171.2" y="196.9" class="st53" width="4.6" height="6.5"/>
			<rect x="1163.2" y="196.9" class="st53" width="4.6" height="6.5"/>
			<rect x="1155" y="196.9" class="st53" width="4.6" height="6.5"/>
			<rect x="1146.8" y="196.9" class="st53" width="4.6" height="6.5"/>
			<rect x="1138.1" y="196.9" class="st53" width="4.6" height="6.5"/>
			<rect x="1129.7" y="196.9" class="st53" width="4.6" height="6.5"/>
			<rect x="1121.7" y="196.9" class="st53" width="4.6" height="6.5"/>
			<rect x="1113.5" y="196.9" class="st53" width="4.6" height="6.5"/>
			<rect x="1271.5" y="208.4" class="st53" width="4.6" height="6.5"/>
			<rect x="1262.8" y="208.4" class="st53" width="4.6" height="6.5"/>
			<rect x="1254.4" y="208.4" class="st53" width="4.6" height="6.5"/>
			<rect x="1246.4" y="208.4" class="st53" width="4.6" height="6.5"/>
			<rect x="1238.2" y="208.4" class="st53" width="4.6" height="6.5"/>
			<rect x="1230" y="208.4" class="st53" width="4.6" height="6.5"/>
			<rect x="1221.4" y="208.4" class="st53" width="4.6" height="6.5"/>
			<rect x="1212.9" y="208.4" class="st53" width="4.6" height="6.5"/>
			<rect x="1204.9" y="208.4" class="st53" width="4.6" height="6.5"/>
			<rect x="1196.8" y="208.4" class="st53" width="4.6" height="6.5"/>
			<rect x="1188.3" y="208.4" class="st53" width="4.6" height="6.5"/>
			<rect x="1179.6" y="208.4" class="st53" width="4.6" height="6.5"/>
			<rect x="1171.2" y="208.4" class="st53" width="4.6" height="6.5"/>
			<rect x="1163.2" y="208.4" class="st53" width="4.6" height="6.5"/>
			<rect x="1155" y="208.4" class="st53" width="4.6" height="6.5"/>
			<rect x="1146.8" y="208.4" class="st53" width="4.6" height="6.5"/>
			<rect x="1138.1" y="208.4" class="st53" width="4.6" height="6.5"/>
			<rect x="1129.7" y="208.4" class="st53" width="4.6" height="6.5"/>
			<rect x="1121.7" y="208.4" class="st53" width="4.6" height="6.5"/>
			<rect x="1113.5" y="208.4" class="st53" width="4.6" height="6.5"/>
			<rect x="1271.5" y="219.7" class="st53" width="4.6" height="6.5"/>
			<rect x="1262.8" y="219.7" class="st53" width="4.6" height="6.5"/>
			<rect x="1254.4" y="219.7" class="st53" width="4.6" height="6.5"/>
			<rect x="1246.4" y="219.7" class="st53" width="4.6" height="6.5"/>
			<rect x="1238.2" y="219.7" class="st53" width="4.6" height="6.5"/>
			<rect x="1230" y="219.7" class="st53" width="4.6" height="6.5"/>
			<rect x="1221.4" y="219.7" class="st53" width="4.6" height="6.5"/>
			<rect x="1212.9" y="219.7" class="st53" width="4.6" height="6.5"/>
			<rect x="1204.9" y="219.7" class="st53" width="4.6" height="6.5"/>
			<rect x="1196.8" y="219.7" class="st53" width="4.6" height="6.5"/>
			<rect x="1188.3" y="219.7" class="st53" width="4.6" height="6.5"/>
			<rect x="1179.6" y="219.7" class="st53" width="4.6" height="6.5"/>
			<rect x="1171.2" y="219.7" class="st53" width="4.6" height="6.5"/>
			<rect x="1163.2" y="219.7" class="st53" width="4.6" height="6.5"/>
			<rect x="1155" y="219.7" class="st53" width="4.6" height="6.5"/>
			<rect x="1146.8" y="219.7" class="st53" width="4.6" height="6.5"/>
			<rect x="1138.1" y="219.7" class="st53" width="4.6" height="6.5"/>
			<rect x="1129.7" y="219.7" class="st53" width="4.6" height="6.5"/>
			<rect x="1121.7" y="219.7" class="st53" width="4.6" height="6.5"/>
			<rect x="1113.5" y="219.7" class="st53" width="4.6" height="6.5"/>
			<rect x="1271.5" y="231.7" class="st53" width="4.6" height="6.5"/>
			<rect x="1262.8" y="231.7" class="st53" width="4.6" height="6.5"/>
			<rect x="1254.4" y="231.7" class="st53" width="4.6" height="6.5"/>
			<rect x="1246.4" y="231.7" class="st53" width="4.6" height="6.5"/>
			<rect x="1238.2" y="231.7" class="st53" width="4.6" height="6.5"/>
			<rect x="1230" y="231.7" class="st53" width="4.6" height="6.5"/>
			<rect x="1221.4" y="231.7" class="st53" width="4.6" height="6.5"/>
			<rect x="1212.9" y="231.7" class="st53" width="4.6" height="6.5"/>
			<rect x="1204.9" y="231.7" class="st53" width="4.6" height="6.5"/>
			<rect x="1196.8" y="231.7" class="st53" width="4.6" height="6.5"/>
			<rect x="1188.3" y="231.7" class="st53" width="4.6" height="6.5"/>
			<rect x="1179.6" y="231.7" class="st53" width="4.6" height="6.5"/>
			<rect x="1171.2" y="231.7" class="st53" width="4.6" height="6.5"/>
			<rect x="1163.2" y="231.7" class="st53" width="4.6" height="6.5"/>
			<rect x="1155" y="231.7" class="st53" width="4.6" height="6.5"/>
			<rect x="1146.8" y="231.7" class="st53" width="4.6" height="6.5"/>
			<rect x="1138.1" y="231.7" class="st53" width="4.6" height="6.5"/>
			<rect x="1129.7" y="231.7" class="st53" width="4.6" height="6.5"/>
			<rect x="1121.7" y="231.7" class="st53" width="4.6" height="6.5"/>
			<rect x="1113.5" y="231.7" class="st53" width="4.6" height="6.5"/>
			<rect x="1271.5" y="243.2" class="st53" width="4.6" height="6.5"/>
			<rect x="1262.8" y="243.2" class="st53" width="4.6" height="6.5"/>
			<rect x="1254.4" y="243.2" class="st53" width="4.6" height="6.5"/>
			<rect x="1246.4" y="243.2" class="st53" width="4.6" height="6.5"/>
			<rect x="1238.2" y="243.2" class="st53" width="4.6" height="6.5"/>
			<rect x="1230" y="243.2" class="st53" width="4.6" height="6.5"/>
			<rect x="1221.4" y="243.2" class="st53" width="4.6" height="6.5"/>
			<rect x="1212.9" y="243.2" class="st53" width="4.6" height="6.5"/>
			<rect x="1204.9" y="243.2" class="st53" width="4.6" height="6.5"/>
			<rect x="1196.8" y="243.2" class="st53" width="4.6" height="6.5"/>
			<rect x="1188.3" y="243.2" class="st53" width="4.6" height="6.5"/>
			<rect x="1179.6" y="243.2" class="st53" width="4.6" height="6.5"/>
			<rect x="1171.2" y="243.2" class="st53" width="4.6" height="6.5"/>
			<rect x="1163.2" y="243.2" class="st53" width="4.6" height="6.5"/>
			<rect x="1155" y="243.2" class="st53" width="4.6" height="6.5"/>
			<rect x="1146.8" y="243.2" class="st53" width="4.6" height="6.5"/>
			<rect x="1138.1" y="243.2" class="st53" width="4.6" height="6.5"/>
			<rect x="1129.7" y="243.2" class="st53" width="4.6" height="6.5"/>
			<rect x="1121.7" y="243.2" class="st53" width="4.6" height="6.5"/>
			<rect x="1113.5" y="243.2" class="st53" width="4.6" height="6.5"/>
			<rect x="1271.5" y="254.5" class="st53" width="4.6" height="6.5"/>
			<rect x="1262.8" y="254.5" class="st53" width="4.6" height="6.5"/>
			<rect x="1254.4" y="254.5" class="st53" width="4.6" height="6.5"/>
			<rect x="1246.4" y="254.5" class="st53" width="4.6" height="6.5"/>
			<rect x="1238.2" y="254.5" class="st53" width="4.6" height="6.5"/>
			<rect x="1230" y="254.5" class="st53" width="4.6" height="6.5"/>
			<rect x="1221.4" y="254.5" class="st53" width="4.6" height="6.5"/>
			<rect x="1212.9" y="254.5" class="st53" width="4.6" height="6.5"/>
			<rect x="1204.9" y="254.5" class="st53" width="4.6" height="6.5"/>
			<rect x="1196.8" y="254.5" class="st53" width="4.6" height="6.5"/>
			<rect x="1188.3" y="254.5" class="st53" width="4.6" height="6.5"/>
			<rect x="1179.6" y="254.5" class="st53" width="4.6" height="6.5"/>
			<rect x="1171.2" y="254.5" class="st53" width="4.6" height="6.5"/>
			<rect x="1163.2" y="254.5" class="st53" width="4.6" height="6.5"/>
			<rect x="1155" y="254.5" class="st53" width="4.6" height="6.5"/>
			<rect x="1146.8" y="254.5" class="st53" width="4.6" height="6.5"/>
			<rect x="1138.1" y="254.5" class="st53" width="4.6" height="6.5"/>
			<rect x="1129.7" y="254.5" class="st53" width="4.6" height="6.5"/>
			<rect x="1121.7" y="254.5" class="st53" width="4.6" height="6.5"/>
			<rect x="1113.5" y="254.5" class="st53" width="4.6" height="6.5"/>
		</g>
		<rect x="1201.5" y="274.9" class="st54" width="107" height="57.3"/>
		<rect x="1282.6" y="303.8" class="st55" width="107" height="28.4"/>
		<rect x="1085.8" y="283.8" class="st56" width="107" height="48.4"/>
		<g class="st19">
			<rect x="1281.4" y="281.7" class="st57" width="19.9" height="10.7"/>
			<rect x="1255.8" y="281.7" class="st57" width="19.9" height="10.7"/>
			<rect x="1230.7" y="281.7" class="st57" width="19.9" height="10.7"/>
			<rect x="1206.1" y="281.7" class="st57" width="19.9" height="10.7"/>
		</g>
		<rect x="1192.3" y="274.9" class="st58" width="10.3" height="57.3"/>
		<rect x="1064.9" y="263.6" class="st58" width="10.3" height="68.5"/>
		<rect x="1074.9" y="283.8" class="st58" width="11" height="48.3"/>
		<g>
			<rect x="1357.3" y="171.9" class="st59" width="0.6" height="4.5"/>
			<rect x="1337.3" y="171.9" class="st59" width="0.6" height="4.5"/>
		</g>
		<rect x="1074.8" y="263.5" class="st50" width="58.9" height="68.7"/>
		<rect x="1078.8" y="249.7" class="st50" width="1.1" height="13.9"/>
		<g class="st19">
			<rect x="1060.3" y="282.7" class="st57" width="73.5" height="49.4"/>
			<rect x="1060.3" y="276.3" class="st60" width="73.5" height="16.1"/>
			<g class="st61">
				<rect x="1125" y="297.1" class="st0" width="3.8" height="5.3"/>
				<rect x="1117.9" y="297.1" class="st0" width="3.8" height="5.3"/>
				<rect x="1111" y="297.1" class="st0" width="3.8" height="5.3"/>
				<rect x="1104.5" y="297.1" class="st0" width="3.8" height="5.3"/>
				<rect x="1097.8" y="297.1" class="st0" width="3.8" height="5.3"/>
				<rect x="1091.1" y="297.1" class="st0" width="3.8" height="5.3"/>
				<rect x="1084" y="297.1" class="st0" width="3.8" height="5.3"/>
				<rect x="1077.1" y="297.1" class="st0" width="3.8" height="5.3"/>
				<rect x="1070.6" y="297.1" class="st0" width="3.8" height="5.3"/>
				<rect x="1063.9" y="297.1" class="st0" width="3.8" height="5.3"/>
				<rect x="1125" y="306.5" class="st0" width="3.8" height="5.3"/>
				<rect x="1117.9" y="306.5" class="st0" width="3.8" height="5.3"/>
				<rect x="1111" y="306.5" class="st0" width="3.8" height="5.3"/>
				<rect x="1104.5" y="306.5" class="st0" width="3.8" height="5.3"/>
				<rect x="1097.8" y="306.5" class="st0" width="3.8" height="5.3"/>
				<rect x="1091.1" y="306.5" class="st0" width="3.8" height="5.3"/>
				<rect x="1084" y="306.5" class="st0" width="3.8" height="5.3"/>
				<rect x="1077.1" y="306.5" class="st0" width="3.8" height="5.3"/>
				<rect x="1070.6" y="306.5" class="st0" width="3.8" height="5.3"/>
				<rect x="1063.9" y="306.5" class="st0" width="3.8" height="5.3"/>
				<rect x="1125" y="315.7" class="st0" width="3.8" height="5.3"/>
				<rect x="1117.9" y="315.7" class="st0" width="3.8" height="5.3"/>
				<rect x="1111" y="315.7" class="st0" width="3.8" height="5.3"/>
				<rect x="1104.5" y="315.7" class="st0" width="3.8" height="5.3"/>
				<rect x="1097.8" y="315.7" class="st0" width="3.8" height="5.3"/>
				<rect x="1091.1" y="315.7" class="st0" width="3.8" height="5.3"/>
				<rect x="1084" y="315.7" class="st0" width="3.8" height="5.3"/>
				<rect x="1077.1" y="315.7" class="st0" width="3.8" height="5.3"/>
				<rect x="1070.6" y="315.7" class="st0" width="3.8" height="5.3"/>
				<rect x="1063.9" y="315.7" class="st0" width="3.8" height="5.3"/>
				<rect x="1125" y="280.8" class="st0" width="3.2" height="5.5"/>
				<rect x="1093.5" y="280.8" class="st0" width="3.2" height="5.5"/>
				<rect x="1068.4" y="280.8" class="st0" width="3.2" height="5.5"/>
			</g>
		</g>
		<g class="st19">
			<rect x="1369.4" y="282.7" class="st57" width="73.5" height="49.4"/>
			<rect x="1369.4" y="276.3" class="st60" width="73.5" height="16.1"/>
			<g class="st62">
				<rect x="1434.1" y="297.1" class="st0" width="3.8" height="5.3"/>
				<rect x="1427" y="297.1" class="st0" width="3.8" height="5.3"/>
				<rect x="1420.1" y="297.1" class="st0" width="3.8" height="5.3"/>
				<rect x="1413.6" y="297.1" class="st0" width="3.8" height="5.3"/>
				<rect x="1406.9" y="297.1" class="st0" width="3.8" height="5.3"/>
				<rect x="1400.1" y="297.1" class="st0" width="3.8" height="5.3"/>
				<rect x="1393.1" y="297.1" class="st0" width="3.8" height="5.3"/>
				<rect x="1386.2" y="297.1" class="st0" width="3.8" height="5.3"/>
				<rect x="1379.6" y="297.1" class="st0" width="3.8" height="5.3"/>
				<rect x="1373" y="297.1" class="st0" width="3.8" height="5.3"/>
				<rect x="1434.1" y="306.5" class="st0" width="3.8" height="5.3"/>
				<rect x="1427" y="306.5" class="st0" width="3.8" height="5.3"/>
				<rect x="1420.1" y="306.5" class="st0" width="3.8" height="5.3"/>
				<rect x="1413.6" y="306.5" class="st0" width="3.8" height="5.3"/>
				<rect x="1406.9" y="306.5" class="st0" width="3.8" height="5.3"/>
				<rect x="1400.1" y="306.5" class="st0" width="3.8" height="5.3"/>
				<rect x="1393.1" y="306.5" class="st0" width="3.8" height="5.3"/>
				<rect x="1386.2" y="306.5" class="st0" width="3.8" height="5.3"/>
				<rect x="1379.6" y="306.5" class="st0" width="3.8" height="5.3"/>
				<rect x="1373" y="306.5" class="st0" width="3.8" height="5.3"/>
				<rect x="1434.1" y="315.7" class="st0" width="3.8" height="5.3"/>
				<rect x="1427" y="315.7" class="st0" width="3.8" height="5.3"/>
				<rect x="1420.1" y="315.7" class="st0" width="3.8" height="5.3"/>
				<rect x="1413.6" y="315.7" class="st0" width="3.8" height="5.3"/>
				<rect x="1406.9" y="315.7" class="st0" width="3.8" height="5.3"/>
				<rect x="1400.1" y="315.7" class="st0" width="3.8" height="5.3"/>
				<rect x="1393.1" y="315.7" class="st0" width="3.8" height="5.3"/>
				<rect x="1386.2" y="315.7" class="st0" width="3.8" height="5.3"/>
				<rect x="1379.6" y="315.7" class="st0" width="3.8" height="5.3"/>
				<rect x="1373" y="315.7" class="st0" width="3.8" height="5.3"/>
				<rect x="1434.1" y="280.8" class="st0" width="3.2" height="5.5"/>
				<rect x="1402.6" y="280.8" class="st0" width="3.2" height="5.5"/>
				<rect x="1377.5" y="280.8" class="st0" width="3.2" height="5.5"/>
			</g>
		</g>
		<g>
			<rect x="1447.4" y="282.7" class="st46" width="73.5" height="49.4"/>
			<rect x="1447.4" y="276.3" class="st48" width="73.5" height="16.1"/>
			<g class="st17">
				<rect x="1512.1" y="297.1" class="st0" width="3.8" height="5.3"/>
				<rect x="1505.1" y="297.1" class="st0" width="3.8" height="5.3"/>
				<rect x="1498.2" y="297.1" class="st0" width="3.8" height="5.3"/>
				<rect x="1491.6" y="297.1" class="st0" width="3.8" height="5.3"/>
				<rect x="1485" y="297.1" class="st0" width="3.8" height="5.3"/>
				<rect x="1478.2" y="297.1" class="st0" width="3.8" height="5.3"/>
				<rect x="1471.2" y="297.1" class="st0" width="3.8" height="5.3"/>
				<rect x="1464.3" y="297.1" class="st0" width="3.8" height="5.3"/>
				<rect x="1457.7" y="297.1" class="st0" width="3.8" height="5.3"/>
				<rect x="1451.1" y="297.1" class="st0" width="3.8" height="5.3"/>
				<rect x="1512.1" y="306.5" class="st0" width="3.8" height="5.3"/>
				<rect x="1505.1" y="306.5" class="st0" width="3.8" height="5.3"/>
				<rect x="1498.2" y="306.5" class="st0" width="3.8" height="5.3"/>
				<rect x="1491.6" y="306.5" class="st0" width="3.8" height="5.3"/>
				<rect x="1485" y="306.5" class="st0" width="3.8" height="5.3"/>
				<rect x="1478.2" y="306.5" class="st0" width="3.8" height="5.3"/>
				<rect x="1471.2" y="306.5" class="st0" width="3.8" height="5.3"/>
				<rect x="1464.3" y="306.5" class="st0" width="3.8" height="5.3"/>
				<rect x="1457.7" y="306.5" class="st0" width="3.8" height="5.3"/>
				<rect x="1451.1" y="306.5" class="st0" width="3.8" height="5.3"/>
				<rect x="1512.1" y="315.7" class="st0" width="3.8" height="5.3"/>
				<rect x="1505.1" y="315.7" class="st0" width="3.8" height="5.3"/>
				<rect x="1498.2" y="315.7" class="st0" width="3.8" height="5.3"/>
				<rect x="1491.6" y="315.7" class="st0" width="3.8" height="5.3"/>
				<rect x="1485" y="315.7" class="st0" width="3.8" height="5.3"/>
				<rect x="1478.2" y="315.7" class="st0" width="3.8" height="5.3"/>
				<rect x="1471.2" y="315.7" class="st0" width="3.8" height="5.3"/>
				<rect x="1464.3" y="315.7" class="st0" width="3.8" height="5.3"/>
				<rect x="1457.7" y="315.7" class="st0" width="3.8" height="5.3"/>
				<rect x="1451.1" y="315.7" class="st0" width="3.8" height="5.3"/>
			</g>
			<g class="st63">
				<rect x="1512.1" y="280.8" class="st0" width="3.2" height="5.5"/>
				<rect x="1480.7" y="280.8" class="st0" width="3.2" height="5.5"/>
				<rect x="1455.6" y="280.8" class="st0" width="3.2" height="5.5"/>
			</g>
		</g>
		<g class="st19">
			<rect x="1525.7" y="282.7" class="st57" width="73.5" height="49.4"/>
			<rect x="1525.7" y="276.3" class="st60" width="73.5" height="16.1"/>
			<g class="st64">
				<rect x="1590.4" y="297.1" class="st0" width="3.8" height="5.3"/>
				<rect x="1583.3" y="297.1" class="st0" width="3.8" height="5.3"/>
				<rect x="1576.4" y="297.1" class="st0" width="3.8" height="5.3"/>
				<rect x="1569.9" y="297.1" class="st0" width="3.8" height="5.3"/>
				<rect x="1563.2" y="297.1" class="st0" width="3.8" height="5.3"/>
				<rect x="1556.5" y="297.1" class="st0" width="3.8" height="5.3"/>
				<rect x="1549.4" y="297.1" class="st0" width="3.8" height="5.3"/>
				<rect x="1542.5" y="297.1" class="st0" width="3.8" height="5.3"/>
				<rect x="1536" y="297.1" class="st0" width="3.8" height="5.3"/>
				<rect x="1529.3" y="297.1" class="st0" width="3.8" height="5.3"/>
				<rect x="1590.4" y="306.5" class="st0" width="3.8" height="5.3"/>
				<rect x="1583.3" y="306.5" class="st0" width="3.8" height="5.3"/>
				<rect x="1576.4" y="306.5" class="st0" width="3.8" height="5.3"/>
				<rect x="1569.9" y="306.5" class="st0" width="3.8" height="5.3"/>
				<rect x="1563.2" y="306.5" class="st0" width="3.8" height="5.3"/>
				<rect x="1556.5" y="306.5" class="st0" width="3.8" height="5.3"/>
				<rect x="1549.4" y="306.5" class="st0" width="3.8" height="5.3"/>
				<rect x="1542.5" y="306.5" class="st0" width="3.8" height="5.3"/>
				<rect x="1536" y="306.5" class="st0" width="3.8" height="5.3"/>
				<rect x="1529.3" y="306.5" class="st0" width="3.8" height="5.3"/>
				<rect x="1590.4" y="315.7" class="st0" width="3.8" height="5.3"/>
				<rect x="1583.3" y="315.7" class="st0" width="3.8" height="5.3"/>
				<rect x="1576.4" y="315.7" class="st0" width="3.8" height="5.3"/>
				<rect x="1569.9" y="315.7" class="st0" width="3.8" height="5.3"/>
				<rect x="1563.2" y="315.7" class="st0" width="3.8" height="5.3"/>
				<rect x="1556.5" y="315.7" class="st0" width="3.8" height="5.3"/>
				<rect x="1549.4" y="315.7" class="st0" width="3.8" height="5.3"/>
				<rect x="1542.5" y="315.7" class="st0" width="3.8" height="5.3"/>
				<rect x="1536" y="315.7" class="st0" width="3.8" height="5.3"/>
				<rect x="1529.3" y="315.7" class="st0" width="3.8" height="5.3"/>
			</g>
			<g class="st64">
				<rect x="1590.4" y="280.8" class="st0" width="3.2" height="5.5"/>
				<rect x="1558.9" y="280.8" class="st0" width="3.2" height="5.5"/>
				<rect x="1533.9" y="280.8" class="st0" width="3.2" height="5.5"/>
			</g>
		</g>
	</g>
</g>
</svg>
