<svg width="900" height="500" xmlns="http://www.w3.org/2000/svg" enable-background="new 0 0 1920 350">

 <g>
  <title>Layer 1</title>
  <g id="svg_1" fill="#fff">
   <path id="svg_2" opacity="0.2" d="m159.9,488.6c-7.3,0 -11.2,6.1 -11.2,6.1s-5,-6.1 -11.2,-6.1c-6.4,0 -11.6,5.1 -11.6,11.6c0,1.5 0.3,3 0.8,4.3c3.3,10.1 20.7,22.3 22,22.3s18.8,-12.2 22,-22.3c0.5,-1.3 0.8,-2.8 0.8,-4.3c0,-6.5 -5.2,-11.6 -11.6,-11.6z"/>
   <path id="svg_3" opacity="0.2" d="m520.6,364c-7.3,0 -11.2,6.1 -11.2,6.1s-5,-6.1 -11.2,-6.1c-6.4,0 -11.6,5.1 -11.6,11.6c0,1.5 0.3,3 0.8,4.3c3.3,10.1 20.7,22.3 22,22.3s18.8,-12.2 22,-22.3c0.5,-1.3 0.8,-2.8 0.8,-4.3c0,-6.3 -5.2,-11.6 -11.6,-11.6z"/>
   <path id="svg_4" opacity="0.2" d="m557.1,415.3c-7.3,0 -11.2,6.1 -11.2,6.1s-5,-6.1 -11.2,-6.1c-6.4,0 -11.6,5.1 -11.6,11.6c0,1.5 0.3,3 0.8,4.3c3.3,10.1 20.7,22.3 22,22.3s18.8,-12.2 22,-22.3c0.5,-1.3 0.8,-2.8 0.8,-4.3c0,-6.5 -5.2,-11.6 -11.6,-11.6z"/>
   <path id="svg_5" opacity="0.2" d="m482.3,475.4c-7.3,0 -11.2,6.1 -11.2,6.1s-5,-6.1 -11.2,-6.1c-6.4,0 -11.6,5.1 -11.6,11.6c0,1.5 0.3,3 0.8,4.3c3.3,10.1 20.7,22.3 22,22.3s18.8,-12.2 22,-22.3c0.5,-1.3 0.8,-2.8 0.8,-4.3c-0.1,-6.5 -5.2,-11.6 -11.6,-11.6z"/>
   <path id="svg_6" opacity="0.2" d="m376.7,481.8c-7.3,0 -11.2,6.1 -11.2,6.1s-5,-6.1 -11.2,-6.1c-6.4,0 -11.6,5.1 -11.6,11.6c0,1.5 0.3,3 0.8,4.3c3.3,10.1 20.7,22.3 22,22.3s18.8,-12.2 22,-22.3c0.5,-1.3 0.8,-2.8 0.8,-4.3c-0.1,-6.4 -5.2,-11.6 -11.6,-11.6z"/>
   <path id="svg_7" opacity="0.2" d="m431.4,377.3c-7.3,0 -11.2,6.1 -11.2,6.1s-5,-6.1 -11.2,-6.1c-6.4,0 -11.6,5.1 -11.6,11.6c0,1.5 0.3,3 0.8,4.3c3.3,10.1 20.7,22.3 22,22.3s18.8,-12.2 22,-22.3c0.5,-1.3 0.8,-2.8 0.8,-4.3c-0.1,-6.5 -5.2,-11.6 -11.6,-11.6z"/>
   <path id="svg_8" opacity="0.2" d="m482.3,307.9c-7.3,0 -11.2,6.1 -11.2,6.1s-5,-6.1 -11.2,-6.1c-6.4,0 -11.6,5.1 -11.6,11.6c0,1.5 0.3,3 0.8,4.3c3.3,10.1 20.7,22.3 22,22.3s18.8,-12.2 22,-22.3c0.5,-1.3 0.8,-2.8 0.8,-4.3c-0.1,-6.5 -5.2,-11.6 -11.6,-11.6z"/>
   <path id="svg_9" opacity="0.2" d="m288.8,428.3c-7.3,0 -11.2,6.1 -11.2,6.1s-5,-6.1 -11.2,-6.1c-6.4,0 -11.6,5.1 -11.6,11.6c0,1.5 0.3,3 0.8,4.3c3.3,10.1 20.7,22.3 22,22.3s18.8,-12.2 22,-22.3c0.5,-1.3 0.8,-2.8 0.8,-4.3c-0.1,-6.5 -5.2,-11.6 -11.6,-11.6z"/>
   <path id="svg_10" opacity="0.2" d="m402.6,337.9c-17.2,0 -26.9,14.4 -26.9,14.4s-11.7,-14.4 -26.9,-14.4s-27.4,12.2 -27.4,27.4c0,3.6 0.7,6.9 2,10.1c7.6,23.8 49.2,52.9 52.4,52.9c3.1,0 44.6,-29.1 52.4,-52.9c1.3,-3.1 2,-6.6 2,-10.1c-0.2,-15.1 -12.4,-27.4 -27.6,-27.4z"/>
   <path id="svg_11" opacity="0.2" d="m536.3,428.3c-17.2,0 -26.9,14.4 -26.9,14.4s-11.7,-14.4 -26.9,-14.4s-27.4,12.2 -27.4,27.4c0,3.6 0.7,6.9 2,10.1c7.6,23.8 49.2,52.9 52.4,52.9s44.6,-29.1 52.4,-52.9c1.3,-3.1 2,-6.6 2,-10.1c-0.4,-15.2 -12.6,-27.4 -27.6,-27.4z"/>
   <path id="svg_12" opacity="0.2" d="m237.4,421c-17.2,0 -26.9,14.4 -26.9,14.4s-11.7,-14.4 -26.9,-14.4s-27.4,12.2 -27.4,27.4c0,3.6 0.7,6.9 2,10.1c7.6,23.8 49.2,52.9 52.4,52.9c3.1,0 44.6,-29.1 52.4,-52.9c1.3,-3.1 2,-6.6 2,-10.1c-0.2,-15 -12.4,-27.4 -27.6,-27.4z"/>
   <path id="svg_13" opacity="0.2" d="m591.1,262.6c-17.2,0 -26.9,14.4 -26.9,14.4s-11.7,-14.4 -26.9,-14.4s-27.4,12.2 -27.4,27.4c0,3.6 0.7,6.9 2,10.1c7.6,23.8 49.2,52.9 52.4,52.9s44.6,-29.1 52.4,-52.9c1.3,-3.1 2,-6.6 2,-10.1c-0.1,-15.2 -12.5,-27.4 -27.6,-27.4z"/>
   <path id="svg_14" opacity="0.2" d="m108.5,456.4c-7.3,0 -11.2,6.1 -11.2,6.1s-5,-6.1 -11.2,-6.1c-6.4,0 -11.6,5.1 -11.6,11.6c0,1.5 0.3,3 0.8,4.3c3.3,10.1 20.7,22.3 22,22.3s18.8,-12.2 22,-22.3c0.5,-1.3 0.8,-2.8 0.8,-4.3c0,-6.5 -5.3,-11.6 -11.6,-11.6z"/>
   <path id="svg_15" opacity="0.2" d="m789.1,488.6c-6.4,0 -11.6,5.1 -11.6,11.6c0,1.5 0.3,3 0.8,4.3c3.3,10.1 20.7,22.3 22,22.3s18.8,-12.2 22,-22.3c0.5,-1.3 0.8,-2.8 0.8,-4.3c0,-6.4 -5.1,-11.6 -11.6,-11.6s-11.2,6.1 -11.2,6.1s-3.9,-6.1 -11.2,-6.1z"/>
   <path id="svg_16" opacity="0.2" d="m645.2,454.4c-6.4,0 -11.6,5.1 -11.6,11.6c0,1.5 0.3,3 0.8,4.3c3.3,10.1 20.7,22.3 22,22.3s18.8,-12.2 22,-22.3c0.5,-1.3 0.8,-2.8 0.8,-4.3c0,-6.4 -5.1,-11.6 -11.6,-11.6s-11.2,6.1 -11.2,6.1s-4,-6.1 -11.2,-6.1z"/>
   <path id="svg_17" opacity="0.2" d="m668,371.8c-6.4,0 -11.6,5.1 -11.6,11.6c0,1.5 0.3,3 0.8,4.3c3.3,10.1 20.7,22.3 22,22.3s18.8,-12.2 22,-22.3c0.5,-1.3 0.8,-2.8 0.8,-4.3c0,-6.4 -5.1,-11.6 -11.6,-11.6s-11.2,6.1 -11.2,6.1s-4,-6.1 -11.2,-6.1z"/>
   <path id="svg_18" opacity="0.2" d="m622.4,441.4c-6.4,0 -11.6,5.1 -11.6,11.6c0,1.5 0.3,3 0.8,4.3c3.3,10.1 20.7,22.3 22,22.3s18.8,-12.2 22,-22.3c0.5,-1.3 0.8,-2.8 0.8,-4.3c0,-6.4 -5.1,-11.6 -11.6,-11.6s-11.2,6.1 -11.2,6.1s-4.1,-6.1 -11.2,-6.1z"/>
   <path id="svg_19" opacity="0.2" d="m621.7,320.2c-15.2,0 -27.4,12.2 -27.4,27.4c0,3.6 0.7,6.9 2,10.1c7.6,23.8 49.2,52.9 52.4,52.9c3.1,0 44.6,-29.1 52.4,-52.9c1.3,-3.1 2,-6.6 2,-10.1c0,-15.2 -12.2,-27.4 -27.4,-27.4s-26.9,14.4 -26.9,14.4s-9.9,-14.4 -27.1,-14.4z"/>
   <path id="svg_20" opacity="0.2" d="m727.3,428.3c-15.2,0 -27.4,12.2 -27.4,27.4c0,3.6 0.7,6.9 2,10.1c7.6,23.8 49.2,52.9 52.4,52.9c3.1,0 44.6,-29.1 52.4,-52.9c1.3,-3.1 2,-6.6 2,-10.1c0,-15.2 -12.2,-27.4 -27.4,-27.4s-26.9,14.4 -26.9,14.4s-9.9,-14.4 -27.1,-14.4z"/>
   <path id="svg_21" opacity="0.2" d="m840.5,456.4c-6.4,0 -11.6,5.1 -11.6,11.6c0,1.5 0.3,3 0.8,4.3c3.3,10.1 20.7,22.3 22,22.3s18.8,-12.2 22,-22.3c0.5,-1.3 0.8,-2.8 0.8,-4.3c0,-6.4 -5.1,-11.6 -11.6,-11.6s-11.2,6.1 -11.2,6.1s-4,-6.1 -11.2,-6.1z"/>
  </g>
  <path id="svg_22" opacity="0.2" fill="#c6bde4" d="m628.8,281.4c-0.5,-0.3 -1,-0.8 -1.5,-1.2c-4.5,-5.8 -11.2,-12.6 -17,-17c-4.5,-5.8 -11.2,-12.6 -17,-17c-4.5,-5.8 -11.2,-12.6 -17,-17c-4.3,-5.6 -14,-10.2 -17.8,-1.2c-5,-4.8 -12.2,-14.9 -19.7,-7.6c-3.5,3.5 -2.5,9.3 -2.5,13.7c-3.3,-4.1 -8.8,-10.6 -14.7,-9.3c-4.3,0.8 -6.9,4.6 -6.9,8.8l0,42.8c0,4.1 1.3,10.7 -0.8,14.7c-5.3,-5.1 -10.7,-12.9 -17.3,-16.5c-6.3,-3.3 -14.9,1.2 -14,8.4c0.5,5.8 4.5,10.1 7.6,14.7c3.8,5.6 4.8,13.2 7.3,19.5c2.5,6.8 6.8,12.1 12.4,16.5c2.6,3.1 6.1,5.9 8.8,9.1c0.8,1 5,4.6 5,6.1l0,152.7c0,0.7 1,-0.2 1.3,0.3l104.1,0l-0.3,-220.5z"/>
  <path id="svg_23" opacity="0.2" fill="#c6bde4" d="m628.8,410.8c-2.8,-2.8 -5.8,-5.5 -8.6,-7.6c-4.5,-5.8 -11.2,-12.6 -17,-17c-4.5,-5.8 -11.2,-12.6 -17,-17c-4.5,-5.8 -11.2,-12.6 -17,-17c-4.5,-5.8 -11.2,-12.6 -17,-17c-4.5,-5.8 -11.2,-12.6 -17,-17c-4.5,-5.8 -11.2,-12.6 -17,-17c-4.5,-5.8 -11.2,-12.6 -17,-17c-4.5,-5.8 -11.2,-12.6 -17,-17c-4.5,-5.8 -11.2,-12.6 -17,-17c-4.5,-5.8 -11.2,-12.6 -17,-17c-4.5,-5.8 -11.2,-12.6 -17,-17c-4.5,-5.8 -11.2,-12.6 -17,-17c-4.3,-5.6 -14,-10.2 -17.8,-1.2c-5.1,-4.6 -12.2,-15 -19.7,-7.6c-3.5,3.5 -2.5,9.1 -2.5,13.7c-3.3,-4.1 -8.8,-10.6 -14.7,-9.3c-4.3,0.8 -6.9,4.6 -6.9,8.8l0,42.8c0,4.1 1.3,10.7 -0.8,14.7c-5.5,-5.1 -10.7,-12.9 -17.3,-16.5c-6.3,-3.3 -14.9,1.2 -14,8.4c0.5,5.8 4.5,10.1 7.6,14.7c3.8,5.6 4.8,13.2 7.3,19.5c2.5,6.8 6.8,12.1 12.4,16.5c2.6,3.1 6.1,5.9 8.8,9.1c0.8,1 5,4.6 5,6.1l0,181.6c0,2.8 0.5,0 1.5,1.7c0,0 0,0.2 0.2,0.2l264.4,0l0,-91.4l-0.9,0l0,-0.2z"/>
  <path id="svg_24" opacity="0.2" fill="#c6bde4" d="m242.5,345.5c0,9.7 0,19.3 3,28.8c1.5,4.8 4,9.6 7.3,13.4c1.7,2 4.3,3 4.3,5.6l0,105.9c0,1.2 -0.5,2.6 0.8,2.6c0,0 0.2,0 0.3,0.2l273.8,0c-1.8,-1.7 -3.6,-3.1 -5.5,-4.5c-4.6,-6.3 -12.4,-13.9 -18.7,-18.7c-4.6,-6.3 -12.4,-13.9 -18.5,-18.5c-4.6,-6.3 -12.4,-13.9 -18.7,-18.7c-2.3,-3.1 -6.1,-6.9 -9.3,-9.3c-2.8,-3.6 -7.3,-8.1 -10.9,-10.9c-4.6,-6.3 -12.4,-13.9 -18.5,-18.5c-4.6,-6.3 -12.4,-13.9 -18.5,-18.5c-4.6,-6.3 -12.4,-13.9 -18.5,-18.5c-4.6,-6.3 -12.4,-13.9 -18.5,-18.5c-4.8,-6.3 -12.4,-13.9 -18.5,-18.5c-4.6,-6.3 -12.4,-13.9 -18.5,-18.5c-4.6,-6.3 -12.4,-13.9 -18.5,-18.7c-4.1,-5.5 -14.7,-16.9 -20.8,-7.3c-4.5,-4.1 -9.6,-12.6 -16.7,-9.1c-5,2.5 -4.5,7.6 -4.5,12.2c-4,-4 -8.9,-10.9 -15.4,-7.8c-4,2 -4.5,5.6 -4.5,9.4l0,20.2c-3.6,-3.1 -13.2,-13.7 -16,-3.1c-0.7,2.5 -0.2,5.6 -0.2,8.1l0,31.1l-0.3,0l0,0.1z"/>
  <path id="svg_25" opacity="0.2" fill="#c6bde4" d="m144,446.8c2.3,7.6 5.3,13.9 11.7,18.8c2.5,3 11.2,8.8 11.2,12.9l0,14.2c0,1.5 -0.8,9.3 0.8,9.3c0,0 0.2,0 0.3,0.2l163.4,0c-1.2,-1 -2.1,-2 -3.1,-2.6c-3.6,-5.1 -10.4,-11.7 -15.5,-15.5c-1.8,-2.5 -5.3,-5.9 -7.8,-7.8c-2.1,-3 -6.3,-7.1 -9.3,-9.3c-1.8,-2.5 -5.3,-5.9 -7.8,-7.8c-2.1,-3 -6.3,-7.1 -9.3,-9.3c-1.8,-2.5 -5.3,-5.9 -7.8,-7.8c-2.1,-3 -6.3,-7.1 -9.3,-9.3c-1.8,-2.5 -5.3,-5.9 -7.8,-7.8c-2.1,-3 -6.3,-7.1 -9.3,-9.3c-1.8,-2.5 -5.3,-5.9 -7.8,-7.8c-2.1,-3 -6.3,-7.1 -9.3,-9.3c-1.8,-2.5 -5.3,-5.9 -7.8,-7.8c-2.1,-3 -6.3,-7.1 -9.3,-9.3c-3.5,-4.8 -11.9,-9.6 -15.2,-1.7c-3.8,-3.6 -8.4,-10.7 -14.5,-7.3c-4.3,2.5 -3.5,7.9 -3.5,12.2c-3.5,-2.6 -5.6,-7.8 -10.4,-7.8c-4,0 -6.9,3.3 -6.9,7.3l0,34.5c0,3.5 1,8.9 -0.7,12.2c-4.1,-4.3 -11.4,-14.7 -18,-14.4c-8.6,0.5 -8.3,8.8 -5.1,14.4c3.3,5.7 6.1,9.8 8.1,15.9z"/>
  <path id="svg_26" opacity="0.2" fill="#c6bde4" d="m582.6,473.6c-1.5,-1.5 -3,-2.8 -4.3,-3.8c-1.8,-2.5 -5.3,-5.9 -7.8,-7.8c-2.1,-3 -6.3,-7.1 -9.3,-9.3c-2.1,-3 -6.3,-7.1 -9.3,-9.3c-2.1,-3 -6.3,-7.1 -9.3,-9.3c-2.1,-3 -6.3,-7.1 -9.3,-9.3c-2.1,-3 -6.3,-7.1 -9.3,-9.3c-2.1,-3 -6.3,-7.1 -9.3,-9.3c-2.1,-3 -6.3,-7.1 -9.3,-9.3c-2.1,-3 -6.3,-7.1 -9.3,-9.3c-2.1,-3 -6.3,-7.1 -9.3,-9.3c-2.1,-3 -6.3,-7.1 -9.3,-9.3c-2.1,-3 -6.3,-7.1 -9.3,-9.3c-2.1,-3 -6.3,-7.1 -9.3,-9.3c-2.1,-3 -6.3,-7.1 -9.3,-9.3c-3.5,-4.8 -12.6,-14 -17.7,-5.8c-3,-3.6 -8.1,-9.9 -13.4,-8.4c-5.5,1.5 -5.1,6.9 -5.1,11.4c-3.8,-3 -6.6,-9.1 -12.4,-7.4c-4.1,1.2 -5.1,4.8 -5.1,8.4l0,18c-1.8,-2.5 -5.6,-6.8 -8.9,-6.8c-3,0 -5.5,2.5 -5.5,5.5l0,39.5c0,10.2 1.7,21.8 8.4,29.9c1.5,1.8 4.3,3.1 4.3,5.8l0,70.8c0,0.8 1,-0.2 1.5,0.5l187.3,0l0,-28.9l-0.4,0z"/>
  <path id="svg_27" opacity="0.2" fill="#c6bde4" d="m605.2,348.3c2.3,7.6 5.3,13.9 11.7,18.8c5,5.9 11.2,8.9 11.2,16.9l0,117.3c0,0.3 0.2,0.7 0.5,0.8l262.2,0c-2,-2.3 -4.8,-5.1 -6.9,-6.6c-2.1,-3 -6.3,-7.1 -9.3,-9.3c-1.8,-2.5 -5.3,-5.9 -7.8,-7.8c-2.1,-3 -6.3,-7.1 -9.3,-9.3c-1.8,-2.5 -5.3,-5.9 -7.8,-7.8c-2.1,-3 -6.3,-7.1 -9.3,-9.3c-1.8,-2.5 -5.3,-5.9 -7.8,-7.8c-2.1,-3 -6.3,-7.1 -9.3,-9.3c-1.8,-2.5 -5.3,-5.9 -7.8,-7.8c-2.1,-3 -6.3,-7.1 -9.3,-9.3c-1.8,-2.5 -5.3,-5.9 -7.8,-7.8c-2.1,-3 -6.3,-7.1 -9.3,-9.3c-3.6,-5.1 -10.4,-11.7 -15.5,-15.5c-1.8,-2.5 -5.3,-5.9 -7.8,-7.8c-2.1,-3 -6.3,-7.1 -9.3,-9.3c-1.8,-2.5 -5.3,-5.9 -7.8,-7.8c-2.1,-3 -6.3,-7.1 -9.3,-9.3c-1.8,-2.5 -5.3,-5.9 -7.8,-7.8c-2.1,-3 -6.3,-7.1 -9.3,-9.3c-1.8,-2.5 -5.3,-5.9 -7.8,-7.8c-2.1,-3 -6.3,-7.1 -9.3,-9.3c-1.8,-2.5 -5.3,-5.9 -7.8,-7.8c-2.1,-3 -6.3,-7.1 -9.3,-9.3c-1.8,-2.5 -5.3,-5.9 -7.8,-7.8c-2.1,-3 -6.3,-7.1 -9.3,-9.3c-3.5,-4.8 -11.9,-9.6 -15.2,-1.7c-3.8,-3.6 -8.4,-10.7 -14.5,-7.3c-4.3,2.5 -3.5,7.9 -3.5,12.2c-3.3,-2.6 -5.6,-7.8 -10.4,-7.8c-4,0 -6.9,3.3 -6.9,7.3l0,34.5c0,3.5 1,8.9 -0.7,12.2c-4.1,-4.3 -11.4,-14.7 -18,-14.4c-8.6,0.5 -8.3,8.8 -5.1,14.4c3.9,6.1 6.7,10.2 8.5,16.3z"/>
  <path id="svg_28" opacity="0.2" fill="#c6bde4" d="m690.8,404.8c0,18.5 -1.7,41.6 13.4,55.4c3.3,3.6 3,3.8 3,8.6l0,33s0.2,0.2 0.5,0.2l221.9,0c-0.2,-0.2 -0.5,-0.3 -0.7,-0.5c-5.3,-6.8 -13.4,-14.9 -20.2,-20.2c-5,-6.3 -12.2,-13.7 -18.5,-18.5c-5,-6.3 -12.2,-13.7 -18.5,-18.7c-5,-6.3 -12.2,-13.7 -18.5,-18.5c-2.5,-3.1 -6.1,-6.8 -9.3,-9.3c-2.8,-3.6 -7.1,-7.9 -10.9,-10.9c-5,-6.3 -12.2,-13.7 -18.5,-18.5c-5.3,-6.8 -13.4,-14.9 -20.2,-20.2c-5,-6.3 -12.2,-13.7 -18.5,-18.5c-4.6,-5.8 -14.7,-15 -20.7,-5.5c-4.3,-5.3 -12.2,-14.7 -19.7,-9.6c-4.6,3.1 -4,8.4 -4,13.2c-5,-4.1 -9.1,-12.2 -16.9,-9.1c-4.5,1.8 -5.5,5.9 -5.5,10.2l0,23.1c-3.8,-4.3 -12.2,-13.7 -17.3,-5.1c-1.5,2.5 -1,5.8 -1,8.4l0.1,31z"/>
  <path id="svg_29" fill="#c5b2a3" d="m503.6,327.8c7.6,5.8 19.7,21 19.7,21l0,152.8l53.5,0l0,-157.1s14.9,-7.6 15.7,-38.8c0,-0.2 0,-0.3 0,-0.3l0,-51.4c0,-3.6 -3,-6.8 -6.8,-6.8c-3.6,0 -6.8,3 -6.8,6.8l0,28.8c0,1.2 -1,2.1 -2.1,2.1s-2.1,-1 -2.1,-2.1l0,-3l0,-48.6c0,-4.8 -3.8,-8.6 -8.6,-8.6s-8.6,3.8 -8.6,8.6l0,51.6c0,1.2 -1,2.1 -2.1,2.1s-2.1,-1 -2.1,-2.1l0,-3l0,-53.4c0,-4.8 -3.8,-8.6 -8.6,-8.6s-8.6,3.8 -8.6,8.6l0,56.3c0,1.2 -1,2.1 -2.1,2.1c-1.2,0 -2.1,-1 -2.1,-2.1l0,-3l0,-46.5c0,-4.8 -3.8,-8.6 -8.6,-8.6s-8.6,3.8 -8.6,8.6l0,55.2c-0.3,2.1 -1,3.8 -2.3,4.1c-3.8,1 -10.6,-22.5 -23,-18.7s-5.3,16.7 0,23c5.1,6.1 6.6,25.3 14.2,31z"/>
  <path id="svg_30" fill="#ff9066" d="m343.1,297.4c7.6,5.8 19.7,21 19.7,21l0,183.2l53.5,0l0,-187.3s14.9,-7.6 15.7,-38.8c0,-0.2 0,-0.3 0,-0.3l0,-51.6c0,-3.6 -3,-6.8 -6.8,-6.8c-3.6,0 -6.8,3 -6.8,6.8l0,28.9c0,1.2 -1,2.1 -2.1,2.1c-1.2,0 -2.1,-1 -2.1,-2.1l0,-3l0,-48.7c0,-4.8 -3.8,-8.6 -8.6,-8.6s-8.6,3.8 -8.6,8.6l0,51.7c0,1.2 -1,2.1 -2.1,2.1s-2.1,-1 -2.1,-2.1l0,-3l0,-53.5c0,-4.8 -3.8,-8.6 -8.6,-8.6s-8.6,3.8 -8.6,8.6l0,56.5c0,1.2 -1,2.1 -2.1,2.1c-1.2,0 -2.1,-1 -2.1,-2.1l0,-3l0,-46.7c0,-4.8 -3.8,-8.6 -8.6,-8.6s-8.6,3.8 -8.6,8.6l0,55.2c-0.3,2.1 -1,3.8 -2.3,4.1c-3.8,1 -10.6,-22.5 -23,-18.7s-5.3,16.7 0,23c5.1,6.3 6.6,25.4 14.2,31z"/>
  <path id="svg_31" fill="#ca9862" d="m257,391.1l0,110.7l49.4,0l0,-106.7s11.1,-14 18,-19.3c7.1,-5.3 8.4,-23 13.2,-28.6c4.8,-5.8 11.4,-17.7 0,-21.1c-11.4,-3.5 -17.7,18 -21.1,17.2c-1.3,-0.3 -1.8,-2 -2.1,-3.8l0,-50.9c0,-4.5 -3.5,-7.9 -7.9,-7.9c-4.3,0 -7.9,3.5 -7.9,7.9l0,42.8l0,2.8c0,1.2 -0.8,2 -2,2c-1,0 -2,-0.8 -2,-2l0,-51.9c0,-4.5 -3.5,-7.9 -7.9,-7.9c-4.3,0 -7.9,3.5 -7.9,7.9l0,49.1l0,2.8c0,1.2 -0.8,2 -2,2c-1,0 -2,-0.8 -2,-2l0,-47.4c0,-4.3 -3.5,-7.9 -7.9,-7.9c-4.3,0 -7.9,3.5 -7.9,7.9l0,44.6l0,2.8c0,1.2 -0.8,2 -2,2s-2,-0.8 -2,-2l0,-26.4c0,-3.5 -2.8,-6.1 -6.1,-6.1c-3.5,0 -6.1,2.8 -6.1,6.1l0,47.3l0,0.3c0.5,28.6 14.2,35.7 14.2,35.7z"/>
  <path id="svg_32" fill="#d71a3c" d="m440.6,429.5l0,72.4l43.5,0l0,-68.9s9.7,-12.4 15.9,-17c6.3,-4.6 7.4,-20.2 11.6,-25.3c4.3,-5.1 10.1,-15.5 0,-18.7c-10.1,-3.1 -15.5,15.9 -18.7,15.2c-1.2,-0.3 -1.7,-1.7 -2,-3.5l0,-44.6c0,-3.8 -3.1,-6.9 -6.9,-6.9s-6.9,3.1 -6.9,6.9l0,37.7l0,2.5c0,1 -0.8,1.8 -1.8,1.8s-1.7,-0.8 -1.8,-1.7l0,-45.6c0,-3.8 -3.1,-6.9 -6.9,-6.9s-6.9,3.1 -6.9,6.9l0,43.1l0,2.5c0,1 -0.8,1.8 -1.8,1.8s-1.7,-0.8 -1.8,-1.7l0,-41.8c0,-3.8 -3.1,-6.9 -6.9,-6.9s-6.9,3.1 -6.9,6.9l0,39.3l0,2.5c0,1 -0.8,1.8 -1.8,1.8s-1.7,-0.8 -1.8,-1.7l0,-23.3c0,-3 -2.5,-5.5 -5.5,-5.5s-5.5,2.5 -5.5,5.5l0,41.6l0,0.3c0.9,25 12.9,31.3 12.9,31.3z"/>
  <path id="svg_33" fill="#0bc0d7" d="m151.1,460.9c6.3,4.6 15.9,17 15.9,17l0,23.8l43.5,0l0,-27.3s12.1,-6.3 12.7,-31.4c0,-0.2 0,-0.2 0,-0.3l0,-41.7c0,-3 -2.5,-5.5 -5.5,-5.5s-5.5,2.5 -5.5,5.5l0,23.3c0,1 -0.8,1.7 -1.8,1.7s-1.8,-0.8 -1.8,-1.8l0,-2.5l0,-39.3c0,-3.8 -3.1,-6.9 -6.9,-6.9s-6.9,3.1 -6.9,6.9l0,42c0,1 -0.8,1.7 -1.8,1.7s-1.8,-0.8 -1.8,-1.8l0,-2.5l0,-43.1c0,-3.8 -3.1,-6.9 -6.9,-6.9s-6.9,3.1 -6.9,6.9l0,45.8c0,1 -0.8,1.7 -1.7,1.7c-1,0 -1.8,-0.8 -1.8,-1.8l0,-2.5l0,-37.9c0,-3.8 -3.1,-6.9 -6.9,-6.9s-6.9,3.1 -6.9,6.9l0,44.6c-0.3,1.7 -0.8,3.1 -2,3.5c-3.1,0.8 -8.6,-18.2 -18.7,-15.2c-10.1,3.1 -4.3,13.5 0,18.7c4.3,5.1 5.5,20.6 11.7,25.3z"/>
  <path id="svg_34" fill="#0bc0d7" d="m612.3,362.4c6.3,4.6 15.9,17 15.9,17l0,122.3l43.5,0l0,-125.8s12.1,-6.3 12.7,-31.4c0,-0.2 0,-0.2 0,-0.3l0,-41.6c0,-3 -2.5,-5.5 -5.5,-5.5s-5.5,2.5 -5.5,5.5l0,23.3c0,1 -0.8,1.7 -1.8,1.7s-1.8,-0.8 -1.8,-1.8l0,-2.5l0,-39.2c0,-3.8 -3.1,-6.9 -6.9,-6.9s-6.9,3.1 -6.9,6.9l0,41.8c0,1 -0.8,1.7 -1.8,1.7s-1.8,-0.8 -1.8,-1.8l0,-2.5l0,-43c0,-3.8 -3.1,-6.9 -6.9,-6.9s-6.9,3.1 -6.9,6.9l0,45.6c0,1 -0.8,1.7 -1.7,1.7c-1,0 -1.8,-0.8 -1.8,-1.8l0,-2.5l0,-37.7c0,-3.8 -3.1,-6.9 -6.9,-6.9s-6.9,3.1 -6.9,6.9l0,44.6c-0.3,1.7 -0.8,3.1 -2,3.5c-3.1,0.8 -8.6,-18.2 -18.7,-15.2c-10.1,3.1 -4.3,13.5 0,18.7c4.4,5 5.6,20.6 11.7,25.2z"/>
  <path id="svg_35" fill="#ffcc40" d="m707,462.3l0,39.3l55.4,0l0,-35s12.4,-15.9 20.3,-21.6c7.9,-5.9 9.4,-25.6 14.9,-32.1c5.5,-6.4 12.9,-19.8 0,-23.6c-12.9,-4 -19.8,20.3 -23.6,19.3c-1.5,-0.3 -2.1,-2.1 -2.5,-4.3l0,-56.8c0,-5 -4,-8.9 -8.9,-8.9c-5,0 -8.9,4 -8.9,8.9l0,48.1l0,3.1c0,1.2 -1,2.1 -2.1,2.1s-2.1,-1 -2.1,-2.1l0,-58.2c0,-5 -4,-8.9 -8.9,-8.9c-5,0 -8.9,4 -8.9,8.9l0,55l0,3.1c0,1.2 -1,2.1 -2.1,2.1c-1.2,0 -2.1,-1 -2.1,-2.1l0,-53.2c0,-5 -4,-8.9 -8.9,-8.9c-5,0 -8.9,4 -8.9,8.9l0,50.1l0,3.1c0,1.2 -1,2.1 -2.1,2.1c-1.2,0 -2.1,-1 -2.1,-2.1l0,-29.6c0,-3.8 -3.1,-6.9 -6.9,-6.9s-6.9,3.1 -6.9,6.9l0,53l0,0.5c-0.1,31.9 15.3,39.8 15.3,39.8z"/>
  <path id="svg_43" opacity="0.2" fill="#fff" d="m110.5,158.3c-4.1,0 -6.3,3.5 -6.3,3.5s-2.8,-3.5 -6.3,-3.5c-3.6,0 -6.4,2.8 -6.4,6.4c0,0.8 0.1,1.7 0.5,2.4c1.8,5.7 11.6,12.5 12.3,12.5s10.5,-6.8 12.3,-12.5c0.3,-0.8 0.5,-1.5 0.5,-2.4c-0.1,-3.6 -3,-6.4 -6.6,-6.4z"/>
  <path id="svg_44" opacity="0.2" fill="#fff" d="m313.1,88.3c-4.1,0 -6.3,3.5 -6.3,3.5s-2.8,-3.5 -6.3,-3.5c-3.6,0 -6.4,2.8 -6.4,6.4c0,0.8 0.1,1.7 0.5,2.4c1.8,5.7 11.6,12.5 12.3,12.5s10.5,-6.8 12.3,-12.5c0.3,-0.8 0.5,-1.5 0.5,-2.4c-0.1,-3.4 -3,-6.4 -6.6,-6.4z"/>
  <path id="svg_45" opacity="0.2" fill="#fff" d="m333.7,117c-4.1,0 -6.3,3.5 -6.3,3.5s-2.9,-3.5 -6.4,-3.5c-3.6,0 -6.4,2.8 -6.4,6.4c0,0.8 0.1,1.7 0.5,2.4c1.8,5.7 11.6,12.5 12.3,12.5c0.8,0 10.5,-6.8 12.3,-12.5c0.1,-0.6 0.3,-1.5 0.3,-2.3c0.1,-3.5 -2.7,-6.5 -6.3,-6.5z"/>
  <path id="svg_46" opacity="0.2" fill="#fff" d="m291.6,150.8c-4.1,0 -6.3,3.5 -6.3,3.5s-2.8,-3.5 -6.3,-3.5c-3.6,0 -6.4,2.8 -6.4,6.4c0,0.8 0.1,1.7 0.5,2.4c1.8,5.7 11.6,12.5 12.3,12.5s10.5,-6.8 12.3,-12.5c0.3,-0.8 0.5,-1.5 0.5,-2.4c-0.2,-3.5 -3,-6.4 -6.6,-6.4z"/>
  <path id="svg_47" opacity="0.2" fill="#fff" d="m232.3,154.4c-4.1,0 -6.3,3.5 -6.3,3.5s-2.8,-3.5 -6.3,-3.5c-3.6,0 -6.4,2.8 -6.4,6.4c0,0.8 0.1,1.7 0.5,2.4c1.8,5.7 11.6,12.5 12.3,12.5s10.5,-6.8 12.3,-12.5c0.3,-0.8 0.5,-1.5 0.5,-2.4c-0.2,-3.5 -3,-6.4 -6.6,-6.4z"/>
  <path id="svg_48" opacity="0.2" fill="#fff" d="m263,95.7c-4.1,0 -6.3,3.5 -6.3,3.5s-2.8,-3.5 -6.3,-3.5c-3.6,0 -6.4,2.8 -6.4,6.4c0,0.8 0.1,1.7 0.5,2.4c1.8,5.7 11.6,12.5 12.3,12.5s10.5,-6.8 12.3,-12.5c0.3,-0.8 0.5,-1.5 0.5,-2.4c-0.1,-3.5 -3,-6.4 -6.6,-6.4z"/>
  <path id="svg_49" opacity="0.2" fill="#fff" d="m291.6,56.7c-4.1,0 -6.3,3.5 -6.3,3.5s-2.8,-3.5 -6.3,-3.5c-3.6,0 -6.4,2.8 -6.4,6.4c0,0.8 0.1,1.7 0.5,2.4c1.8,5.7 11.6,12.5 12.3,12.5s10.5,-6.8 12.3,-12.5c0.3,-0.8 0.5,-1.5 0.5,-2.4c-0.2,-3.5 -3,-6.4 -6.6,-6.4z"/>
  <path id="svg_50" opacity="0.2" fill="#fff" d="m182.9,124.3c-4.1,0 -6.3,3.5 -6.3,3.5s-2.8,-3.5 -6.3,-3.5c-3.6,0 -6.4,2.8 -6.4,6.4c0,0.8 0.1,1.7 0.5,2.4c1.8,5.7 11.6,12.5 12.3,12.5c0.8,0 10.5,-6.8 12.3,-12.5c0.3,-0.8 0.5,-1.5 0.5,-2.4c-0.2,-3.4 -3,-6.4 -6.6,-6.4z"/>
  <path id="svg_51" opacity="0.2" fill="#fff" d="m246.8,73.7c-9.6,0 -15.2,8.1 -15.2,8.1s-6.6,-8.1 -15.2,-8.1c-8.5,0 -15.4,6.8 -15.4,15.4c0,2.1 0.4,3.9 1.2,5.7c4.2,13.4 27.7,29.7 29.5,29.7s25.1,-16.3 29.5,-29.7c0.8,-1.8 1.2,-3.7 1.2,-5.7c-0.1,-8.6 -7.1,-15.4 -15.6,-15.4z"/>
  <path id="svg_52" opacity="0.2" fill="#fff" d="m321.9,124.3c-9.6,0 -15.2,8.1 -15.2,8.1s-6.6,-8.1 -15.2,-8.1s-15.4,6.8 -15.4,15.4c0,2.1 0.4,3.9 1.2,5.7c4.2,13.4 27.7,29.7 29.5,29.7s25.1,-16.3 29.5,-29.7c0.8,-1.8 1.2,-3.7 1.2,-5.7c-0.2,-8.4 -7.2,-15.4 -15.6,-15.4z"/>
  <path id="svg_53" opacity="0.2" fill="#fff" d="m154.1,120.4c-9.6,0 -15.2,8.1 -15.2,8.1s-6.6,-8.1 -15.2,-8.1c-8.5,0 -15.4,6.8 -15.4,15.4c0,2.1 0.4,3.9 1.2,5.7c4.2,13.4 27.7,29.7 29.5,29.7s25.1,-16.3 29.5,-29.7c0.8,-1.8 1.2,-3.7 1.2,-5.7c-0.3,-8.5 -7.1,-15.4 -15.6,-15.4z"/>
  <path id="svg_54" opacity="0.2" fill="#fff" d="m352.7,31.3c-9.6,0 -15.2,8.1 -15.2,8.1s-6.6,-8.1 -15.1,-8.1s-15.4,6.8 -15.4,15.4c0,2.1 0.4,3.9 1.2,5.7c4.2,13.4 27.7,29.7 29.5,29.7s25.1,-16.3 29.5,-29.7c0.8,-1.8 1.2,-3.7 1.2,-5.7c-0.3,-8.5 -7.2,-15.4 -15.7,-15.4z"/>
  <path id="svg_55" opacity="0.2" fill="#fff" d="m81.7,140.2c-4.1,0 -6.3,3.5 -6.3,3.5s-2.8,-3.5 -6.3,-3.5c-3.6,0 -6.4,2.8 -6.4,6.4c0,0.8 0.1,1.7 0.5,2.4c1.8,5.7 11.6,12.5 12.3,12.5c0.8,0 10.5,-6.8 12.3,-12.5c0.3,-0.8 0.5,-1.5 0.5,-2.4c-0.2,-3.6 -3.2,-6.4 -6.6,-6.4z"/>
  <path id="svg_56" opacity="0.2" fill="#fff" d="m463.8,158.3c-3.6,0 -6.4,2.8 -6.4,6.4c0,0.8 0.1,1.7 0.5,2.4c1.8,5.7 11.6,12.5 12.3,12.5c0.8,0 10.5,-6.8 12.3,-12.5c0.3,-0.8 0.5,-1.5 0.5,-2.4c0,-3.6 -2.8,-6.4 -6.4,-6.4s-6.3,3.5 -6.3,3.5s-2.3,-3.5 -6.5,-3.5z"/>
  <path id="svg_57" opacity="0.2" fill="#fff" d="m383.1,139c-3.6,0 -6.4,2.8 -6.4,6.4c0,0.8 0.1,1.7 0.5,2.4c1.8,5.7 11.6,12.5 12.3,12.5s10.5,-6.8 12.3,-12.5c0.3,-0.8 0.5,-1.5 0.5,-2.4c0,-3.6 -2.8,-6.4 -6.4,-6.4s-6.3,3.5 -6.3,3.5s-2.4,-3.5 -6.5,-3.5z"/>
  <path id="svg_58" opacity="0.2" fill="#fff" d="m395.9,92.7c-3.6,0 -6.4,2.8 -6.4,6.4c0,0.8 0.1,1.7 0.5,2.4c1.8,5.7 11.6,12.5 12.3,12.5c0.8,0 10.5,-6.8 12.3,-12.5c0.3,-0.8 0.5,-1.5 0.5,-2.4c0,-3.6 -2.8,-6.4 -6.4,-6.4s-6.3,3.5 -6.3,3.5s-2.5,-3.5 -6.5,-3.5z"/>
  <path id="svg_59" opacity="0.2" fill="#fff" d="m370.2,131.7c-3.6,0 -6.4,2.8 -6.4,6.4c0,0.8 0.1,1.7 0.5,2.4c1.8,5.7 11.6,12.5 12.3,12.5s10.5,-6.8 12.3,-12.5c0.3,-0.8 0.5,-1.5 0.5,-2.4c0,-3.6 -2.8,-6.4 -6.4,-6.4s-6.3,3.5 -6.3,3.5s-2.5,-3.5 -6.5,-3.5z"/>
  <path id="svg_60" opacity="0.2" fill="#fff" d="m369.9,63.8c-8.5,0 -15.4,6.8 -15.4,15.4c0,2.1 0.4,3.9 1.2,5.7c4.2,13.2 27.5,29.6 29.3,29.6s25.1,-16.3 29.5,-29.7c0.8,-1.8 1.2,-3.7 1.2,-5.7c0,-8.5 -6.8,-15.4 -15.4,-15.4s-15.2,8.1 -15.2,8.1s-5.5,-8 -15.2,-8z"/>
  <path id="svg_61" opacity="0.2" fill="#fff" d="m429.2,124.3c-8.5,0 -15.4,6.8 -15.4,15.4c0,2.1 0.4,3.9 1.2,5.7c4.2,13.4 27.7,29.7 29.5,29.7s25.1,-16.3 29.5,-29.7c0.8,-1.8 1.2,-3.7 1.2,-5.7c0,-8.5 -6.8,-15.4 -15.4,-15.4c-8.5,0 -15.2,8.1 -15.2,8.1s-5.7,-8.1 -15.4,-8.1z"/>
  <path id="svg_62" opacity="0.2" fill="#fff" d="m492.8,140.2c-3.6,0 -6.4,2.8 -6.4,6.4c0,0.8 0.1,1.7 0.5,2.4c1.8,5.7 11.6,12.5 12.3,12.5c0.8,0 10.5,-6.8 12.3,-12.5c0.3,-0.8 0.5,-1.5 0.5,-2.4c0,-3.6 -2.8,-6.4 -6.4,-6.4s-6.3,3.5 -6.3,3.5s-2.5,-3.5 -6.5,-3.5z"/>
 </g>
</svg>