<svg width="900" height="500" xmlns="http://www.w3.org/2000/svg" xmlns:xlink="http://www.w3.org/1999/xlink" xml:space="preserve" version="1.1">
 <style type="text/css">.st0{display:none;fill:#9980FA;}
	.st1{opacity:0.4;}
	.st2{fill:none;stroke:#576574;stroke-width:2;stroke-linecap:round;stroke-linejoin:round;stroke-miterlimit:10;}
	.st3{opacity:0.43;}
	.st4{opacity:0.35;}
	.st5{clip-path:url(#SVGID_2_);}
	.st6{fill:none;stroke:#576574;stroke-width:2;stroke-miterlimit:10;}
	.st7{opacity:0.5;}
	.st8{fill:none;stroke:#8395A7;stroke-width:0.8127;stroke-linecap:round;stroke-linejoin:round;stroke-dasharray:0,4.3408;}
	
		.st9{fill:none;stroke:#8395A7;stroke-width:0.9011;stroke-linecap:round;stroke-linejoin:round;stroke-miterlimit:4;stroke-dasharray:0,4.2576;}
	.st10{fill:none;stroke:#8395A7;stroke-width:0.9894;stroke-linecap:round;stroke-linejoin:round;stroke-dasharray:0,4.1948;}
	
		.st11{fill:none;stroke:#8395A7;stroke-width:1.0778;stroke-linecap:round;stroke-linejoin:round;stroke-miterlimit:4;stroke-dasharray:0,4.1013;}
	.st12{fill:none;stroke:#8395A7;stroke-width:1.1662;stroke-linecap:round;stroke-linejoin:round;stroke-dasharray:0,4.0279;}
	.st13{fill:none;stroke:#8395A7;stroke-width:1.2546;stroke-linecap:round;stroke-linejoin:round;stroke-dasharray:0,3.9755;}
	
		.st14{fill:none;stroke:#8395A7;stroke-width:1.343;stroke-linecap:round;stroke-linejoin:round;stroke-miterlimit:4;stroke-dasharray:0,3.8899;}
	.st15{fill:none;stroke:#8395A7;stroke-width:1.4314;stroke-linecap:round;stroke-linejoin:round;stroke-dasharray:0,3.8251;}
	
		.st16{fill:none;stroke:#8395A7;stroke-width:1.5197;stroke-linecap:round;stroke-linejoin:round;stroke-miterlimit:4;stroke-dasharray:0,3.7532;}
	.st17{fill:none;stroke:#8395A7;stroke-width:1.6081;stroke-linecap:round;stroke-linejoin:round;stroke-dasharray:0,3.6727;}
	.st18{fill:none;stroke:#8395A7;stroke-width:1.6965;stroke-linecap:round;stroke-linejoin:round;stroke-dasharray:0,3.614;}
	.st19{fill:none;stroke:#8395A7;stroke-width:1.7849;stroke-linecap:round;stroke-linejoin:round;stroke-dasharray:0,3.5123;}
	.st20{fill:none;stroke:#8395A7;stroke-width:1.8733;stroke-linecap:round;stroke-linejoin:round;stroke-dasharray:0,3.4677;}
	.st21{fill:none;stroke:#8395A7;stroke-width:1.9617;stroke-linecap:round;stroke-linejoin:round;stroke-dasharray:0,3.3747;}
	.st22{fill:none;stroke:#8395A7;stroke-width:2.05;stroke-linecap:round;stroke-linejoin:round;stroke-dasharray:0,3.3047;}
	
		.st23{fill:none;stroke:#8395A7;stroke-width:2.1383;stroke-linecap:round;stroke-linejoin:round;stroke-miterlimit:3.9999;stroke-dasharray:0,3.2164;}
	.st24{fill:none;stroke:#8395A7;stroke-width:2.2268;stroke-linecap:round;stroke-linejoin:round;stroke-dasharray:0,3.1543;}
	
		.st25{fill:none;stroke:#8395A7;stroke-width:2.3153;stroke-linecap:round;stroke-linejoin:round;stroke-miterlimit:4.0002;stroke-dasharray:0,3.0669;}
	.st26{fill:none;stroke:#FFFFFF;stroke-width:0.5;stroke-miterlimit:9.9999;}
	.st27{fill:none;stroke:#FFFFFF;stroke-width:0.6562;stroke-miterlimit:9.9998;}
	.st28{fill:none;stroke:#FFFFFF;stroke-width:0.8125;stroke-miterlimit:9.9998;}
	.st29{fill:none;stroke:#FFFFFF;stroke-width:0.9688;stroke-miterlimit:9.9998;}
	.st30{fill:none;stroke:#FFFFFF;stroke-width:1.125;stroke-miterlimit:9.9998;}
	.st31{fill:none;stroke:#FFFFFF;stroke-width:1.2812;stroke-miterlimit:9.9999;}
	.st32{fill:none;stroke:#FFFFFF;stroke-width:1.4375;stroke-miterlimit:9.9998;}
	.st33{fill:none;stroke:#FFFFFF;stroke-width:1.5938;stroke-miterlimit:9.9998;}
	.st34{fill:none;stroke:#FFFFFF;stroke-width:1.75;stroke-miterlimit:9.9998;}
	.st35{fill:none;stroke:#FFFFFF;stroke-width:1.9062;stroke-miterlimit:9.9999;}
	.st36{fill:none;stroke:#FFFFFF;stroke-width:2.0625;stroke-miterlimit:9.9998;}
	.st37{fill:none;stroke:#FFFFFF;stroke-width:2.2188;stroke-miterlimit:10.0001;}
	.st38{fill:none;stroke:#FFFFFF;stroke-width:2.375;stroke-miterlimit:9.9999;}
	.st39{fill:none;stroke:#FFFFFF;stroke-width:2.5313;stroke-miterlimit:10.0002;}
	.st40{fill:none;stroke:#FFFFFF;stroke-width:2.6874;stroke-miterlimit:9.9997;}
	.st41{fill:none;stroke:#FFFFFF;stroke-width:2.8439;stroke-miterlimit:10.0003;}
	.st42{fill:none;stroke:#FFFFFF;stroke-width:2.9998;stroke-miterlimit:9.999;}
	.st43{fill:#22A482;}
	.st44{fill:none;stroke:#3B55CE;stroke-width:1.05;stroke-linecap:round;stroke-miterlimit:10;}
	.st45{fill:#40C7A7;}
	.st46{fill:#D6D1BD;}
	.st47{fill:#FFFFF8;}
	.st48{fill:#55ABFF;}
	.st49{fill:#85B8ED;}
	.st50{fill:#FFB852;}
	.st51{fill:#FFFFFF;}
	.st52{fill:#EA5E5D;}
	.st53{fill:#BCD3F9;}
	.st54{fill:#3ED9C7;}
	.st55{fill:none;stroke:#638BE2;stroke-width:0.9975;stroke-linecap:round;stroke-miterlimit:10;}
	.st56{fill:#F7F6EC;}
	.st57{fill:#638BE2;}
	.st58{fill:#E5F7FF;}
	.st59{fill:#3B55CE;}
	.st60{fill:#000E5B;}
	.st61{fill:#778FF9;}
	.st62{fill:#228C7E;}
	.st63{fill:#8FC9C6;}
	.st64{clip-path:url(#SVGID_4_);fill:none;stroke:#8FC9C6;stroke-width:0.4988;stroke-linecap:round;stroke-miterlimit:10;}
	.st65{fill:#AAEEED;}
	.st66{clip-path:url(#SVGID_6_);fill:none;stroke:#AAEEED;stroke-width:0.4988;stroke-linecap:round;stroke-miterlimit:10;}
	.st67{fill:#FF9A8D;}
	.st68{fill:#1E4174;}
	.st69{fill:#4E7EAC;}
	.st70{clip-path:url(#SVGID_10_);fill:none;stroke:#274D79;stroke-width:0.4988;stroke-miterlimit:10;}
	.st71{fill:#001C45;}
	.st72{fill:#10A297;}
	.st73{fill:#BA5964;}
	.st74{fill:#03AA99;}
	.st75{fill:none;stroke:#001C45;stroke-width:0.7481;stroke-linecap:round;stroke-miterlimit:10;}
	.st76{fill:#E09B36;}
	.st77{clip-path:url(#SVGID_12_);fill:none;stroke:#8FC9C6;stroke-width:0.4988;stroke-linecap:round;stroke-miterlimit:10;}
	.st78{clip-path:url(#SVGID_14_);fill:none;stroke:#AAEEED;stroke-width:0.4988;stroke-linecap:round;stroke-miterlimit:10;}
	.st79{clip-path:url(#SVGID_16_);fill:none;stroke:#274D79;stroke-width:0.4988;stroke-miterlimit:10;}
	.st80{fill:#FABA50;}
	.st81{fill:#E6FFFC;}
	.st82{fill:#B6DCF5;}</style>
 <g>
  <title>Layer 1</title>
  <g id="XMLID_6761_">
   <g id="XMLID_7111_">
    <path d="m408.1,438.5c0,0 0.3,-11.6 -7.2,-20.4c-7.6,-8.8 -21.7,-13 -33.1,-10.7s-8,7.3 -4.2,9.1c3.8,1.7 8.5,3.5 5.1,6.2c-3.4,2.7 -5,7.9 0.2,9.4s10,-0.6 15.7,3.3c5.7,3.7 15.4,4.9 23.5,3.1z" class="st43" id="XMLID_7113_"/>
    <path d="m363.8,412.5c15.2,0.9 28,6.5 41.1,26.1" class="st44" id="XMLID_7112_"/>
   </g>
   <g id="XMLID_7108_">
    <path d="m817,438.5c0,0 1.5,-14.3 15.7,-27.4c16.1,-15 36.5,-30.9 28,-42.5c-7.4,-10.2 -32.5,-7.5 -42.4,28c-9.2,32.8 -7.2,42 -7.2,42l5.9,0l0,-0.1z" class="st45" id="XMLID_7110_"/>
    <path d="m853.2,368.8c-15.1,8.9 -32.7,29.5 -39.3,69.7" class="st44" id="XMLID_7109_"/>
   </g>
   <g id="XMLID_7105_">
    <path d="m817,438.5l8.4,0c0,0 2.7,-7.6 13.2,-12.1c10.4,-4.5 21.8,-2.2 31.1,-7c10.5,-5.5 8.1,-18.5 -4.4,-21.1c-12.1,-2.6 -23.7,1.6 -36.2,14.3c-9.4,9.5 -12,19.6 -12.1,25.9z" class="st43" id="XMLID_7107_"/>
    <path d="m869.1,407.1c-12.8,-3.4 -43.5,5.1 -48.8,31.4" class="st44" id="XMLID_7106_"/>
   </g>
   <g id="XMLID_7102_">
    <path d="m415.9,438.5c0,0 -15.2,3 -22.8,-5.2c-7.6,-8.2 1.6,-14.6 -4.3,-20.9c-5.9,-6.2 -11.1,-5.9 -12.5,-11.8c-1.4,-5.9 5.8,-6.1 5.1,-12c-0.7,-5.9 -8.1,-10.9 -4.1,-15.8c4,-4.9 9.9,-0.8 17.3,4.5c5.1,3.6 7.1,2.9 11.3,1.6c4.2,-1.3 9.4,-0.9 10,6.6c0.6,7.5 -1,16.2 5.3,20.7c8.4,6.3 12.8,20.6 -5.3,32.3z" class="st45" id="XMLID_7104_"/>
    <path d="m382.2,375.7c12.8,10.8 28,32.3 33.7,62.8" class="st44" id="XMLID_7103_"/>
   </g>
   <g id="XMLID_7056_">
    <path d="m628.8,203.2l175,0l0,-20.7l-175,0c-5.7,0 -10.3,4.6 -10.3,10.3l0,0c-0.1,5.8 4.6,10.4 10.3,10.4z" class="st46" id="XMLID_7099_"/>
    <path d="m629.1,195.2l189,0l0,-4.7l-189,0c-1.3,0 -2.4,1.1 -2.4,2.4l0,0c0.1,1.3 1.1,2.3 2.4,2.3z" class="st46" id="XMLID_7096_"/>
    <path d="m803.7,182.5l-175,0c-5.7,0 -10.3,4.6 -10.3,10.3l0,0c0,5.7 4.6,10.3 10.3,10.3l185.1,0l0,233.5l-199.1,0l0,-243.8c0,-7.7 6.3,-14 14,-14l175,0l0,3.7z" class="st47" id="XMLID_7093_"/>
    <g id="XMLID_7061_">
     <g id="svg_164">
      <g id="svg_165">
       <path id="svg_166" d="m634.5,225.3l4.9,18.9l4.9,-18.9l6.9,0l0,26.2l-5.3,0l0,-7.1l0.5,-10.9l-5.2,18l-3.6,0l-5.2,-18l0.5,10.9l0,7.1l-5.3,0l0,-26.2l6.9,0z" class="st48"/>
       <path id="svg_167" d="m659.7,242.7c0.1,1.6 0.4,2.7 1,3.5c0.6,0.8 1.5,1.2 2.8,1.2c1.4,0 2.4,-0.6 3,-1.7c0.6,-1.2 0.9,-2.9 1,-5.1l-6.4,0l0,-4.4l6.4,0c-0.1,-2.3 -0.5,-4 -1.1,-5.2c-0.7,-1.1 -1.6,-1.7 -2.9,-1.7c-1.2,0 -2.1,0.4 -2.7,1.1c-0.6,0.7 -0.9,2 -1,3.8l-5.3,0c0.2,-2.9 1.1,-5.2 2.7,-6.8c1.6,-1.6 3.7,-2.4 6.3,-2.4c2.8,0 5.1,1.1 6.8,3.4c1.7,2.3 2.6,5.4 2.6,9.3l0,1.5c0,3.9 -0.8,6.9 -2.5,9.2c-1.7,2.2 -3.9,3.4 -6.8,3.4c-2.7,0 -4.8,-0.8 -6.4,-2.5s-2.5,-3.8 -2.6,-6.6l5.1,0z" class="st48"/>
       <path id="svg_168" d="m696.7,257.9l-4.8,0l0,-6.4l-12.4,0l0,6.4l-5,0l-0.3,-10.8l1.7,0c0.8,-0.7 1.4,-1.8 1.8,-3.4c0.4,-1.6 0.8,-3.6 0.9,-6.2l0.7,-12.2l15,0l0,21.8l2.7,0l-0.3,10.8zm-15.1,-10.8l7.6,0l0,-17.4l-4.7,0l-0.4,7.2c-0.4,4.3 -1.2,7.7 -2.5,10.2z" class="st48"/>
       <path id="svg_169" d="m718.5,225.3l0,26.2l-5.3,0l0,-21.8l-4.9,0l-0.4,9.3c-0.1,3.1 -0.5,5.5 -1,7.3c-0.5,1.8 -1.3,3.1 -2.4,3.9c-1,0.8 -2.5,1.3 -4.2,1.3l-1.3,0l0,-4.4l0.6,-0.1c1.1,-0.1 1.9,-0.9 2.4,-2.2c0.5,-1.3 0.8,-3.6 0.9,-7l0.3,-12.6l15.3,0l0,0.1z" class="st48"/>
       <path id="svg_170" d="m727,242.7c0.1,1.6 0.4,2.7 1,3.5c0.6,0.8 1.5,1.2 2.8,1.2c1.4,0 2.4,-0.6 3,-1.7c0.6,-1.2 0.9,-2.9 1,-5.1l-6.4,0l0,-4.4l6.4,0c-0.1,-2.3 -0.5,-4 -1.1,-5.2c-0.7,-1.1 -1.6,-1.7 -2.9,-1.7c-1.2,0 -2.1,0.4 -2.7,1.1c-0.6,0.7 -0.9,2 -1,3.8l-5.3,0c0.2,-2.9 1.1,-5.2 2.7,-6.8c1.6,-1.6 3.7,-2.4 6.3,-2.4c2.8,0 5.1,1.1 6.8,3.4c1.7,2.3 2.6,5.4 2.6,9.3l0,1.5c0,3.9 -0.8,6.9 -2.5,9.2c-1.7,2.2 -3.9,3.4 -6.8,3.4c-2.7,0 -4.8,-0.8 -6.4,-2.5s-2.5,-3.8 -2.6,-6.6l5.1,0z" class="st48"/>
       <path id="svg_171" d="m758.3,229.7l-9.4,0l0,21.8l-5.3,0l0,-26.2l14.7,0l0,4.4z" class="st48"/>
      </g>
     </g>
     <rect height="26.6" width="38.3" class="st49" y="224.9" x="762.8" id="XMLID_7089_"/>
     <rect height="6.9" width="168" class="st49" y="260" x="633.2" id="XMLID_7086_"/>
     <rect height="62.9" width="53.3" class="st50" y="275.5" x="633.2" id="XMLID_7083_"/>
     <g id="XMLID_7072_">
      <path d="m677.2,285.8l-34.9,0c-0.8,0 -1.4,-0.6 -1.4,-1.4l0,0c0,-0.8 0.6,-1.4 1.4,-1.4l34.9,0c0.8,0 1.4,0.6 1.4,1.4l0,0c0,0.7 -0.6,1.4 -1.4,1.4z" class="st51" id="XMLID_2_"/>
      <path id="svg_172" d="m677.2,297.1l-34.9,0c-0.8,0 -1.4,-0.6 -1.4,-1.4l0,0c0,-0.8 0.6,-1.4 1.4,-1.4l34.9,0c0.8,0 1.4,0.6 1.4,1.4l0,0c0,0.7 -0.6,1.4 -1.4,1.4z" class="st51"/>
      <path id="svg_173" d="m677.2,308.3l-34.9,0c-0.8,0 -1.4,-0.6 -1.4,-1.4l0,0c0,-0.8 0.6,-1.4 1.4,-1.4l34.9,0c0.8,0 1.4,0.6 1.4,1.4l0,0c0,0.8 -0.6,1.4 -1.4,1.4z" class="st51"/>
      <path id="svg_174" d="m677.2,319.6l-34.9,0c-0.8,0 -1.4,-0.6 -1.4,-1.4l0,0c0,-0.8 0.6,-1.4 1.4,-1.4l34.9,0c0.8,0 1.4,0.6 1.4,1.4l0,0c0,0.8 -0.6,1.4 -1.4,1.4z" class="st51"/>
      <path d="m677.2,330.9l-34.9,0c-0.8,0 -1.4,-0.6 -1.4,-1.4l0,0c0,-0.8 0.6,-1.4 1.4,-1.4l34.9,0c0.8,0 1.4,0.6 1.4,1.4l0,0c0,0.8 -0.6,1.4 -1.4,1.4z" class="st51" id="XMLID_1_"/>
     </g>
     <rect height="41.7" width="53.3" class="st52" y="382.6" x="633.2" id="XMLID_7069_"/>
     <path d="m677.2,392.8l-34.9,0c-0.8,0 -1.4,-0.6 -1.4,-1.4l0,0c0,-0.8 0.6,-1.4 1.4,-1.4l34.9,0c0.8,0 1.4,0.6 1.4,1.4l0,0c0,0.8 -0.6,1.4 -1.4,1.4z" class="st51" id="XMLID_7068_"/>
     <path d="m677.2,404.1l-34.9,0c-0.8,0 -1.4,-0.6 -1.4,-1.4l0,0c0,-0.8 0.6,-1.4 1.4,-1.4l34.9,0c0.8,0 1.4,0.6 1.4,1.4l0,0c0,0.8 -0.6,1.4 -1.4,1.4z" class="st51" id="XMLID_7067_"/>
     <path d="m677.2,415.4l-34.9,0c-0.8,0 -1.4,-0.6 -1.4,-1.4l0,0c0,-0.8 0.6,-1.4 1.4,-1.4l34.9,0c0.8,0 1.4,0.6 1.4,1.4l0,0c0,0.8 -0.6,1.4 -1.4,1.4z" class="st51" id="XMLID_7066_"/>
     <rect height="147.9" width="102.9" class="st53" y="275.5" x="698.2" id="XMLID_7065_"/>
     <rect height="20.5" width="81.5" class="st54" y="350.2" x="633.2" id="XMLID_7062_"/>
    </g>
    <path d="m818.2,195.2" class="st55" id="XMLID_7060_"/>
    <path d="m623.2,192.9l0,8.7c1.5,1 3.4,1.6 5.6,1.7l185.1,0l0,233.5l7.9,0l0,-241.6l-192.7,0c-1.3,0 -2.4,-1.1 -2.4,-2.4c0,-1.3 1.1,-2.4 2.4,-2.4l189,0l0,-3.6l-189,0c-3.3,0.1 -5.9,2.7 -5.9,6.1l0,0" class="st56" id="XMLID_7057_"/>
   </g>
   <path d="m842.7,440.5l-498.3,0c-1.1,0 -1.9,-0.9 -1.9,-1.9l0,0c0,-1.1 0.9,-1.9 1.9,-1.9l498.3,0c1.1,0 1.9,0.9 1.9,1.9l0,0c0,1.1 -0.8,1.9 -1.9,1.9z" class="st57" id="XMLID_7053_"/>
   <path d="m784.6,468.1l-329.5,0c-15.2,0 -27.6,-12.3 -27.6,-27.6l0,0l384.6,0l0,0c0.1,15.2 -12.2,27.6 -27.5,27.6z" class="st58" id="XMLID_7050_"/>
   <g id="XMLID_7016_">
    <path d="m644.9,266.1l-226.1,0c-5.4,0 -9.8,4.4 -9.8,9.8l0,151c0,5.4 4.4,9.8 9.8,9.8l226.1,0c5.4,0 9.8,-4.4 9.8,-9.8l0,-151c0,-5.4 -4.4,-9.8 -9.8,-9.8z" class="st59" id="XMLID_7049_"/>
    <path d="m631.8,429.7l-199.9,0c-2.8,0 -5.1,-2.3 -5.1,-5.1l0,-146.4c0,-2.8 2.3,-5.1 5.1,-5.1l199.9,0c2.8,0 5.1,2.3 5.1,5.1l0,146.4c0,2.8 -2.3,5.1 -5.1,5.1z" class="st53" id="XMLID_7048_"/>
    <path d="m421.2,357.1c0,1.8 -1.5,3.3 -3.3,3.3c-1.8,0 -3.3,-1.5 -3.3,-3.3c0,-1.8 1.5,-3.3 3.3,-3.3c1.8,0 3.3,1.5 3.3,3.3z" class="st60" id="XMLID_7045_"/>
    <path d="m417.9,331.5l0,0c-1.1,0 -2,0.9 -2,2l0,13c0,1.1 0.9,2 2,2l0,0c1.1,0 2,-0.9 2,-2l0,-13c0,-1.1 -0.9,-2 -2,-2z" class="st60" id="XMLID_7042_"/>
    <rect height="149.1" width="169.1" class="st61" y="280.5" x="450.6" id="XMLID_7041_"/>
    <rect height="145.6" width="169.1" class="st47" y="284.1" x="447.3" id="XMLID_7038_"/>
    <g id="XMLID_7017_">
     <g id="svg_175">
      <g id="svg_176">
       <path id="svg_177" d="m466,297l4,15.4l4,-15.4l5.6,0l0,21.3l-4.3,0l0,-5.8l0.4,-8.9l-4.3,14.7l-2.9,0l-4.3,-14.7l0.4,8.9l0,5.8l-4.3,0l0,-21.3l5.7,0z" class="st48"/>
       <path id="svg_178" d="m486.6,311.3c0.1,1.3 0.3,2.2 0.8,2.9s1.2,1 2.3,1c1.1,0 1.9,-0.5 2.4,-1.4s0.8,-2.3 0.8,-4.2l-5.2,0l0,-3.6l5.2,0c-0.1,-1.9 -0.4,-3.3 -0.9,-4.2s-1.3,-1.4 -2.4,-1.4c-1,0 -1.7,0.3 -2.2,0.9s-0.7,1.6 -0.8,3.1l-4.3,0c0.2,-2.4 0.9,-4.2 2.2,-5.6s3,-2 5.1,-2c2.3,0 4.2,0.9 5.6,2.8s2.1,4.4 2.1,7.6l0,1.3c0,3.2 -0.7,5.7 -2,7.5s-3.2,2.7 -5.6,2.7c-2.2,0 -3.9,-0.7 -5.2,-2s-2,-3.1 -2.1,-5.4l4.2,0z" class="st48"/>
       <path id="svg_179" d="m516.8,323.6l-4,0l0,-5.2l-10.1,0l0,5.2l-4.1,0l-0.2,-8.8l1.4,0c0.6,-0.6 1.1,-1.5 1.5,-2.8s0.6,-3 0.8,-5l0.6,-9.9l12.3,0l0,17.8l2.2,0l-0.4,8.7zm-12.3,-8.8l6.2,0l0,-14.2l-3.9,0l-0.4,5.9c-0.2,3.5 -0.9,6.3 -1.9,8.3z" class="st48"/>
       <path id="svg_180" d="m522.8,311.3c0.1,1.3 0.3,2.2 0.8,2.9s1.2,1 2.3,1c1.1,0 1.9,-0.5 2.4,-1.4s0.8,-2.3 0.8,-4.2l-5.2,0l0,-3.6l5.2,0c-0.1,-1.9 -0.4,-3.3 -0.9,-4.2s-1.3,-1.4 -2.4,-1.4c-1,0 -1.7,0.3 -2.2,0.9s-0.7,1.6 -0.8,3.1l-4.3,0c0.2,-2.4 0.9,-4.2 2.2,-5.6s3,-2 5.1,-2c2.3,0 4.2,0.9 5.6,2.8s2.1,4.4 2.1,7.6l0,1.3c0,3.2 -0.7,5.7 -2,7.5s-3.2,2.7 -5.6,2.7c-2.2,0 -3.9,-0.7 -5.2,-2s-2,-3.1 -2.1,-5.4l4.2,0z" class="st48"/>
       <path id="svg_181" d="m539.8,311.3c0.1,1.3 0.3,2.2 0.8,2.9s1.2,1 2.3,1c1.1,0 1.9,-0.5 2.4,-1.4s0.8,-2.3 0.8,-4.2l-5.2,0l0,-3.6l5.2,0c-0.1,-1.9 -0.4,-3.3 -0.9,-4.2s-1.3,-1.4 -2.4,-1.4c-1,0 -1.7,0.3 -2.2,0.9s-0.7,1.6 -0.8,3.1l-4.3,0c0.2,-2.4 0.9,-4.2 2.2,-5.6s3,-2 5.1,-2c2.3,0 4.2,0.9 5.6,2.8s2.1,4.4 2.1,7.6l0,1.3c0,3.2 -0.7,5.7 -2,7.5s-3.2,2.7 -5.6,2.7c-2.2,0 -3.9,-0.7 -5.2,-2s-2,-3.1 -2.1,-5.4l4.2,0z" class="st48"/>
       <path id="svg_182" d="m567.8,297l0,21.3l-4.3,0l0,-17.7l-4,0l-0.3,7.6c-0.1,2.5 -0.4,4.5 -0.8,5.9s-1.1,2.5 -1.9,3.2s-2,1 -3.5,1l-1.1,0l0,-3.6l0.5,0c0.9,-0.1 1.5,-0.7 1.9,-1.8s0.6,-3 0.7,-5.7l0.3,-10.3l12.5,0l0,0.1z" class="st48"/>
       <path id="svg_183" d="m574.8,311.3c0.1,1.3 0.3,2.2 0.8,2.9s1.2,1 2.3,1c1.1,0 1.9,-0.5 2.4,-1.4s0.8,-2.3 0.8,-4.2l-5.2,0l0,-3.6l5.2,0c-0.1,-1.9 -0.4,-3.3 -0.9,-4.2s-1.3,-1.4 -2.4,-1.4c-1,0 -1.7,0.3 -2.2,0.9s-0.7,1.6 -0.8,3.1l-4.3,0c0.2,-2.4 0.9,-4.2 2.2,-5.6s3,-2 5.1,-2c2.3,0 4.2,0.9 5.6,2.8s2.1,4.4 2.1,7.6l0,1.3c0,3.2 -0.7,5.7 -2,7.5s-3.2,2.7 -5.6,2.7c-2.2,0 -3.9,-0.7 -5.2,-2s-2,-3.1 -2.1,-5.4l4.2,0z" class="st48"/>
       <path id="svg_184" d="m602.8,297l0,21.3l-4.3,0l0,-17.7l-4,0l-0.3,7.6c-0.1,2.5 -0.4,4.5 -0.8,5.9c-0.4,1.5 -1.1,2.5 -1.9,3.2s-2,1 -3.5,1l-1.1,0l0,-3.6l0.5,0c0.9,-0.1 1.5,-0.7 1.9,-1.8s0.6,-3 0.7,-5.7l0.3,-10.3l12.5,0l0,0.1z" class="st48"/>
      </g>
     </g>
     <rect height="5.9" width="144.9" class="st49" y="325.8" x="458.7" id="XMLID_7031_"/>
     <rect height="54.3" width="46" class="st50" y="339.1" x="458.7" id="XMLID_7028_"/>
     <g id="XMLID_7022_">
      <path d="m496.9,347.8l-30.5,0c-0.6,0 -1,-0.5 -1,-1l0,0c0,-0.6 0.5,-1 1,-1l30.5,0c0.6,0 1,0.5 1,1l0,0c0,0.5 -0.4,1 -1,1z" class="st51" id="XMLID_7027_"/>
      <path d="m496.9,357.5l-30.5,0c-0.6,0 -1,-0.5 -1,-1l0,0c0,-0.6 0.5,-1 1,-1l30.5,0c0.6,0 1,0.5 1,1l0,0c0,0.6 -0.4,1 -1,1z" class="st51" id="XMLID_7026_"/>
      <path d="m496.9,367.2l-30.5,0c-0.6,0 -1,-0.5 -1,-1l0,0c0,-0.6 0.5,-1 1,-1l30.5,0c0.6,0 1,0.5 1,1l0,0c0,0.6 -0.4,1 -1,1z" class="st51" id="XMLID_7025_"/>
      <path d="m496.9,377l-30.5,0c-0.6,0 -1,-0.5 -1,-1l0,0c0,-0.6 0.5,-1 1,-1l30.5,0c0.6,0 1,0.5 1,1l0,0c0,0.5 -0.4,1 -1,1z" class="st51" id="XMLID_7024_"/>
      <path d="m496.9,386.7l-30.5,0c-0.6,0 -1,-0.5 -1,-1l0,0c0,-0.6 0.5,-1 1,-1l30.5,0c0.6,0 1,0.5 1,1l0,0c0,0.6 -0.4,1 -1,1z" class="st51" id="XMLID_7023_"/>
     </g>
     <rect height="90.5" width="88.8" class="st53" y="339.1" x="514.8" id="XMLID_7021_"/>
     <rect height="17.7" width="70.3" class="st54" y="403.6" x="458.7" id="XMLID_7018_"/>
    </g>
   </g>
   <path d="m486.9,225.2l-6.4,0l0,-0.2c0,-7.8 -6.3,-14.1 -14.1,-14.1s-14.1,6.3 -14.1,14.1l0,4.7l-5.2,0c-2.7,0 -4.9,2.2 -4.9,4.9c0,2.7 2.2,4.9 4.9,4.9l5.2,0l28.2,0l3.8,0l2.6,0c3.9,0 7.1,-3.2 7.1,-7.1c0.1,-4 -3.1,-7.2 -7.1,-7.2z" class="st51" id="XMLID_7015_"/>
   <g id="XMLID_6908_">
    <path d="m594.5,207.2c-3.9,-1.9 -5.7,7.6 -7.8,18.3c-1.1,5.7 -3.5,18.2 -3.5,18.2l8.8,4.1l2.5,-40.6z" class="st62" id="XMLID_7012_"/>
    <g id="XMLID_6995_">
     <path d="m521.1,264c-0.3,0.5 -0.6,1.3 1.5,2.3c2.2,1 6.2,0.8 7.8,0.6c1.6,-0.2 2.6,-0.7 4.9,-0.1c2.3,0.6 4,0.3 5.2,-0.6c0.9,-0.7 0.9,-2.3 0.9,-2.3l-20.3,0.1z" class="st63" id="XMLID_7009_"/>
     <g id="XMLID_6996_">
      <defs transform="translate(-34 52) translate(-120 -3) translate(-124 93) translate(-456 -8)">
       <path d="m1275.4,123.6c0.3,1.6 0.6,5.2 -0.1,6.6c-0.7,1.5 -3.6,2 -6.2,1.2c-2.6,-0.8 -4.5,0.5 -7.9,0.5c-3.3,0 -6.9,-1.4 -5.9,-2.5c1,-1.1 4.5,-1.9 8.4,-3.3c4.1,-1.5 7.1,-3.2 7.1,-3.2l4.6,0.7z" id="SVGID_3_"/>
      </defs>
      <use x="-734" y="134" id="svg_185" fill="#001C45" xlink:href="#SVGID_3_"/>
      <clipPath transform="translate(-34 52) translate(-120 -3) translate(-124 93) translate(-456 -8)" id="SVGID_4_">
       <use id="svg_186" xlink:href="#SVGID_3_"/>
      </clipPath>
      <path d="m534.9,260.5c0,0 -0.7,-2.2 -1.7,-3" class="st64" id="XMLID_7006_"/>
      <path d="m531.9,261.5c0,0 -0.7,-2.2 -1.7,-3" class="st64" id="XMLID_7003_"/>
      <path d="m528.9,262.6c0,0 -0.7,-2.2 -1.7,-3" class="st64" id="XMLID_7000_"/>
     </g>
    </g>
    <g id="XMLID_6975_">
     <path d="m508,248.3c-0.6,-0.1 -1.5,0 -1.5,2.4s1.9,5.9 2.8,7.3c0.9,1.3 1.7,2.1 2.1,4.4c0.4,2.4 1.4,3.8 2.8,4.5c1.1,0.5 2.5,-0.2 2.5,-0.2l-8.7,-18.4z" class="st65" id="XMLID_6992_"/>
     <g id="XMLID_6979_">
      <defs transform="translate(-34 52) translate(-120 -3) translate(-124 93) translate(-456 -8)">
       <path d="m1256.3,130c-1.4,0.9 -4.4,2.7 -6,2.7c-1.6,0 -3.4,-2.4 -3.8,-5.1c-0.4,-2.7 -2.4,-3.9 -3.8,-6.9c-1.4,-2.9 -1.7,-6.9 -0.2,-6.4c1.4,0.5 3.7,3.3 6.6,6.2c3.1,3 5.9,5.1 5.9,5.1l1.3,4.4z" id="SVGID_5_"/>
      </defs>
      <use x="-734" y="134" id="svg_187" fill="#1E4174" xlink:href="#SVGID_5_"/>
      <clipPath transform="translate(-34 52) translate(-120 -3) translate(-124 93) translate(-456 -8)" id="SVGID_6_">
       <use id="svg_188" xlink:href="#SVGID_5_"/>
      </clipPath>
      <path d="m517,259.4c0,0 1.7,-1.6 2,-2.8" class="st66" id="XMLID_6989_"/>
      <path d="m514.8,257.1c0,0 1.7,-1.6 2,-2.8" class="st66" id="XMLID_6986_"/>
      <path d="m512.5,254.8c0,0 1.7,-1.6 2,-2.8" class="st66" id="XMLID_6983_"/>
     </g>
     <path d="m527.4,262.4l-5,1.7c0,0 -0.2,-0.3 -0.7,-0.5c-0.5,-0.1 -1.1,-0.4 -1.5,-0.8c-1.4,-1.7 0.8,-3.1 0.8,-3.1l5.6,-2.5l0.8,5.2z" class="st67" id="XMLID_6976_"/>
    </g>
    <path d="m590.1,245.7c0,0 -21.5,-16.5 -24.8,-17.2c-3.3,-0.7 -4.3,0.1 -8.8,4.8c-4.2,4.4 -21.4,24.5 -21.4,24.5l6.2,1.7l23.8,-17.3c0,0 24.7,21.4 23.9,21.2c-0.8,-0.3 1.1,-17.7 1.1,-17.7z" class="st68" id="XMLID_6972_"/>
    <g id="XMLID_6953_">
     <g id="XMLID_6968_">
      <defs transform="translate(-34 52) translate(-120 -3) translate(-124 93) translate(-456 -8)">
       <path d="m1348.6,111c0.6,7.6 0.6,17.8 -10.4,20.3s-36.5,-10.5 -40.1,-12.2c-3.5,-1.8 -4.4,1.4 -12.9,4.6c-8.3,3.1 -23.5,5.8 -23.5,5.8s-2.4,-2.4 -2,-5.8c0,0 28.8,-12.7 32,-14.2c3.3,-1.5 6.4,-1.8 16.3,0c8.6,1.6 16.1,2.4 16.1,2.4l24.5,-0.9z" id="SVGID_7_"/>
      </defs>
      <use x="-734" y="134" id="svg_189" fill="#85B8ED" xlink:href="#SVGID_7_"/>
      <clipPath transform="translate(-34 52) translate(-120 -3) translate(-124 93) translate(-456 -8)" id="SVGID_8_">
       <use id="svg_190" xlink:href="#SVGID_7_"/>
      </clipPath>
     </g>
     <path d="m614.6,245l-21.6,0.7l-1.1,1c0,0 5.2,3.4 17.1,3.2c0,0 0.2,8.4 -4.2,10.1c-4.4,1.7 -12.9,-1 -21.6,-3.8c-14.5,-4.6 -19.2,-8.5 -24.4,-5.7c-9.5,5.1 -31.7,12.2 -31.7,12.2l0,0c0.3,0.3 0.5,0.6 0.5,0.6s15.2,-2.7 23.5,-5.8c8.5,-3.1 9.4,-6.3 12.9,-4.6c3.5,1.8 29.1,14.7 40.1,12.2s11.1,-12.5 10.5,-20.1z" class="st69" id="XMLID_6965_"/>
     <g id="XMLID_6954_">
      <defs transform="translate(-34 52) translate(-120 -3) translate(-124 93) translate(-456 -8)">
       <path d="m1348.6,111c0.6,7.6 0.6,17.8 -10.4,20.3s-36.5,-10.5 -40.1,-12.2c-3.5,-1.8 -4.4,1.4 -12.9,4.6c-8.3,3.1 -23.5,5.8 -23.5,5.8s-2.4,-2.4 -2,-5.8c0,0 28.8,-12.7 32,-14.2c3.3,-1.5 6.4,-1.8 16.3,0c8.6,1.6 16.1,2.4 16.1,2.4l24.5,-0.9z" id="SVGID_9_"/>
      </defs>
      <clipPath transform="translate(-34 52) translate(-120 -3) translate(-124 93) translate(-456 -8)" id="SVGID_10_">
       <use id="svg_191" xlink:href="#SVGID_9_"/>
      </clipPath>
      <path d="m605,246.7c-1.6,6 -2.5,11.2 -12.1,9.4c-9.5,-1.8 -28.1,-9.8 -31.3,-8.8c-3.3,1 -25.5,11.9 -37.2,15.1" class="st70" id="XMLID_6962_"/>
      <path d="m601.5,254.7c0,0 -7.8,-2 -6.1,-8.9" class="st70" id="XMLID_6961_"/>
      <path d="m527.9,255.2c0,0 0.8,6 3.3,8.6" class="st70" id="XMLID_6958_"/>
     </g>
    </g>
    <g id="XMLID_6909_">
     <path d="m566.5,224.2c-0.3,-0.2 -8.3,-5.4 -11.3,-7.4c-0.6,-0.4 -0.8,-1.2 -0.3,-1.8l0,0c0.4,-0.6 1.2,-0.7 1.8,-0.3l10,6.6c-0.1,0.1 2.8,2.9 -0.2,2.9z" class="st71" id="XMLID_6950_"/>
     <path d="m586.2,208.4c-0.4,0.5 -0.5,1.5 0.6,4.4l9.5,-9.5l-10.1,5.1z" class="st72" id="XMLID_6949_"/>
     <path d="m572.5,195.4c-0.1,0.8 -1.1,4.6 -1.5,5.7s2.5,0.3 2.5,0.3l-1,-6z" class="st73" id="XMLID_6946_"/>
     <polygon points="590.699951171875,201.10000610351562 591.9000244140625,202.3000030517578 586.699951171875,208.8000030517578 582.4000244140625,205 586.9000244140625,198.1999969482422 " class="st67" id="XMLID_6943_"/>
     <path d="m585.3,207.6c0,0 3.1,-4.9 1.7,-9.3l-4.6,6.7l2.9,2.6z" class="st73" id="XMLID_6940_"/>
     <path d="m586.9,198.2c0,0 -0.1,1.2 -0.2,2.1c-0.2,0.9 -5.6,6 -7.2,6.8c-1.6,0.8 -4,1.4 -5.7,-4.4c-1.7,-5.8 -2.1,-11.2 0.7,-15.2c2.8,-4 9.1,-3.2 12.8,-0.5c3.7,2.8 3.9,10.8 -0.4,11.2z" class="st67" id="XMLID_6937_"/>
     <path d="m586.9,198.2l0,0c0,0 2.2,2.7 3.8,2.9c0,0 -0.4,-1.6 0,-3.9c0.6,-3.3 2.5,-7.2 1.2,-9.5c-1.6,-3 -5.7,-2.8 -5.7,-2.8s-4.1,-5.1 -12.5,-5.5s-9.6,6.1 -2.6,7.8c0,0 -3.1,3.4 -0.1,3.9c3,0.5 9.9,-2.3 9.9,-2.3s-2.9,2.6 -1.5,3.2c1.4,0.6 5.6,-1.5 5.6,-1.5l0.3,2.4c0,0 1.6,-1.2 3,-0.4c1.7,1.1 1.4,5.5 -1.4,5.7z" class="st71" id="XMLID_6934_"/>
     <path d="m587.6,212c0,0 -1.3,-2.4 -0.9,-3.2c1.3,-2.4 5.7,-9.4 6.5,-8.8c0.7,0.6 3.1,3.2 3.1,3.2l-8.7,8.8z" class="st54" id="XMLID_6931_"/>
     <path d="m586.8,212.8c-0.4,3 0.1,9.2 1.1,17.9c0.7,6.6 2.2,15 2.2,15s5,3.1 13.5,2.6c8.2,-0.5 11,-3.3 11,-3.3s-1.5,-17.8 -6.4,-28.4s-11.9,-13.3 -11.9,-13.3l-9.5,9.5z" class="st54" id="XMLID_6928_"/>
     <path d="m595.9,247.7c9.1,-9.3 9.1,-27.1 9.1,-27.1l-13.8,14.2l-2.4,2c0.7,4.8 1.4,8.9 1.4,8.9s1.9,1.3 5.7,2z" class="st74" id="XMLID_6925_"/>
     <path d="m594.9,210.2c-1.2,1.3 -1.8,2.5 -2.7,6.2c-1,4.2 -3.1,15 -3.1,15l0.5,0.1l5.3,-21.3z" class="st74" id="XMLID_6922_"/>
     <path d="m601.7,207.1c-4,-1.6 -7.1,1.3 -8.8,9.1c-1.6,7.4 -3.3,15.4 -3.3,15.4l-10.8,-3.1l-1.6,7.2c0,0 10.3,5.2 14.8,6.4c4.4,1.1 5.1,0 10.5,-13.9c3.8,-10.3 5.8,-18.5 -0.8,-21.1z" class="st54" id="XMLID_6919_"/>
     <path d="m578.7,228.4l-7.4,-2.4c0,0 0.6,-2.4 -1.3,-4.3c-1.8,-1.8 -2.9,-4.6 -3.6,-3.8c-0.7,0.8 -0.4,2 0.1,3.4c0.5,1.4 -0.1,2.9 -0.1,2.9l-6.7,-4.3c0,0 0.1,3.5 1.4,5.5c1.4,2.1 2.9,3.7 6.5,5.7c3.6,2 9.4,4.6 9.4,4.6l1.7,-7.3z" class="st67" id="XMLID_6916_"/>
     <path d="m584.4,177.9c0,0 3.9,3.8 1.1,8.5c0,0 4,-1.7 3.4,-5.8" class="st75" id="XMLID_6913_"/>
     <path d="m596.3,203.2l-8.7,8.8l-0.8,0.8c-0.2,0.6 -0.2,1 -0.1,1.4l9.6,-11z" class="st74" id="XMLID_6910_"/>
    </g>
   </g>
   <g id="XMLID_6802_">
    <path d="m686,380.9c1.5,-1.3 4,0.7 11.3,4.7c6.2,3.4 15.9,7.5 15.9,7.5l10.3,0.3l0,5.9c0,0 -8.2,1.3 -11.2,1.4c-3,0.1 -24.7,-7.5 -24.7,-7.5l-1.6,-12.3z" class="st76" id="XMLID_6905_"/>
    <g id="XMLID_6833_">
     <g id="XMLID_6888_">
      <path d="m748.2,435.4c0.3,0.5 0.6,1.3 -1.5,2.3c-2.2,1 -6.2,0.8 -7.8,0.6c-1.6,-0.2 -2.6,-0.7 -4.9,-0.1c-2.3,0.6 -4,0.3 -5.2,-0.6c-0.9,-0.7 -0.9,-2.3 -0.9,-2.3l20.3,0.1z" class="st63" id="XMLID_6902_"/>
      <g id="XMLID_6889_">
       <defs transform="translate(-34 52) translate(-120 -3) translate(-124 93) translate(-456 -8)">
        <path d="m1461.9,295c-0.3,1.6 -0.6,5.2 0.1,6.6c0.7,1.5 3.6,2 6.2,1.2c2.6,-0.8 4.5,0.5 7.9,0.5c3.3,0 6.9,-1.4 5.9,-2.5c-1,-1.1 -4.5,-1.9 -8.4,-3.3c-4.1,-1.5 -7.1,-3.2 -7.1,-3.2l-4.6,0.7z" id="SVGID_11_"/>
       </defs>
       <use x="-734" y="134" id="svg_192" fill="#228C7E" xlink:href="#SVGID_11_"/>
       <clipPath transform="translate(-34 52) translate(-120 -3) translate(-124 93) translate(-456 -8)" id="SVGID_12_">
        <use id="svg_193" xlink:href="#SVGID_11_"/>
       </clipPath>
       <path d="m734.4,431.9c0,0 0.7,-2.2 1.7,-3" class="st77" id="XMLID_6899_"/>
       <path d="m737.4,432.9c0,0 0.7,-2.2 1.7,-3" class="st77" id="XMLID_6896_"/>
       <path d="m740.4,434c0,0 0.7,-2.2 1.7,-3" class="st77" id="XMLID_6893_"/>
      </g>
     </g>
     <g id="XMLID_6868_">
      <path d="m761.4,419.7c0.6,-0.1 1.5,0 1.5,2.4c0,2.4 -1.9,5.9 -2.8,7.3c-0.9,1.3 -1.7,2.1 -2.1,4.4c-0.4,2.4 -1.4,3.8 -2.8,4.5c-1.1,0.5 -2.5,-0.2 -2.5,-0.2l8.7,-18.4z" class="st65" id="XMLID_6885_"/>
      <g id="XMLID_6872_">
       <defs transform="translate(-34 52) translate(-120 -3) translate(-124 93) translate(-456 -8)">
        <path d="m1481,301.4c1.4,0.9 4.4,2.7 6,2.7s3.4,-2.4 3.8,-5.1s2.4,-3.9 3.8,-6.9c1.4,-2.9 1.7,-6.9 0.2,-6.4s-3.7,3.3 -6.6,6.2c-3.1,3 -5.9,5.1 -5.9,5.1l-1.3,4.4z" id="SVGID_13_"/>
       </defs>
       <use x="-734" y="134" id="svg_194" fill="#03AA99" xlink:href="#SVGID_13_"/>
       <clipPath transform="translate(-34 52) translate(-120 -3) translate(-124 93) translate(-456 -8)" id="SVGID_14_">
        <use id="svg_195" xlink:href="#SVGID_13_"/>
       </clipPath>
       <path d="m752.4,430.8c0,0 -1.7,-1.6 -2,-2.8" class="st78" id="XMLID_6882_"/>
       <path d="m754.6,428.5c0,0 -1.7,-1.6 -2,-2.8" class="st78" id="XMLID_6879_"/>
       <path d="m756.8,426.2c0,0 -1.7,-1.6 -2,-2.8" class="st78" id="XMLID_6876_"/>
      </g>
      <path d="m742,433.8l5,1.7c0,0 0.2,-0.3 0.7,-0.5c0.5,-0.1 1.1,-0.4 1.5,-0.8c1.4,-1.7 -0.8,-3.1 -0.8,-3.1l-5.6,-2.5l-0.8,5.2z" class="st67" id="XMLID_6869_"/>
     </g>
     <path d="m677,414.7c0,0 23.6,-9.9 26.8,-11.1c3.3,-1.2 5.6,-1.8 10.1,2.9c4.2,4.4 20.4,22.6 20.4,22.6l-6.2,1.7l-23.8,-17.3c0,0 -24.7,21.4 -23.9,21.2c0.7,-0.3 -3.4,-20 -3.4,-20z" class="st68" id="XMLID_6865_"/>
     <path d="m664.2,407.4c-3.5,5.8 -7.6,6.8 -9.3,15.5c-0.8,4 0.4,7.6 2.9,10.2c1.9,2 4.4,3.4 7.3,3.7c16.2,1.5 36.4,-9.6 39.9,-11.4c3.5,-1.8 2.6,2.4 11.4,4.6c8.5,2.1 25.6,3.9 25.6,3.9s2.1,-1.4 1.7,-4.9c0,0 -28.8,-12.7 -32,-14.2c-4.4,-2 -6.5,-1.2 -16.3,0c-6.7,0.8 -13.4,1.8 -16.1,2.1c-0.6,0 -1,-0.5 -0.9,-1.1l0.5,-2l-14.7,-6.4z" class="st49" id="XMLID_6862_"/>
     <path d="m678.4,413.5l-14.2,-6.1c-3.5,5.8 -7.6,6.8 -9.3,15.5c-0.8,4 0.4,7.6 2.9,10.2c1.9,2 4.4,3.4 7.3,3.7c16.2,1.5 36.4,-9.6 39.9,-11.4c3.5,-1.8 2.6,2.4 11.4,4.6c8.5,2.1 25.6,3.9 25.6,3.9s0.4,-0.3 0.9,-0.9c0,0 -8.1,-1.3 -16.5,-3c-8.4,-1.7 -11.6,-3.6 -14.6,-5.4c-3.3,-2 -4.6,-3 -8.1,-2c-1.9,0.5 -21.2,5.8 -27.7,6.7c-6.5,0.9 -13.1,-1.3 -13.3,-7c-0.2,-5.7 3.8,-10.6 3.8,-10.6c2,7.2 11.4,6.4 11.4,6.4l1.1,-4.2l-0.6,-0.4l0,0z" class="st69" id="XMLID_6859_"/>
     <g id="XMLID_6852_">
      <defs transform="translate(-34 52) translate(-120 -3) translate(-124 93) translate(-456 -8)">
       <path d="m1398.2,273.4c-3.5,5.8 -7.6,6.8 -9.3,15.5c-0.8,4 0.4,7.6 2.9,10.2c1.9,2 4.4,3.4 7.3,3.7c16.2,1.5 36.4,-9.6 39.9,-11.4c3.5,-1.8 2.6,2.4 11.4,4.6c8.5,2.1 25.6,3.9 25.6,3.9s2.1,-1.4 1.7,-4.9c0,0 -28.8,-12.7 -32,-14.2c-4.4,-2 -6.5,-1.2 -16.3,0c-6.7,0.8 -13.4,1.8 -16.1,2.1c-0.6,0 -1,-0.5 -0.9,-1.1l0.5,-2l-14.7,-6.4z" id="SVGID_15_"/>
      </defs>
      <clipPath transform="translate(-34 52) translate(-120 -3) translate(-124 93) translate(-456 -8)" id="SVGID_16_">
       <use id="svg_196" xlink:href="#SVGID_15_"/>
      </clipPath>
      <path d="m669.4,407.6c-3.8,7.4 -4.1,14.1 0.5,16.7c4.6,2.6 23.4,-2.1 30.1,-3.3c3.6,-0.7 5.8,-0.9 8.1,-0.5c2,0.4 5.9,2.5 9.1,3.9c7.3,3.4 29.8,8.9 29.8,8.9" class="st79" id="XMLID_6858_"/>
      <path d="m666.7,419.7c0,0 7,1.4 8.5,-5.9" class="st79" id="XMLID_6857_"/>
      <path d="m740.7,425.7c0,0 1.1,4.5 -1.6,9" class="st79" id="XMLID_6856_"/>
     </g>
     <path d="m683.7,378.3c0,0 -1.8,-0.2 -3.7,0c-2.5,1.2 -6.7,5.3 -8.4,10.4c-1,3.1 -5.6,17 -9,19.8c0,0 5.4,9.4 16.5,5.7c0.7,-1.9 3.1,-6 7.2,-9.8c1.4,-1.3 3.9,-2.3 5,-3.4c5.2,-5.1 -0.7,-11.4 -1.3,-15.4c-0.3,-2.2 -3,-7.4 -4.5,-7.6c-1.6,-0.2 -1.8,0.3 -1.8,0.3z" class="st54" id="XMLID_6849_"/>
     <path d="m687.4,371.8l-1.9,2.8l-1.8,3.7c0,0 1,0.4 1.6,2.1c0.5,1.4 2.4,4.8 4.5,5.2c0,0 -0.1,-3.2 0.4,-4.6c0.4,-1.4 1.6,-4.2 1.6,-4.2l-4.4,-5z" class="st67" id="XMLID_6846_"/>
     <path d="m687.4,371.8c0,0 -0.7,2.3 -0.7,3.5c0,1.2 0.9,3.7 3.5,5.8c0.4,-1.4 1.6,-4.2 1.6,-4.2l-4.4,-5.1z" class="st73" id="XMLID_6843_"/>
     <path d="m699.3,367.2c0.4,1.9 2.4,4.6 1.9,5c-0.4,0.4 -2.2,0.2 -2.2,0.2s-1.3,-1.4 -0.7,-3.1c0.5,-1.8 1,-2.1 1,-2.1z" class="st73" id="XMLID_6840_"/>
     <path d="m695.3,355.4c2.6,0.4 4.9,4.1 4.7,7.3s-1.1,4.9 -1,7.2c0.1,2.3 -0.1,4.5 -1.2,6.8c-0.7,1.6 -2.4,1.8 -4.6,1.2c-2,-0.6 -4.7,-2.7 -5.3,-3.4c-0.6,-0.7 -0.6,-2.8 -0.6,-2.8s-3,-0.6 -4.2,-3.5c-1.1,-2.7 -0.2,-14.7 12.2,-12.8z" class="st67" id="XMLID_6837_"/>
     <path d="m687.4,371.8c0,0 -2.7,-1.2 -2.3,-4.3c0.4,-3.1 4.7,-3 4.3,-0.2c0,0 2.5,-0.1 3.2,-1.1c0.8,-1 1.8,-6.4 1.8,-6.4s0.8,1.4 1.1,3.3c0.3,1.9 1.7,2.2 4.3,1.2c2.5,-1 4.4,-3.3 5,-5.5c0,0 -2,-0.2 -3.2,-0.9c0,0 2.8,0.1 4.1,-1.7c0,0 -2.9,1.1 -4.6,0c-1.8,-1.1 -4.3,-3.6 -7.7,-3.4c-3.4,0.2 -5.4,2.2 -5.4,2.2s-3.1,-1.5 -5.6,0.2c-2.5,1.7 -4.4,6.5 -2.7,11.6c1.7,5.1 5.7,7.8 5.7,7.8l2,-2.8z" class="st71" id="XMLID_6834_"/>
    </g>
    <path d="m686.9,407.5c2.3,1.2 7.6,3.9 8.9,4.4c1.3,0.5 9,0.2 10.5,0.7c1.2,0.5 1.2,1 1.2,1s-3.3,-0.3 -7.4,0.8c-2.2,0.6 -2.8,1.4 -5.4,1.1c-2.6,-0.3 -11.5,-3.8 -11.5,-3.8l3.7,-4.2z" class="st67" id="XMLID_6830_"/>
    <path d="m681.4,378.2l1.5,0c0,0 2.8,9.6 1.2,15.2c-1.2,4 -11.8,17.4 -11.8,17.4s-7.6,-3.9 -9.7,-7.9c0,0 3.8,-2.7 6.1,-7.3c1.2,-2.4 2.1,-5.7 2.9,-9.3c0.7,-3.5 4.7,-6.3 9.8,-8.1z" class="st80" id="XMLID_6827_"/>
    <path d="m676.4,405.8l-4.8,-18c0,0 0,0 0,0c0,0.1 -2,16.9 -2.2,18.2c-0.2,1.3 0.3,1.9 2,3c0.4,0.3 1.1,0.6 1.8,0.9c0.6,-0.9 1.8,-2.4 3.2,-4.1z" class="st76" id="XMLID_6824_"/>
    <path d="m681.7,378.2c-3.5,-0.6 -9.5,1.7 -10.1,7.2c-0.5,4.5 -0.6,20.5 0.1,22c0.5,1.2 9.3,4 12,5c0,0 2.7,-2.1 3.2,-4.9c0,0 -6.7,-3.8 -8,-5c0.2,-5.7 2.2,-17.9 2.8,-24.3z" class="st80" id="XMLID_6821_"/>
    <polygon points="680.4000244140625,387.3999938964844 679.800048828125,400.70001220703125 678.9000244140625,402.5 " class="st76" id="XMLID_6818_"/>
    <path d="m723.5,393.4l9.8,0c0,0 1.2,-1.5 3.6,-1.7c2.6,-0.2 5.2,-1.6 4.9,-0.6c-0.2,0.8 -0.7,0.8 -2.3,1.7c-0.7,0.4 0.8,0.7 3.8,-0.4c3,-1.1 4.5,-2.7 4.4,0.2c-0.1,4.9 -5.2,5.8 -7.5,5.9s-6.5,-0.4 -8.8,-0.3c-2.3,0.1 -7.9,0.7 -7.9,0.7l0,-5.5z" class="st67" id="XMLID_6815_"/>
    <path d="m681.7,356.1c0,0 -2.6,-3.6 -6.7,-2.8c-3.7,0.7 -6.2,3.5 -6.5,9c-0.3,5.7 6.6,14.2 0.1,18.8c0,0 9.3,0.7 7.6,-10.8c-1.3,-8.7 2,-12 4.5,-10.8l1,-3.4z" class="st71" id="XMLID_6812_"/>
    <g id="XMLID_6809_">
     <path d="m697,367.9c0,-0.4 -0.3,-0.7 -0.7,-0.7c-0.4,0 -0.7,0.3 -0.7,0.7c0,0.4 0.3,0.7 0.7,0.7c0.4,0.1 0.7,-0.3 0.7,-0.7z" class="st71" id="XMLID_6811_"/>
     <path d="m697.8,366l-3.5,0.9c0,0 0.1,-1.2 1.3,-1.4c1.5,-0.4 2.2,0.5 2.2,0.5z" class="st71" id="XMLID_6810_"/>
    </g>
    <path d="m686.9,366.9c0.5,-0.1 1.2,-0.1 1.5,0.3c0.1,0.1 -0.1,0.3 -0.3,0.3c-0.8,-0.3 -1.7,-0.4 -2.2,0.5c0,0 -0.1,0 0,0c0.2,-0.6 0.5,-0.9 1,-1.1z" class="st73" id="XMLID_6806_"/>
    <path d="m687.3,367c0.1,0 0.3,0.2 0.3,0.3c-0.1,0.1 -0.3,0.2 -0.4,0.4c-0.2,0.3 -0.2,0.5 -0.2,0.9c0,0.8 0.4,1.4 1.2,1.6c0,0 0,0 0,0c-0.7,0.1 -1.4,-0.6 -1.5,-1.2c-0.3,-0.7 -0.2,-1.7 0.6,-2z" class="st73" id="XMLID_6803_"/>
   </g>
   <g id="XMLID_6774_">
    <path d="m760.8,392.7c0,0 -3.5,-1.3 -5.3,-1.4c-3.8,1.4 -3.7,7.8 -0.7,9.2l11.3,-0.4l-0.3,-4.9l-5,-2.5z" class="st81" id="XMLID_6799_"/>
    <path d="m782.5,387.3c-0.6,-1.4 -1.8,-3.8 -4.3,-5c-1.6,-0.7 -1.6,-0.2 -1.1,0.8c0.8,1.8 0.2,4.2 0.2,4.2s0.8,2.5 2.9,2.3c3.1,-0.3 2.3,-2.3 2.3,-2.3z" class="st76" id="XMLID_6796_"/>
    <path d="m779.2,386.5c0,0 -3.1,-0.9 -5.1,-0.4c-2.2,0.6 -3,1.4 -4.5,2.2c-1.5,0.8 -3.2,1 -4.9,0.5c-1.9,-0.5 -3.4,-1 -3.9,-0.4c-0.6,1.8 -0.5,4.3 0.8,5.4c1.3,1.1 2.2,1.5 4.8,1.3c2.6,-0.2 3.6,-0.9 4.4,0.1c0.7,0.9 -0.3,5.7 -2,5.3c-0.9,-0.2 -1.8,-0.8 -2.7,-0.4c-0.7,-0.2 -1.3,-0.3 -1.9,-0.3c-0.8,0 -1.2,0.2 -1.3,0.4c-0.1,0.6 0.8,1 2.4,1.3c1.7,0.3 2.7,-0.3 4.4,-0.7c1.2,-0.3 2.7,0.2 2.7,2c0,1.5 -1.9,3 -2.5,7.2c-0.5,3.3 0.1,6 2.8,8.8c0.6,4 -1.7,13.5 -2.5,15.1c-0.4,0.9 -3.1,0.4 -3.5,2.9l6.4,0c0,0 0.9,-1.8 1.4,-2.7c1.6,-3.1 2.7,-4.4 4.4,-10.3c0,0 1.6,1.5 3.4,1.7c0,0 -2.6,5.7 2.5,8.1c0,0 -5.2,0.2 -5.2,3.2c0,0 20.7,0 23.3,0c2.6,0 5.9,-3.4 5,-9.3c-1,-6 -3.1,-11.3 -9.4,-16c-5.7,-4.2 -11.1,-5.1 -13,-9.5c-1.1,-2.6 -1.8,-11.6 -1.7,-13c0.3,-3.1 -0.8,-5.2 -1.7,-6.5c-1.3,-1.9 -2,-1.6 -1.9,0.6c0.1,2.5 -1,3.4 -1,3.4z" class="st80" id="XMLID_6793_"/>
    <path d="m804.5,435.9c2.2,1.2 7.9,1.3 12.2,-2.1c4.2,-3.3 5.9,-10.3 2.5,-15.5s-10.3,-5.4 -11.1,-4.7c-0.9,0.7 3.6,3.4 4.9,6.8c0,0 -2.4,-1.6 -3.8,-1.7c-1.4,-0.1 2.1,3.4 2.5,7.3c0.4,3.8 -1.5,8 -6.1,7.8l-1.1,2.1z" class="st80" id="XMLID_6790_"/>
    <path d="m765.7,395.1c1.7,-0.7 9.1,-1.1 13.1,0c0,0 2.6,1.2 2.3,4.6c-0.3,4.5 -3.9,4.8 -3.9,4.8s-9,-4 -11.3,-4.4c0.1,0 -1.6,-2 -0.2,-5z" class="st81" id="XMLID_6787_"/>
    <path d="m781.2,399.7c0.2,-3.4 -2.3,-4.6 -2.3,-4.6s-2.1,-0.1 -3.2,2.6c-1.1,2.7 -0.4,5.4 1.7,6.8c-0.1,0 3.5,-0.3 3.8,-4.8z" class="st49" id="XMLID_6784_"/>
    <path d="m779,397.6c0,0 -1.4,1.4 -3.9,1.8c-0.3,2.1 0.4,4 2.1,5.1c0.1,0 2.6,-2.2 1.8,-6.9z" class="st82" id="XMLID_6781_"/>
    <path d="m782.2,425.3c2.1,-4.6 11.6,-6.8 16.5,0c0,0 -1.8,-5.4 -9,-5.2c-6.3,0.2 -7.5,4.6 -7.5,5.2z" class="st76" id="XMLID_6778_"/>
    <path d="m760.4,391c0.2,0.1 0.4,-1.3 0.7,-1.1c0.3,0.2 -0.3,0.8 -0.3,0.8c0.9,-0.1 2.4,-1.1 2,-1.9c-0.4,-0.9 -1.8,-0.8 -2.2,-0.7c-0.5,0.1 -1.2,1.7 -0.2,2.9z" class="st71" id="XMLID_6775_"/>
   </g>
   <g id="XMLID_6771_">
    <path d="m575.7,195.3c0,-0.4 0.3,-0.7 0.7,-0.7c0.4,0 0.7,0.3 0.7,0.7c0,0.4 -0.3,0.7 -0.7,0.7c-0.3,0 -0.7,-0.3 -0.7,-0.7z" class="st71" id="XMLID_6773_"/>
    <path d="m575,193.4l3.5,0.9c0,0 -0.1,-1.2 -1.3,-1.4c-1.5,-0.5 -2.2,0.5 -2.2,0.5z" class="st71" id="XMLID_6772_"/>
   </g>
   <path d="m587.8,193.9c-0.5,-0.1 -1.2,-0.1 -1.5,0.3c-0.1,0.1 0.1,0.3 0.3,0.3c0.8,-0.3 1.7,-0.4 2.2,0.5c0,0 0.1,0 0,0c-0.2,-0.6 -0.5,-1 -1,-1.1z" class="st73" id="XMLID_6768_"/>
   <path d="m587.4,194c-0.1,0 -0.3,0.2 -0.3,0.3c0.1,0.1 0.3,0.2 0.4,0.4c0.2,0.3 0.2,0.5 0.2,0.9c0,0.8 -0.4,1.4 -1.2,1.6c0,0 0,0 0,0c0.7,0.1 1.4,-0.6 1.5,-1.2c0.3,-0.8 0.2,-1.7 -0.6,-2z" class="st73" id="XMLID_6765_"/>
   <path d="m776,390.7c0,0 0.3,-1.3 -1.2,-1.7c-1.6,-0.5 -2.1,0.7 -2.1,0.7s0.8,-0.3 1.9,0.1c0.8,0.2 1.4,0.9 1.4,0.9z" class="st71" id="XMLID_6762_"/>
  </g>
 </g>
</svg>