<svg width="900" height="500" xmlns="http://www.w3.org/2000/svg" xmlns:xlink="http://www.w3.org/1999/xlink" enable-background="new 0 0 1920 350">
 <defs>
  <linearGradient id="a">
   <stop stop-color="#fff" offset="0"/>
   <stop stop-opacity="0" offset="1"/>
  </linearGradient>
  <linearGradient y2="0.048" y1="0.95283" xlink:href="#a" x2="0.95224" x1="0.04797" id="b"/>
  <linearGradient y2="0.04761" y1="0.95065" xlink:href="#a" x2="0.95239" x1="0.04935" id="c"/>
  <linearGradient y2="0.04928" y1="0.95007" xlink:href="#a" x2="0.95067" x1="0.04846" id="d"/>
 </defs>
 <g>
  <title>Layer 1</title>
  <path id="svg_1" stroke-width="49.9975" stroke-miterlimit="9.9995" stroke="#fff" opacity="0.115" fill="none" d="m1356.62133,193.14714l168.14839,-168.14839l168.14839,168.14839l-168.14839,168.14839l-168.14839,-168.14839z"/>
  <g id="svg_2" opacity="0.33">
   <path id="svg_3" opacity="0.5" fill="url(#b)" d="m743.7,281.53051c-15.4,-15.4 -15.4,-40.3 0,-55.6l162.6,-162.6c15.4,-15.4 40.3,-15.4 55.6,0c15.4,15.4 15.4,40.3 0,55.6l-162.5,162.6c-15.4,15.2 -40.3,15.2 -55.7,0z"/>
   <path id="svg_4" opacity="0.5" fill="url(#c)" d="m740.8,146.33051c-7.3,-7.3 -7.3,-19.1 0,-26.4l73.6,-73.6c7.3,-7.3 19.1,-7.3 26.4,0c7.3,7.3 7.3,19.1 0,26.4l-73.6,73.6c-7.3,7.3 -19.1,7.3 -26.4,0z"/>
   <path id="svg_5" opacity="0.5" fill="url(#d)" d="m860.7,282.33051c-7.3,-7.3 -7.3,-19.1 0,-26.4l73.6,-73.8c7.3,-7.3 19.1,-7.3 26.4,0c7.3,7.3 7.3,19.1 0,26.4l-73.6,73.6c-7.2,7.5 -19.1,7.5 -26.4,0.2z"/>
  </g>
  <g id="svg_6" stroke-width="2.1221" stroke-miterlimit="10" stroke="#fff" opacity="0.2" fill="none">
   <path id="svg_7" d="m979.5,442.13051l-114.1,114"/>
   <path id="svg_8" d="m970.4,433.03051l-114.1,114"/>
   <path id="svg_9" d="m961.3,423.93051l-114.1,113.8"/>
   <path id="svg_10" d="m952.2,414.83051l-114.1,113.8"/>
   <path id="svg_11" d="m943.1,405.53051l-114.1,114"/>
   <path id="svg_12" d="m934,396.43051l-114.1,114"/>
   <path id="svg_13" d="m924.9,387.33051l-114.1,114"/>
   <path id="svg_14" d="m915.6,378.23051l-113.9,114"/>
   <path id="svg_15" d="m906.5,369.13051l-113.9,114"/>
   <path id="svg_16" d="m897.4,360.03051l-114.1,114"/>
   <path id="svg_17" d="m888.3,350.93051l-114.1,114"/>
   <path id="svg_18" d="m879.2,341.83051l-114.1,114"/>
   <path id="svg_19" d="m870.1,332.73051l-114.1,114"/>
   <path id="svg_20" d="m861,323.63051l-114.1,114"/>
   <path id="svg_21" d="m851.9,314.53051l-114.1,113.8"/>
  </g>
  <g id="svg_26" opacity="0.5" fill="#fff">
   <path id="svg_27" d="m345.2,-37.76949c0,2.3 -1.8,4.1 -4.1,4.1s-4.1,-1.8 -4.1,-4.1s1.8,-4.1 4.1,-4.1s4.1,1.8 4.1,4.1z"/>
   <circle id="svg_28" r="4.1" cy="-37.76949" cx="376"/>
   <circle id="svg_29" r="4.1" cy="-37.76949" cx="410.6"/>
   <path id="svg_30" d="m449.2,-37.76949c0,2.3 -1.8,4.1 -4.1,4.1s-4.1,-1.8 -4.1,-4.1s1.8,-4.1 4.1,-4.1s4.1,1.8 4.1,4.1z"/>
   <circle id="svg_31" r="4.1" cy="-37.76949" cx="480"/>
   <circle id="svg_32" r="4.1" cy="-37.76949" cx="514.6"/>
   <circle id="svg_33" r="4.1" cy="-37.76949" cx="549.3"/>
   <circle id="svg_34" r="4.1" cy="-37.76949" cx="584"/>
   <path id="svg_35" d="m345.2,-3.16949c0,2.3 -1.8,4.1 -4.1,4.1s-4.1,-1.8 -4.1,-4.1s1.8,-4.1 4.1,-4.1c2.3,0.1 4.1,1.9 4.1,4.1z"/>
   <circle id="svg_36" r="4.1" cy="-3.16949" cx="376"/>
   <circle id="svg_37" r="4.1" cy="-3.16949" cx="410.6"/>
   <path id="svg_38" d="m449.2,-3.16949c0,2.3 -1.8,4.1 -4.1,4.1s-4.1,-1.8 -4.1,-4.1s1.8,-4.1 4.1,-4.1c2.3,0.1 4.1,1.9 4.1,4.1z"/>
   <circle id="svg_39" r="4.1" cy="-3.16949" cx="480"/>
   <circle id="svg_40" r="4.1" cy="-3.16949" cx="514.6"/>
   <circle id="svg_41" r="4.1" cy="-3.16949" cx="549.3"/>
   <circle id="svg_42" r="4.1" cy="-3.16949" cx="584"/>
   <path id="svg_43" d="m345.2,31.53051c0,2.3 -1.8,4.1 -4.1,4.1s-4.1,-1.8 -4.1,-4.1s1.8,-4.1 4.1,-4.1s4.1,1.8 4.1,4.1z"/>
   <circle id="svg_44" r="4.1" cy="31.53051" cx="376"/>
   <circle id="svg_45" r="4.1" cy="31.53051" cx="410.6"/>
   <path id="svg_46" d="m449.2,31.53051c0,2.3 -1.8,4.1 -4.1,4.1s-4.1,-1.8 -4.1,-4.1s1.8,-4.1 4.1,-4.1s4.1,1.8 4.1,4.1z"/>
   <circle id="svg_47" r="4.1" cy="31.53051" cx="480"/>
   <circle id="svg_48" r="4.1" cy="31.53051" cx="514.6"/>
   <circle id="svg_49" r="4.1" cy="31.53051" cx="549.3"/>
   <circle id="svg_50" r="4.1" cy="31.53051" cx="584"/>
   <path id="svg_51" d="m345.2,66.23051c0,2.3 -1.8,4.1 -4.1,4.1s-4.1,-1.8 -4.1,-4.1s1.8,-4.1 4.1,-4.1s4.1,1.8 4.1,4.1z"/>
   <circle id="svg_52" r="4.1" cy="66.23051" cx="376"/>
   <circle id="svg_53" r="4.1" cy="66.23051" cx="410.6"/>
   <path id="svg_54" d="m449.2,66.23051c0,2.3 -1.8,4.1 -4.1,4.1s-4.1,-1.8 -4.1,-4.1s1.8,-4.1 4.1,-4.1s4.1,1.8 4.1,4.1z"/>
   <circle id="svg_55" r="4.1" cy="66.23051" cx="480"/>
   <circle id="svg_56" r="4.1" cy="66.23051" cx="514.6"/>
   <circle id="svg_57" r="4.1" cy="66.23051" cx="549.3"/>
   <circle id="svg_58" r="4.1" cy="66.23051" cx="584"/>
   <path id="svg_59" d="m345.2,100.83051c0,2.3 -1.8,4.1 -4.1,4.1s-4.1,-1.8 -4.1,-4.1s1.8,-4.1 4.1,-4.1s4.1,1.9 4.1,4.1z"/>
   <circle id="svg_60" r="4.1" cy="100.83051" cx="376"/>
   <circle id="svg_61" r="4.1" cy="100.83051" cx="410.6"/>
   <path id="svg_62" d="m449.2,100.83051c0,2.3 -1.8,4.1 -4.1,4.1s-4.1,-1.8 -4.1,-4.1s1.8,-4.1 4.1,-4.1s4.1,1.9 4.1,4.1z"/>
   <circle id="svg_63" r="4.1" cy="100.83051" cx="480"/>
   <circle id="svg_64" r="4.1" cy="100.83051" cx="514.6"/>
   <circle id="svg_65" r="4.1" cy="100.83051" cx="549.3"/>
   <circle id="svg_66" r="4.1" cy="100.83051" cx="584"/>
   <path id="svg_67" d="m345.2,135.53051c0,2.3 -1.8,4.1 -4.1,4.1s-4.1,-1.8 -4.1,-4.1s1.8,-4.1 4.1,-4.1s4.1,1.8 4.1,4.1z"/>
   <circle id="svg_68" r="4.1" cy="135.53051" cx="376"/>
   <circle id="svg_69" r="4.1" cy="135.53051" cx="410.6"/>
   <path id="svg_70" d="m449.2,135.53051c0,2.3 -1.8,4.1 -4.1,4.1s-4.1,-1.8 -4.1,-4.1s1.8,-4.1 4.1,-4.1s4.1,1.8 4.1,4.1z"/>
   <circle id="svg_71" r="4.1" cy="135.53051" cx="480"/>
   <circle id="svg_72" r="4.1" cy="135.53051" cx="514.6"/>
   <circle id="svg_73" r="4.1" cy="135.53051" cx="549.3"/>
   <circle id="svg_74" r="4.1" cy="135.53051" cx="584"/>
  </g>
  <path id="svg_75" fill="#ffb1ad" d="m610.5,262.23051s-2.5,-0.2 -5.1,1.4c-1,0.6 -3.2,4.5 -5.6,7.3c-2.5,2.7 9.2,12.1 9.2,12.1l1.6,-7l-0.1,-13.8z"/>
  <path id="svg_76" fill="#ffb1ad" d="m594.3,298.43051s-2.1,-14 -2.2,-15.3c-0.5,-3.3 0.6,-11.1 1.3,-13c0.6,-1.9 4,-6 5.4,-8.4s3.5,-4.9 4.3,-4c0.8,1 1.3,2.4 0.6,5.2c-0.6,2.9 -3.5,5.7 -3.3,7.3s12.4,5.9 11.4,10s-4.8,6.8 -6,9.2c-1.3,2.4 0.8,10 0.8,10l-12.3,-1z"/>
  <path id="svg_77" fill="#0b4f2c" d="m609.9,291.63051c1.9,-0.5 3,-2.4 2.5,-4.3l-7.2,-29.1c-0.5,-1.9 -2.4,-3 -4.3,-2.5c-1.9,0.5 -3,2.4 -2.5,4.3l7.2,29.1c0.5,1.9 2.4,3 4.3,2.5z"/>
  <path id="svg_78" fill="#0b4f2c" d="m598.31783,251.9132l3.20529,-0.78441l1.54505,6.31345l-3.20529,0.78441l-1.54505,-6.31345z"/>
  <ellipse id="svg_79" stroke-width="4" stroke-miterlimit="10" stroke="#0b4f2c" ry="20.4" rx="20.4" fill="#fff" cy="-637.82646" cx="736.22641"/>
  <path id="svg_80" fill="#ffb1ad" d="m609.1,277.93051s-4.1,3.8 -4.6,5.1c-0.3,1.3 0.5,2.1 1.7,1.6c1.3,-0.3 5.2,-3.7 5.6,-4.3c0.5,-0.5 1.1,-1.7 0,-2.9c-0.5,-0.3 -1.9,-0.3 -2.7,0.5z"/>
  <path id="svg_81" fill="#f17154" d="m604.5,283.03051c-0.2,0.5 0,1.1 0.5,1.4s1,0.2 1.4,0c1,-0.5 1.9,-1.1 2.7,-1.9c1,-0.6 1.7,-1.4 2.5,-2.1c0.3,-0.3 0.6,-0.8 0.8,-1.3s-0.2,-1.1 -0.5,-1.4c0.5,0.3 0.8,1 0.8,1.4c0,0.6 -0.3,1.1 -0.6,1.6c-0.8,0.8 -1.6,1.6 -2.5,2.2s-1.7,1.4 -2.9,1.7c-0.6,0.2 -1.3,0.2 -1.7,-0.2c-0.8,-0.1 -0.7,-0.9 -0.5,-1.4z"/>
  <path id="svg_82" fill="#ffb1ad" d="m608.6,272.83051s-4.9,4.5 -5.4,6c-0.5,1.6 0.5,2.4 2.1,1.9c1.6,-0.3 6,-4.3 6.5,-4.9s1.3,-2.1 0,-3.3c-0.6,-0.6 -2.1,-0.5 -3.2,0.3z"/>
  <path id="svg_83" fill="#f17154" d="m603.4,278.93051c-0.2,0.6 -0.2,1.4 0.5,1.7c0.5,0.3 1.1,0.2 1.7,0c1.1,-0.5 2.2,-1.4 3.2,-2.2s2.1,-1.6 3,-2.5c0.5,-0.5 0.8,-1 0.8,-1.6c0.2,-0.6 -0.2,-1.3 -0.6,-1.7c0.5,0.5 0.8,1.1 0.8,1.7s-0.3,1.3 -0.8,1.9c-1,1 -1.9,1.7 -2.9,2.7c-1.1,0.8 -2.1,1.6 -3.3,2.1c-0.6,0.2 -1.4,0.3 -2.1,-0.2s-0.7,-1.3 -0.3,-1.9z"/>
  <path id="svg_84" fill="#ffb1ad" d="m608.4,267.93051s-4.9,4.5 -5.4,6c-0.5,1.6 0.5,2.4 2.1,1.9c1.6,-0.3 6,-4.3 6.5,-4.9s1.3,-2.1 0,-3.3c-0.4,-0.8 -2.2,-0.7 -3.2,0.3z"/>
  <path id="svg_85" fill="#f17154" d="m603.2,273.83051c-0.2,0.6 -0.2,1.4 0.5,1.7c0.5,0.3 1.1,0.2 1.7,0c1.1,-0.5 2.2,-1.4 3.2,-2.2s2.1,-1.6 3,-2.5c1,-0.8 1.3,-2.4 0.3,-3.3c0.5,0.5 0.8,1.1 0.8,1.7s-0.3,1.3 -0.8,1.9c-1,1 -1.9,1.7 -2.9,2.7c-1.1,0.8 -2.1,1.6 -3.3,2.1c-0.6,0.2 -1.4,0.3 -2.1,-0.2s-0.7,-1.3 -0.4,-1.9z"/>
  <path id="svg_86" fill="#ffb1ad" d="m608.6,263.03051s-4.9,4.5 -5.4,6c-0.5,1.6 0.5,2.4 2.1,1.9c1.6,-0.3 6,-4.3 6.5,-4.9s1.3,-1.9 0,-3.3c-0.6,-0.8 -2.2,-0.7 -3.2,0.3z"/>
  <path id="svg_87" fill="#f17154" d="m603.2,268.93051c-0.2,0.6 -0.2,1.4 0.5,1.7c0.5,0.3 1.1,0.2 1.7,0c1.1,-0.5 2.2,-1.4 3.2,-2.2s2.1,-1.6 3,-2.5c0.5,-0.5 0.8,-1 0.8,-1.6c0.2,-0.6 -0.2,-1.3 -0.6,-1.7c0.5,0.5 0.8,1.1 0.8,1.7s-0.3,1.3 -0.8,1.9c-1,1 -1.9,1.7 -2.9,2.7c-1.1,0.8 -2.1,1.6 -3.3,2.1c-0.6,0.2 -1.4,0.3 -2.1,-0.2c-0.6,-0.5 -0.6,-1.3 -0.3,-1.9z"/>
  <path id="svg_88" fill="#07a8a0" d="m592.4,295.73051l14.1,-2.5s18.1,57.2 10.8,69.5l-23.8,-10.5c2.5,-13.1 -1.1,-56.5 -1.1,-56.5z"/>
  <path id="svg_89" fill="#07a8a0" d="m558.8,385.93051s23.5,-24.2 35,-34.3l23.7,11.1c-5.6,12.4 -35.6,40.9 -35.6,40.9l-23.1,-17.7z"/>
  <path id="svg_90" fill="none" stroke="#ff5d62" stroke-width="2" stroke-linecap="round" stroke-linejoin="round" stroke-miterlimit="10" d="m606.9,242.83051l-1.8,-13.9l-15.9,5.8l-2.5,-13.4"/>
  <path id="svg_91" fill="none" stroke="#ff5d62" stroke-width="2" stroke-linecap="round" stroke-linejoin="round" stroke-miterlimit="10" d="m589.8,223.53051l-3.1,-2.3l-2.3,3.3"/>
  <path id="svg_92" fill="#ffb1ad" d="m600.5,269.33051s5.1,-8.4 3.2,-11.1c-1.7,-2.5 -4,2.1 -5.2,4"/>
  <path id="svg_93" fill="#0b4f2c" d="m635.2,317.53051c0.3,0.2 0.5,0.3 0.8,0.5c2.2,1 4.3,1 5.1,0c0.2,0 0.5,0.2 0.6,0.2c1,0.3 1.7,0.3 1.9,0l3.5,-4.8l0.6,-0.8l-14.8,-7l-1.7,6.5c-0.2,0.3 0.6,1 1.7,1.7c-0.4,1.2 0.5,2.6 2.3,3.7z"/>
  <path id="svg_94" opacity="0.3" fill="#5a50bf" d="m641.7,318.03051c1,0.3 1.7,0.3 1.9,0l3.5,-4.8l-2.5,0.6c-0.2,0 -1.6,2.4 -2.9,4.2z"/>
  <path id="svg_95" fill="#0b4f2c" d="m647.6,312.63051s12.9,7.2 22.9,7.8c1,0 1.7,-0.5 2.2,-1.3c0.2,-0.3 0.3,-0.5 0.5,-0.8c1.1,-2.2 2.7,-5.7 3.2,-9.5c0.2,-1.6 -1.1,-2.9 -2.7,-2.7c-3.5,0.5 -10,0.8 -18.4,-1.9c-1.1,-0.3 -2.4,-0.8 -3.7,-1.3l-4,9.7z"/>
  <path id="svg_96" opacity="0.3" fill="#5a50bf" d="m647.6,312.63051s12.9,7.2 22.9,7.8c1,0 1.7,-0.5 2.2,-1.3c0.2,-0.3 0.3,-0.5 0.5,-0.8c-7.2,0.8 -22.3,-6.4 -22.3,-6.4c1,-2.2 3.8,-6.5 4.5,-7.5c-1.1,-0.3 -2.4,-0.8 -3.7,-1.3l-4.1,9.5z"/>
  <path id="svg_97" fill="#ff5d62" d="m654.7,301.93051s0.6,0.3 1.6,0.5c1.9,0.5 5.2,1 7.3,-1.9c0.2,-0.3 0.2,-0.6 -0.2,-1c-0.2,-0.2 -0.5,-0.2 -0.8,0c-0.6,0.3 -2.4,1.1 -4.6,0.3c-0.6,-0.2 -1.4,-0.6 -2.4,-1.1l-0.9,3.2z"/>
  <path id="svg_98" opacity="0.3" fill="#ff5d62" d="m654.7,301.93051s0.6,0.3 1.6,0.5c0.6,-1 1.4,-2.2 1.7,-2.5c-0.6,-0.2 -1.4,-0.6 -2.4,-1.1l-0.9,3.1z"/>
  <path id="svg_99" fill="#99c7b5" d="m638.5,312.43051c0.3,0.2 0.6,0.3 1,0.5c4.3,1.9 7.8,3 8.1,2.4c13.2,-27.7 31.5,-32 31.5,-32l-12.6,-6.7l-8.6,-4.6l-22.1,-9.4s8.1,17 -5.1,44.5c-0.3,0.7 3.2,3.1 7.8,5.3z"/>
  <path id="svg_100" opacity="0.63" fill="#5ba589" d="m639.5,312.93051c4.3,1.9 7.8,3 8.1,2.4c13.2,-27.7 31.5,-32 31.5,-32l-12.6,-6.7s-9.1,6 -16.9,17.2c-4.3,6.2 -7.9,13.8 -10.1,19.1z"/>
  <path id="svg_101" fill="#0b4f2c" d="m644.2,258.23051c-2.2,-0.8 -4,-1.4 -5.2,-1.7c-1.7,-0.5 -2.5,-0.5 -2.7,0.2c0,0 -2.1,3.5 -0.3,6c0,0.2 0.3,0.3 0.5,0.6c2.2,1.9 10.3,6.5 20.2,11.3s18.6,8.1 21.5,8.6l0.8,0c3.2,-0.3 4.5,-4 4.5,-4c0.3,-0.6 -0.2,-1.1 -1.6,-2.2c-1.1,-0.8 -2.7,-1.7 -4.8,-3c-4.3,-2.4 -10,-5.4 -16.2,-8.4c-6.2,-3.1 -12.2,-5.7 -16.7,-7.4z"/>
  <path id="svg_102" fill="#c1ddd2" d="m660.6,266.03051c12.9,6 22.7,11.9 22.3,13c-0.5,1.1 -11.3,-3 -24.2,-9.1c-12.9,-6 -22.7,-11.9 -22.3,-13c0.7,-1.2 11.5,2.9 24.2,9.1z"/>
  <path id="svg_103" fill="#0b4f2c" d="m660.4,266.33051c4,1.9 7.3,3.7 10.3,5.2c6.5,3.5 10.5,6 11.4,7c-2.1,-0.2 -10.5,-3.2 -23.2,-9.2c-3.2,-1.6 -6,-3 -8.6,-4.3c-7.6,-4 -12.1,-6.8 -13.2,-7.9c2.2,0.1 10.6,3.2 23.3,9.2z"/>
  <path id="svg_104" opacity="0.3" fill="#5a50bf" d="m635.2,317.53051c0.3,0.2 0.5,0.3 0.8,0.5c2.2,1 4.3,1 5.1,0c0,0 -1.3,-0.5 -1.7,-0.6c-0.1,-0.2 -1.4,1.1 -4.2,0.1z"/>
  <path id="svg_105" fill="#ffb1ad" d="m668.9,320.23051s0,0.8 -1.4,3.2c-1.6,2.4 -2.5,2.1 -3.3,4.3s-1,3.7 -1,3.7l-11.6,-2.9s1.6,-4 1.6,-5.2s-1.1,-5.1 -1.6,-6.8s-0.8,-2.4 -0.5,-4s4.1,-7 4.8,-7.3c0.6,-0.3 1.1,1 1.3,2.2c0.2,1.3 -1.4,4 -1.9,4.8c-0.2,0.5 0.5,2.1 1,3.2c0.3,0.8 1.1,1.4 1.9,1.7s1.9,0.8 3.2,1.3c3,1 7.5,1.8 7.5,1.8z"/>
  <path id="svg_106" fill="#ffb1ad" d="m666.3,304.83051s-1.4,4.8 -1.7,5.6c-0.2,0.8 -1.1,2.2 -2.1,2.1c-1,-0.2 -1.3,-1.1 -1.3,-2.2c0,-1.3 0.8,-5.4 1.1,-6.2c0.5,-1.7 4,-1.7 4,0.7z"/>
  <path id="svg_107" fill="#ffb1ad" d="m669.7,305.73051s-1.4,4.5 -1.6,5.2c-0.2,0.6 -1.1,1.9 -1.9,1.7c-1,-0.2 -1.1,-0.8 -1.1,-1.9c0,-1.3 0.8,-5.1 1.1,-5.9c0.3,-1.4 3.5,-1.4 3.5,0.9z"/>
  <path id="svg_108" fill="#ffb1ad" d="m672.5,306.43051s-1.3,4 -1.4,4.6c-0.2,0.6 -1,1.6 -1.7,1.4c-0.8,-0.2 -1.1,-0.8 -1,-1.7c0,-1.1 0.6,-4.5 1,-5.1c0.4,-1.3 3.1,-1.3 3.1,0.8z"/>
  <path id="svg_109" fill="#ffb1ad" d="m662.5,304.53051s-1.3,4.1 -1.4,4.9c-0.2,0.6 -1,1.7 -1.9,1.6c-0.8,-0.2 -1.1,-0.8 -1.1,-1.7c0,-1.1 0.8,-4.8 1,-5.4c0.5,-1.7 3.4,-1.7 3.4,0.6z"/>
  <path id="svg_110" fill="#04b7b2" d="m630.7,373.33051c7.6,-13 19.7,-47.1 19.7,-47.1l15.4,3.7s-6.4,45.2 -13.5,58.3c0,0 -2.2,4 -5.9,6.4c-10.8,8.1 -53.3,19.1 -53.3,19.1l-11.6,-26.6c0.1,-0.1 34.3,-10.3 49.2,-13.8z"/>
  <path id="svg_111" fill="#fff" d="m669.8,264.23051l29.1,-14.3l-6.2,-2.2l20.7,-18l-34,20.1l8.5,1.2l-18.1,13.2z"/>
  <path id="svg_112" fill="#fff" d="m663.3,258.23051l20.8,-25l-6.5,0.7l11.8,-24.8l-23.2,31.9l8.4,-2.4l-11.3,19.6z"/>
  <path id="svg_113" fill="#fff" d="m652.2,252.83051l8.4,-26.1l-4.9,2.6l1.2,-23.1l-7.9,32.3l5.9,-4.5l-2.7,18.8z"/>
  <path id="svg_114" fill="#0b4f2c" d="m491.3,248.33051l-5.6,23.1c-0.6,2.4 1,4.9 3.3,5.6l32.8,7.9c2.4,0.6 4.9,-1 5.6,-3.3l5.6,-23.1c0.6,-2.4 -1,-4.9 -3.3,-5.6l-32.8,-7.9c-2.6,-0.6 -5.1,0.8 -5.6,3.3z"/>
  <path id="svg_115" fill="#99c7b5" d="m503.8,266.33051l-2.2,9.5c-0.3,1.1 0.3,2.1 1.4,2.4l9.5,2.2c1.1,0.3 2.1,-0.3 2.4,-1.4l2.2,-9.5c0.3,-1.1 -0.3,-2.1 -1.4,-2.4l-9.5,-2.2c-0.9,-0.3 -2,0.3 -2.4,1.4z"/>
  <path id="svg_116" fill="#99c7b5" d="m507.5,251.73051l-2.2,9.5c-0.3,1.1 0.3,2.1 1.4,2.4l9.5,2.2c1.1,0.3 2.1,-0.3 2.4,-1.4l2.2,-9.5c0.3,-1.1 -0.3,-2.1 -1.4,-2.4l-9.5,-2.2c-1.1,-0.4 -2.2,0.3 -2.4,1.4z"/>
  <path id="svg_117" fill="#99c7b5" d="m489.5,262.83051l-2.2,9.5c-0.3,1.1 0.3,2.1 1.4,2.4l9.5,2.2c1.1,0.3 2.1,-0.3 2.4,-1.4l2.2,-9.5c0.3,-1.1 -0.3,-2.1 -1.4,-2.4l-9.5,-2.2c-1.1,-0.3 -2.2,0.3 -2.4,1.4z"/>
  <path id="svg_118" fill="#99c7b5" d="m493,248.23051l-2.2,9.5c-0.3,1.1 0.3,2.1 1.4,2.4l9.5,2.2c1.1,0.3 2.1,-0.3 2.4,-1.4l2.2,-9.5c0.3,-1.1 -0.3,-2.1 -1.4,-2.4l-9.5,-2.2c-1.1,-0.4 -2.2,0.3 -2.4,1.4z"/>
  <path id="svg_119" fill="#99c7b5" d="m522.4,255.03051l-6,24.6c-0.2,1 0.3,1.7 1.3,2.1l5.6,1.4c1,0.2 1.7,-0.3 2.1,-1.3l5.9,-24.6c0.2,-1 -0.3,-1.7 -1.3,-2.1l-5.6,-1.4c-0.8,-0.1 -1.8,0.4 -2,1.3z"/>
  <path id="svg_120" stroke-width="2" stroke-miterlimit="10" stroke-linecap="round" stroke="#fff" fill="none" d="m513.5,273.63051l-8.2,-2"/>
  <path id="svg_121" stroke-width="2" stroke-miterlimit="10" stroke-linecap="round" stroke="#fff" fill="none" d="m510.4,268.53051l-2,8.3"/>
  <path id="svg_122" stroke-width="2" stroke-miterlimit="10" stroke-linecap="round" stroke="#fff" fill="none" d="m498.6,266.93051l-7.3,4.5"/>
  <path id="svg_123" stroke-width="2" stroke-miterlimit="10" stroke-linecap="round" stroke="#fff" fill="none" d="m492.7,265.53051l4.5,7.3"/>
  <path id="svg_124" stroke-width="2" stroke-miterlimit="10" stroke-linecap="round" stroke="#fff" fill="none" d="m513.9,253.93051l-2,8.3"/>
  <path id="svg_125" stroke-width="2" stroke-miterlimit="10" stroke-linecap="round" stroke="#fff" fill="none" d="m499.5,250.43051l-2,8.3"/>
  <path id="svg_126" fill="#fff" d="m501.3,254.13051c-0.6,-0.2 -1.1,0.2 -1.3,0.8s0.2,1.1 0.8,1.3s1.1,-0.2 1.3,-0.8c0.1,-0.5 -0.2,-1.2 -0.8,-1.3z"/>
  <path id="svg_127" fill="#fff" d="m496,252.83051c-0.6,-0.2 -1.1,0.2 -1.3,0.8s0.2,1.1 0.8,1.3s1.1,-0.2 1.3,-0.8c0.2,-0.5 -0.1,-1.1 -0.8,-1.3z"/>
  <path id="svg_128" fill="#ffb1ad" d="m501,298.73051l1,-3c0.6,-1.9 1.7,-3.5 3.5,-4.5c2.4,-1.4 5.7,-3.7 6.5,-4.5c1.3,-1.3 7.3,-14.1 6.7,-14.6s-1.6,-1.4 -3.8,0.3c-1.3,1.1 -3.2,4 -4.8,6.2c-1.1,1.7 -3.2,2.5 -5.1,2.1l-10,-2.4c-3.3,1.1 -4.5,8.3 -4.3,9.9c0.2,1.7 -1.3,7.6 -1.3,7.6"/>
  <path id="svg_129" fill="#07a8a0" d="m502.9,297.63051l-14,-3.3s-19.7,45.8 -14.1,65.5l24.2,-8.6c-1.7,-13.3 3.9,-53.6 3.9,-53.6z"/>
  <path id="svg_130" fill="#07a8a0" d="m533.4,383.03051s-23.5,-24.2 -35,-34.3l-23.7,11.1c5.6,12.4 35.6,40.9 35.6,40.9l23.1,-17.7z"/>
  <path id="svg_131" fill="#0b4f2c" d="m401.1,279.83051l10.3,39.6c0.3,1.3 1.7,2.1 3,1.7l55,-14.5c1.3,-0.3 2.1,-1.7 1.7,-3l-10.3,-39.6c-0.3,-1.3 -1.7,-2.1 -3,-1.7l-55,14.5c-1.4,0.3 -2.1,1.7 -1.7,3z"/>
  <path id="svg_132" fill="#fff" d="m404.9,280.93051l9.4,35.6c0.3,1.4 1.9,2.2 3.2,1.9l49.8,-13c1.4,-0.3 2.2,-1.9 1.9,-3.2l-9.4,-35.6c-0.3,-1.4 -1.9,-2.2 -3.2,-1.9l-49.8,13c-1.4,0.4 -2.2,1.8 -1.9,3.2z"/>
  <path id="svg_133" fill="#eef7ff" d="m413.5,287.03051l-3,11.1l0.8,7.2l3.3,12.6c0.2,0.8 1,1.3 1.7,1l52.1,-13.7c0.8,-0.2 1.3,-1 1,-1.7l-9.9,-38c-0.2,-0.8 -1,-1.3 -1.7,-1l-27.5,7.2l-3.3,1.3l-13.5,14z"/>
  <path id="svg_134" fill="#70b098" d="m460.9,276.33051l4.5,16.9c0.2,0.5 0.6,0.6 1,0.6l2.5,-0.6c0.5,-0.2 0.6,-0.6 0.6,-1l-4.5,-16.9c-0.2,-0.5 -0.6,-0.6 -1,-0.6l-2.5,0.6c-0.4,0.1 -0.8,0.5 -0.6,1z"/>
  <path id="svg_135" stroke-miterlimit="10" stroke="#0b4f2c" fill="none" d="m464.9,280.83051l1.6,6.2l1.6,-0.5c1.7,-0.5 2.7,-2.2 2.2,-3.8c-0.5,-1.7 -2.2,-2.7 -3.8,-2.2l-1.6,0.3z"/>
  <path id="svg_136" fill="#ffb1ad" d="m449.5,331.23051l-0.6,-3.2c-0.3,-1.9 0,-4 1,-5.6c1.4,-2.5 3.3,-6 3.7,-7c0.5,-1.7 -0.3,-15.9 -1.1,-16.1s-2.1,-0.5 -3.2,2.1c-0.6,1.6 -1,5.1 -1.3,7.8c-0.2,2.1 -1.6,3.7 -3.5,4.1l-10,2.5c-2.4,2.5 0,9.4 1,10.8s2.5,7.5 2.5,7.5"/>
  <path id="svg_137" fill="#04b7b2" d="m450.6,329.63051l-14,3.5s2.9,56 21.1,69.2l13.7,-23.4c-7.5,-11 -20.8,-49.3 -20.8,-49.3z"/>
  <path id="svg_138" fill="#04b7b2" d="m518.9,386.83051s-32.1,-6.4 -47.4,-7.9l-13.7,23.4c11.8,6.7 52.8,12.2 52.8,12.2l8.3,-27.7z"/>
  <path id="svg_139" fill="#7686d3" d="m362.3,422.13051l25.6,0l0,47.5l-25.6,0l0,-47.5z"/>
  <path id="svg_140" fill="#fab620" d="m342.6,419.73051l14.3,0l0,62.5l-14.3,0l0,-62.5z"/>
  <path id="svg_141" fill="#e89f0f" d="m356.9,419.73051l8.1,0l8.5,30.2l17,0l0,32.3l-33.6,0l0,-62.5z"/>
  <circle id="svg_142" r="4.5" fill="#ffd180" cy="431.33051" cx="349.8"/>
  <path id="svg_143" fill="#ffd180" d="m346,438.33051l7.6,0l0,27.2l-7.6,0l0,-27.2z"/>
  <path id="svg_144" fill="#ffd180" d="m346,466.83051l7.6,0l0,2.9l-7.6,0l0,-2.9z"/>
  <path id="svg_145" fill="#ffd180" d="m346,470.83051l7.6,0l0,2.9l-7.6,0l0,-2.9z"/>
  <path id="svg_146" fill="#7686d3" d="m382.8,422.13051l25.6,0l0,47.5l-25.6,0l0,-47.5z"/>
  <path id="svg_147" fill="#4d5bb2" d="m363.1,419.73051l14.3,0l0,62.5l-14.3,0l0,-62.5z"/>
  <path id="svg_148" fill="#3f4e99" d="m377.4,419.73051l8.1,0l8.5,30.2l17,0l0,32.3l-33.6,0l0,-62.5z"/>
  <path id="svg_149" fill="#7686d3" d="m374.7,431.33051c0,2.4 -2.1,4.5 -4.5,4.5s-4.5,-2.1 -4.5,-4.5s2.1,-4.5 4.5,-4.5c2.6,0.1 4.5,2 4.5,4.5z"/>
  <path id="svg_150" fill="#7686d3" d="m366.5,438.33051l7.6,0l0,27.2l-7.6,0l0,-27.2z"/>
  <path id="svg_151" fill="#7686d3" d="m366.5,466.83051l7.6,0l0,2.9l-7.6,0l0,-2.9z"/>
  <path id="svg_152" fill="#7686d3" d="m366.5,470.83051l7.6,0l0,2.9l-7.6,0l0,-2.9z"/>
  <path id="svg_153" fill="#fff" d="m414.6,453.63051l23.7,0l0,28.6l-23.7,0l0,-28.6z"/>
  <path id="svg_154" fill="#f5faff" d="m432.8,453.63051l5.6,0l0,28.6l-5.6,0l0,-28.6z"/>
  <path id="svg_155" fill="#f5faff" d="m438.2,478.73051l-1.1,-1.4c0.2,0 8.6,-6.7 8.9,-12.4c0.2,-2.5 -0.5,-4.6 -1.7,-5.7c-1,-0.8 -2.2,-1.3 -3.3,-1.1c-1.9,0.3 -4,2.2 -4.1,2.2l-1.3,-1.3c0.2,-0.2 2.5,-2.4 5.1,-2.7c1.7,-0.3 3.5,0.3 4.8,1.6c1.1,1.1 2.5,3.2 2.4,7.2c-0.7,6.5 -9.4,13.3 -9.7,13.6z"/>
  <path id="svg_156" fill="#ffb1ad" d="m438,379.73051s2.2,1.7 3,2.4c1,0.6 4,1.7 6.8,4.1c2.7,2.5 -7.8,13 -7.8,13l-4.1,-6.8l2.1,-12.7z"/>
  <path id="svg_157" fill="#ffb1ad" d="m462.2,405.93051s-5.6,-7.2 -6.2,-8.1s-1.1,-10.8 -1.9,-12.7s-4,-6.4 -5.6,-8.6s-4.1,-5.4 -4.8,-4.3c-0.6,1.1 -0.6,3.2 0.3,6c1,2.9 3,6 3,7.6s-11.8,7.2 -10.5,11.1c1.3,4 8.7,6.7 10.3,8.9s5.4,8.1 5.4,8.1l10,-8z"/>
  <path id="svg_158" fill="#342d7a" d="m429.4,359.03051l6.7,40.4c0.2,0.5 0.6,0.8 1.1,0.6l11.4,-3.8c0.3,-0.2 0.6,-0.5 0.6,-1l-6.7,-39.7c0,-0.3 -0.3,-0.6 -0.6,-0.6l-1,-0.3c-0.2,0 -0.3,0 -0.5,0l-10.7,3.5c-0.1,0.1 -0.3,0.4 -0.3,0.9z"/>
  <path id="svg_159" fill="#9393ce" d="m438.3,395.23051l9.7,-3.2c0.2,0 0.3,-0.2 0.2,-0.3l-5.6,-33.9c0,-0.2 -0.3,-0.3 -0.5,-0.3l-9.7,3.2c-0.2,0 -0.3,0.2 -0.2,0.3l5.6,33.9c0.1,0.2 0.4,0.3 0.5,0.3z"/>
  <path id="svg_160" fill="#6363ad" d="m435.2,358.73051l0.1,0.5l4,-1.3l-0.2,-0.5l-3.9,1.3z"/>
  <path id="svg_161" fill="#6363ad" d="m441.7,396.23051c0.2,0.6 1.1,0.8 1.9,0.5c1,-0.3 1.4,-1 1.3,-1.6c-0.2,-0.6 -1.1,-0.8 -1.9,-0.5c-1,0.3 -1.6,1 -1.3,1.6z"/>
  <path id="svg_162" stroke-width="0.2109" stroke-miterlimit="10" stroke-linecap="round" stroke="#1b1951" fill="none" d="m441.7,355.73051l-10,3.3c-0.2,0 -0.3,0.2 -0.3,0.5l4.1,24.8"/>
  <path id="svg_163" fill="#ff706a" d="m460.4,403.53051l-11.4,4.9l1.9,3.1l9.5,-8z"/>
  <path id="svg_164" fill="#ffb1ad" d="m448.8,376.83051s-4,-5.6 -4.5,-5.4c-0.5,0 -1.4,1.6 -1,4.5c0.5,2.9 4.1,8.7 4.1,8.7l1.4,-7.8z"/>
  <path id="svg_165" fill="#00c4c5" d="m502.7,465.23051c3.5,-2.9 6.8,-6 10.2,-9.5c7.2,-7.3 13.5,-14.9 17.3,-19.9c2.4,-3 3.8,-4.9 3.8,-4.9l-21.8,-41.5s-25.8,58 -27.5,63.6c-2,7.3 2.3,25.4 18,12.2z"/>
  <path id="svg_166" fill="#00c4c5" d="m510,458.73051s-15.4,17.6 -22.3,11.3c-6.8,-6.5 -39,-58.5 -39,-58.5s7,-4.9 12.6,-8.6l34.3,39.4l14.4,16.4z"/>
  <path id="svg_167" fill="#008481" d="m512.9,455.83051c7.2,-7.3 13.5,-14.9 17.3,-19.9l-7,-14.1l-6,-3.2s-2.2,25.9 -4.3,37.2z"/>
  <path id="svg_168" fill="#00c4c5" d="m521.6,462.73051c1.1,7.8 2.2,15.3 2.7,20.4l59.9,0c0.6,-4.5 1.3,-11 2.1,-18.6c0.5,-4.8 1,-9.9 1.4,-15.1c2.2,-25.9 4.1,-55.3 3.3,-58.7c-1.6,-5.7 -32.1,-13.2 -32.1,-13.2l-21.5,0.6s-24.8,6 -25.8,12.6c-0.6,6.5 8,57.6 10,72z"/>
  <path id="svg_169" fill="#008481" d="m578.1,438.63051s3.7,15.1 8.4,25.8c0.5,-4.8 1,-9.9 1.4,-15.1l-9.8,-10.7z"/>
  <path id="svg_170" fill="#00c4c5" d="m591,390.33051s33.1,67.4 30.5,75.2c-2.5,7.6 -23.2,3.5 -28.6,-0.6s-14.9,-26.1 -14.9,-26.1s-9.6,-53.4 13,-48.5z"/>
  <path id="svg_171" fill="#ff8d71" d="m539.4,482.73051s-15.6,0.2 -16.1,0.2c-0.6,0 -2.2,-0.6 -1.1,-2.4c1.1,-1.6 5.1,-1.6 6.5,-1.7c1.4,-0.2 2.1,-1.1 4.8,-1.4l5.9,5.3z"/>
  <path id="svg_172" fill="#ffb1ad" d="m550.4,471.23051s-6.2,1 -8.9,1.4c-2.7,0.5 -10.2,-2.1 -13.7,-2.5c-3.5,-0.5 -18.1,11.9 -17.2,12.4c1,0.3 4,0.8 6.8,-1c2.7,-1.7 7.9,-4.8 8.9,-4.8s5.9,2.2 7.8,3.3c1.9,1.3 4.1,2.7 6.8,2.7c2.9,0 8.6,0 14.6,-0.6l-5.1,-10.9z"/>
  <path id="svg_173" fill="#ff706a" d="m549.1,470.83051l-3.6,12l4.9,0l-1.3,-12z"/>
  <path id="svg_174" fill="#00c4c5" d="m621,460.13051s6,19.2 -3,21.5c-9.1,2.4 -69,1.4 -69,1.4s-0.3,-8.6 -0.3,-13.4c0,0 24.3,-5.6 33.1,-7.3c4.3,-0.8 17.8,-3.7 17.8,-3.7l21.4,1.5z"/>
  <path id="svg_175" fill="#ffb1ad" d="m545.2,398.43051c11.8,1.1 17.2,-20 17.2,-20l-0.6,-0.2c-1.3,-0.3 -2.4,-1.4 -2.4,-2.9c0,0 -1,-6.5 0.2,-13.4c1,-5.6 -22.7,1.6 -22.7,1.6l0.3,6.7l0.3,5.4c0.2,1.6 -1,3 -2.4,3.3c-0.3,0 -1.7,18.4 10.1,19.5z"/>
  <path id="svg_176" fill="#ff706a" d="m534.8,378.93051c13.5,-2.5 16.9,-14.1 16.9,-14.1l-8.7,2.4l-5.9,3l0.3,5.4c0,1.5 -1,2.8 -2.6,3.3z"/>
  <path id="svg_177" fill="#342d7a" d="m520.2,328.23051s-1.4,20.8 4,19.7l0.6,-17.6l-4.6,-2.1z"/>
  <path id="svg_178" stroke-width="0.8435" stroke-miterlimit="10" stroke-linecap="round" stroke="#fff" fill="none" d="m518.9,345.83051l5,0.3"/>
  <path id="svg_179" fill="#ffb1ad" d="m523.2,351.53051c0,1.3 0.2,2.7 0.3,4c0.6,8.3 2.2,15.9 5.6,18.1c4.5,3.2 12.4,1 18.6,-1.4c7.2,-2.9 11.4,-8.9 14.9,-15.9c7.3,-14.6 5.1,-26.6 5.1,-26.6l-44.5,0s-0.6,10.9 0,21.8z"/>
  <path id="svg_180" fill="#ffa19f" d="m542.6,353.63051c0,1.3 2.1,2.4 4.6,2.4s4.6,-1.1 4.6,-2.4s-2.1,-2.4 -4.6,-2.4c-2.3,-0.2 -4.6,1 -4.6,2.4z"/>
  <path id="svg_181" fill="#ffa19f" d="m523.2,351.53051c0,1.3 0.2,2.7 0.3,4c1.1,-0.5 1.9,-1.1 1.9,-1.9c0.1,-1 -0.9,-1.8 -2.2,-2.1z"/>
  <path id="svg_182" fill="#342d7a" d="m553.9,332.43051s-1.4,19.4 1.3,20.4s4.5,-6 6,-5.9c1.6,0.2 6.2,-0.3 6.2,-0.3s7.2,-11 5.7,-19.6c-1.6,-8.6 -8.9,-9.5 -11.9,-8.4c-10,-16.2 -36.1,-0.5 -38.5,-15.4c-10.3,7.9 -9.2,17.2 -4.9,22.9c2.4,3.2 5.4,4.5 5.4,4.5s21.5,-0.5 30.7,1.8z"/>
  <circle id="svg_183" stroke-width="0.8435" stroke-miterlimit="10" stroke="#fff" r="7.2" fill="none" cy="345.83051" cx="543.3"/>
  <circle id="svg_184" stroke-width="0.8435" stroke-miterlimit="10" stroke="#fff" r="7.2" fill="none" cy="345.83051" cx="526.1"/>
  <path id="svg_185" stroke-width="0.8435" stroke-miterlimit="10" stroke="#fff" fill="none" d="m536.1,345.83051s-1.1,-1.1 -2.7,0"/>
  <path id="svg_186" stroke-width="0.8435" stroke-miterlimit="10" stroke-linecap="round" stroke="#fff" fill="none" d="m563.5,346.33051l-13.1,-0.5"/>
  <path id="svg_187" fill="#ffb1ad" d="m559.5,349.33051s1.3,-4.3 6,-4c3.7,0.2 4.3,4.1 3.5,7.6s-4.8,10 -10.8,7.3l1.3,-10.9z"/>
  <path id="svg_188" fill="#008e8b" d="m587.1,389.43051c-4.5,-0.6 -9.1,0.3 -12.6,3c-1.6,1.3 -3.2,3 -4,4.9c-0.6,1 -0.8,1.9 -1.3,3c-0.3,1 -0.6,2.1 -0.6,3.2c-0.6,4.3 0.5,8.6 1.7,12.9c1.3,4.3 2.7,8.6 4,12.9c-1.9,-4.1 -3.7,-8.3 -5.2,-12.6c-1.4,-4.3 -2.7,-8.7 -2.2,-13.5c0.2,-1.1 0.5,-2.4 0.8,-3.5l0.6,-1.6c0.2,-0.5 0.5,-1.1 0.8,-1.6c1.1,-2.1 2.7,-3.8 4.6,-5.2c4.2,-2.7 9.2,-3.2 13.4,-1.9z"/>
  <path id="svg_189" fill="#008e8b" d="m512.1,396.23051c1.1,3.7 1.7,7.3 2.2,11.1c0.5,3.7 0.8,7.5 0.6,11.3c-1.1,-3.7 -1.7,-7.3 -2.2,-11.1c-0.4,-3.8 -0.8,-7.5 -0.6,-11.3z"/>
  <path id="svg_190" fill="#ffb1ad" d="m435.8,394.93051s4.6,3.3 5.1,4.6s-0.2,2.1 -1.6,1.9s-5.6,-3.2 -6,-3.7c-0.5,-0.5 -1.3,-1.6 -0.3,-2.9c0.6,-0.5 1.8,-0.7 2.8,0.1z"/>
  <path id="svg_191" fill="#f17154" d="m440.9,399.53051c0.3,0.5 0.5,1.1 -0.2,1.6c-0.5,0.5 -1.1,0.5 -1.7,0.3c-1.1,-0.3 -2.1,-1 -3,-1.6c-1,-0.6 -1.9,-1.3 -2.7,-2.1c-0.5,-0.5 -0.8,-1 -0.8,-1.6c-0.2,-0.6 0.2,-1.1 0.6,-1.6c-0.3,0.5 -0.5,1 -0.3,1.6c0.2,0.5 0.5,1 0.8,1.3c1,0.6 1.7,1.3 2.7,1.9s1.9,1.3 2.9,1.6c0.5,0.2 1.1,0.2 1.4,-0.2c0.4,0 0.4,-0.7 0.3,-1.2z"/>
  <path id="svg_192" fill="#ffb1ad" d="m435.6,389.83051s5.2,3.8 5.9,5.4s-0.3,2.4 -1.9,2.1c-1.6,-0.2 -6.5,-3.7 -7,-4.3c-0.5,-0.5 -1.4,-1.9 -0.3,-3.3c0.8,-0.7 2.2,-0.7 3.3,0.1z"/>
  <path id="svg_193" fill="#f17154" d="m441.5,395.23051c0.3,0.5 0.5,1.4 -0.2,1.9c-0.6,0.5 -1.3,0.5 -2.1,0.3c-1.3,-0.3 -2.4,-1.1 -3.5,-1.7c-1.1,-0.8 -2.2,-1.4 -3.2,-2.4c-0.5,-0.5 -1,-1.1 -1,-1.7c-0.2,-0.6 0.2,-1.4 0.6,-1.9c-0.3,0.5 -0.6,1.3 -0.3,1.7c0.2,0.6 0.5,1.1 1,1.4c1,0.8 2.1,1.4 3.2,2.2c1.1,0.6 2.2,1.4 3.3,1.7c0.6,0.2 1.3,0.2 1.7,-0.2c0.8,0.2 0.8,-0.6 0.5,-1.3z"/>
  <path id="svg_194" fill="#ffb1ad" d="m435.3,384.93051s5.2,3.8 5.9,5.4s-0.3,2.4 -1.9,2.1c-1.6,-0.2 -6.5,-3.7 -7,-4.3c-0.5,-0.5 -1.4,-1.9 -0.3,-3.3c0.6,-0.7 2.2,-0.8 3.3,0.1z"/>
  <path id="svg_195" fill="#f17154" d="m441.2,390.33051c0.3,0.5 0.5,1.4 -0.2,1.9c-0.6,0.5 -1.3,0.5 -2.1,0.3c-1.3,-0.3 -2.4,-1.1 -3.5,-1.7c-1.1,-0.8 -2.2,-1.4 -3.2,-2.4c-0.5,-0.5 -1,-1.1 -1,-1.7c-0.2,-0.6 0.2,-1.4 0.6,-1.9c-0.8,1.1 -0.3,2.5 0.6,3.3c1,0.8 2.1,1.4 3.2,2.2c1.1,0.6 2.2,1.4 3.3,1.7c0.6,0.2 1.3,0.2 1.7,-0.2c0.9,-0.2 0.8,-1 0.6,-1.5z"/>
  <path id="svg_196" fill="#ffb1ad" d="m434.7,380.03051s5.2,3.8 5.9,5.4s-0.3,2.4 -1.9,2.1c-1.6,-0.2 -6.5,-3.7 -7,-4.3c-0.5,-0.5 -1.4,-1.7 -0.3,-3.3c0.6,-0.7 2.3,-0.9 3.3,0.1z"/>
  <path id="svg_197" fill="#f17154" d="m440.7,385.43051c0.3,0.5 0.5,1.4 -0.2,1.9c-0.6,0.5 -1.3,0.5 -2.1,0.3c-1.3,-0.3 -2.4,-1.1 -3.5,-1.7c-1.1,-0.8 -2.2,-1.4 -3.2,-2.4c-0.5,-0.5 -1,-1.1 -1,-1.7c-0.2,-0.6 0.2,-1.4 0.6,-1.9c-0.3,0.6 -0.5,1.3 -0.3,1.7c0.2,0.6 0.5,1.1 1,1.4c1,0.8 2.1,1.4 3.2,2.2c1.1,0.6 2.2,1.4 3.3,1.7c0.6,0.2 1.3,0.2 1.7,-0.2c0.7,0 0.7,-0.8 0.5,-1.3z"/>
  <path id="svg_198" fill="#008e8b" d="m593.2,460.13051c-7.3,2.2 -14.6,4 -22.1,5.6s-14.9,3 -22.4,4c7.3,-2.2 14.6,-4 22.1,-5.6c7.3,-1.6 14.8,-3 22.4,-4z"/>
  <path id="svg_199" fill="#008e8b" d="m543.3,398.13051c0.3,3.8 0.3,7.8 0.2,11.6c-0.2,3.8 -0.5,7.6 -1,11.4c-0.5,-1.9 -0.6,-3.8 -0.6,-5.7c-0.2,-1.9 0,-3.8 0,-5.7c0.1,-4 0.4,-7.9 1.4,-11.6z"/>
  <path id="svg_200" fill="#008e8b" d="m544.7,404.33051c0,0.8 0.6,1.3 1.3,1.3c0.6,0 1.3,-0.6 1.3,-1.3s-0.6,-1.3 -1.3,-1.3s-1.3,0.5 -1.3,1.3z"/>
  <path id="svg_201" fill="#008e8b" d="m544.2,414.53051c0,0.8 0.6,1.3 1.3,1.3c0.6,0 1.3,-0.6 1.3,-1.3c0,-0.8 -0.6,-1.3 -1.3,-1.3c-0.6,0 -1.3,0.5 -1.3,1.3z"/>
  <path id="svg_202" fill="#342d7a" d="m562.5,319.73051s1,-2.9 6.5,-3.7c0,0 -4.3,-1.9 -7.5,1c0,0 1,-6.4 -1.9,-8.3c0,0 0.6,5.6 -1.1,9.1l4,1.9z"/>
  <path id="svg_203" fill="#342d7a" d="m539.8,343.43051c0.1,0 0.1,0 0,0c1,-1.1 1.9,-1.4 3,-1.4c2.1,-0.2 3.7,1.3 3.7,1.3c0.2,0.2 0.3,0.2 0.5,0s0.2,-0.3 0,-0.5c0,0 -1.6,-1.7 -4.1,-1.7c-1.3,0 -2.4,0.8 -3.3,1.9c-0.2,0.2 -0.2,0.3 0,0.5c0,-0.1 0,-0.1 0.2,-0.1z"/>
  <path id="svg_204" fill="#342d7a" d="m524.5,343.13051c0.2,0 0.2,0 0,0c1,-1.1 1.9,-1.4 3,-1.4c2.1,-0.2 3.7,1.3 3.7,1.3c0.2,0.2 0.3,0.2 0.5,0s0.2,-0.3 0,-0.5c0,0 -1.6,-1.7 -4.1,-1.7c-1.3,0 -2.4,0.8 -3.3,1.9c-0.2,0.2 -0.2,0.3 0,0.5c0,-0.1 0.2,-0.1 0.2,-0.1z"/>
  <ellipse id="svg_205" ry="1.6" rx="1.1" fill="#1c1b4c" cy="347.13051" cx="541.5"/>
  <path id="svg_206" fill="#1c1b4c" d="m525,346.83051c0,0.8 0.5,1.6 1.1,1.6s1.1,-0.6 1.1,-1.6c0,-0.8 -0.5,-1.6 -1.1,-1.6c-0.6,0.1 -1.1,0.8 -1.1,1.6z"/>
  <path id="svg_207" fill="#f49492" d="m534,358.73051s-4,-0.5 -3.7,-3.8c0.2,-0.2 -1.7,4.3 3.7,3.8z"/>
  <path id="svg_208" fill="#f27c7c" d="m539.4,364.23051s-0.8,0 -1.7,0.2c-0.5,0 -1.1,0.2 -1.7,0.2c-0.3,0 -0.6,0 -1,0c-0.3,0 -0.6,0 -1,0c-0.3,0 -0.6,0 -1,0c-0.3,0 -0.6,0 -1,0c-0.3,0 -0.6,0 -1,-0.2c-0.3,0 -0.6,0 -0.8,-0.2c-0.3,0 -0.5,-0.2 -0.6,-0.2c-0.2,0 -0.3,-0.2 -0.5,-0.2c-0.3,-0.2 -0.5,-0.2 -0.5,-0.2s0.2,0.2 0.3,0.3c0.2,0.2 0.3,0.3 0.5,0.5s0.3,0.3 0.6,0.5c0.2,0.2 0.5,0.3 0.8,0.5s0.6,0.3 1,0.3c0.3,0.2 0.6,0.2 1.1,0.2l1.1,0s0.8,0 1.1,-0.2c0.3,0 0.8,-0.2 1.1,-0.2s0.6,-0.2 1,-0.3c0.3,-0.2 0.6,-0.2 0.8,-0.3c0.8,-0.2 1.4,-0.7 1.4,-0.7z"/>
  <path id="svg_209" fill="#f49492" d="m565.5,349.93051s-4.8,-0.6 -4.5,5.7c0.1,0.1 -1.8,-7.3 4.5,-5.7z"/>
  <path id="svg_210" stroke-width="2" stroke-miterlimit="10" stroke-linecap="round" stroke="#0b4f2c" fill="none" d="m685.7,482.83051l-356,0"/>
  <path id="svg_211" stroke-width="2" stroke-miterlimit="10" stroke-linecap="round" stroke="#0b4f2c" fill="none" d="m715.1,482.83051l-19.4,0"/>
  <path id="svg_212" stroke-width="2" stroke-miterlimit="10" stroke-linecap="round" stroke="#0b4f2c" fill="none" d="m628.8,493.03051l-89,0"/>
  <path id="svg_213" stroke-width="2" stroke-miterlimit="10" stroke-linecap="round" stroke="#0b4f2c" fill="none" d="m505.3,490.53051l-89.1,0"/>
  <path id="svg_214" fill="#201e60" d="m540.2,482.23051l41.8,0c0.5,0 1,-0.5 1,-1l0,-1.9c0,-0.5 -0.5,-1 -1,-1l-41.8,0c-0.5,0 -1,0.5 -1,1l0,1.9c0.1,0.5 0.6,1 1,1z"/>
  <path id="svg_215" fill="#201e60" d="m453.1,482.23051l88.9,0c0.3,0 0.6,-0.3 0.5,-0.6l-22.7,-66c0,-0.2 -0.3,-0.3 -0.5,-0.3l-88.9,0c-0.3,0 -0.6,0.3 -0.5,0.6l22.7,66c0.2,0.2 0.4,0.3 0.5,0.3z"/>
  <path id="svg_216" fill="#342d7a" d="m450.4,482.23051l88.9,0c0.3,0 0.6,-0.3 0.5,-0.6l-22.7,-66c0,-0.2 -0.3,-0.3 -0.5,-0.3l-88.9,0c-0.3,0 -0.6,0.3 -0.5,0.6l22.7,66c0,0.2 0.2,0.3 0.5,0.3z"/>
  <path id="svg_217" fill="#d5eaf7" d="m410.2,290.03051c4,-15.6 20.4,-18.4 20.4,-18.4c-2.2,0.8 -5.2,3.2 -6.7,5.1c-6.5,9.1 -2.4,17.3 -2.4,17.3s0,0 -0.2,0c-5.6,-1 -10.3,3.7 -10,9.2c0,1 0.2,2.1 0.3,3.2l-1.4,-5.4c-1,-3.7 -1,-7.5 0,-11z"/>
  <ellipse id="svg_218" ry="29.6" rx="29.6" fill="#e2ca93" cy="-505.07301" cx="529.1799"/>
  <circle id="svg_219" r="26.1" fill="#f7e2ca" cy="206.13051" cx="531.8"/>
  <path id="svg_220" fill="#0b4f2c" d="m531.8,207.23051c0.6,0 1.1,-0.5 1.1,-1.1l0,-16.6c0,-0.6 -0.5,-1.1 -1.1,-1.1s-1.1,0.5 -1.1,1.1l0,16.6c-0.2,0.6 0.5,1.1 1.1,1.1z"/>
  <path id="svg_221" fill="#0b4f2c" d="m463.8,185.13051c0.3,0 0.6,-0.3 0.6,-0.6l0,-3c0,-0.3 -0.3,-0.6 -0.6,-0.6s-0.6,0.3 -0.6,0.6l0,3c0,0.4 0.3,0.6 0.6,0.6z"/>
  <path id="svg_222" fill="#0b4f2c" d="m448.6,191.43051c0.2,0 0.3,0 0.5,-0.2s0.2,-0.6 0,-0.8l-2.1,-2.1c-0.2,-0.2 -0.6,-0.2 -0.8,0s-0.2,0.6 0,0.8l2.1,2.1c0.1,0.2 0.3,0.2 0.3,0.2z"/>
  <path id="svg_223" fill="#0b4f2c" d="m507.3,206.53051l3,0c0.3,0 0.6,-0.3 0.6,-0.6s-0.3,-0.6 -0.6,-0.6l-3,0c-0.3,0 -0.6,0.3 -0.6,0.6c0,0.5 0.3,0.6 0.6,0.6z"/>
  <path id="svg_224" fill="#0b4f2c" d="m514.5,223.93051c0.2,0 0.3,0 0.5,-0.2l2.1,-2.1c0.2,-0.2 0.2,-0.6 0,-0.8s-0.6,-0.2 -0.8,0l-2.1,2.1c-0.2,0.2 -0.2,0.6 0,0.8c0,0.2 0.1,0.2 0.3,0.2z"/>
  <path id="svg_225" fill="#0b4f2c" d="m531.8,231.03051c0.3,0 0.6,-0.3 0.6,-0.6l0,-3c0,-0.3 -0.3,-0.6 -0.6,-0.6s-0.6,0.3 -0.6,0.6l0,3c0,0.3 0.3,0.6 0.6,0.6z"/>
  <path id="svg_226" fill="#0b4f2c" d="m549.1,223.93051c0.2,0 0.3,0 0.5,-0.2s0.2,-0.6 0,-0.8l-2.1,-2.1c-0.2,-0.2 -0.6,-0.2 -0.8,0s-0.2,0.6 0,0.8l2.1,2.1c0,0.2 0.2,0.2 0.3,0.2z"/>
  <path id="svg_227" fill="#0b4f2c" d="m553.3,206.53051l3,0c0.3,0 0.6,-0.3 0.6,-0.6s-0.3,-0.6 -0.6,-0.6l-3,0c-0.3,0 -0.6,0.3 -0.6,0.6c-0.1,0.5 0.3,0.6 0.6,0.6z"/>
  <path id="svg_228" fill="#0b4f2c" d="m478.9,191.43051c0.2,0 0.3,0 0.5,-0.2l2.1,-2.1c0.2,-0.2 0.2,-0.6 0,-0.8s-0.6,-0.2 -0.8,0l-2.1,2.1c-0.2,0.2 -0.2,0.6 0,0.8c0,0.2 0.2,0.2 0.3,0.2z"/>
  <path id="svg_229" fill="#fff" d="m672.7,419.93051l7,0l0,32l-7,0l0,-32z"/>
  <path id="svg_230" fill="#fff" d="m661.4,425.13051l7,0l0,26.9l-7,0l0,-26.9z"/>
  <path id="svg_231" fill="#fff" d="m683.8,429.43051l7,0l0,22.4l-7,0l0,-22.4z"/>
  <path id="svg_232" fill="#fff" d="m650.1,415.83051l7,0l0,36.2l-7,0l0,-36.2z"/>
  <path id="svg_233" fill="#fff" d="m687.3,426.23051c-0.6,0 -1.3,-0.5 -1.3,-1.3c0,-0.2 0,-0.2 0,-0.3l-9.5,-9.1c-0.2,0 -0.3,0.2 -0.5,0.2c-0.3,0 -0.5,-0.2 -0.8,-0.3l-9.4,5.6c0,0.6 -0.6,1.1 -1.3,1.1s-1.3,-0.5 -1.3,-1.3c0,-0.2 0,-0.2 0,-0.3l-9.9,-11.8l-0.2,0c-0.6,0 -1.3,-0.5 -1.3,-1.3c0,-0.6 0.5,-1.3 1.3,-1.3s1.3,0.5 1.3,1.3c0,0.2 0,0.3 -0.2,0.5l9.9,11.6l0.3,0c0.3,0 0.5,0.2 0.8,0.3l9.4,-5.6c0,-0.6 0.6,-1.1 1.3,-1.1c0.6,0 1.3,0.5 1.3,1.3l0,0.2l9.5,9.2l0.3,0c0.6,0 1.3,0.5 1.3,1.3c0.3,0.5 -0.4,1.1 -1,1.1z"/>
  <path id="svg_234" fill="#f7e2ca" d="m557.6,290.83051c-1.7,-2.4 -2.9,-5.4 -2.9,-8.6c0,-7.8 6.4,-14.3 14.3,-14.3c7.8,0 14.3,6.4 14.3,14.3c0,7.8 -6.4,14.3 -14.3,14.3c-2.7,0 -5.4,-0.8 -7.5,-2.2l-6.7,3.7l2.8,-7.2z"/>
  <path id="svg_235" fill="#0b4f2c" d="m574.3,282.83051c0,1.3 1.1,2.4 2.4,2.4s2.4,-1.1 2.4,-2.4s-1.1,-2.4 -2.4,-2.4s-2.4,1.2 -2.4,2.4z"/>
  <path id="svg_236" fill="#0b4f2c" d="m566.5,282.83051c0,1.3 1.1,2.4 2.4,2.4s2.4,-1.1 2.4,-2.4s-1.1,-2.4 -2.4,-2.4c-1.3,0.1 -2.4,1.2 -2.4,2.4z"/>
  <path id="svg_237" fill="#0b4f2c" d="m558.8,282.83051c0,1.3 1.1,2.4 2.4,2.4s2.4,-1.1 2.4,-2.4s-1.1,-2.4 -2.4,-2.4c-1.4,0.1 -2.4,1.2 -2.4,2.4z"/>
  <circle id="svg_238" r="13.8" fill="#fff" cy="350.93051" cx="401.6"/>
  <path id="svg_239" fill="#84bba6" d="m397.3,347.43051c1.1,0 2.1,0.5 2.9,1.3l3,-2.1c-0.2,-0.3 -0.2,-0.6 -0.2,-1.1c0,-1.4 1.1,-2.5 2.5,-2.5s2.5,1.1 2.5,2.5s-1.1,2.5 -2.5,2.5c-0.6,0 -1.3,-0.3 -1.7,-0.6l-3,2.1c0.3,0.5 0.5,1.1 0.5,1.7c0,1 -0.3,1.7 -0.8,2.4l1.6,1.6c0.3,-0.3 0.8,-0.5 1.4,-0.5c1.4,0 2.5,1.1 2.5,2.5s-1.1,2.5 -2.5,2.5s-2.5,-1.1 -2.5,-2.5c0,-0.5 0.2,-1.1 0.5,-1.4l-1.6,-1.6c-0.6,0.5 -1.4,0.8 -2.2,0.8c-2.1,0 -3.8,-1.7 -3.8,-3.8c-0.1,-2.1 1.3,-3.8 3.4,-3.8z"/>
  <path id="svg_240" fill="#fff" d="m426.6,224.23051c0.3,1.7 1.1,3.5 2.1,4.9l-1.4,1.4l3.7,3.7l1.4,-1.4c1.4,1 3.2,1.7 4.9,2.1l0,2.1l5.1,0l0,-2.1c1.7,-0.3 3.5,-1.1 4.9,-2.1l1.4,1.4l3.7,-3.7l-1.4,-1.4c1,-1.4 1.7,-3.2 2.1,-4.9l2.1,0l0,-5.1l-2.1,0c-0.3,-1.7 -1.1,-3.5 -2.1,-4.9l1.4,-1.4l-3.7,-3.7l-1.4,1.4c-1.4,-1 -3.2,-1.7 -4.9,-2.1l0,-2.1l-5.1,0l0,2.1c-1.7,0.3 -3.5,1.1 -4.9,2.1l-1.4,-1.4l-3.7,3.7l1.4,1.4c-1,1.4 -1.7,3.2 -2.1,4.9l-2.1,0l0,5.1l2.1,0zm4.6,-2.6c0,-4.6 3.8,-8.4 8.4,-8.4c4.8,0 8.4,3.8 8.4,8.4c0,4.8 -3.8,8.4 -8.4,8.4s-8.4,-3.8 -8.4,-8.4z"/>
  <path id="svg_241" stroke-miterlimit="10" stroke-linecap="round" stroke="#fff" fill="none" d="m670.5,456.13051l0,2.4"/>
  <path id="svg_242" stroke-miterlimit="10" stroke-linecap="round" stroke-dasharray="2.9717 2.9717" stroke="#fff" fill="none" d="m670.5,463.33051l0,6.4c0,1.4 -1.1,2.4 -2.4,2.4l-34.7,0"/>
  <path id="svg_243" stroke-miterlimit="10" stroke-linecap="round" stroke="#fff" fill="none" d="m631,472.03051l-2.4,0"/>
  <path id="svg_244" stroke-miterlimit="10" stroke-linecap="round" stroke-dasharray="3" stroke="#fff" fill="none" d="m420,220.53051l-46.4,0c-1.7,0 -3.2,1.4 -3.2,3.2l0,123.9c0,1.7 1.4,3.2 3.2,3.2l11.6,0"/>
  <path id="svg_245" opacity="0.63" fill="#f7e2ca" d="m335.5,287.03051c0,1.9 0.5,3.8 1.1,5.6c2.2,5.2 7.3,8.7 13.4,8.7c4.9,0 9.4,-2.5 11.9,-6.4c1.6,-2.2 2.4,-5.1 2.4,-8.1c0,-7.9 -6.5,-14.5 -14.5,-14.5c-4.6,0 -8.7,2.2 -11.3,5.6c-1.9,2.7 -3,5.7 -3,9.1zm6.5,3.2c-0.5,-1 -0.6,-2.1 -0.6,-3.2c0,-2.1 0.6,-3.8 1.9,-5.2c1.6,-1.9 4,-3.2 6.7,-3.2c4.8,0 8.6,3.8 8.6,8.6c0,1.7 -0.5,3.3 -1.4,4.8c-1.6,2.4 -4.1,3.8 -7.2,3.8c-3.7,-0.2 -6.7,-2.5 -8,-5.6z"/>
  <path id="svg_246" fill="#fff" d="m338.5,278.13051l4.6,3.5c1.6,-1.9 4,-3.2 6.7,-3.2l0,-5.9c-4.6,0 -8.8,2.2 -11.3,5.6z"/>
  <path id="svg_247" opacity="0.63" fill="#e2ca93" d="m336.6,292.53051c2.2,5.2 7.3,8.7 13.4,8.7c4.9,0 9.4,-2.5 11.9,-6.4l-4.8,-3.3c-1.6,2.4 -4.1,3.8 -7.2,3.8c-3.5,0 -6.7,-2.2 -7.9,-5.2l-5.4,2.4z"/>
  <g id="svg_248" stroke-miterlimit="10" fill="none">
   <path id="svg_249" stroke-width="1.4606" stroke-linecap="round" stroke="#f7e2ca" d="m479.5,227.83051l0,4.5"/>
   <path id="svg_250" stroke-width="1.4606" stroke-linecap="round" stroke="#f7e2ca" d="m477.3,230.13051l4.4,0"/>
   <path id="svg_251" stroke-width="1.4606" stroke-linecap="round" stroke="#f7e2ca" d="m395.2,175.83051l0,4.5"/>
   <path id="svg_252" stroke-width="1.4606" stroke-linecap="round" stroke="#f7e2ca" d="m393,178.13051l4.5,0"/>
   <path id="svg_253" stroke-width="1.4606" stroke-linecap="round" stroke="#f7e2ca" d="m586.7,156.13051l0,4.5"/>
   <path id="svg_254" stroke-width="1.4606" stroke-linecap="round" stroke="#f7e2ca" d="m584.4,158.43051l4.5,0"/>
   <path id="svg_255" stroke-width="1.4606" stroke-linecap="round" stroke="#f7e2ca" d="m400.8,239.13051l0,4.5"/>
   <path id="svg_256" stroke-width="1.4606" stroke-linecap="round" stroke="#f7e2ca" d="m398.6,241.33051l4.4,0"/>
   <path id="svg_257" stroke-width="1.4606" stroke-linecap="round" stroke="#f7e2ca" d="m411,390.63051l0,4.5"/>
   <path id="svg_258" stroke-width="1.4606" stroke-linecap="round" stroke="#f7e2ca" d="m408.8,392.93051l4.4,0"/>
   <path id="svg_259" stroke-width="1.4606" stroke-linecap="round" stroke="#f7e2ca" d="m670.5,391.43051l0,4.5"/>
   <path id="svg_260" stroke-width="1.4606" stroke-linecap="round" stroke="#f7e2ca" d="m668.2,393.73051l4.5,0"/>
   <path id="svg_261" stroke-width="1.4606" stroke-linecap="round" stroke="#f7e2ca" d="m712.9,366.23051l0,4.4"/>
   <path id="svg_262" stroke-width="1.4606" stroke-linecap="round" stroke="#f7e2ca" d="m710.7,368.43051l4.4,0"/>
   <path id="svg_263" stroke-width="1.4606" stroke-linecap="round" stroke="#f7e2ca" d="m712.7,240.13051l0,4.4"/>
   <path id="svg_264" stroke-width="1.4606" stroke-linecap="round" stroke="#f7e2ca" d="m710.5,242.33051l4.5,0"/>
  </g>
  <path id="svg_265" fill="#fff" d="m485.2,460.83051c1.2,0.8 2.2,1.4 3.1,2.1c0.1,0.1 0.3,0.4 0.3,0.6c0.2,2.5 1.3,5 3.5,7.3c2.7,2.8 5.8,4.5 9.1,4.6c7.1,0.1 14.1,0 21.1,0c0.3,0 0.4,-0.1 0.3,-0.4c-1.2,-2.8 -2.4,-5.5 -3.6,-8.3c-0.9,-2 -1.9,-4 -2.9,-5.9c-0.9,-1.8 -2.5,-3.1 -4.3,-4.3c-2.1,-1.4 -4.4,-2.4 -6.6,-3.3c-2.5,-1.1 -5.1,-2.1 -7.6,-3.4c-2.9,-1.6 -4.9,-3.8 -6.2,-6.5c-0.3,-0.7 -0.6,-1.3 -0.9,-2c-0.3,-0.6 -0.3,-0.6 0.3,-0.6l2.3,0c0.4,0 0.5,0.2 0.6,0.5c0.5,1 1,2 1.7,2.9c1.1,1.7 2.8,2.9 4.6,3.7c2.7,1.2 5.4,2.4 8.1,3.5c2.6,1.1 5,2.6 7.4,4.3c2,1.5 3.3,3.3 4.2,5.2c0.9,1.8 1.8,3.6 2.6,5.4c1.8,4 3.6,8 5.4,12c0.1,0.1 0.1,0.3 0.2,0.5c-0.3,0 -0.5,0 -0.7,0c-8,0 -15.9,0 -23.9,0c-4.3,0 -8.3,-1.7 -12.2,-5.2c-1.5,-1.3 -2.6,-2.8 -3.6,-4.3c-0.2,-0.3 -0.4,-0.5 -0.7,-0.6c-1,-0.4 -1.7,-1.1 -2.1,-2.1s-0.2,-1.6 0.5,-2.1c0.3,-0.2 0.3,-0.3 0.3,-0.7c-0.2,-1 -0.2,-1.9 -0.3,-2.9z"/>
  <path id="svg_266" fill="#fff" d="m472.8,440.53051c0.6,1.7 1,3.2 1.2,4.7c0.2,2.2 -0.7,3.8 -2.2,4.9s-3,2.1 -4.6,3c-1.4,0.9 -2.8,1.9 -3.9,3.2c-1.2,1.4 -1.4,3.1 -0.8,5.3c0.8,2.6 1.6,5.2 2.4,7.8c0.6,1.8 1.2,3.6 1.7,5.3c0.1,0.4 0.3,0.5 0.6,0.5l21.3,0c0.2,0 0.4,-0.1 0.5,-0.2c0.4,-0.4 0.7,-0.9 1.1,-1.4c1,0.8 2,1.6 3,2.4c-0.5,0.9 -1.2,1.6 -2.3,2c-0.8,0.2 -1.7,0.4 -2.6,0.4c-7.8,0 -15.5,0 -23.3,0c-0.1,0 -0.2,0 -0.4,0c-0.3,-0.9 -0.6,-1.8 -0.9,-2.7c-0.7,-2.1 -1.3,-4.1 -2,-6.2c-1,-3.2 -2.1,-6.5 -2.8,-9.7c-0.5,-2.2 0,-3.9 1,-5.4c1.3,-1.9 3.1,-3.1 5,-4.4c1.3,-0.8 2.5,-1.6 3.7,-2.5c2.1,-1.4 2.4,-3.7 1.3,-6.7c-0.1,-0.4 -0.1,-0.6 0.3,-0.5c1,0.2 1.8,0.2 2.7,0.2z"/>
  <path id="svg_267" fill="#fff" d="m474.2,468.83051c-1,-0.7 -2.1,-1.4 -3.2,-2.1c0.5,-0.7 1.1,-1.4 1.6,-2.1l0.2,0c0.7,0.4 0.7,0.4 1.1,-0.1c1.9,-2.6 3.9,-5.1 5.8,-7.7c0.3,-0.3 0.5,-0.7 0.8,-1.1c-0.3,-0.2 -0.5,-0.3 -0.9,-0.5c0.6,-0.8 1.1,-1.5 1.6,-2.2c1.1,0.7 2.1,1.4 3.3,2.2c-0.2,0.2 -0.4,0.3 -0.6,0.4c0.6,0.4 1,0.7 1.4,0.9c4.1,2.7 8.2,5.4 12.3,8.1c0.4,0.2 0.6,0.3 0.8,0c0,-0.1 0.3,-0.1 0.4,-0.1c1,0.6 2,1.3 3,2c-0.5,0.7 -1.1,1.4 -1.6,2.1c-0.9,-0.5 -0.9,-0.5 -1.4,0.1c-0.9,1.2 -1.8,2.3 -2.7,3.5c-0.2,0.2 -0.4,0.3 -0.8,0c-0.7,-0.6 -1.5,-1.2 -2.2,-1.8c-0.3,-0.2 -0.3,-0.4 -0.1,-0.6c0.8,-1 1.6,-2 2.4,-3c0.1,-0.1 0.2,-0.2 0.3,-0.3c-0.9,-0.6 -1.6,-1.1 -2.3,-1.6c-3.2,-2.1 -6.4,-4.2 -9.6,-6.4c-0.4,-0.3 -0.5,-0.2 -0.7,0c-1.8,2.4 -3.6,4.9 -5.4,7.3c-0.4,0.6 -0.4,0.6 0.5,1.2c3,2 6,4 8.9,5.9c0.1,0.1 0.3,0.2 0.5,0.3c-0.2,0 -0.4,0 -0.6,0c-1.2,0 -2.4,0 -3.6,0c-0.4,0 -0.7,-0.1 -1.1,-0.4c-2.2,-1.5 -4.4,-3 -6.7,-4.4c-0.9,-0.1 -0.9,-0.1 -1.4,0.4z"/>
  <path id="svg_268" fill="#fff" d="m506.6,473.63051c0.4,-0.8 0.8,-1.5 1.1,-2.3c1.3,-4.5 -2.8,-10.7 -8.5,-13c-3.5,-1.4 -6.3,-1.2 -8.5,0.4c-0.2,0.2 -0.4,0.2 -0.8,-0.1c-0.9,-0.6 -1.8,-1.2 -2.8,-1.9c0.6,-0.5 1.1,-1 1.8,-1.3c0.7,-0.4 1.5,-0.6 2.3,-1c0.2,-0.1 0.3,-0.2 0.4,-0.4c0.1,-0.9 0.6,-1.4 1.6,-1.4s1.9,0.5 2.6,1.4c0.2,0.2 0.5,0.3 0.7,0.4c4.7,1.1 8.6,3.7 11.8,7.9c0.1,0.2 0.3,0.4 0.4,0.6c0.4,0.6 0.8,1.1 1.6,1.6c1.9,0.9 2.5,3.2 1.2,4c-0.2,0.1 -0.3,0.3 -0.2,0.5c0.2,1.6 0.2,3 -0.2,4.3c0,0.2 -0.2,0.3 -0.4,0.3c-1.5,0 -2.8,0 -4.1,0z"/>
  <g id="svg_269" fill="#ffc705">
   <path id="svg_270" d="m481.65066,440.81745c-1.7,0 -2.6,1.4 -1.9,3.1c0.5,1.3 1.7,2.4 3,2.9c-0.5,-0.3 -0.8,-0.8 -1,-1.3c-0.4,-1 0.1,-1.7 1.1,-1.8c0.8,0 1.2,-0.7 0.9,-1.5c-0.3,-0.7 -1.1,-1.4 -1.8,-1.5c-0.1,0.1 -0.2,0.1 -0.3,0.1zm1.4,0.2c0.4,0.3 0.8,0.8 1,1.2c0.4,1 -0.1,1.7 -1.1,1.8c-0.8,0 -1.2,0.7 -0.9,1.5s1.2,1.4 2,1.5l0.1,0c1.7,0 2.6,-1.4 1.9,-3.1c-0.5,-1.3 -1.7,-2.4 -3,-2.9zm-1,0.7c0.3,0 0.7,0.3 0.8,0.6s0,0.6 -0.4,0.6c-0.3,0 -0.7,-0.3 -0.8,-0.6c-0.1,-0.4 0,-0.6 0.4,-0.6zm1.2,3.2c0.3,0 0.7,0.3 0.8,0.6s0,0.6 -0.4,0.6c-0.3,0 -0.7,-0.3 -0.8,-0.6s0.1,-0.6 0.4,-0.6z"/>
   <path id="svg_271" d="m474.95066,432.21745c0,0.1 0,0.1 0,0c0.8,2 2.9,3.5 4.8,3.5s2.9,-1.5 2.1,-3.5c0,0 0,0 0,-0.1c-0.1,1.3 -1,2.3 -2.6,2.3c-1.5,0.1 -3.2,-0.8 -4.3,-2.2z"/>
   <ellipse id="svg_272" transform="matrix(0.637 -0.7709 0.7709 0.637 222.658 1076.97)" ry="3" rx="2.1" cy="-214.29201" cx="660.35299"/>
   <path id="svg_273" d="m474.95066,423.21745c-0.3,0.3 0.2,0.9 0.3,1.2s0,0.4 0,0.7s0.2,0.7 0.3,0.8s0.2,0.2 0.3,0.3l0,0.1c0.1,0.2 0,0.3 -0.2,0.3s-0.4,-0.1 -0.4,-0.3c0,-0.2 0.1,-0.3 0,-0.5c-0.1,-0.3 -0.4,-0.4 -0.4,-0.5c-0.1,-0.1 -0.2,-0.2 -0.2,-0.4c-0.1,0.2 -0.2,0.3 -0.1,0.5c0.1,0.1 0.2,0.3 0.2,0.5c0.1,0.2 -0.2,0.4 0,0.9c0.3,0.9 1.3,1.6 2.2,1.6s1.3,-0.7 1,-1.6c-0.2,-0.6 -0.7,-0.7 -0.8,-0.9s-0.1,-0.3 -0.1,-0.5c-0.1,-0.2 -0.3,-0.3 -0.5,-0.5c0.1,0.2 0.2,0.3 0.1,0.4c0,0.1 -0.1,0.2 0,0.5c0.1,0.2 0.3,0.4 0.4,0.5c0.1,0.2 0,0.3 -0.2,0.3c-0.1,0 -0.3,-0.1 -0.4,-0.2s-0.1,-0.1 -0.1,-0.1s0,0 0,-0.1c0,-0.1 0,-0.2 0,-0.3s0,-0.4 -0.1,-0.7c-0.1,-0.2 -0.3,-0.7 -0.7,-1.1c-0.3,-0.3 -0.5,-0.4 -0.7,-0.6c0.1,0 0,-0.1 0.1,-0.3z"/>
   <path id="svg_274" d="m473.05066,436.41745l3.2,0l5.8,15l-3.2,0l-5.8,-15z"/>
   <path id="svg_275" d="m483.75066,436.41745l3.2,0l5.7,15l-3.1,0l-5.8,-15z"/>
   <path id="svg_276" d="m476.95066,436.41745l6.1,0l-2.3,1.9l-3.8,-1.9z"/>
   <path id="svg_277" d="m477.85066,438.91745l6.2,0l0.5,1.2l-6.2,0l-0.5,-1.2z"/>
   <path id="svg_278" d="m481.25066,447.71745l6.2,0l0.5,1.2l-6.3,0l-0.4,-1.2z"/>
   <path id="svg_279" d="m482.05066,449.61745l6.1,0l-2.3,1.9l-3.8,-1.9z"/>
  </g>
  <path id="svg_280" fill="#342d7a" d="m412.5,301.43051l3,-0.7l0.2,0.9l-4.1,1l-0.2,-0.8l1.8,-5.2l-2.8,0.7l-0.2,-0.9l4,-0.9l0.2,0.7l-1.9,5.2z"/>
  <path id="svg_281" fill="#342d7a" d="m419.5,300.73051c-0.1,-0.1 -0.2,-0.3 -0.3,-0.6c-0.2,0.6 -0.6,1 -1.2,1.1s-1,0.1 -1.4,-0.2c-0.4,-0.2 -0.6,-0.6 -0.8,-1.2c-0.1,-0.6 -0.1,-1.2 0.3,-1.6c0.3,-0.5 0.9,-0.8 1.6,-1l0.7,-0.2l-0.2,-0.7c-0.1,-0.4 -0.2,-0.6 -0.4,-0.7s-0.5,-0.1 -0.8,-0.1c-0.3,0.1 -0.5,0.2 -0.7,0.4c-0.1,0.2 -0.2,0.5 -0.1,0.8l-1,0.2c-0.1,-0.3 -0.1,-0.6 0.1,-1c0.1,-0.3 0.3,-0.6 0.6,-0.9c0.3,-0.2 0.6,-0.4 1,-0.5c0.6,-0.1 1.1,-0.1 1.5,0.1s0.7,0.7 0.8,1.3l0.7,3.1c0.1,0.5 0.3,0.9 0.5,1.2l0,0.1l-0.9,0.4zm-1.6,-0.5c0.2,-0.1 0.5,-0.2 0.7,-0.4s0.3,-0.4 0.4,-0.6l-0.3,-1.5l-0.6,0.1c-0.5,0.1 -0.8,0.3 -1.1,0.6c-0.2,0.3 -0.3,0.6 -0.2,1c0.1,0.3 0.2,0.6 0.4,0.7c0.1,0.2 0.4,0.2 0.7,0.1z"/>
  <path id="svg_282" fill="#342d7a" d="m422.4,300.03051l-1,0.2l-2.1,-8.8l1,-0.2l2.1,8.8z"/>
  <path id="svg_283" fill="#342d7a" d="m426.4,298.53051c-0.2,0.5 -0.7,0.9 -1.3,1s-1,0 -1.4,-0.3s-0.7,-0.8 -0.8,-1.6l-1,-4l1,-0.2l0.9,3.9c0.2,1 0.6,1.4 1.2,1.2c0.6,-0.1 1,-0.5 1.1,-1.1l-1.1,-4.6l1,-0.2l1.5,6.2l-1,0.2l-0.1,-0.5z"/>
  <path id="svg_284" fill="#342d7a" d="m431.5,297.33051c-0.2,0.5 -0.7,0.9 -1.3,1s-1,0 -1.4,-0.3s-0.7,-0.8 -0.8,-1.6l-1,-4l1,-0.2l0.9,3.9c0.2,1 0.6,1.4 1.2,1.2c0.6,-0.1 1,-0.5 1.1,-1.1l-1.1,-4.6l1,-0.2l1.5,6.2l-1,0.2l-0.1,-0.5z"/>
  <path id="svg_285" fill="#342d7a" d="m433.2,291.63051c0.3,-0.6 0.7,-1 1.3,-1.1c1.1,-0.3 1.8,0.3 2.2,1.8l1,4.1l-1,0.2l-1,-4.1c-0.1,-0.5 -0.3,-0.8 -0.5,-1s-0.5,-0.2 -0.8,-0.1s-0.5,0.2 -0.6,0.4c-0.2,0.2 -0.3,0.5 -0.3,0.8l1.1,4.5l-1,0.2l-2.1,-8.8l1,-0.2l0.7,3.3z"/>
  <path id="svg_286" fill="#342d7a" d="m441.6,294.93051c-0.2,0.5 -0.7,0.9 -1.3,1s-1,0 -1.4,-0.3s-0.7,-0.8 -0.8,-1.6l-1,-4l1,-0.2l0.9,3.9c0.2,1 0.6,1.4 1.2,1.2c0.6,-0.1 1,-0.5 1.1,-1.1l-1.1,-4.6l1,-0.2l1.5,6.2l-1,0.2l-0.1,-0.5z"/>
  <path id="svg_287" fill="#342d7a" d="m443.1,288.63051l0.2,0.7c0.3,-0.6 0.7,-1 1.3,-1.1c1.1,-0.3 1.8,0.3 2.2,1.8l1,4.1l-1,0.2l-1,-4.1c-0.1,-0.5 -0.3,-0.8 -0.5,-1s-0.5,-0.2 -0.8,-0.1s-0.5,0.2 -0.6,0.4s-0.3,0.5 -0.3,0.8l1.1,4.5l-1,0.2l-1.5,-6.2l0.9,-0.2z"/>
  <path id="svg_288" fill="#342d7a" d="m448.6,293.23051c0,-0.2 0,-0.3 0.1,-0.5c0.1,-0.1 0.2,-0.2 0.4,-0.3s0.4,0 0.5,0.1s0.2,0.2 0.3,0.4c0,0.2 0,0.3 -0.1,0.5c-0.1,0.1 -0.2,0.2 -0.5,0.3s-0.4,0 -0.5,-0.1c0,-0.1 -0.1,-0.2 -0.2,-0.4z"/>
  <path id="svg_289" fill="#342d7a" d="m450.7,286.83051l0.2,0.6c0.3,-0.5 0.7,-0.9 1.3,-1c0.7,-0.2 1.2,0 1.7,0.6c0.2,-0.7 0.7,-1.1 1.4,-1.3c1.1,-0.3 1.9,0.3 2.2,1.7l1,4.2l-1,0.2l-1,-4.1c-0.1,-0.4 -0.3,-0.8 -0.5,-0.9c-0.2,-0.2 -0.5,-0.2 -0.9,-0.1c-0.3,0.1 -0.5,0.2 -0.7,0.5c-0.1,0.3 -0.2,0.6 -0.1,1l1,4.1l-1,0.2l-1,-4.1c-0.2,-0.9 -0.7,-1.2 -1.3,-1c-0.5,0.1 -0.8,0.5 -0.9,1l1.1,4.6l-1,0.2l-1.5,-6.2l1,-0.2z"/>
  <path id="svg_290" fill="#342d7a" d="m458.9,284.93051l0.2,0.7c0.3,-0.6 0.7,-1 1.3,-1.1c1.1,-0.3 1.8,0.3 2.2,1.8l1,4.1l-1,0.2l-1,-4.1c-0.1,-0.5 -0.3,-0.8 -0.5,-1s-0.5,-0.2 -0.8,-0.1s-0.5,0.2 -0.6,0.4c-0.2,0.2 -0.3,0.5 -0.3,0.8l1.1,4.5l-1,0.2l-1.5,-6.2l0.9,-0.2z"/>
  <g id="svg_294" opacity="0.33">
   <path id="svg_291" opacity="0.5" fill="url(#b)" d="m18.7,270.53051c-15.4,-15.4 -15.4,-40.3 0,-55.6l162.6,-162.6c15.4,-15.4 40.3,-15.4 55.6,0c15.4,15.4 15.4,40.3 0,55.6l-162.5,162.6c-15.4,15.2 -40.3,15.2 -55.7,0z"/>
   <path id="svg_292" opacity="0.5" fill="url(#c)" d="m15.8,135.33051c-7.3,-7.3 -7.3,-19.1 0,-26.4l73.6,-73.6c7.3,-7.3 19.1,-7.3 26.4,0c7.3,7.3 7.3,19.1 0,26.4l-73.6,73.6c-7.3,7.3 -19.1,7.3 -26.4,0z"/>
   <path id="svg_293" opacity="0.5" fill="url(#d)" d="m135.7,271.33051c-7.3,-7.3 -7.3,-19.1 0,-26.4l73.6,-73.8c7.3,-7.3 19.1,-7.3 26.4,0c7.3,7.3 7.3,19.1 0,26.4l-73.6,73.6c-7.2,7.5 -19.1,7.5 -26.4,0.2z"/>
  </g>
  <g id="svg_310" stroke-width="2.1221" stroke-miterlimit="10" stroke="#fff" opacity="0.2" fill="none">
   <path id="svg_295" d="m248.5,418.13051l-114.1,114"/>
   <path id="svg_296" d="m239.4,409.03051l-114.1,114"/>
   <path id="svg_297" d="m230.3,399.93051l-114.1,113.8"/>
   <path id="svg_298" d="m221.2,390.83051l-114.1,113.8"/>
   <path id="svg_299" d="m212.1,381.53051l-114.1,114"/>
   <path id="svg_300" d="m203,372.43051l-114.1,114"/>
   <path id="svg_301" d="m193.9,363.33051l-114.1,114"/>
   <path id="svg_302" d="m184.6,354.23051l-113.9,114"/>
   <path id="svg_303" d="m175.5,345.13051l-113.9,114"/>
   <path id="svg_304" d="m166.4,336.03051l-114.1,114"/>
   <path id="svg_305" d="m157.3,326.93051l-114.1,114"/>
   <path id="svg_306" d="m148.2,317.83051l-114.1,114"/>
   <path id="svg_307" d="m139.1,308.73051l-114.1,114"/>
   <path id="svg_308" d="m130,299.63051l-114.1,114"/>
   <path id="svg_309" d="m120.9,290.53051l-114.1,113.8"/>
  </g>
 </g>
</svg>